G04*
G04 #@! TF.GenerationSoftware,Altium Limited,Altium Designer,21.6.1 (37)*
G04*
G04 Layer_Physical_Order=1*
G04 Layer_Color=255*
%FSLAX25Y25*%
%MOIN*%
G70*
G04*
G04 #@! TF.SameCoordinates,52293247-6156-4BB5-AEA0-72ABDA420298*
G04*
G04*
G04 #@! TF.FilePolarity,Positive*
G04*
G01*
G75*
%ADD10C,0.01000*%
%ADD14C,0.02000*%
%ADD17C,0.01500*%
%ADD43R,0.02756X0.03543*%
%ADD44R,0.04331X0.03937*%
%ADD45R,0.05118X0.05906*%
%ADD46C,0.03937*%
%ADD47R,0.03543X0.03543*%
%ADD48R,0.03543X0.02756*%
%ADD49O,0.02362X0.08661*%
G04:AMPARAMS|DCode=50|XSize=17.72mil|YSize=55.12mil|CornerRadius=1.95mil|HoleSize=0mil|Usage=FLASHONLY|Rotation=180.000|XOffset=0mil|YOffset=0mil|HoleType=Round|Shape=RoundedRectangle|*
%AMROUNDEDRECTD50*
21,1,0.01772,0.05122,0,0,180.0*
21,1,0.01382,0.05512,0,0,180.0*
1,1,0.00390,-0.00691,0.02561*
1,1,0.00390,0.00691,0.02561*
1,1,0.00390,0.00691,-0.02561*
1,1,0.00390,-0.00691,-0.02561*
%
%ADD50ROUNDEDRECTD50*%
%ADD51R,0.05906X0.05118*%
%ADD52R,0.03150X0.03543*%
%ADD53R,0.03937X0.04331*%
%ADD54R,0.02362X0.04528*%
%ADD55R,0.04724X0.03000*%
%ADD56C,0.01181*%
%ADD57C,0.04000*%
%ADD58C,0.05512*%
%ADD59R,0.05906X0.05906*%
%ADD60C,0.05906*%
%ADD61C,0.10000*%
%ADD62R,0.10000X0.10000*%
%ADD63C,0.06000*%
G04:AMPARAMS|DCode=64|XSize=118.11mil|YSize=118.11mil|CornerRadius=29.53mil|HoleSize=0mil|Usage=FLASHONLY|Rotation=0.000|XOffset=0mil|YOffset=0mil|HoleType=Round|Shape=RoundedRectangle|*
%AMROUNDEDRECTD64*
21,1,0.11811,0.05906,0,0,0.0*
21,1,0.05906,0.11811,0,0,0.0*
1,1,0.05906,0.02953,-0.02953*
1,1,0.05906,-0.02953,-0.02953*
1,1,0.05906,-0.02953,0.02953*
1,1,0.05906,0.02953,0.02953*
%
%ADD64ROUNDEDRECTD64*%
%ADD65C,0.04724*%
%ADD66C,0.01968*%
G36*
X186000Y358435D02*
X184919Y357353D01*
X184587Y356857D01*
X184471Y356272D01*
Y291445D01*
X184587Y290860D01*
X184919Y290364D01*
X192364Y282919D01*
X192860Y282587D01*
X193445Y282471D01*
X231307D01*
X235471Y278307D01*
Y252799D01*
X234331D01*
Y251577D01*
X230307D01*
X229722Y251460D01*
X229226Y251129D01*
X227511Y249414D01*
X227180Y248918D01*
X227063Y248333D01*
Y241462D01*
X220411Y234810D01*
X206238D01*
X205757Y235290D01*
X205105Y235667D01*
X204377Y235862D01*
X203623D01*
X202895Y235667D01*
X202819Y235623D01*
X202067Y236375D01*
Y241728D01*
X202925D01*
Y246272D01*
X199169D01*
Y241728D01*
X200028D01*
Y235953D01*
X200105Y235563D01*
X200326Y235232D01*
X201377Y234181D01*
X201333Y234105D01*
X201138Y233377D01*
Y232623D01*
X201333Y231895D01*
X201710Y231243D01*
X202243Y230710D01*
X202895Y230333D01*
X203623Y230138D01*
X204377D01*
X205105Y230333D01*
X205757Y230710D01*
X206290Y231243D01*
X206584Y231751D01*
X221044D01*
X221630Y231867D01*
X222126Y232199D01*
X229674Y239747D01*
X230005Y240243D01*
X230122Y240828D01*
Y247699D01*
X230941Y248518D01*
X234331D01*
Y246681D01*
X241237D01*
Y248518D01*
X252791D01*
Y248169D01*
X257335D01*
Y248518D01*
X276726D01*
Y239024D01*
X276001Y238605D01*
X275395Y237999D01*
X274966Y237257D01*
X274744Y236429D01*
Y235571D01*
X274966Y234743D01*
X275395Y234001D01*
X276001Y233395D01*
X276743Y232966D01*
X277571Y232744D01*
X278429D01*
X279257Y232966D01*
X279999Y233395D01*
X280605Y234001D01*
X281024Y234725D01*
X287074D01*
X309172Y212628D01*
Y198275D01*
X281024D01*
X280605Y198999D01*
X279999Y199605D01*
X279257Y200034D01*
X278429Y200256D01*
X277571D01*
X276743Y200034D01*
X276001Y199605D01*
X275395Y198999D01*
X274966Y198257D01*
X274744Y197429D01*
Y196571D01*
X274966Y195743D01*
X275395Y195001D01*
X276001Y194395D01*
X276743Y193966D01*
X277571Y193744D01*
X278429D01*
X279257Y193966D01*
X279999Y194395D01*
X280605Y195001D01*
X281024Y195726D01*
X309172D01*
Y189469D01*
X307681D01*
Y184531D01*
X309172D01*
Y159274D01*
X281024D01*
X280605Y159999D01*
X279999Y160605D01*
X279257Y161034D01*
X278429Y161256D01*
X277571D01*
X276743Y161034D01*
X276001Y160605D01*
X275395Y159999D01*
X274966Y159257D01*
X274744Y158429D01*
Y157571D01*
X274966Y156743D01*
X275395Y156001D01*
X276001Y155395D01*
X276743Y154966D01*
X277571Y154744D01*
X278429D01*
X279257Y154966D01*
X279999Y155395D01*
X280605Y156001D01*
X281024Y156726D01*
X309172D01*
Y150469D01*
X307500D01*
Y145531D01*
X312831D01*
Y150469D01*
X311721D01*
Y158000D01*
Y184531D01*
X313012D01*
Y189469D01*
X311721D01*
Y197000D01*
Y213156D01*
X311624Y213643D01*
X311348Y214057D01*
X288503Y236901D01*
X288090Y237177D01*
X287602Y237275D01*
X281024D01*
X280605Y237999D01*
X279999Y238605D01*
X279275Y239024D01*
Y249028D01*
X282394D01*
X282784Y249105D01*
X283115Y249326D01*
X284777Y250988D01*
X288469D01*
Y256319D01*
X283531D01*
Y252627D01*
X281971Y251067D01*
X279123D01*
X279081Y251129D01*
X278585Y251460D01*
X278000Y251577D01*
X257335D01*
Y251925D01*
X252791D01*
Y251577D01*
X241237D01*
Y252799D01*
X238529D01*
Y278941D01*
X238413Y279526D01*
X238081Y280022D01*
X233022Y285081D01*
X232526Y285413D01*
X231941Y285529D01*
X194078D01*
X187529Y292078D01*
Y293000D01*
X221337D01*
X223974Y290364D01*
X224470Y290032D01*
X225055Y289915D01*
X234772D01*
X250791Y273897D01*
X251287Y273565D01*
X251872Y273449D01*
X252713D01*
Y272033D01*
X257256D01*
Y273443D01*
X270932D01*
Y272209D01*
X274294D01*
Y273443D01*
X283728D01*
Y273075D01*
X288272D01*
Y273933D01*
X294625D01*
X297980Y270578D01*
Y248098D01*
X297743Y248034D01*
X297001Y247605D01*
X296395Y246999D01*
X295966Y246257D01*
X295744Y245429D01*
Y244571D01*
X295966Y243743D01*
X296395Y243001D01*
X297001Y242395D01*
X297743Y241966D01*
X298571Y241744D01*
X299429D01*
X300257Y241966D01*
X300999Y242395D01*
X301605Y243001D01*
X302034Y243743D01*
X302256Y244571D01*
Y245429D01*
X302034Y246257D01*
X301605Y246999D01*
X300999Y247605D01*
X300257Y248034D01*
X300020Y248098D01*
Y271000D01*
X299942Y271390D01*
X299721Y271721D01*
X295768Y275674D01*
X295437Y275895D01*
X295047Y275972D01*
X288272D01*
Y276831D01*
X283728D01*
Y276502D01*
X274294D01*
Y277736D01*
X270932D01*
Y276502D01*
X257256D01*
Y276576D01*
X252713D01*
X252713Y276576D01*
Y276576D01*
X252713Y276576D01*
X252278Y276734D01*
X236513Y292500D01*
X236521Y292612D01*
X236678Y293000D01*
X247220D01*
X248660Y292230D01*
X250543Y291659D01*
X252500Y291466D01*
Y291466D01*
X252584Y291483D01*
X308000D01*
X308963Y291675D01*
X309780Y292220D01*
X310301Y293000D01*
X329235D01*
X329235Y130482D01*
X322518Y123765D01*
X126301D01*
X120765Y129301D01*
X120765Y387219D01*
X126301Y392755D01*
X186000D01*
Y358435D01*
D02*
G37*
%LPC*%
G36*
X134489Y380405D02*
X133227D01*
X131990Y380159D01*
X130824Y379677D01*
X129775Y378976D01*
X128883Y378083D01*
X128182Y377034D01*
X127699Y375868D01*
X127453Y374631D01*
Y373369D01*
X127699Y372132D01*
X128182Y370966D01*
X128883Y369917D01*
X129775Y369024D01*
X130824Y368323D01*
X131990Y367841D01*
X133227Y367595D01*
X134489D01*
X135727Y367841D01*
X136892Y368323D01*
X137942Y369024D01*
X138834Y369917D01*
X139535Y370966D01*
X140018Y372132D01*
X140264Y373369D01*
Y374631D01*
X140018Y375868D01*
X139535Y377034D01*
X138834Y378083D01*
X137942Y378976D01*
X136892Y379677D01*
X135727Y380159D01*
X134489Y380405D01*
D02*
G37*
G36*
X154772Y351831D02*
X151713D01*
Y348378D01*
X154772D01*
Y351831D01*
D02*
G37*
G36*
X150713D02*
X147653D01*
Y348378D01*
X150713D01*
Y351831D01*
D02*
G37*
G36*
X154772Y347378D02*
X151713D01*
Y343925D01*
X154772D01*
Y347378D01*
D02*
G37*
G36*
X150713D02*
X147653D01*
Y343925D01*
X150713D01*
Y347378D01*
D02*
G37*
G36*
X141425Y342772D02*
X139547D01*
Y340500D01*
X141425D01*
Y342772D01*
D02*
G37*
G36*
X138547D02*
X136669D01*
Y340500D01*
X138547D01*
Y342772D01*
D02*
G37*
G36*
X141425Y339500D02*
X139547D01*
Y337228D01*
X141425D01*
Y339500D01*
D02*
G37*
G36*
X138547D02*
X136669D01*
Y337228D01*
X138547D01*
Y339500D01*
D02*
G37*
G36*
X157831Y342272D02*
X154075D01*
Y337728D01*
X154480D01*
Y335739D01*
X154158Y335523D01*
X153786Y334967D01*
X153656Y334311D01*
Y328012D01*
X153786Y327356D01*
X154158Y326800D01*
X154714Y326428D01*
X155370Y326298D01*
X156026Y326428D01*
X156582Y326800D01*
X156953Y327356D01*
X157084Y328012D01*
Y330482D01*
X161501D01*
X161891Y330559D01*
X162222Y330780D01*
X164957Y333515D01*
X165457Y333308D01*
Y333075D01*
X170000D01*
Y336831D01*
X165457D01*
Y335972D01*
X164953D01*
X164563Y335895D01*
X164232Y335674D01*
X161079Y332521D01*
X157084D01*
Y334311D01*
X156953Y334967D01*
X156582Y335523D01*
X156520Y335564D01*
Y337728D01*
X157831D01*
Y342272D01*
D02*
G37*
G36*
X140870Y336435D02*
Y331661D01*
X142594D01*
Y334311D01*
X142424Y335162D01*
X141942Y335883D01*
X141221Y336366D01*
X140870Y336435D01*
D02*
G37*
G36*
X139870D02*
X139519Y336366D01*
X138797Y335883D01*
X138315Y335162D01*
X138146Y334311D01*
Y331661D01*
X139870D01*
Y336435D01*
D02*
G37*
G36*
X151925Y342272D02*
X148169D01*
Y337728D01*
X149480D01*
Y335739D01*
X149158Y335523D01*
X148786Y334967D01*
X148656Y334311D01*
Y328012D01*
X148786Y327356D01*
X149158Y326800D01*
X149714Y326428D01*
X150370Y326298D01*
X151026Y326428D01*
X151582Y326800D01*
X151953Y327356D01*
X152084Y328012D01*
Y334311D01*
X151953Y334967D01*
X151582Y335523D01*
X151520Y335564D01*
Y337728D01*
X151925D01*
Y342272D01*
D02*
G37*
G36*
X142594Y330661D02*
X140870D01*
Y325887D01*
X141221Y325957D01*
X141942Y326439D01*
X142424Y327161D01*
X142594Y328012D01*
Y330661D01*
D02*
G37*
G36*
X139870D02*
X138146D01*
Y328012D01*
X138315Y327161D01*
X138797Y326439D01*
X139519Y325957D01*
X139870Y325887D01*
Y330661D01*
D02*
G37*
G36*
X167953Y317240D02*
X164500D01*
Y314181D01*
X167953D01*
Y317240D01*
D02*
G37*
G36*
X163500D02*
X160047D01*
Y314181D01*
X163500D01*
Y317240D01*
D02*
G37*
G36*
X164331Y303772D02*
X162256D01*
Y301500D01*
X164331D01*
Y303772D01*
D02*
G37*
G36*
X161256D02*
X159181D01*
Y301500D01*
X161256D01*
Y303772D01*
D02*
G37*
G36*
X164331Y300500D02*
X162256D01*
Y298228D01*
X164331D01*
Y300500D01*
D02*
G37*
G36*
X161256D02*
X159181D01*
Y298228D01*
X161256D01*
Y300500D01*
D02*
G37*
G36*
X145370Y317127D02*
X144714Y316997D01*
X144158Y316625D01*
X143786Y316069D01*
X143656Y315413D01*
Y309114D01*
X143786Y308458D01*
X144158Y307902D01*
X144480Y307686D01*
Y303272D01*
X144169D01*
Y298728D01*
X144288D01*
Y296272D01*
X144169D01*
Y295020D01*
X141967D01*
X141577Y294942D01*
X141246Y294721D01*
X139469Y292943D01*
X137287D01*
Y293967D01*
X132744D01*
Y292923D01*
X131256D01*
Y293947D01*
X126713D01*
Y289403D01*
X131256D01*
Y290884D01*
X132744D01*
Y289424D01*
X137287D01*
Y290904D01*
X139891D01*
X140281Y290982D01*
X140612Y291203D01*
X142390Y292980D01*
X144169D01*
Y291728D01*
X147925D01*
Y296272D01*
X146327D01*
Y298728D01*
X147925D01*
Y303272D01*
X146520D01*
Y307861D01*
X146582Y307902D01*
X146953Y308458D01*
X147084Y309114D01*
Y315413D01*
X146953Y316069D01*
X146582Y316625D01*
X146026Y316997D01*
X145370Y317127D01*
D02*
G37*
G36*
X216500Y279254D02*
Y276000D01*
X219754D01*
X219500Y276950D01*
X219005Y277806D01*
X218306Y278505D01*
X217450Y279000D01*
X216500Y279254D01*
D02*
G37*
G36*
X215500D02*
X214550Y279000D01*
X213694Y278505D01*
X212995Y277806D01*
X212500Y276950D01*
X212246Y276000D01*
X215500D01*
Y279254D01*
D02*
G37*
G36*
X219754Y275000D02*
X216500D01*
Y271746D01*
X217450Y272000D01*
X218306Y272495D01*
X219005Y273194D01*
X219500Y274050D01*
X219754Y275000D01*
D02*
G37*
G36*
X215500D02*
X212246D01*
X212500Y274050D01*
X212995Y273194D01*
X213694Y272495D01*
X214550Y272000D01*
X215500Y271746D01*
Y275000D01*
D02*
G37*
G36*
X317631Y280405D02*
X316369D01*
X315132Y280159D01*
X313966Y279677D01*
X312917Y278976D01*
X312024Y278083D01*
X311323Y277034D01*
X310841Y275868D01*
X310595Y274631D01*
Y273369D01*
X310841Y272132D01*
X311323Y270966D01*
X312024Y269917D01*
X312917Y269024D01*
X313966Y268323D01*
X315132Y267841D01*
X316369Y267595D01*
X317631D01*
X318868Y267841D01*
X320034Y268323D01*
X321083Y269024D01*
X321975Y269917D01*
X322676Y270966D01*
X323159Y272132D01*
X323406Y273369D01*
Y274631D01*
X323159Y275868D01*
X322676Y277034D01*
X321975Y278083D01*
X321083Y278976D01*
X320034Y279677D01*
X318868Y280159D01*
X317631Y280405D01*
D02*
G37*
G36*
X278534Y269378D02*
X276853D01*
Y266614D01*
X278534D01*
Y269378D01*
D02*
G37*
G36*
X275853D02*
X274172D01*
Y266614D01*
X275853D01*
Y269378D01*
D02*
G37*
G36*
X278534Y265614D02*
X276853D01*
Y262850D01*
X278534D01*
Y265614D01*
D02*
G37*
G36*
X275853D02*
X274172D01*
Y262850D01*
X275853D01*
Y265614D01*
D02*
G37*
G36*
X288272Y270925D02*
X283728D01*
Y267169D01*
X284980D01*
Y263012D01*
X283531D01*
Y257681D01*
X288469D01*
Y263012D01*
X287020D01*
Y267169D01*
X288272D01*
Y270925D01*
D02*
G37*
G36*
X270553Y268878D02*
X267191D01*
Y263350D01*
X267853D01*
Y257272D01*
X267075D01*
Y252728D01*
X270831D01*
Y257272D01*
X269892D01*
Y263107D01*
X269944Y263117D01*
X270274Y263338D01*
X270283Y263350D01*
X270553D01*
Y263961D01*
X270573Y264059D01*
Y265433D01*
X270553Y265532D01*
Y268878D01*
D02*
G37*
G36*
X257256Y265947D02*
X252713D01*
Y261403D01*
X253471D01*
Y257831D01*
X252791D01*
Y254075D01*
X257232Y254075D01*
X257507Y253716D01*
X257535Y253658D01*
X257742Y253159D01*
X258159Y252742D01*
X258705Y252516D01*
X259295D01*
X259841Y252742D01*
X260080Y252980D01*
X261169D01*
Y252728D01*
X264925D01*
Y257272D01*
X261169D01*
Y255020D01*
X260080D01*
X259841Y255258D01*
X259295Y255484D01*
X258705D01*
X258159Y255258D01*
X257835Y254934D01*
X257399Y255048D01*
X257335Y255087D01*
Y257831D01*
X256529D01*
Y261403D01*
X257256D01*
Y265947D01*
D02*
G37*
G36*
X215972Y246468D02*
X210642D01*
Y245020D01*
X208831D01*
Y246272D01*
X205075D01*
Y241728D01*
X208831D01*
Y242980D01*
X210642D01*
Y241531D01*
X215972D01*
Y246468D01*
D02*
G37*
G36*
X223165Y246969D02*
X220500D01*
Y244500D01*
X223165D01*
Y246969D01*
D02*
G37*
G36*
X219500D02*
X216835D01*
Y244500D01*
X219500D01*
Y246969D01*
D02*
G37*
G36*
X241737Y245819D02*
X238284D01*
Y242760D01*
X241737D01*
Y245819D01*
D02*
G37*
G36*
X237284D02*
X233832D01*
Y242760D01*
X237284D01*
Y245819D01*
D02*
G37*
G36*
X223165Y243500D02*
X220500D01*
Y241032D01*
X223165D01*
Y243500D01*
D02*
G37*
G36*
X219500D02*
X216835D01*
Y241032D01*
X219500D01*
Y243500D01*
D02*
G37*
G36*
X241737Y241760D02*
X238284D01*
Y238701D01*
X241737D01*
Y241760D01*
D02*
G37*
G36*
X237284D02*
X233832D01*
Y238701D01*
X237284D01*
Y241760D01*
D02*
G37*
G36*
X150953Y243000D02*
X145453D01*
Y237500D01*
X150953D01*
Y243000D01*
D02*
G37*
G36*
X144453D02*
X138953D01*
Y237500D01*
X144453D01*
Y243000D01*
D02*
G37*
G36*
X258500Y239754D02*
Y236500D01*
X261754D01*
X261500Y237450D01*
X261005Y238306D01*
X260306Y239005D01*
X259450Y239500D01*
X258500Y239754D01*
D02*
G37*
G36*
X257500D02*
X256550Y239500D01*
X255694Y239005D01*
X254995Y238306D01*
X254500Y237450D01*
X254246Y236500D01*
X257500D01*
Y239754D01*
D02*
G37*
G36*
X261754Y235500D02*
X258500D01*
Y232246D01*
X259450Y232500D01*
X260306Y232995D01*
X261005Y233694D01*
X261500Y234550D01*
X261754Y235500D01*
D02*
G37*
G36*
X257500D02*
X254246D01*
X254500Y234550D01*
X254995Y233694D01*
X255694Y232995D01*
X256550Y232500D01*
X257500Y232246D01*
Y235500D01*
D02*
G37*
G36*
X150953Y236500D02*
X145453D01*
Y231000D01*
X150953D01*
Y236500D01*
D02*
G37*
G36*
X144453D02*
X138953D01*
Y231000D01*
X144453D01*
Y236500D01*
D02*
G37*
G36*
X146791Y351331D02*
X140673D01*
Y344425D01*
X144480D01*
Y342272D01*
X143075D01*
Y337728D01*
X144480D01*
Y335739D01*
X144158Y335523D01*
X143786Y334967D01*
X143656Y334311D01*
Y328012D01*
X143786Y327356D01*
X144158Y326800D01*
X144350Y326671D01*
Y325883D01*
X132232Y313765D01*
X132011Y313434D01*
X131933Y313044D01*
Y312272D01*
X131075D01*
Y307728D01*
X134831D01*
Y312272D01*
X134329D01*
X134122Y312772D01*
X139225Y317874D01*
X139613Y317555D01*
X139558Y317473D01*
X139480Y317083D01*
Y316841D01*
X139158Y316625D01*
X138786Y316069D01*
X138656Y315413D01*
Y309114D01*
X138786Y308458D01*
X139158Y307902D01*
X139350Y307774D01*
Y306422D01*
X137716Y304788D01*
X137287Y304597D01*
Y304597D01*
X137287Y304597D01*
X132744D01*
Y303553D01*
X131256D01*
Y304576D01*
X126713D01*
Y300033D01*
X131256D01*
Y301514D01*
X132744D01*
Y300054D01*
X137287D01*
Y301606D01*
X137313Y301612D01*
X137644Y301833D01*
X141091Y305279D01*
X141312Y305610D01*
X141389Y306000D01*
Y307774D01*
X141582Y307902D01*
X141953Y308458D01*
X142084Y309114D01*
Y315413D01*
X141953Y316069D01*
X141582Y316625D01*
X141573Y316714D01*
X147792Y322933D01*
X150997D01*
X151204Y322433D01*
X149649Y320878D01*
X149428Y320547D01*
X149350Y320157D01*
Y316754D01*
X149158Y316625D01*
X148786Y316069D01*
X148656Y315413D01*
Y309114D01*
X148786Y308458D01*
X149158Y307902D01*
X149480Y307686D01*
Y302453D01*
X149558Y302063D01*
X149779Y301732D01*
X150075Y301436D01*
Y298728D01*
X153669D01*
X154169Y298728D01*
X154331Y298728D01*
X155225D01*
Y288272D01*
X154020D01*
Y290071D01*
X153942Y290461D01*
X153721Y290792D01*
X153285Y291228D01*
X153492Y291728D01*
X153831D01*
Y296272D01*
X150075D01*
Y291728D01*
X150933D01*
Y291118D01*
X151011Y290728D01*
X151232Y290397D01*
X151980Y289649D01*
Y288711D01*
X151834Y288272D01*
X151480Y288272D01*
X148078D01*
Y287529D01*
X132383D01*
X131798Y287413D01*
X131301Y287081D01*
X131239Y287020D01*
X125585D01*
Y306096D01*
X127217Y307728D01*
X128925D01*
Y312272D01*
X125169D01*
Y308564D01*
X123845Y307239D01*
X123624Y306909D01*
X123546Y306518D01*
Y286586D01*
X123624Y286196D01*
X123845Y285865D01*
X124431Y285279D01*
X124761Y285058D01*
X125152Y284980D01*
X130471D01*
Y219962D01*
X130587Y219377D01*
X130919Y218881D01*
X133880Y215919D01*
X134377Y215587D01*
X134962Y215471D01*
X139669D01*
X139828Y214877D01*
X140552Y213623D01*
X141576Y212599D01*
X142830Y211875D01*
X144229Y211500D01*
X145677D01*
X147076Y211875D01*
X148330Y212599D01*
X149354Y213623D01*
X150078Y214877D01*
X150237Y215471D01*
X154715D01*
Y185896D01*
X154831Y185311D01*
X155163Y184815D01*
X157531Y182446D01*
Y181509D01*
X157907Y180602D01*
X158602Y179907D01*
X159509Y179532D01*
X160491D01*
X161398Y179907D01*
X161962Y180471D01*
X163547D01*
Y179201D01*
X170453D01*
Y185319D01*
X163547D01*
Y183529D01*
X161962D01*
X161398Y184093D01*
X160491Y184468D01*
X159835D01*
X157773Y186530D01*
Y216367D01*
X172878Y231471D01*
X176578D01*
X176710Y231243D01*
X177243Y230710D01*
X177895Y230333D01*
X178623Y230138D01*
X179377D01*
X180105Y230333D01*
X180757Y230710D01*
X181290Y231243D01*
X181667Y231895D01*
X181862Y232623D01*
Y233377D01*
X181667Y234105D01*
X181290Y234757D01*
X180757Y235290D01*
X180105Y235667D01*
X179377Y235862D01*
X178623D01*
X177895Y235667D01*
X177243Y235290D01*
X176710Y234757D01*
X176578Y234529D01*
X172244D01*
X171659Y234413D01*
X171163Y234081D01*
X155611Y218529D01*
X150237D01*
X150078Y219123D01*
X149354Y220377D01*
X148330Y221401D01*
X147076Y222125D01*
X145677Y222500D01*
X144229D01*
X142830Y222125D01*
X141576Y221401D01*
X140552Y220377D01*
X139828Y219123D01*
X139669Y218529D01*
X135596D01*
X133529Y220596D01*
Y284471D01*
X148078D01*
Y283728D01*
X151834Y283728D01*
X151980Y283289D01*
Y266500D01*
X152058Y266110D01*
X152279Y265779D01*
X154779Y263279D01*
X155110Y263058D01*
X155500Y262980D01*
X157699D01*
X157782Y262667D01*
X158237Y261880D01*
X158880Y261237D01*
X159667Y260783D01*
X160545Y260547D01*
X161455D01*
X162333Y260783D01*
X163120Y261237D01*
X163763Y261880D01*
X164217Y262667D01*
X164301Y262980D01*
X164953D01*
X165343Y263058D01*
X165674Y263279D01*
X168449Y266055D01*
X168526Y266169D01*
X171272D01*
Y269925D01*
X166728D01*
Y267268D01*
X166716Y267205D01*
X164758Y265247D01*
X164319Y265317D01*
X164188Y265384D01*
X163763Y266120D01*
X163120Y266763D01*
X162333Y267217D01*
X161455Y267453D01*
X160545D01*
X159667Y267217D01*
X158880Y266763D01*
X158237Y266120D01*
X157782Y265333D01*
X157699Y265020D01*
X155922D01*
X154020Y266922D01*
Y283728D01*
X157739D01*
Y288272D01*
X157264D01*
Y298728D01*
X158319D01*
Y303272D01*
X156520D01*
Y307861D01*
X156582Y307902D01*
X156953Y308458D01*
X157084Y309114D01*
Y309980D01*
X160547D01*
Y307201D01*
X167453D01*
Y313319D01*
X160547D01*
Y312020D01*
X157084D01*
Y315413D01*
X156953Y316069D01*
X156582Y316625D01*
X156026Y316997D01*
X155370Y317127D01*
X154714Y316997D01*
X154158Y316625D01*
X153786Y316069D01*
X153656Y315413D01*
Y309114D01*
X153786Y308458D01*
X154158Y307902D01*
X154480Y307686D01*
Y303625D01*
X154127Y303272D01*
X153831Y303272D01*
X153669Y303272D01*
X151520D01*
Y307861D01*
X151582Y307902D01*
X151953Y308458D01*
X152084Y309114D01*
Y315413D01*
X151953Y316069D01*
X151582Y316625D01*
X151389Y316754D01*
Y319735D01*
X152756Y321102D01*
X160047D01*
Y318240D01*
X164000D01*
X167953D01*
Y319783D01*
X168415Y319975D01*
X172531Y315858D01*
Y297110D01*
X169057Y293636D01*
X165956D01*
Y289881D01*
X165479Y289825D01*
X163806D01*
X163416Y289748D01*
X163085Y289527D01*
X160279Y286721D01*
X160058Y286390D01*
X159980Y286000D01*
Y277453D01*
X157547D01*
Y270547D01*
X164453D01*
Y272980D01*
X166728D01*
Y272075D01*
X171272D01*
Y272579D01*
X171772Y272786D01*
X173252Y271306D01*
Y254232D01*
X173330Y253842D01*
X173551Y253511D01*
X185595Y241467D01*
Y208298D01*
X182047Y204751D01*
X181826Y204420D01*
X181748Y204030D01*
Y200452D01*
X181724Y200430D01*
X181286Y200239D01*
X181171Y200283D01*
X180900Y200336D01*
X179518D01*
X179247Y200283D01*
X179017Y200129D01*
X178863Y199899D01*
X178809Y199628D01*
Y194506D01*
X178863Y194235D01*
X179017Y194005D01*
X178718Y193621D01*
X173551Y188454D01*
X173330Y188124D01*
X173252Y187733D01*
Y146080D01*
X173012Y145840D01*
X172786Y145294D01*
Y144704D01*
X173012Y144158D01*
X173430Y143741D01*
X173975Y143515D01*
X174566D01*
X175111Y143741D01*
X175529Y144158D01*
X175568Y144254D01*
X176158Y144372D01*
X176846Y143684D01*
Y143346D01*
X177072Y142801D01*
X177489Y142383D01*
X178035Y142157D01*
X178625D01*
X179171Y142383D01*
X179588Y142801D01*
X179814Y143346D01*
Y143937D01*
X179744Y144107D01*
X180168Y144390D01*
X181488Y143070D01*
Y142737D01*
X181250Y142498D01*
X181024Y141953D01*
Y141362D01*
X181250Y140817D01*
X181667Y140399D01*
X181500Y140028D01*
Y137000D01*
X180500D01*
Y139939D01*
X179854Y139766D01*
X179177Y139375D01*
X178625Y138823D01*
X178234Y138146D01*
X178032Y137391D01*
Y137332D01*
X177532Y137043D01*
X177146Y137266D01*
X176500Y137439D01*
Y134500D01*
Y131561D01*
X177146Y131734D01*
X177823Y132125D01*
X178032Y132333D01*
X178532Y132126D01*
Y131509D01*
X178907Y130602D01*
X179602Y129907D01*
X179980Y129750D01*
Y128252D01*
X180058Y127862D01*
X180279Y127531D01*
X181531Y126279D01*
X181862Y126058D01*
X182252Y125980D01*
X208000D01*
X208390Y126058D01*
X208721Y126279D01*
X211704Y129262D01*
X211925Y129593D01*
X212003Y129983D01*
Y141795D01*
X211925Y142185D01*
X211704Y142516D01*
X210157Y144064D01*
Y145598D01*
X213933D01*
Y144618D01*
X215776D01*
Y143443D01*
X215853Y143053D01*
X216074Y142722D01*
X220935Y137862D01*
X221266Y137641D01*
X221656Y137563D01*
X225476D01*
Y136311D01*
X229626D01*
Y140854D01*
X225476D01*
Y139602D01*
X222078D01*
X217815Y143865D01*
Y144618D01*
X219657D01*
Y145598D01*
X238342D01*
Y144618D01*
X244067D01*
Y148618D01*
X238342D01*
Y147638D01*
X219657D01*
Y148618D01*
X213933D01*
Y147638D01*
X210157D01*
Y153787D01*
X211015D01*
Y158331D01*
X207259D01*
Y153787D01*
X208117D01*
Y146618D01*
Y143641D01*
X208195Y143251D01*
X208416Y142920D01*
X209964Y141373D01*
Y130406D01*
X207578Y128020D01*
X182674D01*
X182020Y128674D01*
Y129750D01*
X182398Y129907D01*
X183093Y130602D01*
X183229Y130932D01*
X183771D01*
X183907Y130602D01*
X184602Y129907D01*
X185509Y129532D01*
X186491D01*
X187398Y129907D01*
X188093Y130602D01*
X188229Y130932D01*
X188771D01*
X188907Y130602D01*
X189602Y129907D01*
X190509Y129532D01*
X191491D01*
X192398Y129907D01*
X193093Y130602D01*
X193229Y130932D01*
X193771D01*
X193907Y130602D01*
X194602Y129907D01*
X195509Y129532D01*
X196491D01*
X197398Y129907D01*
X198093Y130602D01*
X198229Y130932D01*
X198771D01*
X198907Y130602D01*
X199602Y129907D01*
X200509Y129532D01*
X201491D01*
X202398Y129907D01*
X203093Y130602D01*
X203468Y131509D01*
Y132126D01*
X203969Y132333D01*
X204177Y132125D01*
X204854Y131734D01*
X205500Y131561D01*
Y134500D01*
Y137439D01*
X204854Y137266D01*
X204177Y136875D01*
X203969Y136667D01*
X203468Y136874D01*
Y137491D01*
X203093Y138398D01*
X202398Y139093D01*
X202020Y139250D01*
Y143964D01*
X203953Y145897D01*
X204173Y146228D01*
X204251Y146618D01*
Y153787D01*
X205110D01*
Y158331D01*
X201354D01*
Y157079D01*
X194102D01*
Y158331D01*
X193244D01*
Y159414D01*
X193166Y159804D01*
X192945Y160135D01*
X192502Y160579D01*
X192703Y161079D01*
X194107D01*
Y163350D01*
X191532D01*
X188958D01*
X188958Y161079D01*
X188482Y161020D01*
X187272D01*
Y161579D01*
X188095D01*
Y166122D01*
X186439D01*
Y169790D01*
X186939Y170110D01*
X187195Y170059D01*
X187386D01*
Y173839D01*
Y177618D01*
X187195D01*
X186939Y177567D01*
X186439Y177887D01*
Y179701D01*
X186354Y180126D01*
X186113Y180487D01*
X186113Y180487D01*
X185118Y181482D01*
X185236Y181769D01*
Y182751D01*
X184860Y183658D01*
X184166Y184353D01*
X183259Y184728D01*
X182277D01*
X181369Y184353D01*
X180675Y183658D01*
X180299Y182751D01*
Y181769D01*
X180675Y180862D01*
X181369Y180167D01*
X182277Y179791D01*
X183259D01*
X183545Y179910D01*
X184215Y179240D01*
Y177331D01*
X183731Y177055D01*
X183715Y177057D01*
X183459Y177108D01*
X182077D01*
X181806Y177054D01*
X181488Y176934D01*
X181171Y177054D01*
X180900Y177108D01*
X179518D01*
X179338Y177072D01*
X179005Y177248D01*
X178838Y177382D01*
Y183477D01*
X184081Y188721D01*
X185733D01*
X186123Y188798D01*
X186454Y189019D01*
X188607Y191172D01*
X188828Y191503D01*
X188905Y191893D01*
Y193682D01*
X188930Y193704D01*
X189368Y193895D01*
X189483Y193851D01*
X189754Y193797D01*
X191136D01*
X191407Y193851D01*
X191522Y193895D01*
X191960Y193704D01*
X191984Y193682D01*
Y187712D01*
X192062Y187322D01*
X192283Y186991D01*
X193787Y185487D01*
X193622Y184944D01*
X193610Y184942D01*
X193279Y184721D01*
X189814Y181256D01*
X189593Y180926D01*
X189516Y180535D01*
Y177811D01*
X189050Y177530D01*
X189016Y177531D01*
X188577Y177618D01*
X188386D01*
Y173839D01*
Y170059D01*
X188577D01*
X189043Y170152D01*
X189438Y170416D01*
X189566Y170607D01*
X189754Y170569D01*
X191136D01*
X191407Y170623D01*
X191724Y170743D01*
X192042Y170623D01*
X192313Y170569D01*
X193695D01*
X193966Y170623D01*
X194283Y170743D01*
X194601Y170623D01*
X194872Y170569D01*
X196254D01*
X196525Y170623D01*
X196843Y170743D01*
X197160Y170623D01*
X197431Y170569D01*
X198813D01*
X199084Y170623D01*
X199314Y170777D01*
X199468Y171006D01*
X199522Y171278D01*
Y172819D01*
X202816D01*
X203356Y172279D01*
X203686Y172058D01*
X204077Y171980D01*
X205902D01*
X205966Y171743D01*
X206395Y171001D01*
X207001Y170395D01*
X207743Y169966D01*
X208571Y169744D01*
X209429D01*
X210257Y169966D01*
X210999Y170395D01*
X211605Y171001D01*
X212034Y171743D01*
X212256Y172571D01*
Y173429D01*
X212034Y174257D01*
X211605Y174999D01*
X210999Y175605D01*
X210257Y176034D01*
X209429Y176256D01*
X208571D01*
X207743Y176034D01*
X207001Y175605D01*
X206395Y174999D01*
X205966Y174257D01*
X205902Y174020D01*
X204499D01*
X203959Y174559D01*
X203628Y174781D01*
X203238Y174858D01*
X199522D01*
Y176400D01*
X199468Y176671D01*
X199314Y176901D01*
X199084Y177054D01*
X198813Y177108D01*
X197473D01*
X197391Y177204D01*
X197237Y177579D01*
X197638Y177980D01*
X202640D01*
X202879Y177742D01*
X203425Y177516D01*
X204015D01*
X204560Y177742D01*
X204978Y178159D01*
X205204Y178705D01*
Y179295D01*
X204978Y179841D01*
X204560Y180258D01*
X204015Y180484D01*
X204024Y180980D01*
X209380D01*
X209646Y180480D01*
X209499Y180127D01*
Y179536D01*
X209725Y178991D01*
X210142Y178573D01*
X210688Y178347D01*
X211026D01*
X223980Y165392D01*
Y159414D01*
X224058Y159024D01*
X224279Y158693D01*
X228693Y154279D01*
X229024Y154058D01*
X229414Y153980D01*
X243578D01*
X260279Y137279D01*
X260610Y137058D01*
X261000Y136980D01*
X264902D01*
X264966Y136743D01*
X265395Y136001D01*
X266001Y135395D01*
X266743Y134966D01*
X267571Y134744D01*
X268429D01*
X269257Y134966D01*
X269999Y135395D01*
X270605Y136001D01*
X271034Y136743D01*
X271256Y137571D01*
Y138429D01*
X271034Y139257D01*
X270605Y139999D01*
X269999Y140605D01*
X269257Y141034D01*
X268429Y141256D01*
X267571D01*
X266743Y141034D01*
X266001Y140605D01*
X265395Y139999D01*
X264966Y139257D01*
X264902Y139020D01*
X261422D01*
X244721Y155721D01*
X244390Y155942D01*
X244000Y156020D01*
X229837D01*
X226020Y159836D01*
Y165815D01*
X225942Y166205D01*
X225721Y166536D01*
X212468Y179789D01*
Y180127D01*
X212321Y180480D01*
X212587Y180980D01*
X215902D01*
X222604Y174279D01*
X222934Y174058D01*
X223325Y173980D01*
X225902D01*
X225966Y173743D01*
X226395Y173001D01*
X227001Y172395D01*
X227743Y171966D01*
X228571Y171744D01*
X229429D01*
X230257Y171966D01*
X230999Y172395D01*
X231605Y173001D01*
X232034Y173743D01*
X232098Y173980D01*
X241766D01*
X247074Y168672D01*
Y156868D01*
X247152Y156478D01*
X247373Y156147D01*
X256241Y147279D01*
X256572Y147058D01*
X256962Y146980D01*
X289488D01*
Y145728D01*
X293244D01*
Y150272D01*
X289488D01*
Y149020D01*
X257384D01*
X249113Y157290D01*
Y169095D01*
X249036Y169485D01*
X248815Y169816D01*
X242909Y175721D01*
X242579Y175942D01*
X242189Y176020D01*
X232098D01*
X232034Y176257D01*
X231605Y176999D01*
X230999Y177605D01*
X230257Y178034D01*
X229429Y178256D01*
X228571D01*
X227743Y178034D01*
X227001Y177605D01*
X226395Y176999D01*
X225966Y176257D01*
X225902Y176020D01*
X223747D01*
X217072Y182695D01*
X217045Y182739D01*
Y183261D01*
X217072Y183305D01*
X222747Y188980D01*
X225902D01*
X225966Y188743D01*
X226395Y188001D01*
X227001Y187395D01*
X227743Y186966D01*
X228571Y186744D01*
X229429D01*
X230257Y186966D01*
X230999Y187395D01*
X231605Y188001D01*
X232034Y188743D01*
X232098Y188980D01*
X243152D01*
X261448Y170685D01*
X261779Y170464D01*
X262169Y170386D01*
X286453D01*
X286843Y170464D01*
X287174Y170685D01*
X292768Y176279D01*
X292989Y176610D01*
X293067Y177000D01*
Y184728D01*
X293925D01*
Y189272D01*
X290169D01*
Y184728D01*
X291028D01*
Y177422D01*
X286030Y172425D01*
X262592D01*
X244296Y190721D01*
X243965Y190942D01*
X243575Y191020D01*
X232098D01*
X232034Y191257D01*
X231605Y191999D01*
X230999Y192605D01*
X230257Y193034D01*
X229429Y193256D01*
X228571D01*
X227743Y193034D01*
X227001Y192605D01*
X226395Y191999D01*
X225966Y191257D01*
X225902Y191020D01*
X222499D01*
X222275Y191483D01*
X222273Y191501D01*
X224752Y193980D01*
X245539D01*
X257981Y181539D01*
X258312Y181318D01*
X258702Y181240D01*
X262318D01*
X265089Y178469D01*
X264966Y178257D01*
X264744Y177429D01*
Y176571D01*
X264966Y175743D01*
X265395Y175001D01*
X266001Y174395D01*
X266743Y173966D01*
X267571Y173744D01*
X268429D01*
X269257Y173966D01*
X269999Y174395D01*
X270605Y175001D01*
X271034Y175743D01*
X271256Y176571D01*
Y177429D01*
X271034Y178257D01*
X270605Y178999D01*
X269999Y179605D01*
X269257Y180034D01*
X268429Y180256D01*
X267571D01*
X266743Y180034D01*
X266531Y179911D01*
X263461Y182981D01*
X263130Y183202D01*
X262740Y183279D01*
X259124D01*
X246683Y195721D01*
X246352Y195942D01*
X245962Y196020D01*
X224330D01*
X223940Y195942D01*
X223609Y195721D01*
X214578Y186689D01*
X212479D01*
X212242Y187159D01*
X212468Y187705D01*
Y188295D01*
X212242Y188841D01*
X211824Y189258D01*
X211279Y189484D01*
X210688D01*
X210142Y189258D01*
X209904Y189020D01*
X198922D01*
X196583Y191359D01*
Y193682D01*
X196607Y193704D01*
X197045Y193895D01*
X197160Y193851D01*
X197431Y193797D01*
X198813D01*
X199084Y193851D01*
X199314Y194005D01*
X199468Y194235D01*
X199522Y194506D01*
Y196047D01*
X204236D01*
X204626Y196125D01*
X204957Y196346D01*
X215591Y206980D01*
X260000D01*
X260390Y207058D01*
X260721Y207279D01*
X266531Y213089D01*
X266743Y212966D01*
X267571Y212744D01*
X268429D01*
X269257Y212966D01*
X269999Y213395D01*
X270605Y214001D01*
X271034Y214743D01*
X271256Y215571D01*
Y216429D01*
X271034Y217257D01*
X270605Y217999D01*
X269999Y218605D01*
X269257Y219034D01*
X268429Y219256D01*
X267571D01*
X266743Y219034D01*
X266001Y218605D01*
X265395Y217999D01*
X264966Y217257D01*
X264744Y216429D01*
Y215571D01*
X264966Y214743D01*
X265089Y214531D01*
X259578Y209020D01*
X215169D01*
X214779Y208942D01*
X214448Y208721D01*
X203814Y198087D01*
X199522D01*
Y199628D01*
X199468Y199899D01*
X199314Y200129D01*
X199084Y200283D01*
X198813Y200336D01*
X197431D01*
X197160Y200283D01*
X196843Y200162D01*
X196525Y200283D01*
X196254Y200336D01*
X194872D01*
X194601Y200283D01*
X194283Y200162D01*
X193966Y200283D01*
X193695Y200336D01*
X192313D01*
X192042Y200283D01*
X191927Y200239D01*
X191489Y200430D01*
X191464Y200452D01*
Y212733D01*
X192721Y213990D01*
X192942Y214320D01*
X193020Y214711D01*
Y246305D01*
X192942Y246695D01*
X192721Y247026D01*
X184165Y255581D01*
Y272402D01*
X184403Y272466D01*
X185145Y272895D01*
X185751Y273501D01*
X186180Y274243D01*
X186402Y275071D01*
Y275929D01*
X186180Y276757D01*
X185751Y277499D01*
X185145Y278105D01*
X184403Y278534D01*
X183574Y278756D01*
X182717D01*
X181889Y278534D01*
X181676Y278411D01*
X178367Y281721D01*
X178036Y281942D01*
X177646Y282020D01*
X171412D01*
X169918Y283513D01*
X170109Y283975D01*
X170499D01*
Y287731D01*
X170976Y287786D01*
X171543D01*
X171933Y287864D01*
X172264Y288085D01*
X176005Y291826D01*
X176226Y292156D01*
X176304Y292547D01*
Y316669D01*
X176226Y317059D01*
X176005Y317390D01*
X168748Y324647D01*
Y327169D01*
X170000D01*
Y330925D01*
X165457D01*
Y327169D01*
X166709D01*
Y324972D01*
X147370D01*
X146980Y324895D01*
X146649Y324674D01*
X146645Y324670D01*
X146257Y324989D01*
X146312Y325071D01*
X146389Y325461D01*
Y326671D01*
X146582Y326800D01*
X146953Y327356D01*
X147084Y328012D01*
Y334311D01*
X146953Y334967D01*
X146582Y335523D01*
X146520Y335564D01*
Y337728D01*
X146831D01*
Y342272D01*
X146520D01*
Y344425D01*
X146791D01*
Y351331D01*
D02*
G37*
G36*
X259295Y247484D02*
X258705D01*
X258159Y247258D01*
X257742Y246841D01*
X257516Y246295D01*
Y245958D01*
X242578Y231020D01*
X222700D01*
X222309Y230942D01*
X221979Y230721D01*
X202999Y211741D01*
X202778Y211410D01*
X202700Y211020D01*
Y205038D01*
X202462Y204799D01*
X202236Y204254D01*
Y203663D01*
X202462Y203118D01*
X202879Y202700D01*
X203425Y202474D01*
X204015D01*
X204560Y202700D01*
X204978Y203118D01*
X205204Y203663D01*
Y204254D01*
X204978Y204799D01*
X204739Y205038D01*
Y210598D01*
X223122Y228980D01*
X243000D01*
X243390Y229058D01*
X243721Y229279D01*
X258958Y244516D01*
X259295D01*
X259841Y244742D01*
X260258Y245159D01*
X260484Y245705D01*
Y246295D01*
X260258Y246841D01*
X259841Y247258D01*
X259295Y247484D01*
D02*
G37*
G36*
X258500Y200754D02*
Y197500D01*
X261754D01*
X261500Y198450D01*
X261005Y199306D01*
X260306Y200006D01*
X259450Y200500D01*
X258500Y200754D01*
D02*
G37*
G36*
X257500D02*
X256550Y200500D01*
X255694Y200006D01*
X254995Y199306D01*
X254500Y198450D01*
X254246Y197500D01*
X257500D01*
Y200754D01*
D02*
G37*
G36*
X261754Y196500D02*
X258500D01*
Y193246D01*
X259450Y193500D01*
X260306Y193994D01*
X261005Y194694D01*
X261500Y195550D01*
X261754Y196500D01*
D02*
G37*
G36*
X257500D02*
X254246D01*
X254500Y195550D01*
X254995Y194694D01*
X255694Y193994D01*
X256550Y193500D01*
X257500Y193246D01*
Y196500D01*
D02*
G37*
G36*
X170953Y193299D02*
X167500D01*
Y190240D01*
X170953D01*
Y193299D01*
D02*
G37*
G36*
X166500D02*
X163047D01*
Y190240D01*
X166500D01*
Y193299D01*
D02*
G37*
G36*
X306319Y189469D02*
X300988D01*
Y188020D01*
X299831D01*
Y189272D01*
X296075D01*
Y184728D01*
X299831D01*
Y185980D01*
X300988D01*
Y184531D01*
X306319D01*
Y189469D01*
D02*
G37*
G36*
X170953Y189240D02*
X167500D01*
Y186181D01*
X170953D01*
Y189240D01*
D02*
G37*
G36*
X166500D02*
X163047D01*
Y186181D01*
X166500D01*
Y189240D01*
D02*
G37*
G36*
X137500Y173586D02*
Y170332D01*
X140754D01*
X140500Y171281D01*
X140006Y172138D01*
X139306Y172837D01*
X138450Y173331D01*
X137500Y173586D01*
D02*
G37*
G36*
X136500D02*
X135550Y173331D01*
X134694Y172837D01*
X133994Y172138D01*
X133500Y171281D01*
X133246Y170332D01*
X136500D01*
Y173586D01*
D02*
G37*
G36*
X140754Y169332D02*
X137500D01*
Y166077D01*
X138450Y166332D01*
X139306Y166826D01*
X140006Y167525D01*
X140500Y168382D01*
X140754Y169332D01*
D02*
G37*
G36*
X136500D02*
X133246D01*
X133500Y168382D01*
X133994Y167525D01*
X134694Y166826D01*
X135550Y166332D01*
X136500Y166077D01*
Y169332D01*
D02*
G37*
G36*
X194107Y166622D02*
X192032D01*
Y164350D01*
X194107D01*
Y166622D01*
D02*
G37*
G36*
X191032D02*
X188958D01*
Y164350D01*
X191032D01*
Y166622D01*
D02*
G37*
G36*
X220158Y163882D02*
X217295D01*
Y161882D01*
X220158D01*
Y163882D01*
D02*
G37*
G36*
X244567D02*
X241705D01*
Y161882D01*
X244567D01*
Y163882D01*
D02*
G37*
G36*
X240705D02*
X237842D01*
Y161882D01*
X240705D01*
Y163882D01*
D02*
G37*
G36*
X216295D02*
X213433D01*
Y161882D01*
X216295D01*
Y163882D01*
D02*
G37*
G36*
X244567Y160882D02*
X241705D01*
Y158882D01*
X244567D01*
Y160882D01*
D02*
G37*
G36*
X240705D02*
X237842D01*
Y158882D01*
X240705D01*
Y160882D01*
D02*
G37*
G36*
X220158D02*
X217295D01*
Y158882D01*
X220158D01*
Y160882D01*
D02*
G37*
G36*
X216295D02*
X213433D01*
Y158882D01*
X216295D01*
Y160882D01*
D02*
G37*
G36*
X258500Y161754D02*
Y158500D01*
X261754D01*
X261500Y159450D01*
X261005Y160306D01*
X260306Y161005D01*
X259450Y161500D01*
X258500Y161754D01*
D02*
G37*
G36*
X257500D02*
X256550Y161500D01*
X255694Y161005D01*
X254995Y160306D01*
X254500Y159450D01*
X254246Y158500D01*
X257500D01*
Y161754D01*
D02*
G37*
G36*
X261754Y157500D02*
X258500D01*
Y154246D01*
X259450Y154500D01*
X260306Y154994D01*
X261005Y155694D01*
X261500Y156550D01*
X261754Y157500D01*
D02*
G37*
G36*
X257500D02*
X254246D01*
X254500Y156550D01*
X254995Y155694D01*
X255694Y154994D01*
X256550Y154500D01*
X257500Y154246D01*
Y157500D01*
D02*
G37*
G36*
X306138Y150469D02*
X300807D01*
Y149020D01*
X299150D01*
Y150272D01*
X295394D01*
Y145728D01*
X299150D01*
Y146980D01*
X300807D01*
Y145531D01*
X306138D01*
Y150469D01*
D02*
G37*
G36*
X235638Y141354D02*
X233563D01*
Y139083D01*
X235638D01*
Y141354D01*
D02*
G37*
G36*
X232563D02*
X230488D01*
Y139083D01*
X232563D01*
Y141354D01*
D02*
G37*
G36*
X134489Y151406D02*
X133227D01*
X131990Y151159D01*
X130824Y150677D01*
X129775Y149976D01*
X128883Y149083D01*
X128182Y148034D01*
X127699Y146868D01*
X127453Y145631D01*
Y144369D01*
X127699Y143132D01*
X128182Y141966D01*
X128883Y140917D01*
X129775Y140024D01*
X130824Y139323D01*
X131990Y138841D01*
X133227Y138594D01*
X134489D01*
X135727Y138841D01*
X136892Y139323D01*
X137942Y140024D01*
X138834Y140917D01*
X139535Y141966D01*
X140018Y143132D01*
X140264Y144369D01*
Y145631D01*
X140018Y146868D01*
X139535Y148034D01*
X138834Y149083D01*
X137942Y149976D01*
X136892Y150677D01*
X135727Y151159D01*
X134489Y151406D01*
D02*
G37*
G36*
X235638Y138083D02*
X233563D01*
Y135811D01*
X235638D01*
Y138083D01*
D02*
G37*
G36*
X232563D02*
X230488D01*
Y135811D01*
X232563D01*
Y138083D01*
D02*
G37*
G36*
X206500Y137439D02*
Y135000D01*
X208939D01*
X208766Y135646D01*
X208375Y136323D01*
X207823Y136875D01*
X207146Y137266D01*
X206500Y137439D01*
D02*
G37*
G36*
X175500D02*
X174854Y137266D01*
X174177Y136875D01*
X173625Y136323D01*
X173234Y135646D01*
X173061Y135000D01*
X175500D01*
Y137439D01*
D02*
G37*
G36*
X208939Y134000D02*
X206500D01*
Y131561D01*
X207146Y131734D01*
X207823Y132125D01*
X208375Y132677D01*
X208766Y133354D01*
X208939Y134000D01*
D02*
G37*
G36*
X175500D02*
X173061D01*
X173234Y133354D01*
X173625Y132677D01*
X174177Y132125D01*
X174854Y131734D01*
X175500Y131561D01*
Y134000D01*
D02*
G37*
%LPD*%
G36*
X165956Y287731D02*
Y283975D01*
X167409D01*
Y283561D01*
X167486Y283171D01*
X167707Y282840D01*
X170268Y280279D01*
X170599Y280058D01*
X170989Y279980D01*
X177224D01*
X180235Y276969D01*
X180112Y276757D01*
X179890Y275929D01*
Y275071D01*
X180112Y274243D01*
X180540Y273501D01*
X181147Y272895D01*
X181889Y272466D01*
X182126Y272402D01*
Y255159D01*
X182204Y254769D01*
X182425Y254438D01*
X190980Y245882D01*
Y215133D01*
X189724Y213877D01*
X189503Y213546D01*
X189425Y213156D01*
Y200452D01*
X189401Y200430D01*
X188963Y200239D01*
X188848Y200283D01*
X188577Y200336D01*
X187195D01*
X186924Y200283D01*
X186606Y200162D01*
X186289Y200283D01*
X186018Y200336D01*
X184636D01*
X184365Y200283D01*
X184250Y200239D01*
X183812Y200430D01*
X183787Y200452D01*
Y203607D01*
X187335Y207155D01*
X187556Y207486D01*
X187634Y207876D01*
Y241890D01*
X187556Y242280D01*
X187335Y242611D01*
X175291Y254655D01*
Y271728D01*
X175214Y272118D01*
X174993Y272449D01*
X172721Y274721D01*
X172390Y274942D01*
X172000Y275020D01*
X171272D01*
Y275831D01*
X166728D01*
Y275020D01*
X164453D01*
Y277453D01*
X162020D01*
Y285578D01*
X164228Y287786D01*
X165479D01*
X165956Y287731D01*
D02*
G37*
G36*
X185233Y160586D02*
X185311Y160196D01*
X185532Y159865D01*
X186118Y159279D01*
X186449Y159058D01*
X186839Y158980D01*
X191205D01*
Y158331D01*
X190347D01*
Y153787D01*
X194102D01*
Y155040D01*
X200762D01*
X201000Y154992D01*
X201354Y154561D01*
Y153787D01*
X202212D01*
Y147040D01*
X200279Y145107D01*
X200058Y144777D01*
X199980Y144387D01*
Y139250D01*
X199602Y139093D01*
X199091Y138582D01*
X198520Y138612D01*
X198486Y138631D01*
X198375Y138823D01*
X197823Y139375D01*
X197146Y139766D01*
X196500Y139939D01*
Y137000D01*
X195500D01*
Y139939D01*
X194854Y139766D01*
X194177Y139375D01*
X193833Y139031D01*
X193500Y138879D01*
X193167Y139031D01*
X192823Y139375D01*
X192146Y139766D01*
X191500Y139939D01*
Y137000D01*
X190500D01*
Y139939D01*
X189854Y139766D01*
X189177Y139375D01*
X189020Y139218D01*
X188520Y139425D01*
Y139887D01*
X188806Y140173D01*
X189143D01*
X189689Y140399D01*
X190106Y140817D01*
X190332Y141362D01*
Y141700D01*
X191092Y142459D01*
X191313Y142790D01*
X191390Y143180D01*
Y149432D01*
X191313Y149822D01*
X191092Y150153D01*
X187919Y153325D01*
X188110Y153787D01*
X188197D01*
Y158331D01*
X184441D01*
Y153787D01*
X185410D01*
Y153373D01*
X185487Y152983D01*
X185708Y152652D01*
X189351Y149010D01*
Y143602D01*
X188890Y143142D01*
X188553D01*
X188223Y143005D01*
X188124Y143060D01*
X187827Y143382D01*
X187876Y143630D01*
Y143777D01*
X188258Y144159D01*
X188484Y144705D01*
Y145295D01*
X188258Y145841D01*
X187841Y146258D01*
X187295Y146484D01*
X186705D01*
X186159Y146258D01*
X185742Y145841D01*
X185650Y145620D01*
X185554Y145566D01*
X185068Y145520D01*
X181228Y149360D01*
Y150962D01*
X181728Y151169D01*
X181927Y150970D01*
X182473Y150744D01*
X183063D01*
X183608Y150970D01*
X184026Y151388D01*
X184252Y151933D01*
Y152524D01*
X184026Y153069D01*
X183787Y153308D01*
Y161144D01*
X183946Y161579D01*
X185233D01*
Y160586D01*
D02*
G37*
D10*
X124566Y286586D02*
X125152Y286000D01*
X124566Y286586D02*
Y306518D01*
X125152Y286000D02*
X132383D01*
X248094Y156868D02*
Y169095D01*
X242189Y175000D02*
X248094Y169095D01*
Y156868D02*
X256962Y148000D01*
X203232Y146618D02*
Y156059D01*
X201000Y144387D02*
X203232Y146618D01*
X201000Y137000D02*
Y144387D01*
X209137Y143641D02*
Y146618D01*
Y143641D02*
X210983Y141795D01*
X208000Y127000D02*
X210983Y129983D01*
X209137Y146618D02*
X216795D01*
X209137D02*
Y156059D01*
X210983Y129983D02*
Y141795D01*
X260000Y208000D02*
X268000Y216000D01*
X204236Y197067D02*
X215169Y208000D01*
X260000D01*
X245962Y195000D02*
X258702Y182260D01*
X262740D01*
X224330Y195000D02*
X245962D01*
X262169Y171405D02*
X286453D01*
X292047Y177000D01*
X243575Y190000D02*
X262169Y171405D01*
X229000Y175000D02*
X242189D01*
X229414Y155000D02*
X244000D01*
X261000Y138000D02*
X268000D01*
X244000Y155000D02*
X261000Y138000D01*
X298631Y187000D02*
X304331D01*
X262740Y182260D02*
X268000Y177000D01*
X292047D02*
Y187000D01*
X229000Y190000D02*
X243575D01*
X215000Y185670D02*
X224330Y195000D01*
X195046Y185670D02*
X215000D01*
X193004Y187712D02*
Y197067D01*
Y187712D02*
X195046Y185670D01*
X194000Y184000D02*
X216325D01*
X190535Y180535D02*
X194000Y184000D01*
X216325D02*
X222325Y190000D01*
X303472Y148000D02*
X303472Y148000D01*
X297272Y148000D02*
X303472D01*
X256962D02*
X291366D01*
X155500Y332000D02*
Y340000D01*
X155999Y331501D02*
X161501D01*
X155500D02*
Y332000D01*
X161501Y331501D02*
X164953Y334953D01*
X155659Y331161D02*
X155999Y331501D01*
X155370Y331161D02*
X155659D01*
X151953Y291118D02*
X153000Y290071D01*
X151953Y291118D02*
Y294000D01*
X153000Y266500D02*
Y290071D01*
X161000Y264000D02*
X164953D01*
X150370Y312748D02*
Y320157D01*
X152334Y322121D02*
X167710D01*
X150370Y320157D02*
X152334Y322121D01*
X132953Y310000D02*
Y313044D01*
X145500Y331161D02*
Y345165D01*
X124566Y306518D02*
X127276Y309228D01*
X132953Y313044D02*
X145370Y325461D01*
X140500Y317083D02*
X147370Y323953D01*
X140500Y312394D02*
Y317083D01*
X140370Y306000D02*
Y312264D01*
X140500Y312394D01*
X145370Y325461D02*
Y331161D01*
X169000Y274000D02*
X172000D01*
X161000D02*
X169000D01*
X147370Y323953D02*
X168000D01*
X186614Y207876D02*
Y241890D01*
X174272Y145001D02*
Y187733D01*
X176000Y145972D02*
Y185670D01*
X174270Y144999D02*
X174272Y145001D01*
X176000Y185670D02*
X182031Y191701D01*
X176000Y145972D02*
X178330Y143641D01*
X174272Y187733D02*
X180082Y193544D01*
X185733Y189740D02*
X187886Y191893D01*
Y197067D01*
X183993Y191701D02*
X185327Y193035D01*
Y197067D01*
X183659Y189740D02*
X185733D01*
X177818Y183899D02*
X183659Y189740D01*
X182031Y191701D02*
X183993D01*
X145047Y294000D02*
X145307Y294260D01*
Y301000D01*
X186857Y144857D02*
X187000Y145000D01*
X186000Y132000D02*
Y142773D01*
X186857Y143630D02*
Y144857D01*
X186000Y142773D02*
X186857Y143630D01*
X180209Y148937D02*
Y173839D01*
Y148937D02*
X184492Y144654D01*
Y135492D02*
Y144654D01*
X177818Y148182D02*
Y183899D01*
Y148182D02*
X182508Y143492D01*
Y141657D02*
Y143492D01*
X190371Y143180D02*
Y149432D01*
X188848Y141657D02*
X190371Y143180D01*
X187500Y140310D02*
X188848Y141657D01*
X187500Y135500D02*
Y140310D01*
Y135500D02*
X191000Y132000D01*
X181000D02*
X184492Y135492D01*
X186429Y153373D02*
Y155949D01*
X186319Y156059D02*
X186429Y155949D01*
Y153373D02*
X190371Y149432D01*
X167728Y324224D02*
X168000Y323953D01*
X167728Y324224D02*
Y329047D01*
X164953Y334953D02*
X167728D01*
X203238Y173839D02*
X204077Y173000D01*
X209000D01*
X198122Y173839D02*
X203238D01*
X225000Y159414D02*
Y165815D01*
X210983Y179832D02*
X225000Y165815D01*
Y159414D02*
X229414Y155000D01*
X195173Y182000D02*
X216325D01*
X223325Y175000D01*
X229000D01*
X222325Y190000D02*
X229000D01*
X198122Y197067D02*
X204236D01*
X216795Y146618D02*
X241205D01*
X221656Y138583D02*
X227551D01*
X216795Y143443D02*
X221656Y138583D01*
X216795Y143443D02*
Y146618D01*
X198500Y188000D02*
X210983D01*
X193004Y179832D02*
X195173Y182000D01*
X195563Y190937D02*
X198500Y188000D01*
X243000Y230000D02*
X259000Y246000D01*
X203720Y211020D02*
X222700Y230000D01*
X243000D01*
X203720Y203959D02*
Y211020D01*
X180082Y196941D02*
X180209Y197067D01*
X180082Y193544D02*
Y196941D01*
X190535Y173929D02*
Y180535D01*
X192224Y156059D02*
X201047D01*
X203232D01*
X186253Y160586D02*
X186839Y160000D01*
X191639D02*
X192224Y159414D01*
X186839Y160000D02*
X191639D01*
X192224Y156059D02*
Y159414D01*
X186253Y160586D02*
Y163618D01*
X186021Y163850D02*
X186253Y163618D01*
X201000Y156012D02*
X201047Y156059D01*
X182768Y152228D02*
Y173839D01*
X141967Y294000D02*
X145047D01*
X139891Y291924D02*
X141967Y294000D01*
X168000Y323953D02*
X175284Y316669D01*
Y292547D02*
Y316669D01*
X150370Y312264D02*
Y312748D01*
X173551Y296688D02*
Y316281D01*
X167710Y322121D02*
X173551Y316281D01*
X134015Y302554D02*
X136923D01*
X140370Y306000D01*
X127985Y302533D02*
X133995D01*
X127985Y291903D02*
X133995D01*
X134015Y291924D02*
X139891D01*
X155500Y302000D02*
Y311629D01*
X156129Y311000D01*
X155500Y311629D02*
Y312748D01*
X156129Y311000D02*
X163475D01*
X183146Y255159D02*
X192000Y246305D01*
X182768Y204030D02*
X186614Y207876D01*
X190445Y197067D02*
Y213156D01*
X192000Y214711D02*
Y246305D01*
X190445Y213156D02*
X192000Y214711D01*
X174272Y254232D02*
X186614Y241890D01*
X182768Y197067D02*
Y204030D01*
X299000Y245000D02*
Y271000D01*
X295047Y274953D02*
X299000Y271000D01*
X286000Y274953D02*
X295047D01*
X155861Y286000D02*
X156244Y286383D01*
X172000Y274000D02*
X174272Y271728D01*
Y254232D02*
Y271728D01*
X150500Y331252D02*
Y340000D01*
X164953Y264000D02*
X167728Y266776D01*
Y267169D01*
X168606Y268047D02*
X169000D01*
X155500Y264000D02*
X161000D01*
X167728Y267169D02*
X168606Y268047D01*
X286000Y260347D02*
Y269047D01*
X170989Y281000D02*
X177646D01*
X168428Y283561D02*
X170989Y281000D01*
X177646D02*
X183146Y275500D01*
X168228Y285853D02*
X168428Y285652D01*
Y283561D02*
Y285652D01*
X161000Y274000D02*
Y286000D01*
X163806Y288806D01*
X145500Y302453D02*
Y312748D01*
X163806Y288806D02*
X171543D01*
X190445Y173839D02*
X190535Y173929D01*
X193004Y173839D02*
Y179832D01*
X197216Y179000D02*
X203720D01*
X195633Y177417D02*
X197216Y179000D01*
X195633Y173909D02*
Y177417D01*
X195563Y173839D02*
X195633Y173909D01*
X203720Y233280D02*
X204000Y233000D01*
X201047Y235953D02*
X203720Y233280D01*
X201047Y235953D02*
Y244000D01*
X206953D02*
X213169D01*
X183146Y255159D02*
Y275500D01*
X171543Y288806D02*
X175284Y292547D01*
X168621Y291758D02*
X173551Y296688D01*
X168228Y291758D02*
X168621D01*
X150500Y302453D02*
Y312264D01*
X278000Y250047D02*
X282394D01*
X153000Y266500D02*
X155500Y264000D01*
X161370Y301614D02*
X161756Y302000D01*
X195563Y190937D02*
Y197067D01*
X186417Y164622D02*
X186614D01*
X156244Y286383D02*
Y302000D01*
X150500Y302453D02*
X150953Y302000D01*
X144953Y345713D02*
X145500Y345165D01*
X262169Y254000D02*
X263047Y254878D01*
Y255000D01*
X259000Y254000D02*
X262169D01*
X268872Y255080D02*
Y266114D01*
Y255080D02*
X268953Y255000D01*
X284531Y251988D02*
X286000Y253457D01*
X284335Y251988D02*
X284531D01*
X282394Y250047D02*
X284335Y251988D01*
X286000Y253457D02*
Y253654D01*
X182252Y127000D02*
X208000D01*
X181000Y128252D02*
X182252Y127000D01*
X181000Y128252D02*
Y132000D01*
X268872Y266114D02*
X269553Y265433D01*
Y264059D02*
Y265433D01*
D14*
X134962Y217000D02*
X156244D01*
X132000Y219962D02*
Y285617D01*
X132383Y286000D01*
X149956D01*
X132000Y219962D02*
X134962Y217000D01*
X230307Y250047D02*
X255063D01*
X203720Y233280D02*
X221044D01*
X156244Y217000D02*
X172244Y233000D01*
X179000D01*
X156244Y185896D02*
Y217000D01*
Y185896D02*
X160000Y182140D01*
X166740Y182000D02*
X167000Y182260D01*
X160000Y182000D02*
X166740D01*
X160000D02*
Y182140D01*
X235405Y291445D02*
X251872Y274978D01*
X254311D01*
X254985Y274305D01*
X255000Y256016D02*
Y263675D01*
X272613Y274972D02*
X285980D01*
X255130D02*
X272613D01*
X285980D02*
X286000Y274953D01*
X186000Y291445D02*
X193445Y284000D01*
X231941D02*
X237000Y278941D01*
X193445Y284000D02*
X231941D01*
X225055Y291445D02*
X235405D01*
X212984Y303516D02*
X225055Y291445D01*
X255063Y250047D02*
X278000D01*
X228592Y248333D02*
X230307Y250047D01*
X221044Y233280D02*
X228592Y240828D01*
Y248333D01*
X186000Y291445D02*
Y356272D01*
X237000Y251740D02*
Y278941D01*
X186000Y356272D02*
X190350Y360622D01*
X255000Y256016D02*
X255063Y255953D01*
X212984Y303516D02*
Y313378D01*
X190350Y360622D02*
X212984D01*
D17*
X278000Y236000D02*
Y250047D01*
X287602Y236000D02*
X310447Y213156D01*
X278000Y236000D02*
X287602D01*
X310447Y158000D02*
Y197000D01*
Y213156D01*
X278000Y197000D02*
X310447D01*
Y148000D02*
Y158000D01*
X278000D02*
X310447D01*
D43*
X297272Y148000D02*
D03*
X291366D02*
D03*
X292047Y187000D02*
D03*
X297953D02*
D03*
X192224Y156059D02*
D03*
X186319D02*
D03*
X151953Y294000D02*
D03*
X146047D02*
D03*
X150047Y340000D02*
D03*
X151953Y301000D02*
D03*
X146047D02*
D03*
X144953Y340000D02*
D03*
X139047D02*
D03*
X132953Y310000D02*
D03*
X127047D02*
D03*
X155953Y340000D02*
D03*
X268953Y255000D02*
D03*
X263047D02*
D03*
X155861Y286000D02*
D03*
X149956D02*
D03*
X209137Y156059D02*
D03*
X203232D02*
D03*
X206953Y244000D02*
D03*
X201047D02*
D03*
D44*
X310165Y148000D02*
D03*
X303472D02*
D03*
X310347Y187000D02*
D03*
X303654D02*
D03*
X220000Y244000D02*
D03*
X213307D02*
D03*
D45*
X143732Y347878D02*
D03*
X151213D02*
D03*
D46*
X201000Y132000D02*
D03*
X196000D02*
D03*
X191000D02*
D03*
X186000D02*
D03*
X181000D02*
D03*
X191000Y137000D02*
D03*
X196000D02*
D03*
X201000D02*
D03*
X181000D02*
D03*
X176000Y134500D02*
D03*
X206000D02*
D03*
X182768Y182260D02*
D03*
X160000Y182000D02*
D03*
D47*
X254985Y263675D02*
D03*
Y274305D02*
D03*
X135015Y302325D02*
D03*
Y291695D02*
D03*
X128985Y291675D02*
D03*
Y302305D02*
D03*
D48*
X169000Y273953D02*
D03*
Y268047D02*
D03*
X168228Y285853D02*
D03*
Y291758D02*
D03*
X167728Y329047D02*
D03*
Y334953D02*
D03*
X255063Y255953D02*
D03*
Y250047D02*
D03*
X286000Y274953D02*
D03*
Y269047D02*
D03*
D49*
X150370Y331161D02*
D03*
X155370D02*
D03*
X145370D02*
D03*
X140370D02*
D03*
X155370Y312264D02*
D03*
X150370D02*
D03*
X145370D02*
D03*
X140370D02*
D03*
D50*
X185327Y197067D02*
D03*
X190445Y173839D02*
D03*
X193004D02*
D03*
X198122Y197067D02*
D03*
X195563D02*
D03*
X193004D02*
D03*
X190445D02*
D03*
X187886D02*
D03*
X182768D02*
D03*
X180209D02*
D03*
X198122Y173839D02*
D03*
X195563D02*
D03*
X187886D02*
D03*
X185327D02*
D03*
X182768D02*
D03*
X180209D02*
D03*
D51*
X237784Y249740D02*
D03*
Y242260D02*
D03*
X164000Y310260D02*
D03*
Y317740D02*
D03*
X167000Y182260D02*
D03*
Y189740D02*
D03*
D52*
X156244Y301000D02*
D03*
X161756D02*
D03*
X186021Y163850D02*
D03*
X191532D02*
D03*
X233063Y138583D02*
D03*
X227551D02*
D03*
D53*
X286000Y260347D02*
D03*
Y253654D02*
D03*
D54*
X272613Y274972D02*
D03*
X276353Y266114D02*
D03*
X268872D02*
D03*
D55*
X241205Y161382D02*
D03*
Y146618D02*
D03*
X216795D02*
D03*
Y161382D02*
D03*
D56*
X185327Y173839D02*
Y179701D01*
Y164544D02*
Y173839D01*
X182768Y182260D02*
X185327Y179701D01*
D57*
X275260Y313378D02*
X278882Y317000D01*
X304000D01*
X261016Y313378D02*
X275260D01*
X261016Y360622D02*
X275260D01*
X278882Y357000D02*
X304000D01*
X275260Y360622D02*
X278882Y357000D01*
X205110Y337000D02*
X304000D01*
D58*
X268000Y177000D02*
D03*
X278000Y197000D02*
D03*
X258000D02*
D03*
X268000Y216000D02*
D03*
X278000Y236000D02*
D03*
X258000D02*
D03*
X268000Y138000D02*
D03*
X278000Y158000D02*
D03*
X258000D02*
D03*
X229000Y175000D02*
D03*
Y190000D02*
D03*
X183146Y275500D02*
D03*
X299000Y245000D02*
D03*
X209000Y173000D02*
D03*
X137000Y169832D02*
D03*
X216000Y275500D02*
D03*
D59*
X161000Y274000D02*
D03*
D60*
Y264000D02*
D03*
D61*
X304000Y357000D02*
D03*
Y337000D02*
D03*
X144953Y217000D02*
D03*
D62*
X304000Y317000D02*
D03*
X144953Y237000D02*
D03*
D63*
X317000Y274000D02*
D03*
X133858Y145000D02*
D03*
Y374000D02*
D03*
D64*
X261016Y360622D02*
D03*
Y313378D02*
D03*
X212984Y360622D02*
D03*
Y313378D02*
D03*
X205110Y337000D02*
D03*
D65*
X179000Y233000D02*
D03*
X204000D02*
D03*
D66*
X174270Y144999D02*
D03*
X182768Y152228D02*
D03*
X187000Y145000D02*
D03*
X188848Y141657D02*
D03*
X182508D02*
D03*
X178330Y143641D02*
D03*
X132000Y347272D02*
D03*
X203232Y167999D02*
D03*
X267078Y240627D02*
D03*
X294213Y175000D02*
D03*
X241539Y169417D02*
D03*
X251334Y138258D02*
D03*
X273334Y216627D02*
D03*
X276353Y183000D02*
D03*
X241571Y181627D02*
D03*
X210983Y179832D02*
D03*
Y188000D02*
D03*
X239000Y202000D02*
D03*
X241571Y220547D02*
D03*
X219657Y219962D02*
D03*
X204000D02*
D03*
X174272Y192145D02*
D03*
X160545Y189740D02*
D03*
X188021Y182000D02*
D03*
X188000Y179000D02*
D03*
X203720Y203959D02*
D03*
X167000Y196000D02*
D03*
X166500Y207876D02*
D03*
X176226D02*
D03*
X160279Y351000D02*
D03*
X169918Y316669D02*
D03*
X153237Y319139D02*
D03*
X159000Y317740D02*
D03*
X179126Y349142D02*
D03*
X188848Y219000D02*
D03*
X147000Y191701D02*
D03*
X163000Y149802D02*
D03*
X286000Y138582D02*
D03*
X259295Y284000D02*
D03*
X247220Y260347D02*
D03*
X140370Y296688D02*
D03*
X181000Y137000D02*
D03*
X179126Y270886D02*
D03*
X164763Y281000D02*
D03*
X188848Y257831D02*
D03*
X188828Y270346D02*
D03*
X175453Y286000D02*
D03*
X149047Y362351D02*
D03*
X162000Y336000D02*
D03*
Y328000D02*
D03*
X186606Y202700D02*
D03*
X202161Y287566D02*
D03*
X170512Y305000D02*
D03*
X203720Y179000D02*
D03*
X193000Y212000D02*
D03*
X183146Y249740D02*
D03*
X259000Y246000D02*
D03*
X187886Y168374D02*
D03*
X244000Y242000D02*
D03*
X150047Y252125D02*
D03*
X170823Y254000D02*
D03*
X221656Y256016D02*
D03*
X202161Y255080D02*
D03*
X135000Y334000D02*
D03*
Y340000D02*
D03*
Y329000D02*
D03*
X132000Y319139D02*
D03*
X164453Y296688D02*
D03*
X259000Y254000D02*
D03*
X210000Y212000D02*
D03*
X282000Y266114D02*
D03*
X263047D02*
D03*
X237784Y235953D02*
D03*
X302000Y234000D02*
D03*
X301000Y204000D02*
D03*
X294213Y163000D02*
D03*
X191532Y168374D02*
D03*
X191000Y137000D02*
D03*
X201000Y132000D02*
D03*
X196000D02*
D03*
X223325Y153500D02*
D03*
X230999Y164622D02*
D03*
M02*
