G04*
G04 #@! TF.GenerationSoftware,Altium Limited,Altium Designer,21.6.1 (37)*
G04*
G04 Layer_Color=65535*
%FSLAX25Y25*%
%MOIN*%
G70*
G04*
G04 #@! TF.SameCoordinates,52293247-6156-4BB5-AEA0-72ABDA420298*
G04*
G04*
G04 #@! TF.FilePolarity,Positive*
G04*
G01*
G75*
%ADD10C,0.01000*%
%ADD11C,0.00800*%
%ADD12C,0.02362*%
%ADD13C,0.00984*%
%ADD14C,0.02000*%
%ADD15C,0.00500*%
%ADD16C,0.00394*%
%ADD17C,0.01500*%
%ADD18C,0.00787*%
%ADD19C,0.01200*%
%ADD20C,0.06299*%
%ADD21C,0.00600*%
%ADD22R,0.07102X0.12000*%
G36*
X209504Y137780D02*
X205303D01*
Y141980D01*
X209504Y137780D01*
D02*
G37*
D10*
X253881Y195607D02*
X253387Y194737D01*
X252945Y193840D01*
X252559Y192917D01*
X252230Y191973D01*
X251958Y191010D01*
X251745Y190033D01*
X251591Y189045D01*
X251498Y188049D01*
X251465Y187049D01*
X251492Y186049D01*
X251580Y185053D01*
X251727Y184064D01*
X251935Y183086D01*
X252201Y182121D01*
X252524Y181175D01*
X252905Y180250D01*
X253341Y179350D01*
X253830Y178478D01*
X254371Y177637D01*
X254962Y176830D01*
X255601Y176060D01*
X256285Y175330D01*
X257012Y174644D01*
X257779Y174002D01*
X258584Y173408D01*
X259423Y172863D01*
X260293Y172370D01*
X261192Y171931D01*
X262115Y171547D01*
X263060Y171220D01*
X264023Y170950D01*
X265001Y170739D01*
X265990Y170587D01*
X266986Y170496D01*
X267985Y170465D01*
X268985Y170494D01*
X269981Y170584D01*
X270970Y170733D01*
X271948Y170943D01*
X272912Y171211D01*
X273857Y171537D01*
X274781Y171919D01*
X275681Y172357D01*
X276552Y172848D01*
X277392Y173391D01*
X278198Y173984D01*
X278966Y174624D01*
X279694Y175309D01*
X280379Y176038D01*
X281019Y176806D01*
X281612Y177612D01*
X282155Y178452D01*
X282646Y179324D01*
X283083Y180223D01*
X283465Y181147D01*
X283790Y182093D01*
X284058Y183057D01*
X284267Y184035D01*
X284417Y185024D01*
X284506Y186020D01*
X284535Y187020D01*
X284504Y188019D01*
X284412Y189015D01*
X284260Y190004D01*
X284049Y190981D01*
X283779Y191944D01*
X283451Y192889D01*
X283067Y193813D01*
X282627Y194711D01*
X282134Y195581D01*
X272742Y179167D02*
X273573Y179731D01*
X274337Y180382D01*
X275026Y181112D01*
X275631Y181912D01*
X276145Y182774D01*
X276563Y183687D01*
X276878Y184640D01*
X277088Y185621D01*
X277190Y186620D01*
X277182Y187624D01*
X277065Y188620D01*
X276840Y189599D01*
X276510Y190547D01*
X276079Y191453D01*
X275551Y192307D01*
X274934Y193098D01*
X274234Y193817D01*
X273460Y194456D01*
X272620Y195007D01*
X271726Y195463D01*
X270788Y195819D01*
X269816Y196070D01*
X268823Y196214D01*
X267819Y196249D01*
X266819Y196175D01*
X265832Y195992D01*
X264871Y195703D01*
X263947Y195310D01*
X263071Y194819D01*
X262254Y194236D01*
X261506Y193568D01*
X260835Y192821D01*
X260248Y192007D01*
X259755Y191133D01*
X259359Y190210D01*
X259067Y189250D01*
X258880Y188264D01*
X258802Y187263D01*
X258834Y186260D01*
X258975Y185266D01*
X259223Y184293D01*
X259576Y183354D01*
X260029Y182458D01*
X260576Y181617D01*
X261212Y180841D01*
X261929Y180138D01*
X262719Y179518D01*
X263571Y178988D01*
X276276Y201259D02*
X275411Y201728D01*
X274519Y202145D01*
X273604Y202507D01*
X272669Y202815D01*
X271717Y203066D01*
X270752Y203260D01*
X269777Y203396D01*
X268796Y203474D01*
X267811Y203494D01*
X266828Y203455D01*
X265848Y203358D01*
X264877Y203202D01*
X263915Y202989D01*
X262969Y202719D01*
X262040Y202394D01*
X261132Y202013D01*
X260248Y201579D01*
X259392Y201094D01*
X253881Y234607D02*
X253387Y233737D01*
X252945Y232840D01*
X252559Y231917D01*
X252230Y230973D01*
X251958Y230010D01*
X251745Y229033D01*
X251591Y228045D01*
X251498Y227049D01*
X251465Y226049D01*
X251492Y225049D01*
X251580Y224053D01*
X251727Y223064D01*
X251935Y222085D01*
X252201Y221121D01*
X252524Y220175D01*
X252905Y219250D01*
X253341Y218350D01*
X253830Y217478D01*
X254371Y216636D01*
X254962Y215830D01*
X255601Y215060D01*
X256285Y214330D01*
X257012Y213643D01*
X257779Y213002D01*
X258584Y212408D01*
X259423Y211863D01*
X260293Y211370D01*
X261192Y210931D01*
X262115Y210547D01*
X263060Y210220D01*
X264023Y209950D01*
X265001Y209739D01*
X265990Y209587D01*
X266986Y209496D01*
X267985Y209465D01*
X268985Y209494D01*
X269981Y209584D01*
X270970Y209734D01*
X271948Y209943D01*
X272912Y210211D01*
X273857Y210537D01*
X274781Y210919D01*
X275681Y211357D01*
X276552Y211848D01*
X277392Y212391D01*
X278198Y212983D01*
X278966Y213624D01*
X279694Y214309D01*
X280379Y215038D01*
X281019Y215806D01*
X281612Y216612D01*
X282155Y217452D01*
X282646Y218324D01*
X283083Y219223D01*
X283465Y220147D01*
X283791Y221093D01*
X284058Y222057D01*
X284267Y223035D01*
X284417Y224024D01*
X284506Y225020D01*
X284535Y226020D01*
X284504Y227019D01*
X284412Y228015D01*
X284260Y229004D01*
X284049Y229981D01*
X283779Y230944D01*
X283451Y231889D01*
X283067Y232813D01*
X282627Y233711D01*
X282134Y234581D01*
X272742Y218167D02*
X273573Y218731D01*
X274337Y219382D01*
X275026Y220112D01*
X275631Y220912D01*
X276145Y221774D01*
X276563Y222687D01*
X276878Y223640D01*
X277088Y224621D01*
X277190Y225620D01*
X277182Y226624D01*
X277065Y227621D01*
X276840Y228599D01*
X276510Y229547D01*
X276079Y230453D01*
X275551Y231307D01*
X274934Y232098D01*
X274234Y232817D01*
X273460Y233456D01*
X272620Y234007D01*
X271726Y234463D01*
X270788Y234819D01*
X269816Y235070D01*
X268823Y235214D01*
X267819Y235249D01*
X266819Y235175D01*
X265832Y234992D01*
X264871Y234703D01*
X263947Y234310D01*
X263071Y233820D01*
X262254Y233236D01*
X261506Y232568D01*
X260835Y231821D01*
X260248Y231007D01*
X259755Y230133D01*
X259359Y229210D01*
X259067Y228250D01*
X258880Y227264D01*
X258802Y226263D01*
X258834Y225260D01*
X258975Y224266D01*
X259223Y223293D01*
X259576Y222354D01*
X260029Y221458D01*
X260576Y220617D01*
X261213Y219841D01*
X261929Y219138D01*
X262719Y218518D01*
X263571Y217988D01*
X276276Y240259D02*
X275411Y240728D01*
X274519Y241144D01*
X273604Y241507D01*
X272669Y241814D01*
X271717Y242066D01*
X270752Y242260D01*
X269777Y242396D01*
X268796Y242475D01*
X267811Y242494D01*
X266828Y242455D01*
X265848Y242358D01*
X264877Y242202D01*
X263915Y241989D01*
X262969Y241719D01*
X262040Y241394D01*
X261132Y241013D01*
X260248Y240579D01*
X259392Y240094D01*
X253881Y156607D02*
X253387Y155737D01*
X252945Y154840D01*
X252559Y153917D01*
X252230Y152973D01*
X251958Y152010D01*
X251745Y151033D01*
X251591Y150045D01*
X251498Y149049D01*
X251465Y148049D01*
X251492Y147049D01*
X251580Y146053D01*
X251727Y145064D01*
X251935Y144086D01*
X252201Y143121D01*
X252524Y142175D01*
X252905Y141250D01*
X253341Y140350D01*
X253830Y139478D01*
X254371Y138637D01*
X254962Y137830D01*
X255601Y137060D01*
X256285Y136330D01*
X257012Y135643D01*
X257779Y135002D01*
X258584Y134408D01*
X259423Y133863D01*
X260293Y133370D01*
X261192Y132931D01*
X262115Y132547D01*
X263060Y132220D01*
X264023Y131950D01*
X265001Y131739D01*
X265990Y131587D01*
X266986Y131496D01*
X267985Y131465D01*
X268985Y131494D01*
X269981Y131584D01*
X270970Y131734D01*
X271948Y131943D01*
X272912Y132211D01*
X273857Y132537D01*
X274781Y132919D01*
X275681Y133357D01*
X276552Y133848D01*
X277392Y134391D01*
X278198Y134984D01*
X278966Y135624D01*
X279694Y136309D01*
X280379Y137038D01*
X281019Y137806D01*
X281612Y138612D01*
X282155Y139452D01*
X282646Y140324D01*
X283083Y141223D01*
X283465Y142147D01*
X283791Y143093D01*
X284058Y144057D01*
X284267Y145035D01*
X284417Y146024D01*
X284506Y147020D01*
X284535Y148020D01*
X284504Y149019D01*
X284412Y150015D01*
X284260Y151004D01*
X284049Y151981D01*
X283779Y152944D01*
X283451Y153889D01*
X283067Y154813D01*
X282627Y155711D01*
X282134Y156581D01*
X272742Y140167D02*
X273573Y140731D01*
X274337Y141382D01*
X275026Y142112D01*
X275631Y142912D01*
X276145Y143774D01*
X276563Y144687D01*
X276878Y145640D01*
X277088Y146621D01*
X277190Y147620D01*
X277182Y148624D01*
X277065Y149620D01*
X276840Y150599D01*
X276510Y151547D01*
X276079Y152453D01*
X275551Y153307D01*
X274934Y154098D01*
X274234Y154817D01*
X273460Y155456D01*
X272620Y156007D01*
X271726Y156463D01*
X270788Y156819D01*
X269816Y157070D01*
X268823Y157214D01*
X267819Y157249D01*
X266819Y157175D01*
X265832Y156992D01*
X264871Y156703D01*
X263947Y156310D01*
X263071Y155819D01*
X262254Y155236D01*
X261506Y154568D01*
X260835Y153821D01*
X260248Y153006D01*
X259755Y152133D01*
X259359Y151210D01*
X259067Y150250D01*
X258880Y149264D01*
X258802Y148263D01*
X258834Y147260D01*
X258975Y146266D01*
X259223Y145293D01*
X259576Y144354D01*
X260029Y143458D01*
X260576Y142617D01*
X261213Y141841D01*
X261929Y141138D01*
X262719Y140518D01*
X263571Y139988D01*
X276276Y162259D02*
X275411Y162728D01*
X274519Y163145D01*
X273604Y163507D01*
X272669Y163814D01*
X271717Y164066D01*
X270752Y164260D01*
X269777Y164396D01*
X268796Y164474D01*
X267811Y164494D01*
X266828Y164455D01*
X265848Y164358D01*
X264877Y164202D01*
X263915Y163989D01*
X262969Y163719D01*
X262040Y163394D01*
X261132Y163013D01*
X260248Y162579D01*
X259392Y162094D01*
X235890Y154000D02*
X235816Y155003D01*
X235598Y155985D01*
X235238Y156924D01*
X234746Y157801D01*
X234131Y158598D01*
X233407Y159296D01*
X232589Y159881D01*
X231695Y160341D01*
X230743Y160666D01*
X229753Y160848D01*
X228748Y160885D01*
X227749Y160775D01*
X226775Y160521D01*
X225850Y160127D01*
X224991Y159603D01*
X224218Y158960D01*
X223547Y158211D01*
X222992Y157372D01*
X222565Y156461D01*
X222275Y155498D01*
X222129Y154503D01*
Y153497D01*
X222275Y152502D01*
X222565Y151539D01*
X222992Y150628D01*
X223547Y149789D01*
X224218Y149040D01*
X224991Y148397D01*
X225850Y147873D01*
X226775Y147479D01*
X227749Y147225D01*
X228748Y147115D01*
X229754Y147152D01*
X230743Y147334D01*
X231695Y147659D01*
X232589Y148119D01*
X233407Y148704D01*
X234131Y149402D01*
X234746Y150198D01*
X235238Y151076D01*
X235598Y152015D01*
X235816Y152997D01*
X235890Y154000D01*
X314000Y362000D02*
X322898D01*
X313000Y361000D02*
X314000Y362000D01*
X313000Y353000D02*
Y361000D01*
Y353000D02*
X314000Y352000D01*
X323000D01*
X314000Y342000D02*
X322898D01*
X313000Y341000D02*
X314000Y342000D01*
X313000Y333000D02*
Y341000D01*
Y333000D02*
X314000Y332000D01*
X323000D01*
X314000Y312000D02*
X323000D01*
X313000Y313000D02*
X314000Y312000D01*
X313000Y313000D02*
Y321000D01*
X314000Y322000D01*
X322898D01*
X126055Y232000D02*
X134953D01*
X135953Y233000D01*
Y241000D01*
X134953Y242000D02*
X135953Y241000D01*
X125953Y242000D02*
X134953D01*
X125953Y222000D02*
X134953D01*
X135953Y221000D01*
Y213000D02*
Y221000D01*
X134953Y212000D02*
X135953Y213000D01*
X126055Y212000D02*
X134953D01*
X223095Y143961D02*
X234906D01*
X239039Y149276D02*
Y158724D01*
X218961Y149276D02*
Y158724D01*
X223095Y164039D02*
X234906D01*
X295612Y260998D02*
X293612D01*
X292613Y259998D01*
Y256000D01*
X293612Y255000D01*
X295612D01*
X296611Y256000D01*
Y259998D01*
X295612Y260998D01*
X298611Y255000D02*
Y260998D01*
X302609Y255000D01*
Y260998D01*
X172001Y208000D02*
Y211999D01*
X170002Y209999D02*
X174000D01*
X169002Y217997D02*
Y213998D01*
X172001D01*
X171001Y215997D01*
Y216997D01*
X172001Y217997D01*
X174000D01*
X175000Y216997D01*
Y214998D01*
X174000Y213998D01*
X169002Y219996D02*
X173001D01*
X175000Y221995D01*
X173001Y223995D01*
X169002D01*
X170002Y232999D02*
X169002Y231999D01*
Y230000D01*
X170002Y229000D01*
X174000D01*
X175000Y230000D01*
Y231999D01*
X174000Y232999D01*
X172001D01*
Y230999D01*
X175000Y234998D02*
X171001D01*
Y237997D01*
X172001Y238997D01*
X175000D01*
X169002Y244995D02*
X175000D01*
Y241996D01*
X174000Y240996D01*
X172001D01*
X171001Y241996D01*
Y244995D01*
X299386Y304498D02*
X295387D01*
Y301499D01*
X297387D01*
X295387D01*
Y298500D01*
X301385D02*
Y302499D01*
X303385Y304498D01*
X305384Y302499D01*
Y298500D01*
Y301499D01*
X301385D01*
X307383Y298500D02*
Y304498D01*
X311382Y298500D01*
Y304498D01*
X130000Y198000D02*
Y203998D01*
X132999D01*
X133999Y202998D01*
Y200999D01*
X132999Y199999D01*
X130000D01*
X138997Y203998D02*
X136998D01*
X135998Y202998D01*
Y199000D01*
X136998Y198000D01*
X138997D01*
X139997Y199000D01*
Y202998D01*
X138997Y203998D01*
X141996D02*
Y198000D01*
X143995Y199999D01*
X145995Y198000D01*
Y203998D01*
X151993D02*
X147994D01*
Y198000D01*
X151993D01*
X147994Y200999D02*
X149994D01*
X153992Y198000D02*
Y203998D01*
X156991D01*
X157991Y202998D01*
Y200999D01*
X156991Y199999D01*
X153992D01*
X155992D02*
X157991Y198000D01*
X149676Y255046D02*
X148676Y256045D01*
X146677D01*
X145677Y255046D01*
Y251047D01*
X146677Y250047D01*
X148676D01*
X149676Y251047D01*
X151675Y256045D02*
X155674D01*
X153674D01*
Y250047D01*
X133001Y181831D02*
X132002Y182831D01*
X130002D01*
X129003Y181831D01*
Y177832D01*
X130002Y176832D01*
X132002D01*
X133001Y177832D01*
Y179832D01*
X131002D01*
X135001Y176832D02*
Y180831D01*
X138000D01*
X138999Y179832D01*
Y176832D01*
X144997Y182831D02*
Y176832D01*
X141998D01*
X140999Y177832D01*
Y179832D01*
X141998Y180831D01*
X144997D01*
D11*
X233134Y175000D02*
X233014Y175989D01*
X232660Y176921D01*
X232094Y177741D01*
X231348Y178402D01*
X230466Y178865D01*
X229498Y179104D01*
X228502D01*
X227534Y178865D01*
X226652Y178402D01*
X225906Y177741D01*
X225340Y176921D01*
X224986Y175989D01*
X224866Y175000D01*
X224986Y174011D01*
X225340Y173079D01*
X225906Y172259D01*
X226652Y171598D01*
X227534Y171135D01*
X228502Y170896D01*
X229498D01*
X230466Y171135D01*
X231348Y171598D01*
X232094Y172259D01*
X232660Y173079D01*
X233014Y174011D01*
X233134Y175000D01*
Y190000D02*
X233014Y190989D01*
X232660Y191921D01*
X232094Y192741D01*
X231348Y193402D01*
X230466Y193865D01*
X229498Y194104D01*
X228502D01*
X227534Y193865D01*
X226652Y193402D01*
X225906Y192741D01*
X225340Y191921D01*
X224986Y190989D01*
X224866Y190000D01*
X224986Y189011D01*
X225340Y188079D01*
X225906Y187259D01*
X226652Y186598D01*
X227534Y186135D01*
X228502Y185896D01*
X229498D01*
X230466Y186135D01*
X231348Y186598D01*
X232094Y187259D01*
X232660Y188079D01*
X233014Y189011D01*
X233134Y190000D01*
X187280Y275500D02*
X187160Y276489D01*
X186806Y277421D01*
X186240Y278241D01*
X185494Y278902D01*
X184612Y279365D01*
X183644Y279604D01*
X182648D01*
X181680Y279365D01*
X180798Y278902D01*
X180052Y278241D01*
X179485Y277421D01*
X179132Y276489D01*
X179012Y275500D01*
X179132Y274511D01*
X179485Y273579D01*
X180052Y272759D01*
X180798Y272098D01*
X181680Y271635D01*
X182648Y271396D01*
X183644D01*
X184612Y271635D01*
X185494Y272098D01*
X186240Y272759D01*
X186806Y273579D01*
X187160Y274511D01*
X187280Y275500D01*
X303134Y245000D02*
X303014Y245989D01*
X302660Y246921D01*
X302094Y247741D01*
X301348Y248402D01*
X300466Y248865D01*
X299498Y249104D01*
X298502D01*
X297534Y248865D01*
X296652Y248402D01*
X295906Y247741D01*
X295340Y246921D01*
X294986Y245989D01*
X294866Y245000D01*
X294986Y244011D01*
X295340Y243079D01*
X295906Y242259D01*
X296652Y241598D01*
X297534Y241135D01*
X298502Y240896D01*
X299498D01*
X300466Y241135D01*
X301348Y241598D01*
X302094Y242259D01*
X302660Y243079D01*
X303014Y244011D01*
X303134Y245000D01*
X213134Y173000D02*
X213014Y173989D01*
X212660Y174921D01*
X212094Y175741D01*
X211348Y176402D01*
X210466Y176865D01*
X209498Y177104D01*
X208502D01*
X207534Y176865D01*
X206652Y176402D01*
X205906Y175741D01*
X205340Y174921D01*
X204986Y173989D01*
X204866Y173000D01*
X204986Y172011D01*
X205340Y171079D01*
X205906Y170259D01*
X206652Y169598D01*
X207534Y169135D01*
X208502Y168896D01*
X209498D01*
X210466Y169135D01*
X211348Y169598D01*
X212094Y170259D01*
X212660Y171079D01*
X213014Y172011D01*
X213134Y173000D01*
X141134Y169832D02*
X141014Y170821D01*
X140660Y171753D01*
X140094Y172573D01*
X139348Y173234D01*
X138466Y173697D01*
X137498Y173935D01*
X136502D01*
X135534Y173697D01*
X134652Y173234D01*
X133906Y172573D01*
X133340Y171753D01*
X132986Y170821D01*
X132866Y169832D01*
X132986Y168842D01*
X133340Y167910D01*
X133906Y167090D01*
X134652Y166429D01*
X135534Y165966D01*
X136502Y165728D01*
X137498D01*
X138466Y165966D01*
X139348Y166429D01*
X140094Y167090D01*
X140660Y167910D01*
X141014Y168842D01*
X141134Y169832D01*
X220134Y275500D02*
X220014Y276489D01*
X219660Y277421D01*
X219094Y278241D01*
X218348Y278902D01*
X217466Y279365D01*
X216498Y279604D01*
X215502D01*
X214534Y279365D01*
X213652Y278902D01*
X212906Y278241D01*
X212340Y277421D01*
X211986Y276489D01*
X211866Y275500D01*
X211986Y274511D01*
X212340Y273579D01*
X212906Y272759D01*
X213652Y272098D01*
X214534Y271635D01*
X215502Y271396D01*
X216498D01*
X217466Y271635D01*
X218348Y272098D01*
X219094Y272759D01*
X219660Y273579D01*
X220014Y274511D01*
X220134Y275500D01*
X216466Y252799D02*
X213800D01*
Y250799D01*
X215133Y251466D01*
X215799D01*
X216466Y250799D01*
Y249466D01*
X215799Y248800D01*
X214466D01*
X213800Y249466D01*
X217799Y252799D02*
Y250133D01*
X219132Y248800D01*
X220464Y250133D01*
Y252799D01*
X290970Y222183D02*
Y218184D01*
X293636D01*
X297635Y222183D02*
X294969D01*
Y218184D01*
X297635D01*
X294969Y220184D02*
X296302D01*
X298968Y222183D02*
Y219517D01*
X300300Y218184D01*
X301633Y219517D01*
Y222183D01*
X305632D02*
X302966D01*
Y218184D01*
X305632D01*
X302966Y220184D02*
X304299D01*
X306965Y222183D02*
Y218184D01*
X309631D01*
X290970Y183183D02*
Y179184D01*
X292969D01*
X293636Y179851D01*
Y182517D01*
X292969Y183183D01*
X290970D01*
X297635D02*
X294969D01*
Y179184D01*
X297635D01*
X294969Y181184D02*
X296302D01*
X298968Y183183D02*
Y179184D01*
X301633D01*
X302966D02*
Y181850D01*
X304299Y183183D01*
X305632Y181850D01*
Y179184D01*
Y181184D01*
X302966D01*
X306965Y183183D02*
Y182517D01*
X308298Y181184D01*
X309631Y182517D01*
Y183183D01*
X308298Y181184D02*
Y179184D01*
X290970Y144183D02*
Y140184D01*
Y142184D01*
X293636D01*
Y144183D01*
Y140184D01*
X296968Y144183D02*
X295635D01*
X294969Y143517D01*
Y140851D01*
X295635Y140184D01*
X296968D01*
X297635Y140851D01*
Y143517D01*
X296968Y144183D01*
X298968D02*
Y140184D01*
X301633D01*
X302966Y144183D02*
Y140184D01*
X304966D01*
X305632Y140851D01*
Y143517D01*
X304966Y144183D01*
X302966D01*
X181535Y267443D02*
X180869Y268109D01*
X179536D01*
X178870Y267443D01*
Y264777D01*
X179536Y264110D01*
X180869D01*
X181535Y264777D01*
X182868Y266776D02*
Y264777D01*
X183535Y264110D01*
X185534D01*
Y266776D01*
X186867D02*
Y264110D01*
Y265443D01*
X187534Y266110D01*
X188200Y266776D01*
X188866D01*
X190866D02*
Y264110D01*
Y265443D01*
X191532Y266110D01*
X192199Y266776D01*
X192865D01*
X196864Y264110D02*
X195531D01*
X194865Y264777D01*
Y266110D01*
X195531Y266776D01*
X196864D01*
X197530Y266110D01*
Y265443D01*
X194865D01*
X198863Y264110D02*
Y266776D01*
X200863D01*
X201529Y266110D01*
Y264110D01*
X203528Y267443D02*
Y266776D01*
X202862D01*
X204195D01*
X203528D01*
Y264777D01*
X204195Y264110D01*
X213334Y267447D02*
X212668Y268113D01*
X211335D01*
X210668Y267447D01*
Y264781D01*
X211335Y264115D01*
X212668D01*
X213334Y264781D01*
Y266114D01*
X212001D01*
X214667Y264115D02*
Y266781D01*
X216666D01*
X217333Y266114D01*
Y264115D01*
X221332Y268113D02*
Y264115D01*
X219332D01*
X218666Y264781D01*
Y266114D01*
X219332Y266781D01*
X221332D01*
D12*
X184244Y182106D02*
X183799Y183030D01*
X182800Y183258D01*
X181999Y182619D01*
Y181594D01*
X182800Y180955D01*
X183799Y181183D01*
X184244Y182106D01*
D13*
X177650Y173839D02*
X176911Y174265D01*
Y173412D01*
X177650Y173839D01*
X159208Y331161D02*
X158470Y331588D01*
Y330735D01*
X159208Y331161D01*
X266105Y266114D02*
X265367Y266540D01*
Y265688D01*
X266105Y266114D01*
D14*
X262000Y190500D02*
X274000Y183500D01*
X262000Y229500D02*
X274000Y222500D01*
X262000Y151500D02*
X274000Y144500D01*
D15*
X284732Y170268D02*
Y203732D01*
X251268Y170268D02*
X284732D01*
X251268D02*
Y203732D01*
X284732D01*
X277449Y187000D02*
X284732D01*
Y187197D01*
X277111Y188607D02*
X284284Y189871D01*
X276694Y190164D02*
X283538Y192655D01*
X271164Y195694D02*
X273656Y202538D01*
X269607Y196111D02*
X270871Y203284D01*
X268197Y196252D02*
Y203535D01*
X265325Y203087D02*
X266590Y195915D01*
X262541Y202341D02*
X265033Y195497D01*
X252659Y192459D02*
X259503Y189968D01*
X251913Y189674D02*
X259085Y188410D01*
X251661Y186803D02*
X258945Y186803D01*
X251913Y184129D02*
X259085Y185393D01*
X252659Y181345D02*
X259503Y183836D01*
X253877Y178732D02*
X260184Y182374D01*
X255530Y176371D02*
X261109Y181053D01*
X257568Y174333D02*
X262250Y179913D01*
X259929Y172680D02*
X263571Y178988D01*
X272626Y179184D02*
X276268Y172877D01*
X273947Y180109D02*
X278629Y174530D01*
X275087Y181250D02*
X280667Y176568D01*
X276012Y182571D02*
X282320Y178929D01*
X276694Y184032D02*
X283538Y181541D01*
X277111Y185590D02*
X284284Y184326D01*
X277252Y187197D02*
X284535Y187197D01*
X284732Y209268D02*
Y242732D01*
X251268Y209268D02*
X284732D01*
X251268D02*
Y242732D01*
X284732D01*
X277449Y226000D02*
X284732D01*
Y226197D01*
X277111Y227607D02*
X284284Y228871D01*
X276694Y229164D02*
X283538Y231655D01*
X271164Y234694D02*
X273656Y241538D01*
X269607Y235111D02*
X270871Y242284D01*
X268197Y235252D02*
Y242535D01*
X265325Y242087D02*
X266590Y234915D01*
X262541Y241341D02*
X265033Y234497D01*
X252659Y231459D02*
X259503Y228967D01*
X251913Y228675D02*
X259085Y227410D01*
X251661Y225803D02*
X258945Y225803D01*
X251913Y223129D02*
X259085Y224393D01*
X252659Y220345D02*
X259503Y222836D01*
X253877Y217732D02*
X260184Y221374D01*
X255530Y215371D02*
X261109Y220053D01*
X257568Y213333D02*
X262250Y218913D01*
X259929Y211680D02*
X263571Y217987D01*
X272626Y218184D02*
X276268Y211877D01*
X273947Y219109D02*
X278629Y213530D01*
X275087Y220250D02*
X280667Y215568D01*
X276012Y221571D02*
X282320Y217929D01*
X276694Y223032D02*
X283538Y220541D01*
X277111Y224590D02*
X284284Y223325D01*
X277252Y226197D02*
X284535Y226197D01*
X284732Y131268D02*
Y164732D01*
X251268Y131268D02*
X284732D01*
X251268D02*
Y164732D01*
X284732D01*
X277449Y148000D02*
X284732D01*
Y148197D01*
X277111Y149607D02*
X284284Y150871D01*
X276694Y151164D02*
X283538Y153655D01*
X271164Y156694D02*
X273656Y163538D01*
X269607Y157111D02*
X270871Y164284D01*
X268197Y157252D02*
Y164535D01*
X265325Y164087D02*
X266590Y156915D01*
X262541Y163341D02*
X265033Y156497D01*
X252659Y153459D02*
X259503Y150968D01*
X251913Y150674D02*
X259085Y149410D01*
X251661Y147803D02*
X258945Y147803D01*
X251913Y145129D02*
X259085Y146393D01*
X252659Y142345D02*
X259503Y144836D01*
X253877Y139732D02*
X260184Y143374D01*
X255530Y137371D02*
X261109Y142053D01*
X257568Y135333D02*
X262250Y140913D01*
X259929Y133680D02*
X263571Y139988D01*
X272626Y140184D02*
X276268Y133877D01*
X273947Y141109D02*
X278629Y135530D01*
X275087Y142250D02*
X280667Y137568D01*
X276012Y143571D02*
X282320Y139929D01*
X276694Y145033D02*
X283538Y142541D01*
X277111Y146590D02*
X284284Y145326D01*
X277252Y148197D02*
X284535Y148197D01*
X205304Y141980D02*
X209504Y137780D01*
X176697Y127020D02*
X205304D01*
X209504Y131220D02*
Y137780D01*
X205304Y127020D02*
X209504Y131220D01*
X172496D02*
X176696Y127020D01*
X172496Y137780D02*
X176696Y141980D01*
X172496Y131220D02*
Y137780D01*
X176696Y141980D02*
X205303D01*
X253500Y268000D02*
X256500D01*
X253500Y269500D02*
X255000Y268000D01*
X256500Y269500D01*
X253500D02*
X256500D01*
X133500Y298000D02*
X136500D01*
X135000D02*
X136500Y296500D01*
X133500D02*
X135000Y298000D01*
X133500Y296500D02*
X136500D01*
X127500Y296000D02*
X130500D01*
X127500Y297500D02*
X129000Y296000D01*
X130500Y297500D01*
X127500D02*
X130500D01*
X128300Y259400D02*
Y278600D01*
Y259400D02*
X151000D01*
X128300Y278600D02*
X151000D01*
X154133D02*
X155800Y276933D01*
X148100Y259400D02*
Y278600D01*
X148600Y259400D02*
X155800D01*
X148600Y278600D02*
X155800D01*
Y259400D02*
Y278600D01*
X287252Y169501D02*
Y172500D01*
X288752D01*
X289252Y172000D01*
Y171000D01*
X288752Y170500D01*
X287252D01*
X288252D02*
X289252Y169501D01*
X290251Y172500D02*
Y170500D01*
X291251Y169501D01*
X292251Y170500D01*
Y172500D01*
X295250Y169501D02*
X293251D01*
X295250Y171500D01*
Y172000D01*
X294750Y172500D01*
X293750D01*
X293251Y172000D01*
X290970Y151500D02*
Y154499D01*
X292470D01*
X292969Y154000D01*
Y153000D01*
X292470Y152500D01*
X290970D01*
X291970D02*
X292969Y151500D01*
X293969D02*
X294969D01*
X294469D01*
Y154499D01*
X293969Y154000D01*
X296468Y154499D02*
X298468D01*
Y154000D01*
X296468Y152000D01*
Y151500D01*
X304320Y154674D02*
Y151675D01*
X305819D01*
X306319Y152175D01*
Y154174D01*
X305819Y154674D01*
X304320D01*
X307319Y154174D02*
X307819Y154674D01*
X308818D01*
X309318Y154174D01*
Y153674D01*
X308818Y153174D01*
X309318Y152675D01*
Y152175D01*
X308818Y151675D01*
X307819D01*
X307319Y152175D01*
Y152675D01*
X307819Y153174D01*
X307319Y153674D01*
Y154174D01*
X307819Y153174D02*
X308818D01*
X291251Y190500D02*
Y193500D01*
X292751D01*
X293251Y193000D01*
Y192000D01*
X292751Y191500D01*
X291251D01*
X292251D02*
X293251Y190500D01*
X294250D02*
X295250D01*
X294750D01*
Y193500D01*
X294250Y193000D01*
X296749D02*
X297249Y193500D01*
X298249D01*
X298749Y193000D01*
Y192500D01*
X298249Y192000D01*
X298749Y191500D01*
Y191000D01*
X298249Y190500D01*
X297249D01*
X296749Y191000D01*
Y191500D01*
X297249Y192000D01*
X296749Y192500D01*
Y193000D01*
X297249Y192000D02*
X298249D01*
X304501Y193500D02*
Y190500D01*
X306000D01*
X306500Y191000D01*
Y193000D01*
X306000Y193500D01*
X304501D01*
X307500Y191000D02*
X308000Y190500D01*
X308999D01*
X309499Y191000D01*
Y193000D01*
X308999Y193500D01*
X308000D01*
X307500Y193000D01*
Y192500D01*
X308000Y192000D01*
X309499D01*
X234938Y176499D02*
X236938D01*
X235938D01*
Y173501D01*
X237937D02*
Y176499D01*
X239437D01*
X239937Y176000D01*
Y175000D01*
X239437Y174500D01*
X237937D01*
X242936Y173501D02*
X240936D01*
X242936Y175500D01*
Y176000D01*
X242436Y176499D01*
X241436D01*
X240936Y176000D01*
X235438Y191233D02*
X237438D01*
X236438D01*
Y188234D01*
X238437D02*
Y191233D01*
X239937D01*
X240437Y190734D01*
Y189734D01*
X239937Y189234D01*
X238437D01*
X241436Y188234D02*
X242436D01*
X241936D01*
Y191233D01*
X241436Y190734D01*
X184849Y149312D02*
Y152312D01*
X186349D01*
X186849Y151812D01*
Y150812D01*
X186349Y150312D01*
X184849D01*
X185849D02*
X186849Y149312D01*
X189848D02*
X187848D01*
X189848Y151312D01*
Y151812D01*
X189348Y152312D01*
X188348D01*
X187848Y151812D01*
X190847D02*
X191347Y152312D01*
X192347D01*
X192847Y151812D01*
Y149812D01*
X192347Y149312D01*
X191347D01*
X190847Y149812D01*
Y151812D01*
X133359Y289077D02*
Y286078D01*
X134859D01*
X135358Y286578D01*
Y288577D01*
X134859Y289077D01*
X133359D01*
X138357Y286078D02*
X136358D01*
X138357Y288077D01*
Y288577D01*
X137858Y289077D01*
X136858D01*
X136358Y288577D01*
X166812Y261436D02*
Y264435D01*
X168312D01*
X168812Y263935D01*
Y262936D01*
X168312Y262436D01*
X166812D01*
X167812D02*
X168812Y261436D01*
X171810Y264435D02*
X169811D01*
Y262936D01*
X170811Y263436D01*
X171311D01*
X171810Y262936D01*
Y261936D01*
X171311Y261436D01*
X170311D01*
X169811Y261936D01*
X155501Y292500D02*
Y295499D01*
X157000D01*
X157500Y295000D01*
Y294000D01*
X157000Y293500D01*
X155501D01*
X156500D02*
X157500Y292500D01*
X160499D02*
X158500D01*
X160499Y294500D01*
Y295000D01*
X159999Y295499D01*
X159000D01*
X158500Y295000D01*
X165950Y279501D02*
Y282500D01*
X167450D01*
X167949Y282000D01*
Y281000D01*
X167450Y280500D01*
X165950D01*
X166950D02*
X167949Y279501D01*
X170449D02*
Y282500D01*
X168949Y281000D01*
X170949D01*
X129501Y254516D02*
Y257515D01*
X131000D01*
X131500Y257015D01*
Y256016D01*
X131000Y255516D01*
X129501D01*
X134499Y254516D02*
X132500D01*
X134499Y256516D01*
Y257015D01*
X133999Y257515D01*
X133000D01*
X132500Y257015D01*
X126485Y289077D02*
Y286078D01*
X127985D01*
X128485Y286578D01*
Y288577D01*
X127985Y289077D01*
X126485D01*
X129484Y288577D02*
X129984Y289077D01*
X130984D01*
X131484Y288577D01*
Y288077D01*
X130984Y287577D01*
X130484D01*
X130984D01*
X131484Y287078D01*
Y286578D01*
X130984Y286078D01*
X129984D01*
X129484Y286578D01*
X171773Y192437D02*
Y189937D01*
X172272Y189437D01*
X173272D01*
X173772Y189937D01*
Y192437D01*
X176771Y189437D02*
X174771D01*
X176771Y191437D01*
Y191937D01*
X176271Y192437D01*
X175271D01*
X174771Y191937D01*
X139741Y299500D02*
Y302500D01*
X141240D01*
X141740Y302000D01*
Y301000D01*
X141240Y300500D01*
X139741D01*
X140741D02*
X141740Y299500D01*
X142740D02*
X143739D01*
X143240D01*
Y302500D01*
X142740Y302000D01*
X158216Y348271D02*
X157717Y348771D01*
X156717D01*
X156217Y348271D01*
Y346272D01*
X156717Y345772D01*
X157717D01*
X158216Y346272D01*
X161215Y348771D02*
X159216D01*
Y347272D01*
X160216Y347772D01*
X160715D01*
X161215Y347272D01*
Y346272D01*
X160715Y345772D01*
X159716D01*
X159216Y346272D01*
X130654Y325342D02*
Y322843D01*
X131154Y322343D01*
X132153D01*
X132653Y322843D01*
Y325342D01*
X133653Y322343D02*
X134652D01*
X134153D01*
Y325342D01*
X133653Y324842D01*
X171023Y330162D02*
Y333161D01*
X172522D01*
X173022Y332661D01*
Y331661D01*
X172522Y331162D01*
X171023D01*
X172022D02*
X173022Y330162D01*
X174022D02*
X175021D01*
X174522D01*
Y333161D01*
X174022Y332661D01*
X176521Y330162D02*
X177521D01*
X177021D01*
Y333161D01*
X176521Y332661D01*
X127075Y338500D02*
Y341499D01*
X128575D01*
X129074Y341000D01*
Y340000D01*
X128575Y339500D01*
X127075D01*
X128075D02*
X129074Y338500D01*
X130074D02*
X131074D01*
X130574D01*
Y341499D01*
X130074Y341000D01*
X134573Y341499D02*
X132573D01*
Y340000D01*
X133573Y340500D01*
X134073D01*
X134573Y340000D01*
Y339000D01*
X134073Y338500D01*
X133073D01*
X132573Y339000D01*
X126251Y313500D02*
Y316499D01*
X127751D01*
X128251Y316000D01*
Y315000D01*
X127751Y314500D01*
X126251D01*
X127251D02*
X128251Y313500D01*
X129250D02*
X130250D01*
X129750D01*
Y316499D01*
X129250Y316000D01*
X133249Y313500D02*
Y316499D01*
X131749Y315000D01*
X133749D01*
X159501Y338500D02*
Y341499D01*
X161000D01*
X161500Y341000D01*
Y340000D01*
X161000Y339500D01*
X159501D01*
X160501D02*
X161500Y338500D01*
X162500Y341000D02*
X163000Y341499D01*
X163999D01*
X164499Y341000D01*
Y340500D01*
X163999Y340000D01*
X164499Y339500D01*
Y339000D01*
X163999Y338500D01*
X163000D01*
X162500Y339000D01*
Y339500D01*
X163000Y340000D01*
X162500Y340500D01*
Y341000D01*
X163000Y340000D02*
X163999D01*
X170772Y314319D02*
X170272Y314818D01*
X169272D01*
X168772Y314319D01*
Y312319D01*
X169272Y311819D01*
X170272D01*
X170772Y312319D01*
X171772Y314319D02*
X172271Y314818D01*
X173271D01*
X173771Y314319D01*
Y313819D01*
X173271Y313319D01*
X172771D01*
X173271D01*
X173771Y312819D01*
Y312319D01*
X173271Y311819D01*
X172271D01*
X171772Y312319D01*
X167210Y302000D02*
X166710Y302500D01*
X165711D01*
X165211Y302000D01*
Y300000D01*
X165711Y299500D01*
X166710D01*
X167210Y300000D01*
X170209Y299500D02*
X168210D01*
X170209Y301500D01*
Y302000D01*
X169709Y302500D01*
X168710D01*
X168210Y302000D01*
X305501Y246499D02*
Y244500D01*
X306501Y243500D01*
X307501Y244500D01*
Y246499D01*
X310500Y245500D02*
X309000D01*
X308500Y245000D01*
Y244000D01*
X309000Y243500D01*
X310500D01*
X311499D02*
X312499D01*
X311999D01*
Y246499D01*
X311499Y246000D01*
X204148Y192936D02*
Y189937D01*
X205647D01*
X206147Y190437D01*
Y192437D01*
X205647Y192936D01*
X204148D01*
X208646Y189937D02*
X207647D01*
X207147Y190437D01*
Y191437D01*
X207647Y191937D01*
X208646D01*
X209146Y191437D01*
Y190937D01*
X207147D01*
X210146Y192936D02*
Y189937D01*
X211646D01*
X212145Y190437D01*
Y190937D01*
Y191437D01*
X211646Y191937D01*
X210146D01*
X213145D02*
Y190437D01*
X213645Y189937D01*
X215144D01*
Y191937D01*
X217144Y188938D02*
X217644D01*
X218143Y189437D01*
Y191937D01*
X216644D01*
X216144Y191437D01*
Y190437D01*
X216644Y189937D01*
X218143D01*
X262570Y258501D02*
Y261500D01*
X264070D01*
X264569Y261000D01*
Y260000D01*
X264070Y259500D01*
X262570D01*
X263570D02*
X264569Y258501D01*
X265569D02*
X266569D01*
X266069D01*
Y261500D01*
X265569Y261000D01*
X270068Y258501D02*
X268068D01*
X270068Y260500D01*
Y261000D01*
X269568Y261500D01*
X268568D01*
X268068Y261000D01*
X246501Y251501D02*
Y254500D01*
X248000D01*
X248500Y254000D01*
Y253000D01*
X248000Y252500D01*
X246501D01*
X247500D02*
X248500Y251501D01*
X249500Y254500D02*
X251499D01*
Y254000D01*
X249500Y252000D01*
Y251501D01*
X164501Y133001D02*
Y136000D01*
X166000D01*
X166500Y135500D01*
Y134500D01*
X166000Y134000D01*
X164501D01*
X169499Y136000D02*
X167500D01*
Y134500D01*
X168500Y135000D01*
X168999D01*
X169499Y134500D01*
Y133500D01*
X168999Y133001D01*
X168000D01*
X167500Y133500D01*
X167000Y177000D02*
X166500Y177499D01*
X165500D01*
X165001Y177000D01*
Y175000D01*
X165500Y174501D01*
X166500D01*
X167000Y175000D01*
X168000Y174501D02*
X168999D01*
X168500D01*
Y177499D01*
X168000Y177000D01*
X197001Y164543D02*
X196501Y165043D01*
X195501D01*
X195002Y164543D01*
Y162544D01*
X195501Y162044D01*
X196501D01*
X197001Y162544D01*
X200000Y165043D02*
X199000Y164543D01*
X198001Y163543D01*
Y162544D01*
X198501Y162044D01*
X199500D01*
X200000Y162544D01*
Y163044D01*
X199500Y163543D01*
X198001D01*
X236500Y236510D02*
X236000Y237010D01*
X235001D01*
X234501Y236510D01*
Y234511D01*
X235001Y234011D01*
X236000D01*
X236500Y234511D01*
X238999Y234011D02*
Y237010D01*
X237500Y235510D01*
X239499D01*
X239001Y139582D02*
X238502Y140082D01*
X237502D01*
X237002Y139582D01*
Y137583D01*
X237502Y137083D01*
X238502D01*
X239001Y137583D01*
X240001Y140082D02*
X242000D01*
Y139582D01*
X240001Y137583D01*
Y137083D01*
X197500Y354002D02*
X194501D01*
Y355501D01*
X195000Y356001D01*
X196000D01*
X196500Y355501D01*
Y354002D01*
Y355001D02*
X197500Y356001D01*
X194501Y357001D02*
X197500D01*
Y359000D01*
X194501Y360000D02*
X195000D01*
X196000Y360999D01*
X195000Y361999D01*
X194501D01*
X196000Y360999D02*
X197500D01*
Y362999D02*
Y363998D01*
Y363498D01*
X194501D01*
X195000Y362999D01*
X285501Y369500D02*
Y372499D01*
X287000D01*
X287500Y372000D01*
Y371000D01*
X287000Y370500D01*
X285501D01*
X288500Y372000D02*
X289000Y372499D01*
X289999D01*
X290499Y372000D01*
Y371500D01*
X289999Y371000D01*
X289499D01*
X289999D01*
X290499Y370500D01*
Y370000D01*
X289999Y369500D01*
X289000D01*
X288500Y370000D01*
X287752Y131501D02*
Y134500D01*
X289252D01*
X289752Y134000D01*
Y133001D01*
X289252Y132501D01*
X287752D01*
X288752D02*
X289752Y131501D01*
X290751Y134500D02*
Y132501D01*
X291751Y131501D01*
X292751Y132501D01*
Y134500D01*
X293750Y131501D02*
X294750D01*
X294250D01*
Y134500D01*
X293750Y134000D01*
X244501Y270114D02*
Y267115D01*
X246000D01*
X246500Y267615D01*
Y269614D01*
X246000Y270114D01*
X244501D01*
X249499D02*
X247500D01*
Y268614D01*
X248499Y269114D01*
X248999D01*
X249499Y268614D01*
Y267615D01*
X248999Y267115D01*
X248000D01*
X247500Y267615D01*
X287001Y209501D02*
Y212499D01*
X288501D01*
X289001Y212000D01*
Y211000D01*
X288501Y210500D01*
X287001D01*
X288001D02*
X289001Y209501D01*
X290000Y212499D02*
Y210500D01*
X291000Y209501D01*
X292000Y210500D01*
Y212499D01*
X292999Y212000D02*
X293499Y212499D01*
X294499D01*
X294999Y212000D01*
Y211500D01*
X294499Y211000D01*
X293999D01*
X294499D01*
X294999Y210500D01*
Y210000D01*
X294499Y209501D01*
X293499D01*
X292999Y210000D01*
X141409Y284501D02*
Y287499D01*
X142909D01*
X143409Y287000D01*
Y286000D01*
X142909Y285500D01*
X141409D01*
X142409D02*
X143409Y284501D01*
X146408Y287499D02*
X145408Y287000D01*
X144408Y286000D01*
Y285000D01*
X144908Y284501D01*
X145908D01*
X146408Y285000D01*
Y285500D01*
X145908Y286000D01*
X144408D01*
X289501Y270201D02*
Y273200D01*
X291000D01*
X291500Y272701D01*
Y271701D01*
X291000Y271201D01*
X289501D01*
X290500D02*
X291500Y270201D01*
X292500Y270701D02*
X293000Y270201D01*
X293999D01*
X294499Y270701D01*
Y272701D01*
X293999Y273200D01*
X293000D01*
X292500Y272701D01*
Y272201D01*
X293000Y271701D01*
X294499D01*
X277113Y258500D02*
Y255501D01*
X278613D01*
X279113Y256000D01*
Y258000D01*
X278613Y258500D01*
X277113D01*
X281612Y255501D02*
Y258500D01*
X280112Y257000D01*
X282112D01*
X159001Y249500D02*
Y252500D01*
X160500D01*
X161000Y252000D01*
Y251000D01*
X160500Y250500D01*
X159001D01*
X162000Y249500D02*
X162999D01*
X162499D01*
Y252500D01*
X162000Y252000D01*
X272613Y279000D02*
Y281000D01*
X272113Y281500D01*
X271113D01*
X270613Y281000D01*
Y279000D01*
X271113Y278501D01*
X272113D01*
X271613Y279500D02*
X272613Y278501D01*
X272113D02*
X272613Y279000D01*
X273612Y278501D02*
X274612D01*
X274112D01*
Y281500D01*
X273612Y281000D01*
X221310Y134250D02*
X220810Y134750D01*
X219811D01*
X219311Y134250D01*
Y133750D01*
X219811Y133250D01*
X220810D01*
X221310Y132751D01*
Y132251D01*
X220810Y131751D01*
X219811D01*
X219311Y132251D01*
X222310Y131251D02*
X224309D01*
X225309Y131751D02*
Y134750D01*
X226808D01*
X227308Y134250D01*
Y133250D01*
X226808Y132751D01*
X225309D01*
X226308D02*
X227308Y131751D01*
X230307Y134750D02*
X228308D01*
Y131751D01*
X230307D01*
X228308Y133250D02*
X229307D01*
X233306Y134250D02*
X232806Y134750D01*
X231807D01*
X231307Y134250D01*
Y133750D01*
X231807Y133250D01*
X232806D01*
X233306Y132751D01*
Y132251D01*
X232806Y131751D01*
X231807D01*
X231307Y132251D01*
X236305Y134750D02*
X234306D01*
Y131751D01*
X236305D01*
X234306Y133250D02*
X235306D01*
X237305Y134750D02*
X239304D01*
X238304D01*
Y131751D01*
X240304D02*
X241303D01*
X240804D01*
Y134750D01*
X240304Y134250D01*
X203204Y149312D02*
Y152312D01*
X204703D01*
X205203Y151812D01*
Y150812D01*
X204703Y150312D01*
X203204D01*
X204204D02*
X205203Y149312D01*
X206203D02*
X207203D01*
X206703D01*
Y152312D01*
X206203Y151812D01*
X210701Y152312D02*
X209702Y151812D01*
X208702Y150812D01*
Y149812D01*
X209202Y149312D01*
X210202D01*
X210701Y149812D01*
Y150312D01*
X210202Y150812D01*
X208702D01*
D16*
X293531Y149378D02*
X295106D01*
X293531Y146622D02*
X295106D01*
X300421Y146031D02*
Y149969D01*
X306819Y146031D02*
Y149969D01*
X294213Y188378D02*
X295787D01*
X294213Y185622D02*
X295787D01*
X300602Y185031D02*
Y188969D01*
X307000Y185031D02*
Y188969D01*
X147472Y344925D02*
Y350831D01*
X188484Y154681D02*
X190059D01*
X188484Y157437D02*
X190059D01*
X170378Y270213D02*
Y271787D01*
X167622Y270213D02*
Y271787D01*
X148213Y292622D02*
X149787D01*
X148213Y295378D02*
X149787D01*
X166850Y288018D02*
Y289593D01*
X169606Y288018D02*
Y289593D01*
X234832Y246000D02*
X240737D01*
X166350Y331213D02*
Y332787D01*
X169106Y331213D02*
Y332787D01*
X148213Y299622D02*
X149787D01*
X148213Y302378D02*
X149787D01*
X141213Y338622D02*
X142787D01*
X141213Y341378D02*
X142787D01*
X129213Y308622D02*
X130787D01*
X129213Y311378D02*
X130787D01*
X152213Y338622D02*
X153787D01*
X152213Y341378D02*
X153787D01*
X161047Y314000D02*
X166953D01*
X159000Y299100D02*
Y302900D01*
X164047Y186000D02*
X169953D01*
X188776Y161950D02*
Y165750D01*
X265213Y253622D02*
X266787D01*
X265213Y256378D02*
X266787D01*
X256441Y252213D02*
Y253787D01*
X253685Y252213D02*
Y253787D01*
X230307Y136682D02*
Y140482D01*
X284032Y257000D02*
X287968D01*
X284032Y263398D02*
X287968D01*
X287378Y271213D02*
Y272787D01*
X284622Y271213D02*
Y272787D01*
X152121Y284622D02*
X153696D01*
X152121Y287378D02*
X153696D01*
X205397Y154681D02*
X206972D01*
X205397Y157437D02*
X206972D01*
X203213Y242622D02*
X204787D01*
X203213Y245378D02*
X204787D01*
X216653Y242032D02*
Y245969D01*
X223051Y242032D02*
Y245969D01*
D17*
X211146Y185646D02*
Y187501D01*
Y182146D02*
Y185646D01*
X209000Y180000D02*
X211146Y182146D01*
X209000Y177134D02*
Y180000D01*
X282000Y295000D02*
X294146Y307146D01*
X211884Y294584D02*
X222600Y305300D01*
X201537Y294772D02*
X212253Y305488D01*
X191984Y294772D02*
X202700Y305488D01*
X192521Y305922D02*
X199598Y313000D01*
X192521Y314922D02*
X199598Y322000D01*
X266189Y369134D02*
X276905Y379850D01*
X316130Y379130D02*
X322000Y385000D01*
X317130Y370130D02*
X322000Y375000D01*
X324130Y327130D02*
X329000Y332000D01*
X324130Y347130D02*
X329000Y352000D01*
X324130Y357130D02*
X329000Y362000D01*
X324130Y367130D02*
X329250Y372250D01*
X314000Y367000D02*
X329000Y382000D01*
X304199Y367199D02*
X327000Y390000D01*
X294000Y367000D02*
X320000Y393000D01*
X274386Y327284D02*
X285102Y338000D01*
X274386Y337284D02*
X285102Y348000D01*
X274386Y347284D02*
X285102Y358000D01*
X291725Y374925D02*
X310000Y393200D01*
X274189Y357134D02*
X283526Y366470D01*
X274386Y317284D02*
X285102Y328000D01*
X251605Y294772D02*
X262321Y305488D01*
X241776Y294772D02*
X252492Y305488D01*
X231284Y294772D02*
X242000Y305488D01*
X221984Y294772D02*
X232700Y305488D01*
X192521Y325922D02*
X199598Y333000D01*
X192521Y345922D02*
X199598Y353000D01*
X274450Y367650D02*
X300000Y393200D01*
X264850Y367650D02*
X290400Y393200D01*
X254750Y367650D02*
X280300Y393200D01*
X244850Y367650D02*
X270400Y393200D01*
X234950Y367650D02*
X260500Y393200D01*
X214450Y367450D02*
X240000Y393000D01*
X224650Y367650D02*
X250200Y393200D01*
X204850Y367850D02*
X220657Y383657D01*
X230000Y393000D01*
X192314Y385314D02*
X200000Y393000D01*
X191650Y374650D02*
X210000Y393000D01*
X193256Y366256D02*
X220000Y393000D01*
X192221Y335222D02*
X199299Y342299D01*
X321825Y294825D02*
X329500Y302500D01*
X310912Y293913D02*
X329000Y312000D01*
X271701Y294701D02*
X285000Y308000D01*
X261771Y294771D02*
X285000Y318000D01*
D18*
X252499Y265990D02*
X257347D01*
X252499Y263507D02*
Y274530D01*
X257347Y263478D02*
Y274502D01*
X132653Y300010D02*
X137501D01*
Y291470D02*
Y302493D01*
X132653Y291498D02*
Y302522D01*
X126499Y293990D02*
X131347D01*
X126499Y291507D02*
Y302530D01*
X131347Y291478D02*
Y302502D01*
X199205Y178169D02*
Y192736D01*
X179126Y178169D02*
Y192736D01*
X199205D01*
X179126Y178169D02*
X199205D01*
X138027Y325256D02*
X157712D01*
X138027Y318169D02*
X157712D01*
Y325256D01*
X138027Y318169D02*
Y325256D01*
X199598Y306488D02*
Y367512D01*
X274402D01*
Y306488D02*
Y367512D01*
X199598Y306488D02*
X274402D01*
X275368Y273299D02*
X278518D01*
Y269756D02*
Y273299D01*
X266707D02*
X269857D01*
X266707Y269756D02*
Y273299D01*
D19*
X282740Y367000D02*
X322898D01*
X283740Y347000D02*
Y367000D01*
X282740Y347000D02*
Y367000D01*
X322898Y347000D02*
Y367000D01*
Y307000D02*
Y347000D01*
X282740Y307000D02*
X322898D01*
X282740D02*
Y347000D01*
X283740Y307000D02*
Y347000D01*
X165213Y207000D02*
Y247000D01*
X166213Y207000D02*
Y247000D01*
X126055D02*
X166213D01*
X126055Y207000D02*
Y247000D01*
Y207000D02*
X166213D01*
D20*
X190000Y292000D02*
X326000D01*
X190000D02*
Y390000D01*
D21*
X201643Y237501D02*
Y240499D01*
X203142D01*
X203642Y240000D01*
Y239000D01*
X203142Y238500D01*
X201643D01*
X202642D02*
X203642Y237501D01*
X204642Y240000D02*
X205142Y240499D01*
X206141D01*
X206641Y240000D01*
Y239500D01*
X206141Y239000D01*
X205641D01*
X206141D01*
X206641Y238500D01*
Y238000D01*
X206141Y237501D01*
X205142D01*
X204642Y238000D01*
X214654Y240295D02*
Y237296D01*
X216154D01*
X216653Y237796D01*
Y239795D01*
X216154Y240295D01*
X214654D01*
X217653Y237296D02*
X218653D01*
X218153D01*
Y240295D01*
X217653Y239795D01*
D22*
X326449Y317000D02*
D03*
Y337000D02*
D03*
M02*
