G04*
G04 #@! TF.GenerationSoftware,Altium Limited,Altium Designer,21.6.1 (37)*
G04*
G04 Layer_Color=32896*
%FSLAX25Y25*%
%MOIN*%
G70*
G04*
G04 #@! TF.SameCoordinates,52293247-6156-4BB5-AEA0-72ABDA420298*
G04*
G04*
G04 #@! TF.FilePolarity,Positive*
G04*
G01*
G75*
%ADD13C,0.00984*%
%ADD15C,0.00500*%
%ADD16C,0.00394*%
%ADD17C,0.01500*%
%ADD18C,0.00787*%
%ADD20C,0.06299*%
%ADD69C,0.01575*%
D13*
X299892Y197000D02*
X299154Y197426D01*
Y196574D01*
X299892Y197000D01*
Y179000D02*
X299154Y179426D01*
Y178574D01*
X299892Y179000D01*
D15*
X314195Y222729D02*
Y225728D01*
X312695D01*
X312195Y225228D01*
Y224229D01*
X312695Y223729D01*
X314195D01*
X313195D02*
X312195Y222729D01*
X309196Y225728D02*
Y222729D01*
X310696D01*
X311196Y223229D01*
Y224229D01*
X310696Y224728D01*
X309196D01*
X314271Y214209D02*
Y217208D01*
X312771D01*
X312271Y216708D01*
Y215709D01*
X312771Y215209D01*
X314271D01*
X313271D02*
X312271Y214209D01*
X309273Y216209D02*
X310772D01*
X311272Y215709D01*
Y214709D01*
X310772Y214209D01*
X309273D01*
X313499Y174778D02*
Y177777D01*
X312000D01*
X311500Y177277D01*
Y176277D01*
X312000Y175777D01*
X313499D01*
X312499D02*
X311500Y174778D01*
X310500Y177777D02*
Y174778D01*
X309001D01*
X308501Y175277D01*
Y175777D01*
Y176277D01*
X309001Y176777D01*
X310500D01*
X313499Y166760D02*
Y169759D01*
X312000D01*
X311500Y169260D01*
Y168260D01*
X312000Y167760D01*
X313499D01*
X312499D02*
X311500Y166760D01*
X310000Y168760D02*
X309001D01*
X308501Y168260D01*
Y166760D01*
X310000D01*
X310500Y167260D01*
X310000Y167760D01*
X308501D01*
X289500Y203969D02*
Y205968D01*
X290000Y206468D01*
X290999D01*
X291499Y205968D01*
Y203969D01*
X290999Y203469D01*
X290000D01*
X290499Y204469D02*
X289500Y203469D01*
X290000D02*
X289500Y203969D01*
X288500Y206468D02*
Y203469D01*
X287001D01*
X286501Y203969D01*
Y204469D01*
Y204969D01*
X287001Y205469D01*
X288500D01*
X290500Y185018D02*
Y187017D01*
X291000Y187517D01*
X291999D01*
X292499Y187017D01*
Y185018D01*
X291999Y184518D01*
X291000D01*
X291499Y185517D02*
X290500Y184518D01*
X291000D02*
X290500Y185018D01*
X289000Y186517D02*
X288001D01*
X287501Y186017D01*
Y184518D01*
X289000D01*
X289500Y185018D01*
X289000Y185517D01*
X287501D01*
D16*
X300213Y169378D02*
X301787D01*
X300213Y166622D02*
X301787D01*
X300213Y177378D02*
X301787D01*
X300213Y174622D02*
X301787D01*
X300213Y217378D02*
X301787D01*
X300213Y214622D02*
X301787D01*
X300213Y225378D02*
X301787D01*
X300213Y222622D02*
X301787D01*
D17*
X221992Y314922D02*
X258000Y352000D01*
X219000Y321000D02*
X253083Y356394D01*
X203311Y346311D02*
X208000Y351000D01*
X281750Y294750D02*
X296000Y309000D01*
X302163Y295163D02*
X330000Y323000D01*
X291500Y294500D02*
X330000Y333000D01*
X312000Y325000D02*
X330000Y343000D01*
X312000Y335000D02*
X330000Y353000D01*
X270400Y313000D02*
X296000Y339000D01*
X270400Y323000D02*
X296000Y349000D01*
X208000Y294771D02*
X211571D01*
X261771D02*
X296000Y329000D01*
X272701Y295701D02*
X296000Y319000D01*
X310912Y293913D02*
X330000Y313000D01*
X321825Y294825D02*
X330000Y303000D01*
X192221Y335222D02*
X197650Y340650D01*
X193256Y366256D02*
X220000Y393000D01*
X191650Y374650D02*
X210000Y393000D01*
X192314Y385314D02*
X200000Y393000D01*
X220657Y383657D02*
X230000Y393000D01*
X191825Y354825D02*
X220657Y383657D01*
X221992Y364992D02*
X250200Y393200D01*
X216000Y369000D02*
X240000Y393000D01*
X211650Y344350D02*
X260500Y393200D01*
X213727Y336527D02*
X270400Y393200D01*
X192794Y305694D02*
X280300Y393200D01*
X266100Y368900D02*
X290400Y393200D01*
X270100Y363300D02*
X300000Y393200D01*
X192521Y345922D02*
X203799Y357201D01*
X192521Y325922D02*
X197299Y330701D01*
X192521Y314922D02*
X206799Y329201D01*
X192984Y295772D02*
X203700Y306488D01*
X202537Y295772D02*
X212055Y305289D01*
X222984Y295772D02*
X320706Y393494D01*
X232284Y295772D02*
X250817Y314305D01*
X242776Y295772D02*
X253492Y306488D01*
X252605Y295772D02*
X261302Y304469D01*
X211571Y294771D02*
X310000Y393200D01*
X260500Y323000D02*
X296000Y359000D01*
X302500Y365500D02*
X327000Y390000D01*
X312000Y365000D02*
X330000Y383000D01*
X312000Y355000D02*
X330000Y373000D01*
X312000Y345000D02*
X330000Y363000D01*
D18*
X303606Y198094D02*
X306756D01*
Y201244D01*
X303606Y209906D02*
X306756D01*
Y206756D02*
Y209906D01*
X303606Y180095D02*
X306756D01*
Y183244D01*
X303606Y191905D02*
X306756D01*
Y188756D02*
Y191905D01*
D20*
X192000Y294000D02*
Y390000D01*
Y294000D02*
X326000D01*
D69*
X310425Y134446D02*
Y129199D01*
X307801Y126575D01*
X305178Y129199D01*
Y134446D01*
X298618Y126575D02*
X301242D01*
X302554Y127887D01*
Y130510D01*
X301242Y131823D01*
X298618D01*
X297306Y130510D01*
Y129199D01*
X302554D01*
X294682Y131823D02*
Y126575D01*
Y129199D01*
X293370Y130510D01*
X292058Y131823D01*
X290746D01*
X278939Y129199D02*
X273692D01*
X278939Y131823D02*
X273692D01*
X257949Y134446D02*
X263196D01*
Y130510D01*
X260573Y131823D01*
X259261D01*
X257949Y130510D01*
Y127887D01*
X259261Y126575D01*
X261884D01*
X263196Y127887D01*
M02*
