G04*
G04 #@! TF.GenerationSoftware,Altium Limited,Altium Designer,21.6.1 (37)*
G04*
G04 Layer_Physical_Order=1*
G04 Layer_Color=255*
%FSLAX25Y25*%
%MOIN*%
G70*
G04*
G04 #@! TF.SameCoordinates,2088F3C0-FEE1-402F-84BC-96CE3F90A9C5*
G04*
G04*
G04 #@! TF.FilePolarity,Positive*
G04*
G01*
G75*
%ADD13C,0.01000*%
%ADD43R,0.02756X0.03543*%
%ADD44R,0.04331X0.03937*%
%ADD45R,0.05118X0.05906*%
%ADD46R,0.03150X0.03543*%
G04:AMPARAMS|DCode=47|XSize=17.72mil|YSize=55.12mil|CornerRadius=1.95mil|HoleSize=0mil|Usage=FLASHONLY|Rotation=180.000|XOffset=0mil|YOffset=0mil|HoleType=Round|Shape=RoundedRectangle|*
%AMROUNDEDRECTD47*
21,1,0.01772,0.05122,0,0,180.0*
21,1,0.01382,0.05512,0,0,180.0*
1,1,0.00390,-0.00691,0.02561*
1,1,0.00390,0.00691,0.02561*
1,1,0.00390,0.00691,-0.02561*
1,1,0.00390,-0.00691,-0.02561*
%
%ADD47ROUNDEDRECTD47*%
%ADD48O,0.02362X0.08661*%
%ADD49R,0.03543X0.03543*%
%ADD50R,0.05906X0.05118*%
%ADD51R,0.03543X0.02756*%
%ADD52C,0.03937*%
%ADD53R,0.03543X0.03543*%
%ADD54R,0.04528X0.02362*%
%ADD55C,0.02000*%
%ADD56C,0.05906*%
%ADD57C,0.03937*%
%ADD58C,0.01968*%
%ADD59C,0.01181*%
%ADD60C,0.07087*%
%ADD61C,0.05906*%
%ADD62C,0.00394*%
%ADD63C,0.04724*%
%ADD64C,0.06000*%
%ADD65C,0.05512*%
%ADD66C,0.09843*%
%ADD67C,0.07874*%
%ADD68C,0.10000*%
%ADD69R,0.10000X0.10000*%
%ADD70C,0.01968*%
G36*
X-8689Y-43069D02*
X-18355D01*
X-18395Y-43001D01*
X-19001Y-42395D01*
X-19223Y-42267D01*
Y-28690D01*
Y-18950D01*
X-17648D01*
Y-14406D01*
X-19223D01*
Y-12349D01*
X-18960D01*
Y-7412D01*
X-24291D01*
Y-12349D01*
X-22281D01*
Y-16678D01*
Y-27009D01*
X-24918D01*
Y-30371D01*
X-22281D01*
Y-41980D01*
X-22999Y-42395D01*
X-23605Y-43001D01*
X-24034Y-43743D01*
X-24256Y-44571D01*
Y-45429D01*
X-24034Y-46257D01*
X-23605Y-46999D01*
X-22999Y-47605D01*
X-22257Y-48034D01*
X-21429Y-48256D01*
X-20571D01*
X-19743Y-48034D01*
X-19001Y-47605D01*
X-18395Y-46999D01*
X-17966Y-46257D01*
X-17931Y-46128D01*
X-8689D01*
Y-68000D01*
X137031D01*
X137031Y-124173D01*
X102000D01*
Y-156716D01*
X-101879Y-156716D01*
Y-124173D01*
X-120830D01*
Y-94893D01*
X-120369Y-94702D01*
X-115111Y-99960D01*
X-114294Y-100505D01*
X-113331Y-100697D01*
X-95849D01*
X-95606Y-100649D01*
X-95358D01*
X-95129Y-100554D01*
X-94886Y-100505D01*
X-94680Y-100368D01*
X-94451Y-100273D01*
X-94275Y-100098D01*
X-94069Y-99960D01*
X-93964Y-99802D01*
X-91453D01*
Y-101799D01*
X-84547D01*
Y-95681D01*
X-91453D01*
Y-96743D01*
X-93795D01*
X-93932Y-96607D01*
X-94069Y-96400D01*
X-94275Y-96263D01*
X-94451Y-96087D01*
X-94680Y-95993D01*
X-94886Y-95855D01*
X-95129Y-95806D01*
X-95358Y-95712D01*
X-95606D01*
X-95849Y-95663D01*
X-112288D01*
X-118314Y-89638D01*
Y-70335D01*
X-94301D01*
Y-71587D01*
X-90545Y-71587D01*
X-90386Y-72022D01*
Y-74181D01*
X-90309Y-74571D01*
X-90088Y-74902D01*
X-89087Y-75903D01*
Y-76740D01*
X-89946D01*
Y-77992D01*
X-93295D01*
X-93686Y-78070D01*
X-94016Y-78291D01*
X-95785Y-80059D01*
X-102310D01*
X-102333Y-79974D01*
X-102710Y-79321D01*
X-103243Y-78788D01*
X-103895Y-78412D01*
X-104623Y-78216D01*
X-105377D01*
X-106105Y-78412D01*
X-106757Y-78788D01*
X-107290Y-79321D01*
X-107667Y-79974D01*
X-107862Y-80702D01*
Y-81456D01*
X-107667Y-82183D01*
X-107290Y-82836D01*
X-106757Y-83369D01*
X-106105Y-83746D01*
X-105377Y-83941D01*
X-104623D01*
X-103895Y-83746D01*
X-103243Y-83369D01*
X-102710Y-82836D01*
X-102333Y-82183D01*
X-102310Y-82098D01*
X-95362D01*
X-94972Y-82021D01*
X-94641Y-81800D01*
X-92873Y-80031D01*
X-89946D01*
Y-81283D01*
X-86583D01*
X-86376Y-81783D01*
X-87912Y-83319D01*
X-95139D01*
X-95529Y-83397D01*
X-95860Y-83618D01*
X-101884Y-89642D01*
X-101895Y-89647D01*
X-102491Y-89542D01*
X-102710Y-89164D01*
X-103243Y-88631D01*
X-103895Y-88254D01*
X-104623Y-88059D01*
X-105377D01*
X-106105Y-88254D01*
X-106757Y-88631D01*
X-107290Y-89164D01*
X-107667Y-89816D01*
X-107862Y-90544D01*
Y-91298D01*
X-107667Y-92026D01*
X-107290Y-92679D01*
X-106757Y-93212D01*
X-106105Y-93588D01*
X-105377Y-93783D01*
X-104623D01*
X-103895Y-93588D01*
X-103243Y-93212D01*
X-102710Y-92679D01*
X-102333Y-92026D01*
X-102310Y-91941D01*
X-101721D01*
X-101331Y-91863D01*
X-101000Y-91642D01*
X-94717Y-85359D01*
X-87489D01*
X-87099Y-85281D01*
X-86769Y-85060D01*
X-83004Y-81296D01*
X-82942Y-81283D01*
X-80284D01*
Y-80031D01*
X-75368D01*
X-75368Y-80031D01*
X-74978Y-79954D01*
X-74647Y-79733D01*
X-72062Y-77147D01*
X-71047Y-78162D01*
Y-80028D01*
X-71071Y-80051D01*
X-71509Y-80241D01*
X-71625Y-80198D01*
X-71896Y-80144D01*
X-73278D01*
X-73549Y-80198D01*
X-73778Y-80351D01*
X-73932Y-80581D01*
X-73986Y-80852D01*
Y-85974D01*
X-73932Y-86246D01*
X-73778Y-86475D01*
X-74078Y-86859D01*
X-79245Y-92026D01*
X-79466Y-92357D01*
X-79543Y-92747D01*
Y-134400D01*
X-79783Y-134640D01*
X-80009Y-135186D01*
Y-135776D01*
X-79783Y-136322D01*
X-79366Y-136739D01*
X-78820Y-136965D01*
X-78230D01*
X-77684Y-136739D01*
X-77267Y-136322D01*
X-77227Y-136226D01*
X-76637Y-136109D01*
X-75250Y-137496D01*
X-75290Y-137774D01*
X-75418Y-138035D01*
X-75868Y-138222D01*
X-76286Y-138640D01*
X-76512Y-139185D01*
Y-139776D01*
X-76414Y-140012D01*
X-76748Y-140512D01*
X-77186D01*
X-77941Y-140714D01*
X-78618Y-141105D01*
X-79171Y-141658D01*
X-79562Y-142334D01*
X-79764Y-143089D01*
Y-143148D01*
X-80264Y-143437D01*
X-80650Y-143214D01*
X-81295Y-143041D01*
Y-145980D01*
Y-148919D01*
X-80650Y-148747D01*
X-79973Y-148356D01*
X-79764Y-148147D01*
X-79264Y-148354D01*
Y-148971D01*
X-78888Y-149879D01*
X-78194Y-150573D01*
X-77815Y-150730D01*
Y-152228D01*
X-77737Y-152618D01*
X-77516Y-152949D01*
X-76264Y-154201D01*
X-75933Y-154422D01*
X-75543Y-154500D01*
X-49795D01*
X-49405Y-154422D01*
X-49074Y-154201D01*
X-46091Y-151218D01*
X-45870Y-150887D01*
X-45792Y-150497D01*
Y-137438D01*
X-42937Y-134583D01*
X-42716Y-134252D01*
X-42639Y-133862D01*
Y-126693D01*
X-41780D01*
Y-122150D01*
X-42639D01*
Y-119895D01*
X-42716Y-119504D01*
X-42937Y-119174D01*
X-45829Y-116281D01*
X-46160Y-116060D01*
X-46550Y-115983D01*
X-46965D01*
Y-114358D01*
X-51114D01*
Y-118902D01*
X-46965D01*
Y-118683D01*
X-46503Y-118492D01*
X-44678Y-120317D01*
Y-122150D01*
X-45536D01*
Y-126693D01*
X-44678D01*
Y-133440D01*
X-47533Y-136295D01*
X-47754Y-136626D01*
X-47832Y-137016D01*
Y-150075D01*
X-50218Y-152461D01*
X-75121D01*
X-75776Y-151806D01*
Y-150730D01*
X-75397Y-150573D01*
X-74703Y-149879D01*
X-74566Y-149549D01*
X-74025D01*
X-73888Y-149879D01*
X-73194Y-150573D01*
X-72286Y-150949D01*
X-71304D01*
X-70397Y-150573D01*
X-69703Y-149879D01*
X-69566Y-149549D01*
X-69025D01*
X-68888Y-149879D01*
X-68194Y-150573D01*
X-67286Y-150949D01*
X-66304D01*
X-65397Y-150573D01*
X-64703Y-149879D01*
X-64566Y-149549D01*
X-64025D01*
X-63888Y-149879D01*
X-63194Y-150573D01*
X-62286Y-150949D01*
X-61304D01*
X-60397Y-150573D01*
X-59703Y-149879D01*
X-59566Y-149549D01*
X-59025D01*
X-58888Y-149879D01*
X-58194Y-150573D01*
X-57286Y-150949D01*
X-56304D01*
X-55397Y-150573D01*
X-54703Y-149879D01*
X-54327Y-148971D01*
Y-148354D01*
X-53827Y-148147D01*
X-53618Y-148356D01*
X-52941Y-148747D01*
X-52295Y-148919D01*
Y-145980D01*
Y-143041D01*
X-52941Y-143214D01*
X-53618Y-143605D01*
X-53827Y-143814D01*
X-54327Y-143607D01*
Y-142989D01*
X-54703Y-142082D01*
X-55397Y-141388D01*
X-55776Y-141231D01*
Y-138983D01*
X-53906Y-137113D01*
X-51795D01*
X-51405Y-137036D01*
X-51074Y-136815D01*
X-48843Y-134583D01*
X-48622Y-134252D01*
X-48544Y-133862D01*
Y-131757D01*
X-48305Y-131519D01*
X-48079Y-130973D01*
Y-130383D01*
X-48305Y-129837D01*
X-48544Y-129598D01*
Y-126693D01*
X-47686D01*
Y-122150D01*
X-51442D01*
Y-123402D01*
X-58693D01*
Y-122150D01*
X-59551D01*
Y-121066D01*
X-59629Y-120676D01*
X-59850Y-120345D01*
X-60293Y-119902D01*
X-60092Y-119402D01*
X-58688D01*
Y-117130D01*
X-61263D01*
X-63838D01*
X-63838Y-119402D01*
X-64313Y-119461D01*
X-65523D01*
Y-118902D01*
X-64700D01*
Y-114358D01*
X-66357D01*
Y-110690D01*
X-65857Y-110370D01*
X-65600Y-110421D01*
X-65409D01*
Y-106642D01*
Y-102862D01*
X-65600D01*
X-65857Y-102913D01*
X-66357Y-102593D01*
Y-100779D01*
X-66441Y-100354D01*
X-66682Y-99993D01*
X-66682Y-99993D01*
X-67678Y-98998D01*
X-67559Y-98712D01*
Y-97729D01*
X-67935Y-96822D01*
X-68629Y-96128D01*
X-69537Y-95752D01*
X-70519D01*
X-71426Y-96128D01*
X-72120Y-96822D01*
X-72496Y-97729D01*
Y-98712D01*
X-72120Y-99619D01*
X-71426Y-100313D01*
X-70519Y-100689D01*
X-69537D01*
X-69250Y-100570D01*
X-68580Y-101240D01*
Y-103149D01*
X-69064Y-103426D01*
X-69080Y-103423D01*
X-69337Y-103372D01*
X-70718D01*
X-70990Y-103426D01*
X-71307Y-103547D01*
X-71625Y-103426D01*
X-71896Y-103372D01*
X-73278D01*
X-73458Y-103408D01*
X-73791Y-103232D01*
X-73958Y-103098D01*
Y-97004D01*
X-68714Y-91760D01*
X-67062D01*
X-66672Y-91682D01*
X-66341Y-91461D01*
X-64188Y-89308D01*
X-63968Y-88978D01*
X-63890Y-88587D01*
Y-86799D01*
X-63866Y-86776D01*
X-63428Y-86585D01*
X-63313Y-86629D01*
X-63041Y-86683D01*
X-61659D01*
X-61388Y-86629D01*
X-61273Y-86585D01*
X-60835Y-86776D01*
X-60811Y-86799D01*
Y-90480D01*
X-60733Y-90870D01*
X-60512Y-91201D01*
X-56715Y-94999D01*
X-56906Y-95461D01*
X-58795D01*
X-59185Y-95538D01*
X-59516Y-95759D01*
X-62981Y-99224D01*
X-63202Y-99555D01*
X-63279Y-99945D01*
Y-102670D01*
X-63745Y-102951D01*
X-63779Y-102950D01*
X-64218Y-102862D01*
X-64410D01*
Y-106642D01*
Y-110421D01*
X-64218D01*
X-63752Y-110328D01*
X-63357Y-110064D01*
X-63230Y-109874D01*
X-63041Y-109911D01*
X-61659D01*
X-61388Y-109857D01*
X-61071Y-109737D01*
X-60753Y-109857D01*
X-60482Y-109911D01*
X-59100D01*
X-58829Y-109857D01*
X-58512Y-109737D01*
X-58194Y-109857D01*
X-57923Y-109911D01*
X-56541D01*
X-56270Y-109857D01*
X-55953Y-109737D01*
X-55635Y-109857D01*
X-55364Y-109911D01*
X-53982D01*
X-53711Y-109857D01*
X-53481Y-109704D01*
X-53328Y-109474D01*
X-53274Y-109203D01*
Y-107661D01*
X-41573D01*
X-39711Y-109523D01*
Y-146509D01*
X-39948Y-146572D01*
X-40690Y-147001D01*
X-41296Y-147607D01*
X-41725Y-148350D01*
X-41947Y-149178D01*
Y-150035D01*
X-41725Y-150863D01*
X-41296Y-151605D01*
X-40690Y-152212D01*
X-39948Y-152640D01*
X-39120Y-152862D01*
X-38262D01*
X-37434Y-152640D01*
X-36692Y-152212D01*
X-36086Y-151605D01*
X-35657Y-150863D01*
X-35435Y-150035D01*
Y-149178D01*
X-35657Y-148350D01*
X-36086Y-147607D01*
X-36692Y-147001D01*
X-37434Y-146572D01*
X-37671Y-146509D01*
Y-109101D01*
X-37749Y-108711D01*
X-37970Y-108380D01*
X-40429Y-105921D01*
X-40760Y-105700D01*
X-41150Y-105622D01*
X-53274D01*
Y-104081D01*
X-53328Y-103810D01*
X-53481Y-103580D01*
X-53711Y-103426D01*
X-53982Y-103372D01*
X-55322D01*
X-55404Y-103276D01*
X-55558Y-102901D01*
X-55157Y-102500D01*
X-51875D01*
X-51636Y-102739D01*
X-51091Y-102965D01*
X-50500D01*
X-49955Y-102739D01*
X-49537Y-102321D01*
X-49311Y-101776D01*
Y-101185D01*
X-49537Y-100639D01*
X-49955Y-100222D01*
X-50500Y-99996D01*
X-50491Y-99500D01*
X-48415D01*
X-48150Y-100000D01*
X-48296Y-100354D01*
Y-100944D01*
X-48070Y-101490D01*
X-47653Y-101907D01*
X-47107Y-102133D01*
X-46517D01*
X-45971Y-101907D01*
X-45733Y-101668D01*
X-40234D01*
X-34349Y-107554D01*
Y-118403D01*
X-34271Y-118793D01*
X-34050Y-119124D01*
X-16469Y-136705D01*
X-16138Y-136926D01*
X-15748Y-137004D01*
X-3098D01*
X-3034Y-137241D01*
X-2605Y-137983D01*
X-1999Y-138590D01*
X-1257Y-139018D01*
X-429Y-139240D01*
X429D01*
X1257Y-139018D01*
X1999Y-138590D01*
X2605Y-137983D01*
X3034Y-137241D01*
X3256Y-136413D01*
Y-135556D01*
X3034Y-134728D01*
X2605Y-133985D01*
X1999Y-133379D01*
X1257Y-132950D01*
X429Y-132728D01*
X-429D01*
X-1257Y-132950D01*
X-1999Y-133379D01*
X-2605Y-133985D01*
X-3034Y-134728D01*
X-3098Y-134965D01*
X-15326D01*
X-32309Y-117981D01*
Y-107132D01*
X-32387Y-106742D01*
X-32608Y-106411D01*
X-39019Y-100000D01*
X-38960Y-99712D01*
X-38832Y-99500D01*
X-16642D01*
Y-100752D01*
X-15361D01*
Y-101753D01*
X-15284Y-102144D01*
X-15063Y-102474D01*
X6854Y-124392D01*
Y-146509D01*
X6617Y-146572D01*
X5875Y-147001D01*
X5269Y-147607D01*
X4840Y-148350D01*
X4618Y-149178D01*
Y-150035D01*
X4840Y-150863D01*
X5269Y-151605D01*
X5875Y-152212D01*
X6617Y-152640D01*
X7445Y-152862D01*
X8303D01*
X9131Y-152640D01*
X9873Y-152212D01*
X10479Y-151605D01*
X10908Y-150863D01*
X11130Y-150035D01*
Y-149178D01*
X10908Y-148350D01*
X10479Y-147607D01*
X9873Y-147001D01*
X9131Y-146572D01*
X8894Y-146509D01*
Y-123969D01*
X8816Y-123579D01*
X8595Y-123248D01*
X-13322Y-101331D01*
Y-100752D01*
X-12886D01*
Y-96209D01*
X-16642D01*
Y-97461D01*
X-40302D01*
X-40509Y-96961D01*
X-35048Y-91500D01*
X3345D01*
X14728Y-102883D01*
Y-134509D01*
X14806Y-134899D01*
X15027Y-135230D01*
X30125Y-150327D01*
X30455Y-150548D01*
X30846Y-150626D01*
X44146D01*
X44210Y-150863D01*
X44639Y-151605D01*
X45245Y-152212D01*
X45987Y-152640D01*
X46815Y-152862D01*
X47673D01*
X48501Y-152640D01*
X49243Y-152212D01*
X49850Y-151605D01*
X50278Y-150863D01*
X50500Y-150035D01*
Y-149178D01*
X50278Y-148350D01*
X49850Y-147607D01*
X49243Y-147001D01*
X48501Y-146572D01*
X48264Y-146509D01*
Y-123969D01*
X48186Y-123579D01*
X47965Y-123248D01*
X26048Y-101331D01*
Y-100697D01*
X26484D01*
Y-96153D01*
X25626D01*
Y-89010D01*
X29116Y-85520D01*
X30669D01*
Y-86772D01*
X34425D01*
X34508Y-87237D01*
Y-89047D01*
X34586Y-89437D01*
X34807Y-89768D01*
X36240Y-91201D01*
X36570Y-91422D01*
X36961Y-91500D01*
X47652D01*
X53980Y-97828D01*
Y-116181D01*
X54058Y-116571D01*
X54279Y-116902D01*
X74082Y-136705D01*
X74413Y-136926D01*
X74803Y-137004D01*
X75643D01*
X75706Y-137241D01*
X76135Y-137983D01*
X76741Y-138590D01*
X77483Y-139018D01*
X78312Y-139240D01*
X79169D01*
X79997Y-139018D01*
X80739Y-138590D01*
X81345Y-137983D01*
X81774Y-137241D01*
X81996Y-136413D01*
Y-135556D01*
X81774Y-134728D01*
X81345Y-133985D01*
X80739Y-133379D01*
X79997Y-132950D01*
X79169Y-132728D01*
X78312D01*
X77483Y-132950D01*
X76741Y-133379D01*
X76135Y-133985D01*
X75706Y-134728D01*
X75675Y-134843D01*
X75169Y-134908D01*
X56020Y-115759D01*
Y-97406D01*
X55942Y-97015D01*
X55721Y-96685D01*
X48796Y-89759D01*
X48465Y-89538D01*
X48075Y-89461D01*
X37383D01*
X36547Y-88625D01*
Y-87260D01*
X36575Y-86772D01*
X37047Y-86772D01*
X40331D01*
Y-85520D01*
X69389D01*
X69412Y-85605D01*
X69788Y-86257D01*
X70321Y-86790D01*
X70974Y-87167D01*
X71702Y-87362D01*
X72456D01*
X73184Y-87167D01*
X73836Y-86790D01*
X74369Y-86257D01*
X74746Y-85605D01*
X74941Y-84877D01*
Y-84123D01*
X74746Y-83395D01*
X74369Y-82743D01*
X73836Y-82210D01*
X73184Y-81833D01*
X72456Y-81638D01*
X71702D01*
X70974Y-81833D01*
X70321Y-82210D01*
X69788Y-82743D01*
X69412Y-83395D01*
X69389Y-83480D01*
X40331D01*
Y-82228D01*
X36575Y-82228D01*
X36547Y-81740D01*
Y-81028D01*
X36470Y-80637D01*
X36248Y-80307D01*
X35221Y-79279D01*
X34890Y-79058D01*
X34500Y-78980D01*
X16975D01*
X16585Y-79058D01*
X16254Y-79279D01*
X13130Y-82403D01*
X-53274D01*
Y-80852D01*
X-53328Y-80581D01*
X-53481Y-80351D01*
X-53711Y-80198D01*
X-53982Y-80144D01*
X-55364D01*
X-55635Y-80198D01*
X-55953Y-80318D01*
X-56270Y-80198D01*
X-56541Y-80144D01*
X-57923D01*
X-58194Y-80198D01*
X-58512Y-80318D01*
X-58829Y-80198D01*
X-59100Y-80144D01*
X-60482D01*
X-60753Y-80198D01*
X-60869Y-80241D01*
X-61307Y-80051D01*
X-61331Y-80028D01*
Y-71587D01*
X-59974D01*
Y-67044D01*
X-61030D01*
Y-64610D01*
X-60546Y-64224D01*
X-60429Y-64256D01*
X-59571D01*
X-58743Y-64034D01*
X-58001Y-63605D01*
X-57395Y-62999D01*
X-56966Y-62257D01*
X-56744Y-61429D01*
Y-60571D01*
X-56966Y-59743D01*
X-57395Y-59001D01*
X-58001Y-58395D01*
X-58743Y-57966D01*
X-59571Y-57744D01*
X-60429D01*
X-61257Y-57966D01*
X-61999Y-58395D01*
X-62605Y-59001D01*
X-63034Y-59743D01*
X-63104Y-60004D01*
X-67165D01*
Y-58709D01*
X-70920D01*
X-71043Y-58259D01*
Y-58151D01*
X-66373Y-53481D01*
X-66153Y-53151D01*
X-66075Y-52760D01*
Y-38647D01*
X-66153Y-38257D01*
X-66373Y-37926D01*
X-73631Y-30669D01*
Y-28146D01*
X-72379D01*
Y-24390D01*
X-76922D01*
Y-28146D01*
X-75670D01*
Y-30343D01*
X-95009D01*
X-95399Y-30421D01*
X-95730Y-30642D01*
X-102600Y-37512D01*
X-102821Y-37843D01*
X-102898Y-38233D01*
Y-38475D01*
X-103221Y-38690D01*
X-103593Y-39246D01*
X-103723Y-39902D01*
Y-46202D01*
X-103593Y-46857D01*
X-103221Y-47414D01*
X-103029Y-47542D01*
Y-48893D01*
X-104592Y-50456D01*
X-105092Y-50249D01*
Y-49719D01*
X-109635D01*
Y-50763D01*
X-111122D01*
Y-49739D01*
X-115666D01*
Y-54283D01*
X-111122D01*
Y-52802D01*
X-109635D01*
Y-54262D01*
X-105092D01*
Y-53709D01*
X-105065Y-53704D01*
X-104734Y-53483D01*
X-101288Y-50037D01*
X-101067Y-49706D01*
X-100989Y-49316D01*
Y-47542D01*
X-100797Y-47414D01*
X-100425Y-46857D01*
X-100295Y-46202D01*
Y-39902D01*
X-100425Y-39246D01*
X-100797Y-38690D01*
X-100806Y-38602D01*
X-94586Y-32383D01*
X-91382D01*
X-91175Y-32882D01*
X-92730Y-34438D01*
X-92951Y-34768D01*
X-93028Y-35159D01*
Y-38562D01*
X-93221Y-38690D01*
X-93593Y-39246D01*
X-93723Y-39902D01*
Y-46202D01*
X-93593Y-46857D01*
X-93221Y-47414D01*
X-93024Y-47545D01*
Y-47989D01*
X-92947Y-48379D01*
X-92726Y-48710D01*
X-91445Y-49990D01*
Y-52044D01*
X-92304D01*
Y-56587D01*
X-88709D01*
X-88209Y-56587D01*
X-88048Y-56587D01*
X-87154D01*
Y-67044D01*
X-88347D01*
Y-66480D01*
X-88425Y-66090D01*
X-88646Y-65759D01*
X-89406Y-64999D01*
Y-63587D01*
X-88548D01*
Y-59044D01*
X-92304D01*
Y-62489D01*
X-92323Y-62587D01*
X-92304Y-62686D01*
Y-63587D01*
X-91445D01*
Y-65421D01*
X-91368Y-65812D01*
X-91147Y-66142D01*
X-90745Y-66544D01*
X-90952Y-67044D01*
X-94301D01*
Y-68296D01*
X-118314D01*
Y-34513D01*
X-116831D01*
Y-35272D01*
X-113075D01*
Y-30728D01*
X-116831D01*
Y-31487D01*
X-118314D01*
Y14150D01*
X-111358Y21105D01*
X-47207D01*
Y15818D01*
X-49049D01*
Y11275D01*
X-47207D01*
Y-3480D01*
X-47090Y-4066D01*
X-46759Y-4562D01*
X-43826Y-7494D01*
Y-9509D01*
X-43803Y-9627D01*
Y-12152D01*
X-43455D01*
Y-14209D01*
X-44126D01*
Y-15765D01*
X-44155Y-15913D01*
X-44126Y-16061D01*
Y-18752D01*
X-40370D01*
Y-14209D01*
X-40396D01*
Y-12152D01*
X-40047D01*
Y-7609D01*
X-40768D01*
Y-6860D01*
X-40884Y-6275D01*
X-41216Y-5779D01*
X-44148Y-2847D01*
Y-933D01*
X-40905D01*
Y5972D01*
X-44148D01*
Y21105D01*
X-8689D01*
Y-43069D01*
D02*
G37*
G36*
X-82331Y-37075D02*
X-78379D01*
X-74426D01*
Y-35532D01*
X-73964Y-35341D01*
X-69848Y-39457D01*
Y-51149D01*
X-75389Y-56691D01*
X-75611Y-57022D01*
X-75688Y-57412D01*
Y-58709D01*
X-76826D01*
Y-63252D01*
X-73082D01*
Y-75283D01*
X-75791Y-77992D01*
X-80284D01*
Y-76740D01*
X-84040D01*
Y-79486D01*
X-84155Y-79562D01*
X-85690Y-81097D01*
X-86190Y-80890D01*
Y-76740D01*
X-87048D01*
Y-75480D01*
X-87126Y-75090D01*
X-87347Y-74759D01*
X-88347Y-73759D01*
Y-71587D01*
X-84639D01*
Y-67044D01*
X-85115D01*
Y-56587D01*
X-84060D01*
Y-52044D01*
X-85859D01*
Y-47455D01*
X-85797Y-47414D01*
X-85425Y-46857D01*
X-85295Y-46202D01*
Y-45335D01*
X-81831D01*
Y-48115D01*
X-74926D01*
Y-41997D01*
X-81831D01*
Y-43296D01*
X-85295D01*
Y-39902D01*
X-85425Y-39246D01*
X-85797Y-38690D01*
X-86353Y-38319D01*
X-87009Y-38188D01*
X-87665Y-38319D01*
X-88221Y-38690D01*
X-88592Y-39246D01*
X-88723Y-39902D01*
Y-46202D01*
X-88592Y-46857D01*
X-88221Y-47414D01*
X-87898Y-47629D01*
Y-51690D01*
X-88252Y-52044D01*
X-88548Y-52044D01*
X-88709Y-52044D01*
X-89406D01*
Y-49568D01*
X-89484Y-49178D01*
X-89705Y-48847D01*
X-90641Y-47911D01*
X-90797Y-47414D01*
X-90425Y-46857D01*
X-90295Y-46202D01*
Y-39902D01*
X-90425Y-39246D01*
X-90797Y-38690D01*
X-90989Y-38562D01*
Y-35581D01*
X-89622Y-34214D01*
X-82331D01*
Y-37075D01*
D02*
G37*
G36*
X-63034Y-62257D02*
X-62621Y-62972D01*
X-62770Y-63121D01*
X-62991Y-63451D01*
X-63069Y-63842D01*
Y-67044D01*
X-64124D01*
Y-71587D01*
X-63370D01*
Y-80028D01*
X-63394Y-80051D01*
X-63832Y-80241D01*
X-63947Y-80198D01*
X-64218Y-80144D01*
X-65600D01*
X-65872Y-80198D01*
X-66189Y-80318D01*
X-66506Y-80198D01*
X-66778Y-80144D01*
X-68160D01*
X-68431Y-80198D01*
X-68546Y-80241D01*
X-68984Y-80051D01*
X-69008Y-80028D01*
Y-77740D01*
X-69086Y-77350D01*
X-69307Y-77019D01*
X-71043Y-75283D01*
Y-63701D01*
X-70920Y-63252D01*
X-67165D01*
Y-62043D01*
X-63091D01*
X-63034Y-62257D01*
D02*
G37*
G36*
X-67562Y-119895D02*
X-67484Y-120285D01*
X-67263Y-120615D01*
X-66678Y-121201D01*
X-66347Y-121422D01*
X-65957Y-121500D01*
X-61590D01*
Y-122150D01*
X-62449D01*
Y-126693D01*
X-58693D01*
Y-125441D01*
X-51442D01*
Y-126693D01*
X-50583D01*
Y-129598D01*
X-50822Y-129837D01*
X-51048Y-130383D01*
Y-130973D01*
X-50822Y-131519D01*
X-50583Y-131757D01*
Y-133440D01*
X-52218Y-135074D01*
X-54328D01*
X-54718Y-135152D01*
X-55049Y-135373D01*
X-57516Y-137840D01*
X-57737Y-138171D01*
X-57815Y-138561D01*
Y-141231D01*
X-58194Y-141388D01*
X-58704Y-141898D01*
X-59275Y-141868D01*
X-59309Y-141850D01*
X-59420Y-141658D01*
X-59973Y-141105D01*
X-60650Y-140714D01*
X-61295Y-140541D01*
Y-143480D01*
X-62295D01*
Y-140541D01*
X-62941Y-140714D01*
X-63618Y-141105D01*
X-63963Y-141450D01*
X-64295Y-141601D01*
X-64628Y-141450D01*
X-64973Y-141105D01*
X-65649Y-140714D01*
X-66295Y-140541D01*
Y-143480D01*
X-67295D01*
Y-140541D01*
X-67941Y-140714D01*
X-68618Y-141105D01*
X-69117Y-140897D01*
X-69144Y-140694D01*
X-68789Y-140307D01*
X-68533D01*
X-67987Y-140081D01*
X-67570Y-139664D01*
X-67344Y-139118D01*
Y-138528D01*
X-67570Y-137982D01*
X-67583Y-137969D01*
X-67548Y-137755D01*
X-67412Y-137432D01*
X-66954Y-137242D01*
X-66537Y-136825D01*
X-66311Y-136279D01*
Y-135689D01*
X-66537Y-135143D01*
X-66954Y-134726D01*
X-67500Y-134500D01*
X-68090D01*
X-68159Y-134529D01*
X-71567Y-131121D01*
Y-129519D01*
X-71067Y-129312D01*
X-70868Y-129510D01*
X-70323Y-129736D01*
X-69732D01*
X-69187Y-129510D01*
X-68769Y-129093D01*
X-68543Y-128547D01*
Y-127957D01*
X-68769Y-127411D01*
X-69008Y-127173D01*
Y-119336D01*
X-68850Y-118902D01*
X-67562D01*
Y-119895D01*
D02*
G37*
G36*
X34508Y-81450D02*
Y-81763D01*
X34425Y-82228D01*
X30669D01*
Y-83480D01*
X28694D01*
X28304Y-83558D01*
X27973Y-83779D01*
X23885Y-87866D01*
X23664Y-88197D01*
X23587Y-88587D01*
Y-96153D01*
X22728D01*
Y-100697D01*
X24009D01*
Y-101753D01*
X24086Y-102144D01*
X24307Y-102474D01*
X46224Y-124392D01*
Y-146509D01*
X45987Y-146572D01*
X45245Y-147001D01*
X44639Y-147607D01*
X44210Y-148350D01*
X44146Y-148587D01*
X31268D01*
X16768Y-134086D01*
Y-102461D01*
X16690Y-102070D01*
X16469Y-101740D01*
X4489Y-89759D01*
X4158Y-89538D01*
X3768Y-89461D01*
X-35296D01*
X-35520Y-88997D01*
X-35522Y-88979D01*
X-34499Y-87956D01*
X6876D01*
X18665Y-99745D01*
Y-124173D01*
X18743Y-124563D01*
X18964Y-124894D01*
X30775Y-136705D01*
X31106Y-136926D01*
X31496Y-137004D01*
X36272D01*
X36336Y-137241D01*
X36765Y-137983D01*
X37371Y-138590D01*
X38113Y-139018D01*
X38941Y-139240D01*
X39799D01*
X40627Y-139018D01*
X41369Y-138590D01*
X41976Y-137983D01*
X42404Y-137241D01*
X42626Y-136413D01*
Y-135556D01*
X42404Y-134728D01*
X41976Y-133985D01*
X41369Y-133379D01*
X40627Y-132950D01*
X39799Y-132728D01*
X38941D01*
X38113Y-132950D01*
X37371Y-133379D01*
X36765Y-133985D01*
X36336Y-134728D01*
X36272Y-134965D01*
X31918D01*
X20705Y-123751D01*
Y-99323D01*
X20627Y-98933D01*
X20406Y-98602D01*
X8019Y-86215D01*
X7688Y-85994D01*
X7298Y-85916D01*
X-34921D01*
X-35311Y-85994D01*
X-35642Y-86215D01*
X-43218Y-93791D01*
X-45316D01*
X-45554Y-93321D01*
X-45328Y-92775D01*
Y-92185D01*
X-45554Y-91640D01*
X-45971Y-91222D01*
X-46517Y-90996D01*
X-47107D01*
X-47653Y-91222D01*
X-47892Y-91461D01*
X-53873D01*
X-56213Y-89121D01*
Y-86799D01*
X-56188Y-86776D01*
X-55751Y-86585D01*
X-55635Y-86629D01*
X-55364Y-86683D01*
X-53982D01*
X-53711Y-86629D01*
X-53481Y-86475D01*
X-53328Y-86246D01*
X-53274Y-85974D01*
Y-84442D01*
X13553D01*
X13943Y-84364D01*
X14274Y-84143D01*
X17398Y-81020D01*
X34078D01*
X34508Y-81450D01*
D02*
G37*
%LPC*%
G36*
X-51199Y15818D02*
X-54955D01*
Y14566D01*
X-58402D01*
Y15720D01*
X-63733D01*
Y10783D01*
X-58402D01*
Y12527D01*
X-54955D01*
Y11275D01*
X-51199D01*
Y15818D01*
D02*
G37*
G36*
X-64595Y16220D02*
X-67261D01*
Y13751D01*
X-64595D01*
Y16220D01*
D02*
G37*
G36*
X-68261D02*
X-70926D01*
Y13751D01*
X-68261D01*
Y16220D01*
D02*
G37*
G36*
X-64595Y12751D02*
X-67261D01*
Y10283D01*
X-64595D01*
Y12751D01*
D02*
G37*
G36*
X-68261D02*
X-70926D01*
Y10283D01*
X-68261D01*
Y12751D01*
D02*
G37*
G36*
X-32925Y6472D02*
X-35984D01*
Y3020D01*
X-32925D01*
Y6472D01*
D02*
G37*
G36*
X-36984D02*
X-40043D01*
Y3020D01*
X-36984D01*
Y6472D01*
D02*
G37*
G36*
X-32925Y2020D02*
X-35984D01*
Y-1433D01*
X-32925D01*
Y2020D01*
D02*
G37*
G36*
X-36984D02*
X-40043D01*
Y-1433D01*
X-36984D01*
Y2020D01*
D02*
G37*
G36*
X-87607Y-3485D02*
X-90666D01*
Y-6938D01*
X-87607D01*
Y-3485D01*
D02*
G37*
G36*
X-91666D02*
X-94725D01*
Y-6938D01*
X-91666D01*
Y-3485D01*
D02*
G37*
G36*
X-25653Y-7412D02*
X-30984D01*
Y-8861D01*
X-34142D01*
Y-7609D01*
X-37898D01*
Y-12152D01*
X-34142D01*
Y-10900D01*
X-30984D01*
Y-12349D01*
X-25653D01*
Y-7412D01*
D02*
G37*
G36*
X-87607Y-7938D02*
X-90666D01*
Y-11390D01*
X-87607D01*
Y-7938D01*
D02*
G37*
G36*
X-91666D02*
X-94725D01*
Y-11390D01*
X-91666D01*
Y-7938D01*
D02*
G37*
G36*
X-100953Y-12544D02*
X-102831D01*
Y-14816D01*
X-100953D01*
Y-12544D01*
D02*
G37*
G36*
X-103831D02*
X-105709D01*
Y-14816D01*
X-103831D01*
Y-12544D01*
D02*
G37*
G36*
X-100953Y-15816D02*
X-102831D01*
Y-18087D01*
X-100953D01*
Y-15816D01*
D02*
G37*
G36*
X-103831D02*
X-105709D01*
Y-18087D01*
X-103831D01*
Y-15816D01*
D02*
G37*
G36*
X-34465Y-14209D02*
X-38221D01*
Y-18752D01*
X-34465D01*
Y-18010D01*
X-32821D01*
Y-18950D01*
X-28278D01*
Y-14406D01*
X-32821D01*
Y-14951D01*
X-34465D01*
Y-14209D01*
D02*
G37*
G36*
X-84548Y-13044D02*
X-88304D01*
Y-17587D01*
X-87898D01*
Y-19577D01*
X-88221Y-19793D01*
X-88592Y-20349D01*
X-88723Y-21005D01*
Y-27304D01*
X-88592Y-27960D01*
X-88221Y-28516D01*
X-87665Y-28887D01*
X-87009Y-29018D01*
X-86353Y-28887D01*
X-85797Y-28516D01*
X-85425Y-27960D01*
X-85295Y-27304D01*
Y-24834D01*
X-80878D01*
X-80487Y-24757D01*
X-80157Y-24535D01*
X-77422Y-21801D01*
X-76922Y-22008D01*
Y-22241D01*
X-72379D01*
Y-18485D01*
X-76922D01*
Y-19343D01*
X-77426D01*
X-77816Y-19421D01*
X-78147Y-19642D01*
X-81300Y-22795D01*
X-85295D01*
Y-21005D01*
X-85425Y-20349D01*
X-85797Y-19793D01*
X-85859Y-19751D01*
Y-17587D01*
X-84548D01*
Y-13044D01*
D02*
G37*
G36*
X-101509Y-18880D02*
Y-23654D01*
X-99785D01*
Y-21005D01*
X-99954Y-20154D01*
X-100436Y-19432D01*
X-101158Y-18950D01*
X-101509Y-18880D01*
D02*
G37*
G36*
X-102509D02*
X-102860Y-18950D01*
X-103581Y-19432D01*
X-104063Y-20154D01*
X-104233Y-21005D01*
Y-23654D01*
X-102509D01*
Y-18880D01*
D02*
G37*
G36*
X-28249Y-23269D02*
X-33776D01*
Y-24437D01*
X-35312D01*
Y-23859D01*
X-39855D01*
Y-27615D01*
X-35312D01*
Y-26476D01*
X-33776D01*
Y-26631D01*
X-28249D01*
Y-23269D01*
D02*
G37*
G36*
X-90453Y-13044D02*
X-94209D01*
Y-17587D01*
X-92898D01*
Y-19577D01*
X-93221Y-19793D01*
X-93593Y-20349D01*
X-93723Y-21005D01*
Y-27304D01*
X-93593Y-27960D01*
X-93221Y-28516D01*
X-92665Y-28887D01*
X-92009Y-29018D01*
X-91353Y-28887D01*
X-90797Y-28516D01*
X-90425Y-27960D01*
X-90295Y-27304D01*
Y-21005D01*
X-90425Y-20349D01*
X-90797Y-19793D01*
X-90859Y-19751D01*
Y-17587D01*
X-90453D01*
Y-13044D01*
D02*
G37*
G36*
X-99785Y-24654D02*
X-101509D01*
Y-29428D01*
X-101158Y-29358D01*
X-100436Y-28876D01*
X-99954Y-28155D01*
X-99785Y-27304D01*
Y-24654D01*
D02*
G37*
G36*
X-102509D02*
X-104233D01*
Y-27304D01*
X-104063Y-28155D01*
X-103581Y-28876D01*
X-102860Y-29358D01*
X-102509Y-29428D01*
Y-24654D01*
D02*
G37*
G36*
X-27749Y-30249D02*
X-30512D01*
Y-31930D01*
X-27749D01*
Y-30249D01*
D02*
G37*
G36*
X-31512D02*
X-34276D01*
Y-31930D01*
X-31512D01*
Y-30249D01*
D02*
G37*
G36*
X-95587Y-3985D02*
X-101705D01*
Y-10890D01*
X-97898D01*
Y-13044D01*
X-99304D01*
Y-17587D01*
X-97898D01*
Y-19577D01*
X-98221Y-19793D01*
X-98593Y-20349D01*
X-98723Y-21005D01*
Y-27304D01*
X-98593Y-27960D01*
X-98221Y-28516D01*
X-98373Y-29016D01*
X-101337Y-31980D01*
X-107169D01*
Y-30728D01*
X-110925D01*
Y-35272D01*
X-107169D01*
Y-34020D01*
X-100915D01*
X-100525Y-33942D01*
X-100194Y-33721D01*
X-96289Y-29816D01*
X-96068Y-29485D01*
X-95990Y-29095D01*
Y-28645D01*
X-95797Y-28516D01*
X-95425Y-27960D01*
X-95295Y-27304D01*
Y-21005D01*
X-95425Y-20349D01*
X-95797Y-19793D01*
X-95859Y-19751D01*
Y-17587D01*
X-95548D01*
Y-13044D01*
X-95859D01*
Y-10890D01*
X-95587D01*
Y-3985D01*
D02*
G37*
G36*
X-27749Y-32930D02*
X-30512D01*
Y-34611D01*
X-27749D01*
Y-32930D01*
D02*
G37*
G36*
X-31512D02*
X-34276D01*
Y-34611D01*
X-31512D01*
Y-32930D01*
D02*
G37*
G36*
X-97009Y-38188D02*
X-97665Y-38319D01*
X-98221Y-38690D01*
X-98593Y-39246D01*
X-98723Y-39902D01*
Y-46202D01*
X-98593Y-46857D01*
X-98221Y-47414D01*
X-97898Y-47629D01*
Y-52044D01*
X-98209D01*
Y-56587D01*
X-98091D01*
Y-59044D01*
X-98209D01*
Y-60296D01*
X-100411D01*
X-100801Y-60374D01*
X-101132Y-60595D01*
X-102910Y-62372D01*
X-105092D01*
Y-60349D01*
X-109635D01*
Y-61393D01*
X-111122D01*
Y-60369D01*
X-115666D01*
Y-64912D01*
X-111122D01*
Y-63432D01*
X-109635D01*
Y-64892D01*
X-105092D01*
Y-64412D01*
X-102488D01*
X-102097Y-64334D01*
X-101767Y-64113D01*
X-99989Y-62335D01*
X-98209D01*
Y-63587D01*
X-94453D01*
Y-59044D01*
X-96052D01*
Y-56587D01*
X-94453D01*
Y-52044D01*
X-95859D01*
Y-47455D01*
X-95797Y-47414D01*
X-95425Y-46857D01*
X-95295Y-46202D01*
Y-39902D01*
X-95425Y-39246D01*
X-95797Y-38690D01*
X-96353Y-38319D01*
X-97009Y-38188D01*
D02*
G37*
G36*
X-53963Y-66544D02*
X-56037D01*
Y-68816D01*
X-53963D01*
Y-66544D01*
D02*
G37*
G36*
X-57037D02*
X-59112D01*
Y-68816D01*
X-57037D01*
Y-66544D01*
D02*
G37*
G36*
X-25764Y-67321D02*
Y-70575D01*
X-22510D01*
X-22764Y-69625D01*
X-23259Y-68769D01*
X-23958Y-68069D01*
X-24815Y-67575D01*
X-25764Y-67321D01*
D02*
G37*
G36*
X-26764D02*
X-27714Y-67575D01*
X-28571Y-68069D01*
X-29270Y-68769D01*
X-29764Y-69625D01*
X-30019Y-70575D01*
X-26764D01*
Y-67321D01*
D02*
G37*
G36*
X-53963Y-69816D02*
X-56037D01*
Y-72087D01*
X-53963D01*
Y-69816D01*
D02*
G37*
G36*
X-57037D02*
X-59112D01*
Y-72087D01*
X-57037D01*
Y-69816D01*
D02*
G37*
G36*
X-22510Y-71575D02*
X-25764D01*
Y-74829D01*
X-24815Y-74575D01*
X-23958Y-74080D01*
X-23259Y-73381D01*
X-22764Y-72525D01*
X-22510Y-71575D01*
D02*
G37*
G36*
X-26764D02*
X-30019D01*
X-29764Y-72525D01*
X-29270Y-73381D01*
X-28571Y-74080D01*
X-27714Y-74575D01*
X-26764Y-74829D01*
Y-71575D01*
D02*
G37*
G36*
X-35312Y-29765D02*
X-39855D01*
Y-33521D01*
X-38603D01*
Y-77956D01*
X-38842Y-78195D01*
X-39068Y-78740D01*
Y-79331D01*
X-38842Y-79876D01*
X-38424Y-80294D01*
X-37879Y-80520D01*
X-37288D01*
X-36743Y-80294D01*
X-36325Y-79876D01*
X-36099Y-79331D01*
Y-78740D01*
X-36325Y-78195D01*
X-36564Y-77956D01*
Y-33521D01*
X-35312D01*
Y-29765D01*
D02*
G37*
G36*
X82421Y-81153D02*
Y-84000D01*
X85268D01*
X85054Y-83202D01*
X84612Y-82436D01*
X83986Y-81810D01*
X83219Y-81367D01*
X82421Y-81153D01*
D02*
G37*
G36*
X81421D02*
X80624Y-81367D01*
X79857Y-81810D01*
X79231Y-82436D01*
X78788Y-83202D01*
X78574Y-84000D01*
X81421D01*
Y-81153D01*
D02*
G37*
G36*
X85268Y-85000D02*
X82421D01*
Y-87847D01*
X83219Y-87633D01*
X83986Y-87190D01*
X84612Y-86564D01*
X85054Y-85798D01*
X85268Y-85000D01*
D02*
G37*
G36*
X81421D02*
X78574D01*
X78788Y-85798D01*
X79231Y-86564D01*
X79857Y-87190D01*
X80624Y-87633D01*
X81421Y-87847D01*
Y-85000D01*
D02*
G37*
G36*
X-84047Y-87701D02*
X-87500D01*
Y-90760D01*
X-84047D01*
Y-87701D01*
D02*
G37*
G36*
X-88500D02*
X-91953D01*
Y-90760D01*
X-88500D01*
Y-87701D01*
D02*
G37*
G36*
X-84047Y-91760D02*
X-87500D01*
Y-94819D01*
X-84047D01*
Y-91760D01*
D02*
G37*
G36*
X-88500D02*
X-91953D01*
Y-94819D01*
X-88500D01*
Y-91760D01*
D02*
G37*
G36*
X38689Y-95957D02*
X33358D01*
Y-97406D01*
X32390D01*
Y-96153D01*
X28634D01*
Y-100697D01*
X32390D01*
Y-99445D01*
X33358D01*
Y-100894D01*
X38689D01*
Y-95957D01*
D02*
G37*
G36*
X-681D02*
X-6012D01*
Y-97406D01*
X-6980D01*
Y-96209D01*
X-10736D01*
Y-100752D01*
X-6980D01*
Y-99445D01*
X-6012D01*
Y-100894D01*
X-681D01*
Y-95957D01*
D02*
G37*
G36*
X69240Y-112230D02*
Y-115484D01*
X72495D01*
X72240Y-114534D01*
X71746Y-113678D01*
X71046Y-112979D01*
X70190Y-112484D01*
X69240Y-112230D01*
D02*
G37*
G36*
X68240D02*
X67290Y-112484D01*
X66434Y-112979D01*
X65735Y-113678D01*
X65240Y-114534D01*
X64986Y-115484D01*
X68240D01*
Y-112230D01*
D02*
G37*
G36*
X-9500D02*
Y-115484D01*
X-6246D01*
X-6500Y-114534D01*
X-6995Y-113678D01*
X-7694Y-112979D01*
X-8550Y-112484D01*
X-9500Y-112230D01*
D02*
G37*
G36*
X-10500D02*
X-11450Y-112484D01*
X-12306Y-112979D01*
X-13005Y-113678D01*
X-13500Y-114534D01*
X-13754Y-115484D01*
X-10500D01*
Y-112230D01*
D02*
G37*
G36*
X-58688Y-113858D02*
X-60763D01*
Y-116130D01*
X-58688D01*
Y-113858D01*
D02*
G37*
G36*
X-61763D02*
X-63838D01*
Y-116130D01*
X-61763D01*
Y-113858D01*
D02*
G37*
G36*
X-51976Y-113858D02*
X-54051D01*
Y-116130D01*
X-51976D01*
Y-113858D01*
D02*
G37*
G36*
X-55051D02*
X-57126D01*
Y-116130D01*
X-55051D01*
Y-113858D01*
D02*
G37*
G36*
X89169Y-112728D02*
X88311D01*
X87483Y-112950D01*
X86741Y-113379D01*
X86135Y-113985D01*
X85706Y-114727D01*
X85484Y-115556D01*
Y-116413D01*
X85706Y-117241D01*
X86135Y-117983D01*
X86741Y-118590D01*
X87483Y-119018D01*
X88311Y-119240D01*
X89169D01*
X89997Y-119018D01*
X90739Y-118590D01*
X91346Y-117983D01*
X91774Y-117241D01*
X91996Y-116413D01*
Y-115556D01*
X91774Y-114727D01*
X91346Y-113985D01*
X90739Y-113379D01*
X89997Y-112950D01*
X89169Y-112728D01*
D02*
G37*
G36*
X45382Y-95957D02*
X40051D01*
Y-100894D01*
X41697D01*
Y-109331D01*
X41774Y-109721D01*
X41996Y-110052D01*
X46459Y-114515D01*
X46336Y-114727D01*
X46114Y-115556D01*
Y-116413D01*
X46336Y-117241D01*
X46765Y-117983D01*
X47371Y-118590D01*
X48113Y-119018D01*
X48941Y-119240D01*
X49799D01*
X50627Y-119018D01*
X51369Y-118590D01*
X51975Y-117983D01*
X52404Y-117241D01*
X52626Y-116413D01*
Y-115556D01*
X52404Y-114727D01*
X51975Y-113985D01*
X51369Y-113379D01*
X50627Y-112950D01*
X49799Y-112728D01*
X48941D01*
X48113Y-112950D01*
X47901Y-113073D01*
X43736Y-108908D01*
Y-100894D01*
X45382D01*
Y-95957D01*
D02*
G37*
G36*
X6012D02*
X681D01*
Y-100894D01*
X2327D01*
Y-109331D01*
X2404Y-109721D01*
X2626Y-110052D01*
X7089Y-114515D01*
X6966Y-114727D01*
X6744Y-115556D01*
Y-116413D01*
X6966Y-117241D01*
X7395Y-117983D01*
X8001Y-118590D01*
X8743Y-119018D01*
X9571Y-119240D01*
X10429D01*
X11257Y-119018D01*
X11999Y-118590D01*
X12605Y-117983D01*
X13034Y-117241D01*
X13256Y-116413D01*
Y-115556D01*
X13034Y-114727D01*
X12605Y-113985D01*
X11999Y-113379D01*
X11257Y-112950D01*
X10429Y-112728D01*
X9571D01*
X8743Y-112950D01*
X8531Y-113073D01*
X4366Y-108908D01*
Y-100894D01*
X6012D01*
Y-95957D01*
D02*
G37*
G36*
X-51976Y-117130D02*
X-54051D01*
Y-119402D01*
X-51976D01*
Y-117130D01*
D02*
G37*
G36*
X-55051D02*
X-57126D01*
Y-119402D01*
X-55051D01*
Y-117130D01*
D02*
G37*
G36*
X-10500Y-116484D02*
X-13754D01*
X-13500Y-117434D01*
X-13005Y-118290D01*
X-12306Y-118990D01*
X-11450Y-119484D01*
X-10500Y-119739D01*
Y-116484D01*
D02*
G37*
G36*
X72495Y-116484D02*
X69240D01*
Y-119739D01*
X70190Y-119484D01*
X71046Y-118990D01*
X71746Y-118290D01*
X72240Y-117434D01*
X72495Y-116484D01*
D02*
G37*
G36*
X68240D02*
X64986D01*
X65240Y-117434D01*
X65735Y-118290D01*
X66434Y-118990D01*
X67290Y-119484D01*
X68240Y-119739D01*
Y-116484D01*
D02*
G37*
G36*
X-6246Y-116484D02*
X-9500D01*
Y-119739D01*
X-8550Y-119484D01*
X-7694Y-118990D01*
X-6995Y-118290D01*
X-6500Y-117434D01*
X-6246Y-116484D01*
D02*
G37*
G36*
X-51295Y-143041D02*
Y-145480D01*
X-48856D01*
X-49029Y-144834D01*
X-49420Y-144158D01*
X-49973Y-143605D01*
X-50649Y-143214D01*
X-51295Y-143041D01*
D02*
G37*
G36*
X-82295D02*
X-82941Y-143214D01*
X-83618Y-143605D01*
X-84171Y-144158D01*
X-84562Y-144834D01*
X-84734Y-145480D01*
X-82295D01*
Y-143041D01*
D02*
G37*
G36*
X-48856Y-146480D02*
X-51295D01*
Y-148919D01*
X-50649Y-148747D01*
X-49973Y-148356D01*
X-49420Y-147803D01*
X-49029Y-147126D01*
X-48856Y-146480D01*
D02*
G37*
G36*
X-82295D02*
X-84734D01*
X-84562Y-147126D01*
X-84171Y-147803D01*
X-83618Y-148356D01*
X-82941Y-148747D01*
X-82295Y-148919D01*
Y-146480D01*
D02*
G37*
G36*
X87114Y-145852D02*
Y-149106D01*
X90369D01*
X90114Y-148157D01*
X89620Y-147300D01*
X88920Y-146601D01*
X88064Y-146106D01*
X87114Y-145852D01*
D02*
G37*
G36*
X86114D02*
X85164Y-146106D01*
X84308Y-146601D01*
X83609Y-147300D01*
X83114Y-148157D01*
X82860Y-149106D01*
X86114D01*
Y-145852D01*
D02*
G37*
G36*
X90369Y-150106D02*
X87114D01*
Y-153361D01*
X88064Y-153106D01*
X88920Y-152612D01*
X89620Y-151912D01*
X90114Y-151056D01*
X90369Y-150106D01*
D02*
G37*
G36*
X86114D02*
X82860D01*
X83114Y-151056D01*
X83609Y-151912D01*
X84308Y-152612D01*
X85164Y-153106D01*
X86114Y-153361D01*
Y-150106D01*
D02*
G37*
G36*
X-74426Y-38076D02*
X-77879D01*
Y-41135D01*
X-74426D01*
Y-38076D01*
D02*
G37*
G36*
X-78879D02*
X-82331D01*
Y-41135D01*
X-78879D01*
Y-38076D01*
D02*
G37*
G36*
X-78048Y-51544D02*
X-80123D01*
Y-53816D01*
X-78048D01*
Y-51544D01*
D02*
G37*
G36*
X-81123D02*
X-83197D01*
Y-53816D01*
X-81123D01*
Y-51544D01*
D02*
G37*
G36*
X-78048Y-54816D02*
X-80123D01*
Y-57087D01*
X-78048D01*
Y-54816D01*
D02*
G37*
G36*
X-81123D02*
X-83197D01*
Y-57087D01*
X-81123D01*
Y-54816D01*
D02*
G37*
G36*
X-64598Y-122150D02*
X-68354D01*
Y-126693D01*
X-67386D01*
Y-127107D01*
X-67308Y-127497D01*
X-67087Y-127828D01*
X-63444Y-131471D01*
Y-136878D01*
X-63905Y-137339D01*
X-64243D01*
X-64788Y-137565D01*
X-65206Y-137982D01*
X-65432Y-138528D01*
Y-139118D01*
X-65206Y-139664D01*
X-64788Y-140081D01*
X-64243Y-140307D01*
X-63652D01*
X-63107Y-140081D01*
X-62689Y-139664D01*
X-62463Y-139118D01*
Y-138780D01*
X-61704Y-138021D01*
X-61483Y-137690D01*
X-61405Y-137300D01*
Y-131048D01*
X-61483Y-130658D01*
X-61704Y-130327D01*
X-64877Y-127155D01*
X-64685Y-126693D01*
X-64598D01*
Y-122150D01*
D02*
G37*
G36*
X29870Y-112230D02*
Y-115484D01*
X33125D01*
X32870Y-114534D01*
X32375Y-113678D01*
X31676Y-112979D01*
X30820Y-112484D01*
X29870Y-112230D01*
D02*
G37*
G36*
X28870D02*
X27920Y-112484D01*
X27064Y-112979D01*
X26365Y-113678D01*
X25870Y-114534D01*
X25616Y-115484D01*
X28870D01*
Y-112230D01*
D02*
G37*
G36*
X33125Y-116484D02*
X29870D01*
Y-119739D01*
X30820Y-119484D01*
X31676Y-118990D01*
X32375Y-118290D01*
X32870Y-117434D01*
X33125Y-116484D01*
D02*
G37*
G36*
X28870D02*
X25616D01*
X25870Y-117434D01*
X26365Y-118290D01*
X27064Y-118990D01*
X27920Y-119484D01*
X28870Y-119739D01*
Y-116484D01*
D02*
G37*
%LPD*%
D13*
X24606Y-98425D02*
Y-88587D01*
X28694Y-84500D01*
X32000D01*
X37905D02*
X72079D01*
X48075Y-90480D02*
X55000Y-97406D01*
X36961Y-90480D02*
X48075D01*
X35528Y-89047D02*
X36961Y-90480D01*
X35528Y-89047D02*
Y-81028D01*
X16975Y-80000D02*
X34500D01*
X35528Y-81028D01*
X13553Y-83422D02*
X16975Y-80000D01*
X-54682Y-83422D02*
X13553D01*
X55000Y-116181D02*
Y-97406D01*
Y-116181D02*
X74803Y-135984D01*
X-61016Y-62480D02*
X-60688D01*
X-62473Y-61024D02*
X-61016Y-62480D01*
X-60688D02*
X-60000Y-61792D01*
X-62049Y-63842D02*
X-60688Y-62480D01*
X-62049Y-69316D02*
Y-63842D01*
X-60000Y-61792D02*
Y-61000D01*
X-62350Y-69617D02*
X-62049Y-69316D01*
X-74948Y-60980D02*
X-74669Y-60701D01*
Y-57412D01*
X-75368Y-79012D02*
X-75368Y-79012D01*
X-82162Y-79012D02*
X-75368D01*
X-95139Y-84339D02*
X-87489D01*
X-83434Y-80283D02*
X-83040D01*
X-87489Y-84339D02*
X-83434Y-80283D01*
X-82162Y-79405D02*
Y-79012D01*
X-83040Y-80283D02*
X-82162Y-79405D01*
X-93295Y-79012D02*
X-88068D01*
X-95362Y-81079D02*
X-93295Y-79012D01*
X-89367Y-74181D02*
Y-66480D01*
X-88068Y-79012D02*
Y-75480D01*
X-89367Y-74181D02*
X-88068Y-75480D01*
X-101721Y-90921D02*
X-95139Y-84339D01*
X-105000Y-90921D02*
X-101721D01*
X-105000Y-81079D02*
X-95362D01*
X-100915Y-33000D02*
X-97010Y-29095D01*
X-109047Y-33000D02*
X-100915D01*
X-120123Y-69316D02*
X-92423D01*
X36024Y-98425D02*
X36024Y-98425D01*
X30512Y-98425D02*
X36024D01*
X-8858Y-98480D02*
X-8803Y-98425D01*
X-3347D01*
X74803Y-135984D02*
X78740D01*
X3768Y-90480D02*
X15748Y-102461D01*
Y-134509D02*
Y-102461D01*
Y-134509D02*
X30846Y-149606D01*
X47244D01*
X7298Y-86936D02*
X19685Y-99323D01*
Y-124173D02*
Y-99323D01*
Y-124173D02*
X31496Y-135984D01*
X-14342Y-101753D02*
Y-98847D01*
Y-101753D02*
X7874Y-123969D01*
Y-149606D02*
Y-123969D01*
X47244Y-149606D02*
Y-123969D01*
X25028Y-101753D02*
X47244Y-123969D01*
X25028Y-101753D02*
Y-98847D01*
X24606Y-98425D02*
X25028Y-98847D01*
X42717Y-109331D02*
X49370Y-115984D01*
X42717Y-109331D02*
Y-98425D01*
X3347Y-109331D02*
Y-98425D01*
Y-109331D02*
X10000Y-115984D01*
X31496Y-135984D02*
X39370D01*
X-15748D02*
X0D01*
X-15638Y-98480D02*
X-14764D01*
X-56791D02*
X-15638D01*
X-14764D02*
X-14764Y-98480D01*
X-33329Y-118403D02*
X-15748Y-135984D01*
X-33329Y-118403D02*
Y-107132D01*
X-28319Y-9881D02*
X-28319Y-9881D01*
X-36020Y-9881D02*
X-28319D01*
X-68822Y-61024D02*
X-68551Y-60753D01*
X-72062Y-75705D02*
Y-57728D01*
X-67094Y-52760D01*
Y-38647D01*
X-74669Y-57412D02*
X-68828Y-51571D01*
Y-39035D01*
X-92005Y-47989D02*
X-90426Y-49568D01*
Y-54316D02*
Y-49568D01*
X-92009Y-43052D02*
X-92005Y-43056D01*
Y-47989D02*
Y-43056D01*
X-97010Y-24155D02*
X-97009Y-24154D01*
X-97010Y-29095D02*
Y-24155D01*
X-96879Y-24154D02*
Y-10150D01*
X-38691Y-149606D02*
Y-109101D01*
X-41150Y-106642D02*
X-38691Y-109101D01*
X-43658Y-133862D02*
Y-124421D01*
X-46812Y-137016D02*
X-43658Y-133862D01*
X-56795Y-143480D02*
Y-138561D01*
X-54328Y-136094D02*
X-51795D01*
X-56795Y-138561D02*
X-54328Y-136094D01*
X-90426Y-61709D02*
Y-61316D01*
Y-65421D02*
Y-61709D01*
Y-65421D02*
X-89367Y-66480D01*
X-91304Y-62587D02*
X-90426Y-61709D01*
X-75368Y-79012D02*
X-72062Y-75705D01*
X-70028Y-83413D02*
Y-77740D01*
X-72062Y-75705D02*
X-70028Y-77740D01*
X-62350Y-83413D02*
Y-69617D01*
X-59791Y-90480D02*
X-55461Y-94810D01*
X-59791Y-90480D02*
Y-83413D01*
X-55461Y-94810D02*
X-42795D01*
X-58795Y-96480D02*
X-41471D01*
X-62260Y-99945D02*
X-58795Y-96480D01*
X-59791Y-106642D02*
Y-101480D01*
X-56791Y-98480D01*
X-54295Y-92480D02*
X-46812D01*
X-57232Y-89543D02*
X-54295Y-92480D01*
X-50795Y-101480D02*
X-50795Y-101480D01*
X-55580Y-101480D02*
X-50795D01*
X-46812Y-100649D02*
X-39812D01*
X-75028Y-139480D02*
X-73303Y-141205D01*
Y-144988D02*
Y-141205D01*
X-74465Y-136839D02*
X-71795Y-139509D01*
X-76795Y-134509D02*
Y-94810D01*
X-71795Y-148480D02*
Y-139509D01*
X-76795Y-134509D02*
X-74465Y-136839D01*
X-68057Y-135984D02*
X-67795D01*
X-72587Y-131543D02*
X-68630Y-135500D01*
X-68542D02*
X-68057Y-135984D01*
X-68630Y-135500D02*
X-68542D01*
X-72587Y-131543D02*
Y-106642D01*
X-70295Y-144980D02*
Y-140290D01*
Y-144980D02*
X-66795Y-148480D01*
X-68828Y-138823D02*
Y-138561D01*
X-70295Y-140290D02*
X-68828Y-138823D01*
X-69312Y-138076D02*
X-68828Y-138561D01*
X-69312Y-138076D02*
Y-137963D01*
X-74977Y-132298D02*
X-69312Y-137963D01*
X-76795Y-148480D02*
X-73303Y-144988D01*
X-57162Y-106572D02*
Y-103063D01*
X-55580Y-101480D01*
X-54673Y-106642D02*
X-41150D01*
X-78525Y-135481D02*
X-78524Y-135480D01*
X-72713Y-86936D02*
Y-83540D01*
X-72587Y-83413D01*
X-74977Y-96581D02*
X-69136Y-90740D01*
X-76795Y-94810D02*
X-70764Y-88779D01*
X-78524Y-92747D02*
X-72713Y-86936D01*
X-62350Y-106642D02*
X-62260Y-106551D01*
Y-99945D01*
X-69136Y-90740D02*
X-67062D01*
X-64909Y-88587D01*
X-70764Y-88779D02*
X-68803D01*
X-67469Y-87445D02*
Y-83413D01*
X-68803Y-88779D02*
X-67469Y-87445D01*
X-64909Y-88587D02*
Y-83413D01*
X-74977Y-132298D02*
Y-96581D01*
X-78524Y-135480D02*
Y-92747D01*
X-61157Y-120480D02*
X-60571Y-121066D01*
X-62425Y-137300D02*
Y-131048D01*
X-66366Y-127107D02*
X-62425Y-131048D01*
X-66366Y-127107D02*
Y-124531D01*
X-66476Y-124421D02*
X-66366Y-124531D01*
X-65957Y-120480D02*
X-61157D01*
X-66542Y-119895D02*
X-65957Y-120480D01*
X-66542Y-119895D02*
Y-116862D01*
X-66775Y-116630D02*
X-66542Y-116862D01*
X-66378Y-115858D02*
X-66181D01*
X-60571Y-124421D02*
Y-121066D01*
X-51795Y-136094D02*
X-49564Y-133862D01*
X-60571Y-124421D02*
X-49564D01*
X-43658Y-124421D02*
Y-119895D01*
X-49564Y-133862D02*
Y-130678D01*
Y-124421D01*
X-57232Y-106642D02*
X-57162Y-106572D01*
X-57232Y-89543D02*
Y-83413D01*
X-70028Y-128252D02*
Y-106642D01*
X-48667Y-117002D02*
X-46550D01*
X-49039Y-116630D02*
X-48667Y-117002D01*
X-46550D02*
X-43658Y-119895D01*
X-37583Y-79035D02*
Y-31643D01*
X-35471Y-90480D02*
X3768D01*
X-39812Y-100649D02*
X-33329Y-107132D01*
X-37583Y-25737D02*
X-37303Y-25457D01*
X-31453D01*
X-68822Y-61024D02*
X-62473D01*
X-49795Y-153480D02*
X-46812Y-150497D01*
Y-137016D01*
X-34921Y-86936D02*
X7298D01*
X-42795Y-94810D02*
X-34921Y-86936D01*
X-105455Y-52762D02*
X-102009Y-49316D01*
Y-43052D01*
X-101879Y-42922D01*
Y-38233D01*
X-95009Y-31363D01*
X-86517Y-69316D02*
X-86134Y-68933D01*
X-97331Y-61316D02*
X-97071Y-61056D01*
Y-54316D01*
X-86879Y-53316D02*
Y-43686D01*
X-96879Y-52863D02*
Y-42568D01*
X-86879Y-43686D02*
X-86249Y-44316D01*
X-86879Y-43686D02*
Y-42568D01*
X-92009Y-43052D02*
Y-35159D01*
X-90045Y-33194D01*
X-87009Y-24154D02*
X-86719D01*
X-86380Y-23815D01*
X-86879D02*
Y-23316D01*
X-91879Y-24064D02*
Y-15316D01*
X-86879Y-23316D02*
Y-15316D01*
X-97426Y-9603D02*
X-96879Y-10150D01*
X-114394Y-62413D02*
X-108384D01*
X-108363Y-63392D02*
X-102488D01*
X-100411Y-61316D01*
X-97331D01*
X-114394Y-51783D02*
X-108384D01*
X-108363Y-51762D02*
X-105455D01*
X-86134Y-68933D02*
Y-53316D01*
X-81009Y-53702D02*
X-80623Y-53316D01*
X-90045Y-33194D02*
X-74669D01*
X-86249Y-44316D02*
X-78904D01*
X-74669Y-33194D02*
X-68828Y-39035D01*
X-95009Y-31363D02*
X-74379D01*
X-74650Y-31091D02*
Y-26268D01*
X-86380Y-23815D02*
X-80878D01*
X-77426Y-20363D01*
X-74650D01*
Y-31091D02*
X-74379Y-31363D01*
X-67094Y-38647D01*
X-41471Y-96480D02*
X-35471Y-90480D01*
X-63947Y-138823D02*
X-62425Y-137300D01*
X-59293Y13546D02*
X-53077D01*
X-75543Y-153480D02*
X-49795D01*
X-76795Y-152228D02*
X-75543Y-153480D01*
X-76795Y-152228D02*
Y-148480D01*
D43*
X38453Y-84500D02*
D03*
X32547D02*
D03*
X-36020Y-9881D02*
D03*
X-41925D02*
D03*
X-66476Y-124421D02*
D03*
X-60571D02*
D03*
X-49564D02*
D03*
X-43658D02*
D03*
X-114953Y-33000D02*
D03*
X-109047D02*
D03*
X-96331Y-61316D02*
D03*
X-90426D02*
D03*
X-96331Y-54316D02*
D03*
X-90426D02*
D03*
X-103331Y-15316D02*
D03*
X-97426D02*
D03*
X-86426D02*
D03*
X-92331D02*
D03*
X-8858Y-98480D02*
D03*
X-14764D02*
D03*
X24606Y-98425D02*
D03*
X30512D02*
D03*
X-82162Y-79012D02*
D03*
X-88068D02*
D03*
X-69042Y-60980D02*
D03*
X-74948D02*
D03*
X-36342Y-16480D02*
D03*
X-42248D02*
D03*
X-86517Y-69316D02*
D03*
X-92423D02*
D03*
X-53077Y13546D02*
D03*
X-47172D02*
D03*
D44*
X-21626Y-9881D02*
D03*
X-28319D02*
D03*
X3347Y-98425D02*
D03*
X-3347D02*
D03*
X42717D02*
D03*
X36024D02*
D03*
X-67761Y13251D02*
D03*
X-61068D02*
D03*
D45*
X-36484Y2520D02*
D03*
X-43964D02*
D03*
X-91166Y-7438D02*
D03*
X-98646D02*
D03*
D46*
X-62049Y-69316D02*
D03*
X-56537D02*
D03*
X-61263Y-116630D02*
D03*
X-66775D02*
D03*
X-49039Y-116630D02*
D03*
X-54551D02*
D03*
X-80623Y-54316D02*
D03*
X-86134D02*
D03*
D47*
X-72587Y-106642D02*
D03*
X-70028D02*
D03*
X-67469D02*
D03*
X-64909D02*
D03*
X-57232D02*
D03*
X-54673D02*
D03*
X-72587Y-83413D02*
D03*
X-70028D02*
D03*
X-64909D02*
D03*
X-62350D02*
D03*
X-59791D02*
D03*
X-57232D02*
D03*
X-54673D02*
D03*
X-59791Y-106642D02*
D03*
X-62350D02*
D03*
X-67469Y-83413D02*
D03*
D48*
X-102009Y-43052D02*
D03*
X-97009D02*
D03*
X-92009D02*
D03*
X-87009D02*
D03*
X-102009Y-24154D02*
D03*
X-97009D02*
D03*
X-87009D02*
D03*
X-92009D02*
D03*
D49*
X-113394Y-52011D02*
D03*
Y-62641D02*
D03*
X-107363Y-62620D02*
D03*
Y-51990D02*
D03*
D50*
X-78379Y-37576D02*
D03*
Y-45056D02*
D03*
X-88000Y-98740D02*
D03*
Y-91260D02*
D03*
D51*
X-74650Y-20363D02*
D03*
Y-26268D02*
D03*
X-37583Y-25737D02*
D03*
Y-31643D02*
D03*
D52*
X-56795Y-148480D02*
D03*
X-61795D02*
D03*
X-66795D02*
D03*
X-71795D02*
D03*
X-76795D02*
D03*
X-66795Y-143480D02*
D03*
X-61795D02*
D03*
X-56795D02*
D03*
X-76795D02*
D03*
X-81795Y-145980D02*
D03*
X-51795D02*
D03*
X-70028Y-98220D02*
D03*
X-95849Y-98180D02*
D03*
D53*
X-30550Y-16678D02*
D03*
X-19920D02*
D03*
D54*
X-22154Y-28690D02*
D03*
X-31012Y-32430D02*
D03*
Y-24950D02*
D03*
D55*
X-45677Y-3480D02*
Y23598D01*
X-42626Y-15913D02*
X-42129D01*
X-20752Y-16678D02*
Y-10150D01*
X-21000Y-45000D02*
X-20598Y-44598D01*
X-20752D02*
Y-28690D01*
Y-16678D01*
X-20598Y-44598D02*
X18760D01*
X-3374Y-98453D02*
X-3347Y-98425D01*
X-42129Y-15913D02*
X-41925Y-15709D01*
Y-9881D01*
X-42297Y-9509D02*
Y-6860D01*
X-45677Y-3480D02*
X-42297Y-6860D01*
Y-9509D02*
X-41925Y-9881D01*
X-42248Y-16480D02*
Y-16291D01*
X-42626Y-15913D02*
X-42248Y-16291D01*
X-36342Y-16480D02*
X-30747D01*
X-30550Y-16678D01*
X16665Y-46693D02*
X18760Y-44598D01*
X-45701Y23622D02*
X-45677Y23598D01*
X-90269Y-98273D02*
X-90217Y-98220D01*
X-95743Y-98273D02*
X-90269D01*
D56*
X105205Y-12480D02*
X105903D01*
X81917D02*
X105205D01*
X43169Y-20976D02*
X66690Y2544D01*
X66791Y2646D02*
X81917Y-12480D01*
X10886Y-20976D02*
X43169D01*
X74673Y-52480D02*
X105205D01*
X66791Y-44598D02*
X74673Y-52480D01*
D57*
X-120830Y-33194D02*
Y15192D01*
Y-90681D02*
Y-33194D01*
X-88548Y23622D02*
X-45701D01*
X-112401D02*
X-88548D01*
X-120830Y15192D02*
X-112401Y23622D01*
X-45701D02*
X-2217D01*
X18760Y2646D01*
X-113331Y-98180D02*
X-95849D01*
X-120830Y-90681D02*
X-113331Y-98180D01*
D58*
X-120830Y-33194D02*
X-120636Y-33000D01*
X-114953D01*
D59*
X-67469Y-106642D02*
Y-100779D01*
X-70028Y-98220D02*
X-67469Y-100779D01*
Y-115936D02*
Y-106642D01*
D60*
X93000Y45276D02*
D03*
X73000D02*
D03*
D61*
X-106299Y80866D02*
D03*
Y70866D02*
D03*
D62*
X-116142Y137795D02*
D03*
Y39370D02*
D03*
X116142Y137795D02*
D03*
Y39370D02*
D03*
D63*
X81921Y-84500D02*
D03*
X72079D02*
D03*
X-105000Y-90921D02*
D03*
Y-81079D02*
D03*
D64*
X-116142Y-137795D02*
D03*
X116142D02*
D03*
D65*
X78740Y-135984D02*
D03*
X88740Y-115984D02*
D03*
X68740D02*
D03*
X-10000D02*
D03*
X10000D02*
D03*
X0Y-135984D02*
D03*
X39370D02*
D03*
X49370Y-115984D02*
D03*
X29370D02*
D03*
X7874Y-149606D02*
D03*
X47244D02*
D03*
X-60000Y-61000D02*
D03*
X-21000Y-45000D02*
D03*
X-38691Y-149606D02*
D03*
X-26264Y-71075D02*
D03*
X86614Y-149606D02*
D03*
D66*
X66791Y2646D02*
D03*
Y-44598D02*
D03*
X10886Y-20976D02*
D03*
D67*
X18760Y-44598D02*
D03*
Y2646D02*
D03*
D68*
X105205Y-32480D02*
D03*
Y7520D02*
D03*
D69*
Y-52480D02*
D03*
Y-12480D02*
D03*
D70*
X-88548Y23622D02*
D03*
X0Y-125984D02*
D03*
X78740D02*
D03*
X39370D02*
D03*
X11811Y-104980D02*
D03*
X-28249Y2520D02*
D03*
X57205Y-104980D02*
D03*
X39705D02*
D03*
X-7795D02*
D03*
X-24991D02*
D03*
X-12795Y19820D02*
D03*
X-31012Y-37075D02*
D03*
X-36564Y8520D02*
D03*
X-83618Y-90681D02*
D03*
X-93295Y-57458D02*
D03*
X-83618Y-49316D02*
D03*
X-102488Y-57458D02*
D03*
X-50795Y-101480D02*
D03*
X-46812Y-100649D02*
D03*
X-75028Y-139480D02*
D03*
X-67795Y-135984D02*
D03*
X-68828Y-138823D02*
D03*
X-78525Y-135481D02*
D03*
X-70028Y-128252D02*
D03*
X-64909Y-112107D02*
D03*
X-78524Y-88335D02*
D03*
X-64795Y-101480D02*
D03*
X-64774Y-98480D02*
D03*
X-61263Y-112107D02*
D03*
X-49564Y-130678D02*
D03*
Y-112481D02*
D03*
X-46812Y-92480D02*
D03*
X-113394Y-82192D02*
D03*
X-37583Y-79035D02*
D03*
X-40905Y19820D02*
D03*
X-107379Y-26316D02*
D03*
Y-21316D02*
D03*
X-106795Y-11480D02*
D03*
X-85115Y-7438D02*
D03*
X-108363Y-42568D02*
D03*
X-89141Y-36177D02*
D03*
X-83379Y-37576D02*
D03*
X7298Y-78539D02*
D03*
X-80379Y-19316D02*
D03*
Y-27316D02*
D03*
X-79465Y-59480D02*
D03*
X-72713Y-38480D02*
D03*
Y-49316D02*
D03*
X-49895Y19820D02*
D03*
X10205Y-142623D02*
D03*
X-63947Y-138823D02*
D03*
X-88000Y-86936D02*
D03*
X-80379Y-74447D02*
D03*
X-94795Y-130678D02*
D03*
X-76795Y-143480D02*
D03*
X-67062Y-66480D02*
D03*
X-56795Y-26316D02*
D03*
X-55795Y-11480D02*
D03*
X-12605Y-78539D02*
D03*
X-66795Y-143480D02*
D03*
X-56795Y-148480D02*
D03*
X-61795D02*
D03*
M02*
