M48
;Layer_Color=9474304
;FILE_FORMAT=2:5
INCH,TZ
;TYPE=PLATED
T1F00S00C0.01181
T2F00S00C0.02559
T3F00S00C0.02717
T4F00S00C0.03150
T5F00S00C0.03543
T6F00S00C0.05118
T7F00S00C0.05906
T8F00S00C0.13780
%
T01
X-94795Y-130678
X-78525Y-135481
X-75028Y-139480
X-76795Y-143480
X-66795
X-68828Y-138823
X-67795Y-135984
X-63947Y-138823
X-61795Y-148480
X-56795
X-49564Y-130678
X-70028Y-128252
X0Y-125984
X10205Y-142623
X39370Y-125984
X78740
X57205Y-104980
X39705
X11811
X-7795
X-24991
X-46812Y-100649
X-50795Y-101480
X-49564Y-112481
X-61263Y-112107
X-64909
X-64795Y-101480
X-64774Y-98480
X-78524Y-88335
X-83618Y-90681
X-88000Y-86936
X-80379Y-74447
X-79465Y-59480
X-83618Y-49316
X-72713
Y-38480
X-83379Y-37576
X-89141Y-36177
X-80379Y-27316
Y-19316
X-85115Y-7438
X-55795Y-11480
X-56795Y-26316
X-31012Y-37075
X-28249Y2520
X-36564Y8520
X-40905Y19820
X-49895
X-12795
X-88548Y23622
X-93295Y-57458
X-67062Y-66480
X-37583Y-79035
X-46812Y-92480
X-12605Y-78539
X7298
X-113394Y-82192
X-102488Y-57458
X-108363Y-42568
X-107379Y-26316
Y-21316
X-106795Y-11480
T02
X-95849Y-98180
X-70028Y-98220
T03
X-81795Y-145980
X-51795
T04
X0Y-135984
X39370
X78740
X88740Y-115984
X68740
X49370
X29370
X10000
X-10000
X-106299Y70866
Y80866
X73000Y45276
X93000
T05
X-38691Y-149606
X7874
X47244
X86614
X81921Y-84500
X72079
X-26264Y-71075
X-21000Y-45000
X-60000Y-61000
X-105000Y-81079
Y-90921
T06
X66791Y-44598
Y2646
X18760
X10886Y-20976
X18760Y-44598
T07
X105205Y-52480
Y-32480
Y-12480
Y7520
T08
X-116142Y-137795
X116142
X-116142Y39370
Y137795
X116142
Y39370
M30
