G04*
G04 #@! TF.GenerationSoftware,Altium Limited,Altium Designer,21.6.1 (37)*
G04*
G04 Layer_Color=32896*
%FSLAX25Y25*%
%MOIN*%
G70*
G04*
G04 #@! TF.SameCoordinates,2088F3C0-FEE1-402F-84BC-96CE3F90A9C5*
G04*
G04*
G04 #@! TF.FilePolarity,Positive*
G04*
G01*
G75*
%ADD10C,0.00984*%
%ADD12C,0.00800*%
%ADD13C,0.01000*%
%ADD15C,0.04000*%
%ADD16C,0.00787*%
%ADD17C,0.00394*%
%ADD18C,0.00500*%
%ADD73C,0.01575*%
D10*
X-61687Y81020D02*
X-62426Y81446D01*
Y80593D01*
X-61687Y81020D01*
Y99020D02*
X-62426Y99446D01*
Y98593D01*
X-61687Y99020D01*
D12*
X71547Y69000D02*
X137795Y2752D01*
X50334Y69000D02*
X137795Y-18462D01*
X29120Y69000D02*
X137795Y-39675D01*
Y-64442D02*
Y69000D01*
X7907D02*
X137795Y-60888D01*
X135187Y69000D02*
X137795Y66391D01*
X-3889Y-69000D02*
X134111Y69000D01*
X113973D02*
X137795Y45178D01*
X92760Y69000D02*
X137795Y23965D01*
X102177Y-69000D02*
X137795Y-33382D01*
X80964Y-69000D02*
X137795Y-12169D01*
Y-69000D02*
Y-64442D01*
X123391Y-69000D02*
X137795Y-54595D01*
X17325Y-69000D02*
X137795Y51471D01*
X-3889Y-69000D02*
X134111Y69000D01*
X59751Y-69000D02*
X137795Y9044D01*
X38538Y-69000D02*
X137795Y30257D01*
X-7874Y69000D02*
X137795D01*
X-7874Y-51772D02*
X112898Y69000D01*
X-7874Y-30559D02*
X91685Y69000D01*
X-7874Y-69000D02*
X137795D01*
X-7874Y21142D02*
X82268Y-69000D01*
X-7874Y33081D02*
X28045Y69000D01*
X-7874Y54294D02*
X6832Y69000D01*
X-7874Y-9346D02*
X70472Y69000D01*
X-7874Y11867D02*
X49259Y69000D01*
X-7874Y63568D02*
X124694Y-69000D01*
X-7874Y63568D02*
X124694Y-69000D01*
X-7874Y-71D02*
X61054Y-69000D01*
X-7874Y42355D02*
X103481Y-69000D01*
X-7874Y-21285D02*
X39841Y-69000D01*
X-7874D02*
Y69000D01*
Y-63711D02*
X-2585Y-69000D01*
X-7874Y-42498D02*
X18628Y-69000D01*
D13*
X89000Y129752D02*
Y117945D01*
X83096D01*
X81129Y119912D01*
Y127784D01*
X83096Y129752D01*
X89000D01*
X75225Y125816D02*
X71289D01*
X69321Y123848D01*
Y117945D01*
X75225D01*
X77193Y119912D01*
X75225Y121880D01*
X69321D01*
X65386Y117945D02*
Y125816D01*
X59482D01*
X57514Y123848D01*
Y117945D01*
X49643Y114009D02*
X47675D01*
X45707Y115977D01*
Y125816D01*
X51610D01*
X53578Y123848D01*
Y119912D01*
X51610Y117945D01*
X45707D01*
X35868D02*
X39803D01*
X41771Y119912D01*
Y123848D01*
X39803Y125816D01*
X35868D01*
X33900Y123848D01*
Y121880D01*
X41771D01*
X29964Y125816D02*
Y117945D01*
Y121880D01*
X27996Y123848D01*
X26028Y125816D01*
X24060D01*
X89000Y109247D02*
Y97440D01*
Y103344D01*
X81129D01*
Y109247D01*
Y97440D01*
X77193D02*
X73257D01*
X75225D01*
Y105312D01*
X77193D01*
X63418Y93504D02*
X61450D01*
X59482Y95472D01*
Y105312D01*
X65386D01*
X67353Y103344D01*
Y99408D01*
X65386Y97440D01*
X59482D01*
X55546Y109247D02*
Y97440D01*
Y103344D01*
X53578Y105312D01*
X49643D01*
X47675Y103344D01*
Y97440D01*
X89000Y88743D02*
Y80871D01*
X85064Y76936D01*
X81129Y80871D01*
Y88743D01*
X75225Y76936D02*
X71289D01*
X69321Y78904D01*
Y82839D01*
X71289Y84807D01*
X75225D01*
X77193Y82839D01*
Y78904D01*
X75225Y76936D01*
X65386D02*
X61450D01*
X63418D01*
Y88743D01*
X65386D01*
X53578Y86775D02*
Y84807D01*
X55546D01*
X51610D01*
X53578D01*
Y78904D01*
X51610Y76936D01*
X43739Y84807D02*
X39803D01*
X37835Y82839D01*
Y76936D01*
X43739D01*
X45707Y78904D01*
X43739Y80871D01*
X37835D01*
X29964Y73000D02*
X27996D01*
X26028Y74968D01*
Y84807D01*
X31932D01*
X33900Y82839D01*
Y78904D01*
X31932Y76936D01*
X26028D01*
X16189D02*
X20125D01*
X22093Y78904D01*
Y82839D01*
X20125Y84807D01*
X16189D01*
X14221Y82839D01*
Y80871D01*
X22093D01*
D15*
X-31142Y150795D02*
X-31142Y27795D01*
X-10000Y69000D02*
X136000D01*
X-10000Y-68000D02*
X136000D01*
X-10000Y69000D02*
X-10000Y-68000D01*
D16*
X-69535Y79925D02*
X-66386D01*
X-69535Y76775D02*
Y79925D01*
Y68114D02*
X-66386D01*
X-69535D02*
Y71264D01*
Y97925D02*
X-66386D01*
X-69535Y94775D02*
Y97925D01*
Y86114D02*
X-66386D01*
X-69535D02*
Y89264D01*
D17*
X-64567Y108642D02*
X-62992D01*
X-64567Y111398D02*
X-62992D01*
X-64567Y100642D02*
X-62992D01*
X-64567Y103398D02*
X-62992D01*
X-64567Y60642D02*
X-62992D01*
X-64567Y63398D02*
X-62992D01*
X-64567Y52642D02*
X-62992D01*
X-64567Y55397D02*
X-62992D01*
D18*
X-76974Y55291D02*
Y52292D01*
X-75475D01*
X-74975Y52791D01*
Y53791D01*
X-75475Y54291D01*
X-76974D01*
X-75975D02*
X-74975Y55291D01*
X-71976Y52292D02*
Y55291D01*
X-73475D01*
X-73975Y54791D01*
Y53791D01*
X-73475Y53291D01*
X-71976D01*
X-77050Y63810D02*
Y60811D01*
X-75551D01*
X-75051Y61311D01*
Y62311D01*
X-75551Y62810D01*
X-77050D01*
X-76051D02*
X-75051Y63810D01*
X-72052Y61811D02*
X-73551D01*
X-74051Y62311D01*
Y63310D01*
X-73551Y63810D01*
X-72052D01*
X-76279Y103242D02*
Y100243D01*
X-74779D01*
X-74279Y100743D01*
Y101742D01*
X-74779Y102242D01*
X-76279D01*
X-75279D02*
X-74279Y103242D01*
X-73280Y100243D02*
Y103242D01*
X-71780D01*
X-71280Y102742D01*
Y102242D01*
Y101742D01*
X-71780Y101243D01*
X-73280D01*
X-76279Y111259D02*
Y108260D01*
X-74779D01*
X-74279Y108760D01*
Y109760D01*
X-74779Y110259D01*
X-76279D01*
X-75279D02*
X-74279Y111259D01*
X-72780Y109260D02*
X-71780D01*
X-71280Y109760D01*
Y111259D01*
X-72780D01*
X-73280Y110759D01*
X-72780Y110259D01*
X-71280D01*
X-52279Y74050D02*
Y72051D01*
X-52779Y71551D01*
X-53779D01*
X-54279Y72051D01*
Y74050D01*
X-53779Y74550D01*
X-52779D01*
X-53279Y73551D02*
X-52279Y74550D01*
X-52779D02*
X-52279Y74050D01*
X-51280Y71551D02*
Y74550D01*
X-49780D01*
X-49280Y74050D01*
Y73551D01*
Y73051D01*
X-49780Y72551D01*
X-51280D01*
X-53279Y93002D02*
Y91003D01*
X-53779Y90503D01*
X-54779D01*
X-55279Y91003D01*
Y93002D01*
X-54779Y93502D01*
X-53779D01*
X-54279Y92502D02*
X-53279Y93502D01*
X-53779D02*
X-53279Y93002D01*
X-51780Y91502D02*
X-50780D01*
X-50280Y92002D01*
Y93502D01*
X-51780D01*
X-52280Y93002D01*
X-51780Y92502D01*
X-50280D01*
D73*
X130425Y-93554D02*
Y-98801D01*
X127801Y-101425D01*
X125178Y-98801D01*
Y-93554D01*
X118618Y-101425D02*
X121242D01*
X122554Y-100113D01*
Y-97490D01*
X121242Y-96178D01*
X118618D01*
X117306Y-97490D01*
Y-98801D01*
X122554D01*
X114682Y-96178D02*
Y-101425D01*
Y-98801D01*
X113370Y-97490D01*
X112058Y-96178D01*
X110747D01*
X98939Y-98801D02*
X93692D01*
X98939Y-96178D02*
X93692D01*
X77949Y-93554D02*
X80572Y-94866D01*
X83196Y-97490D01*
Y-100113D01*
X81884Y-101425D01*
X79261D01*
X77949Y-100113D01*
Y-98801D01*
X79261Y-97490D01*
X83196D01*
M02*
