G04*
G04 #@! TF.GenerationSoftware,Altium Limited,Altium Designer,21.6.1 (37)*
G04*
G04 Layer_Physical_Order=2*
G04 Layer_Color=16711680*
%FSLAX25Y25*%
%MOIN*%
G70*
G04*
G04 #@! TF.SameCoordinates,91079F20-929E-487D-ACD8-FC0F4DE345B5*
G04*
G04*
G04 #@! TF.FilePolarity,Positive*
G04*
G01*
G75*
%ADD10C,0.01000*%
%ADD14C,0.02000*%
%ADD43R,0.02756X0.03543*%
%ADD46C,0.03937*%
%ADD58C,0.05512*%
%ADD59R,0.05906X0.05906*%
%ADD60C,0.05906*%
%ADD61C,0.10000*%
%ADD62R,0.10000X0.10000*%
%ADD63C,0.06000*%
G04:AMPARAMS|DCode=64|XSize=118.11mil|YSize=118.11mil|CornerRadius=29.53mil|HoleSize=0mil|Usage=FLASHONLY|Rotation=0.000|XOffset=0mil|YOffset=0mil|HoleType=Round|Shape=RoundedRectangle|*
%AMROUNDEDRECTD64*
21,1,0.11811,0.05906,0,0,0.0*
21,1,0.05906,0.11811,0,0,0.0*
1,1,0.05906,0.02953,-0.02953*
1,1,0.05906,-0.02953,-0.02953*
1,1,0.05906,-0.02953,0.02953*
1,1,0.05906,0.02953,0.02953*
%
%ADD64ROUNDEDRECTD64*%
%ADD65C,0.04724*%
%ADD66C,0.01968*%
%ADD67R,0.05709X0.02362*%
G36*
X186000Y290000D02*
X329235D01*
X329235Y130482D01*
X322518Y123765D01*
X126301D01*
X120765Y129301D01*
X120765Y387219D01*
X126301Y392755D01*
X186000D01*
Y290000D01*
D02*
G37*
%LPC*%
G36*
X133858Y380436D02*
X132603Y380313D01*
X131395Y379946D01*
X130282Y379352D01*
X129307Y378551D01*
X128507Y377576D01*
X127912Y376463D01*
X127545Y375256D01*
X127422Y374000D01*
X127545Y372744D01*
X127912Y371537D01*
X128507Y370424D01*
X129307Y369449D01*
X130282Y368648D01*
X131395Y368054D01*
X132603Y367687D01*
X133858Y367564D01*
X135114Y367687D01*
X136321Y368054D01*
X137434Y368648D01*
X138410Y369449D01*
X139210Y370424D01*
X139805Y371537D01*
X140171Y372744D01*
X140295Y374000D01*
X140171Y375256D01*
X139805Y376463D01*
X139210Y377576D01*
X138410Y378551D01*
X137434Y379352D01*
X136321Y379946D01*
X135114Y380313D01*
X133858Y380436D01*
D02*
G37*
G36*
X216500Y279222D02*
Y276000D01*
X219723D01*
X219659Y276481D01*
X219281Y277394D01*
X218679Y278179D01*
X217894Y278781D01*
X216981Y279159D01*
X216500Y279222D01*
D02*
G37*
G36*
X215500D02*
X215019Y279159D01*
X214106Y278781D01*
X213321Y278179D01*
X212719Y277394D01*
X212341Y276481D01*
X212278Y276000D01*
X215500D01*
Y279222D01*
D02*
G37*
G36*
X183146Y278784D02*
X182296Y278672D01*
X181504Y278344D01*
X180824Y277822D01*
X180302Y277142D01*
X179974Y276350D01*
X179862Y275500D01*
X179974Y274650D01*
X180302Y273858D01*
X180824Y273178D01*
X181504Y272656D01*
X182296Y272328D01*
X183146Y272216D01*
X183996Y272328D01*
X184788Y272656D01*
X185468Y273178D01*
X185990Y273858D01*
X186318Y274650D01*
X186430Y275500D01*
X186318Y276350D01*
X185990Y277142D01*
X185468Y277822D01*
X184788Y278344D01*
X183996Y278672D01*
X183146Y278784D01*
D02*
G37*
G36*
X219723Y275000D02*
X216500D01*
Y271778D01*
X216981Y271841D01*
X217894Y272219D01*
X218679Y272821D01*
X219281Y273606D01*
X219659Y274519D01*
X219723Y275000D01*
D02*
G37*
G36*
X215500D02*
X212278D01*
X212341Y274519D01*
X212719Y273606D01*
X213321Y272821D01*
X214106Y272219D01*
X215019Y271841D01*
X215500Y271778D01*
Y275000D01*
D02*
G37*
G36*
X164453Y277453D02*
X157547D01*
Y270547D01*
X164453D01*
Y277453D01*
D02*
G37*
G36*
X317000Y280436D02*
X315744Y280313D01*
X314537Y279946D01*
X313424Y279352D01*
X312449Y278551D01*
X311648Y277576D01*
X311053Y276463D01*
X310687Y275256D01*
X310563Y274000D01*
X310687Y272744D01*
X311053Y271537D01*
X311648Y270424D01*
X312449Y269449D01*
X313424Y268648D01*
X314537Y268054D01*
X315744Y267687D01*
X317000Y267564D01*
X318256Y267687D01*
X319463Y268054D01*
X320576Y268648D01*
X321551Y269449D01*
X322352Y270424D01*
X322947Y271537D01*
X323313Y272744D01*
X323436Y274000D01*
X323313Y275256D01*
X322947Y276463D01*
X322352Y277576D01*
X321551Y278551D01*
X320576Y279352D01*
X319463Y279946D01*
X318256Y280313D01*
X317000Y280436D01*
D02*
G37*
G36*
X161000Y267482D02*
X160099Y267364D01*
X159259Y267016D01*
X158537Y266462D01*
X157984Y265741D01*
X157636Y264901D01*
X157518Y264000D01*
X157636Y263099D01*
X157984Y262259D01*
X158537Y261538D01*
X159259Y260984D01*
X160099Y260636D01*
X161000Y260518D01*
X161901Y260636D01*
X162741Y260984D01*
X163462Y261538D01*
X164016Y262259D01*
X164364Y263099D01*
X164482Y264000D01*
X164364Y264901D01*
X164016Y265741D01*
X163462Y266462D01*
X162741Y267016D01*
X161901Y267364D01*
X161000Y267482D01*
D02*
G37*
G36*
X259000Y255513D02*
X258421Y255398D01*
X257930Y255070D01*
X257602Y254579D01*
X257487Y254000D01*
X257602Y253421D01*
X257930Y252930D01*
X257980Y252896D01*
Y247104D01*
X257930Y247070D01*
X257602Y246579D01*
X257487Y246000D01*
X257602Y245421D01*
X257930Y244930D01*
X258421Y244602D01*
X259000Y244487D01*
X259579Y244602D01*
X260070Y244930D01*
X260398Y245421D01*
X260513Y246000D01*
X260398Y246579D01*
X260070Y247070D01*
X260020Y247104D01*
Y252896D01*
X260070Y252930D01*
X260398Y253421D01*
X260513Y254000D01*
X260398Y254579D01*
X260070Y255070D01*
X259579Y255398D01*
X259000Y255513D01*
D02*
G37*
G36*
X299000Y248284D02*
X298150Y248172D01*
X297358Y247844D01*
X296678Y247322D01*
X296156Y246642D01*
X295828Y245850D01*
X295716Y245000D01*
X295828Y244150D01*
X296156Y243358D01*
X296678Y242678D01*
X297358Y242156D01*
X298150Y241828D01*
X299000Y241716D01*
X299850Y241828D01*
X300642Y242156D01*
X301322Y242678D01*
X301844Y243358D01*
X302172Y244150D01*
X302284Y245000D01*
X302172Y245850D01*
X301844Y246642D01*
X301322Y247322D01*
X300642Y247844D01*
X299850Y248172D01*
X299000Y248284D01*
D02*
G37*
G36*
X150953Y243000D02*
X145453D01*
Y237500D01*
X150953D01*
Y243000D01*
D02*
G37*
G36*
X144453D02*
X138953D01*
Y237500D01*
X144453D01*
Y243000D01*
D02*
G37*
G36*
X258500Y239722D02*
Y236500D01*
X261722D01*
X261659Y236981D01*
X261281Y237894D01*
X260679Y238679D01*
X259894Y239281D01*
X258980Y239659D01*
X258500Y239722D01*
D02*
G37*
G36*
X257500D02*
X257019Y239659D01*
X256106Y239281D01*
X255321Y238679D01*
X254719Y237894D01*
X254341Y236981D01*
X254277Y236500D01*
X257500D01*
Y239722D01*
D02*
G37*
G36*
X204000Y235887D02*
X203253Y235788D01*
X202556Y235500D01*
X201959Y235041D01*
X201566Y234529D01*
X181434D01*
X181041Y235041D01*
X180444Y235500D01*
X179747Y235788D01*
X179000Y235887D01*
X178253Y235788D01*
X177557Y235500D01*
X176959Y235041D01*
X176500Y234443D01*
X176212Y233747D01*
X176113Y233000D01*
X176212Y232253D01*
X176500Y231557D01*
X176959Y230959D01*
X177557Y230500D01*
X178253Y230211D01*
X179000Y230113D01*
X179747Y230211D01*
X180444Y230500D01*
X181041Y230959D01*
X181434Y231471D01*
X201566D01*
X201959Y230959D01*
X202556Y230500D01*
X203253Y230211D01*
X204000Y230113D01*
X204747Y230211D01*
X205443Y230500D01*
X206041Y230959D01*
X206500Y231557D01*
X206788Y232253D01*
X206887Y233000D01*
X206788Y233747D01*
X206500Y234443D01*
X206041Y235041D01*
X205443Y235500D01*
X204747Y235788D01*
X204000Y235887D01*
D02*
G37*
G36*
X278000Y239284D02*
X277150Y239172D01*
X276358Y238844D01*
X275678Y238322D01*
X275156Y237642D01*
X274828Y236850D01*
X274716Y236000D01*
X274828Y235150D01*
X275156Y234358D01*
X275678Y233678D01*
X276358Y233156D01*
X277150Y232828D01*
X278000Y232716D01*
X278850Y232828D01*
X279642Y233156D01*
X280322Y233678D01*
X280844Y234358D01*
X281172Y235150D01*
X281284Y236000D01*
X281172Y236850D01*
X280844Y237642D01*
X280322Y238322D01*
X279642Y238844D01*
X278850Y239172D01*
X278000Y239284D01*
D02*
G37*
G36*
X261722Y235500D02*
X258500D01*
Y232277D01*
X258980Y232341D01*
X259894Y232719D01*
X260679Y233321D01*
X261281Y234106D01*
X261659Y235019D01*
X261722Y235500D01*
D02*
G37*
G36*
X257500D02*
X254277D01*
X254341Y235019D01*
X254719Y234106D01*
X255321Y233321D01*
X256106Y232719D01*
X257019Y232341D01*
X257500Y232277D01*
Y235500D01*
D02*
G37*
G36*
X150953Y236500D02*
X145453D01*
Y231000D01*
X150953D01*
Y236500D01*
D02*
G37*
G36*
X144453D02*
X138953D01*
Y231000D01*
X144453D01*
Y236500D01*
D02*
G37*
G36*
X305831Y226272D02*
X302075D01*
Y221728D01*
X305831D01*
Y226272D01*
D02*
G37*
G36*
X299925D02*
X296169D01*
Y221728D01*
X299925D01*
Y226272D01*
D02*
G37*
G36*
X305831Y218272D02*
X302075D01*
Y213728D01*
X305831D01*
Y218272D01*
D02*
G37*
G36*
X299925D02*
X296169D01*
Y213728D01*
X299925D01*
Y218272D01*
D02*
G37*
G36*
X268000Y219284D02*
X267150Y219172D01*
X266358Y218844D01*
X265678Y218322D01*
X265156Y217642D01*
X264828Y216850D01*
X264716Y216000D01*
X264828Y215150D01*
X265156Y214358D01*
X265678Y213678D01*
X266358Y213156D01*
X267150Y212828D01*
X268000Y212716D01*
X268850Y212828D01*
X269642Y213156D01*
X270322Y213678D01*
X270844Y214358D01*
X271172Y215150D01*
X271284Y216000D01*
X271172Y216850D01*
X270844Y217642D01*
X270322Y218322D01*
X269642Y218844D01*
X268850Y219172D01*
X268000Y219284D01*
D02*
G37*
G36*
X144953Y222548D02*
X143517Y222358D01*
X142179Y221804D01*
X141030Y220923D01*
X140148Y219774D01*
X139594Y218436D01*
X139405Y217000D01*
X139594Y215564D01*
X140148Y214226D01*
X141030Y213077D01*
X142179Y212196D01*
X143517Y211642D01*
X144953Y211453D01*
X146388Y211642D01*
X147727Y212196D01*
X148875Y213077D01*
X149757Y214226D01*
X150311Y215564D01*
X150500Y217000D01*
X150311Y218436D01*
X149757Y219774D01*
X148875Y220923D01*
X147727Y221804D01*
X146388Y222358D01*
X144953Y222548D01*
D02*
G37*
G36*
X302728Y209421D02*
X296020D01*
Y206059D01*
X302728D01*
Y209421D01*
D02*
G37*
G36*
X311980Y205681D02*
X305272D01*
Y202319D01*
X311980D01*
Y205681D01*
D02*
G37*
G36*
X302728Y201941D02*
X296020D01*
Y198579D01*
X302728D01*
Y201941D01*
D02*
G37*
G36*
X258500Y200723D02*
Y197500D01*
X261722D01*
X261659Y197980D01*
X261281Y198894D01*
X260679Y199679D01*
X259894Y200281D01*
X258980Y200659D01*
X258500Y200723D01*
D02*
G37*
G36*
X257500Y200723D02*
X257019Y200659D01*
X256106Y200281D01*
X255321Y199679D01*
X254719Y198894D01*
X254341Y197980D01*
X254277Y197500D01*
X257500D01*
Y200723D01*
D02*
G37*
G36*
X278000Y200284D02*
X277150Y200172D01*
X276358Y199844D01*
X275678Y199322D01*
X275156Y198642D01*
X274828Y197850D01*
X274716Y197000D01*
X274828Y196150D01*
X275156Y195358D01*
X275678Y194678D01*
X276358Y194156D01*
X277150Y193828D01*
X278000Y193716D01*
X278850Y193828D01*
X279642Y194156D01*
X280322Y194678D01*
X280844Y195358D01*
X281172Y196150D01*
X281284Y197000D01*
X281172Y197850D01*
X280844Y198642D01*
X280322Y199322D01*
X279642Y199844D01*
X278850Y200172D01*
X278000Y200284D01*
D02*
G37*
G36*
X261722Y196500D02*
X258500D01*
Y193278D01*
X258980Y193341D01*
X259894Y193719D01*
X260679Y194321D01*
X261281Y195106D01*
X261659Y196019D01*
X261722Y196500D01*
D02*
G37*
G36*
X257500D02*
X254277D01*
X254341Y196019D01*
X254719Y195106D01*
X255321Y194321D01*
X256106Y193719D01*
X257019Y193341D01*
X257500Y193278D01*
Y196500D01*
D02*
G37*
G36*
X302728Y191421D02*
X296020D01*
Y188059D01*
X302728D01*
Y191421D01*
D02*
G37*
G36*
X229000Y193284D02*
X228150Y193172D01*
X227358Y192844D01*
X226678Y192322D01*
X226156Y191642D01*
X225828Y190850D01*
X225716Y190000D01*
X225828Y189150D01*
X226156Y188358D01*
X226678Y187678D01*
X227358Y187156D01*
X228150Y186828D01*
X229000Y186716D01*
X229850Y186828D01*
X230642Y187156D01*
X231322Y187678D01*
X231844Y188358D01*
X232172Y189150D01*
X232284Y190000D01*
X232172Y190850D01*
X231844Y191642D01*
X231322Y192322D01*
X230642Y192844D01*
X229850Y193172D01*
X229000Y193284D01*
D02*
G37*
G36*
X311980Y187681D02*
X305272D01*
Y184319D01*
X311980D01*
Y187681D01*
D02*
G37*
G36*
X182768Y184777D02*
X181805Y184585D01*
X180988Y184039D01*
X180647Y183529D01*
X161947D01*
X161780Y183780D01*
X160963Y184325D01*
X160000Y184517D01*
X159037Y184325D01*
X158220Y183780D01*
X157675Y182963D01*
X157483Y182000D01*
X157675Y181037D01*
X158220Y180220D01*
X159037Y179675D01*
X160000Y179483D01*
X160963Y179675D01*
X161780Y180220D01*
X161947Y180471D01*
X181002D01*
X181805Y179935D01*
X182768Y179743D01*
X183731Y179935D01*
X184547Y180480D01*
X185093Y181297D01*
X185285Y182260D01*
X185093Y183223D01*
X184547Y184039D01*
X183731Y184585D01*
X182768Y184777D01*
D02*
G37*
G36*
X302728Y183941D02*
X296020D01*
Y180579D01*
X302728D01*
Y183941D01*
D02*
G37*
G36*
X210983Y189513D02*
X210404Y189398D01*
X209913Y189070D01*
X209585Y188579D01*
X209470Y188000D01*
X209585Y187421D01*
X209913Y186930D01*
X209964Y186896D01*
Y180935D01*
X209913Y180902D01*
X209585Y180411D01*
X209470Y179832D01*
X209585Y179252D01*
X209913Y178761D01*
X210404Y178433D01*
X210983Y178318D01*
X211562Y178433D01*
X212053Y178761D01*
X212381Y179252D01*
X212497Y179832D01*
X212381Y180411D01*
X212053Y180902D01*
X212003Y180935D01*
Y186896D01*
X212053Y186930D01*
X212381Y187421D01*
X212497Y188000D01*
X212381Y188579D01*
X212053Y189070D01*
X211562Y189398D01*
X210983Y189513D01*
D02*
G37*
G36*
X203720Y205472D02*
X203141Y205357D01*
X202650Y205029D01*
X202322Y204538D01*
X202206Y203959D01*
X202322Y203380D01*
X202650Y202888D01*
X202700Y202855D01*
Y180104D01*
X202650Y180070D01*
X202322Y179579D01*
X202206Y179000D01*
X202322Y178421D01*
X202650Y177930D01*
X202777Y177845D01*
X202778Y177843D01*
X202999Y177512D01*
X203330Y177291D01*
X203720Y177213D01*
X204110Y177291D01*
X204441Y177512D01*
X204662Y177843D01*
X204662Y177845D01*
X204790Y177930D01*
X205118Y178421D01*
X205233Y179000D01*
X205118Y179579D01*
X204790Y180070D01*
X204739Y180104D01*
Y202855D01*
X204790Y202888D01*
X205118Y203380D01*
X205233Y203959D01*
X205118Y204538D01*
X204790Y205029D01*
X204299Y205357D01*
X203720Y205472D01*
D02*
G37*
G36*
X305831Y178272D02*
X302075D01*
Y173728D01*
X305831D01*
Y178272D01*
D02*
G37*
G36*
X299925D02*
X296169D01*
Y173728D01*
X299925D01*
Y178272D01*
D02*
G37*
G36*
X268000Y180284D02*
X267150Y180172D01*
X266358Y179844D01*
X265678Y179322D01*
X265156Y178642D01*
X264828Y177850D01*
X264716Y177000D01*
X264828Y176150D01*
X265156Y175358D01*
X265678Y174678D01*
X266358Y174156D01*
X267150Y173828D01*
X268000Y173716D01*
X268850Y173828D01*
X269642Y174156D01*
X270322Y174678D01*
X270844Y175358D01*
X271172Y176150D01*
X271284Y177000D01*
X271172Y177850D01*
X270844Y178642D01*
X270322Y179322D01*
X269642Y179844D01*
X268850Y180172D01*
X268000Y180284D01*
D02*
G37*
G36*
X229000Y178284D02*
X228150Y178172D01*
X227358Y177844D01*
X226678Y177322D01*
X226156Y176642D01*
X225828Y175850D01*
X225716Y175000D01*
X225828Y174150D01*
X226156Y173358D01*
X226678Y172678D01*
X227358Y172156D01*
X228150Y171828D01*
X229000Y171716D01*
X229850Y171828D01*
X230642Y172156D01*
X231322Y172678D01*
X231844Y173358D01*
X232172Y174150D01*
X232284Y175000D01*
X232172Y175850D01*
X231844Y176642D01*
X231322Y177322D01*
X230642Y177844D01*
X229850Y178172D01*
X229000Y178284D01*
D02*
G37*
G36*
X137500Y173554D02*
Y170332D01*
X140723D01*
X140659Y170812D01*
X140281Y171726D01*
X139679Y172510D01*
X138894Y173112D01*
X137980Y173491D01*
X137500Y173554D01*
D02*
G37*
G36*
X136500D02*
X136020Y173491D01*
X135106Y173112D01*
X134321Y172510D01*
X133719Y171726D01*
X133341Y170812D01*
X133277Y170332D01*
X136500D01*
Y173554D01*
D02*
G37*
G36*
X209000Y176284D02*
X208150Y176172D01*
X207358Y175844D01*
X206678Y175322D01*
X206156Y174642D01*
X205828Y173850D01*
X205716Y173000D01*
X205828Y172150D01*
X206156Y171358D01*
X206678Y170678D01*
X207358Y170156D01*
X208150Y169828D01*
X209000Y169716D01*
X209850Y169828D01*
X210642Y170156D01*
X211322Y170678D01*
X211844Y171358D01*
X212172Y172150D01*
X212284Y173000D01*
X212172Y173850D01*
X211844Y174642D01*
X211322Y175322D01*
X210642Y175844D01*
X209850Y176172D01*
X209000Y176284D01*
D02*
G37*
G36*
X140723Y169332D02*
X137500D01*
Y166109D01*
X137980Y166172D01*
X138894Y166551D01*
X139679Y167153D01*
X140281Y167937D01*
X140659Y168851D01*
X140723Y169332D01*
D02*
G37*
G36*
X136500D02*
X133277D01*
X133341Y168851D01*
X133719Y167937D01*
X134321Y167153D01*
X135106Y166551D01*
X136020Y166172D01*
X136500Y166109D01*
Y169332D01*
D02*
G37*
G36*
X305831Y170272D02*
X302075D01*
Y165728D01*
X305831D01*
Y170272D01*
D02*
G37*
G36*
X299925D02*
X296169D01*
Y165728D01*
X299925D01*
Y170272D01*
D02*
G37*
G36*
X258500Y161723D02*
Y158500D01*
X261722D01*
X261659Y158981D01*
X261281Y159894D01*
X260679Y160679D01*
X259894Y161281D01*
X258980Y161659D01*
X258500Y161723D01*
D02*
G37*
G36*
X257500D02*
X257019Y161659D01*
X256106Y161281D01*
X255321Y160679D01*
X254719Y159894D01*
X254341Y158981D01*
X254277Y158500D01*
X257500D01*
Y161723D01*
D02*
G37*
G36*
X278000Y161284D02*
X277150Y161172D01*
X276358Y160844D01*
X275678Y160322D01*
X275156Y159642D01*
X274828Y158850D01*
X274716Y158000D01*
X274828Y157150D01*
X275156Y156358D01*
X275678Y155678D01*
X276358Y155156D01*
X277150Y154828D01*
X278000Y154716D01*
X278850Y154828D01*
X279642Y155156D01*
X280322Y155678D01*
X280844Y156358D01*
X281172Y157150D01*
X281284Y158000D01*
X281172Y158850D01*
X280844Y159642D01*
X280322Y160322D01*
X279642Y160844D01*
X278850Y161172D01*
X278000Y161284D01*
D02*
G37*
G36*
X261722Y157500D02*
X258500D01*
Y154278D01*
X258980Y154341D01*
X259894Y154719D01*
X260679Y155321D01*
X261281Y156106D01*
X261659Y157019D01*
X261722Y157500D01*
D02*
G37*
G36*
X257500D02*
X254277D01*
X254341Y157019D01*
X254719Y156106D01*
X255321Y155321D01*
X256106Y154719D01*
X257019Y154341D01*
X257500Y154278D01*
Y157500D01*
D02*
G37*
G36*
X182768Y153742D02*
X182189Y153627D01*
X181698Y153298D01*
X181370Y152807D01*
X181254Y152228D01*
X181370Y151649D01*
X181698Y151158D01*
X182189Y150830D01*
X182768Y150715D01*
X182827Y150727D01*
X185035Y148520D01*
X184827Y148020D01*
X176272D01*
X175882Y147942D01*
X175551Y147721D01*
X174330Y146501D01*
X174270Y146513D01*
X173691Y146397D01*
X173200Y146069D01*
X172872Y145578D01*
X172757Y144999D01*
X172872Y144420D01*
X173200Y143929D01*
X173691Y143601D01*
X174270Y143486D01*
X174849Y143601D01*
X175340Y143929D01*
X175669Y144420D01*
X175784Y144999D01*
X175772Y145058D01*
X176694Y145980D01*
X178520D01*
X178727Y145480D01*
X178390Y145143D01*
X178330Y145155D01*
X177751Y145040D01*
X177260Y144712D01*
X176932Y144221D01*
X176817Y143641D01*
X176932Y143062D01*
X177260Y142571D01*
X177751Y142243D01*
X178330Y142128D01*
X178909Y142243D01*
X179400Y142571D01*
X179728Y143062D01*
X179843Y143641D01*
X180201Y143980D01*
X185896D01*
X185930Y143930D01*
X186421Y143602D01*
X187000Y143487D01*
X187579Y143602D01*
X188070Y143930D01*
X188398Y144421D01*
X188513Y145000D01*
X188418Y145480D01*
X188686Y145980D01*
X192110D01*
X194980Y143110D01*
Y133104D01*
X194930Y133070D01*
X194602Y132579D01*
X194487Y132000D01*
X194602Y131421D01*
X194930Y130930D01*
X195421Y130602D01*
X196000Y130487D01*
X196579Y130602D01*
X197070Y130930D01*
X197398Y131421D01*
X197513Y132000D01*
X197398Y132579D01*
X197070Y133070D01*
X197020Y133104D01*
Y143532D01*
X196942Y143922D01*
X197358Y144201D01*
X199980Y141578D01*
Y133104D01*
X199930Y133070D01*
X199602Y132579D01*
X199487Y132000D01*
X199602Y131421D01*
X199930Y130930D01*
X200421Y130602D01*
X201000Y130487D01*
X201579Y130602D01*
X202070Y130930D01*
X202398Y131421D01*
X202513Y132000D01*
X202398Y132579D01*
X202070Y133070D01*
X202020Y133104D01*
Y142000D01*
X201942Y142390D01*
X201721Y142721D01*
X194721Y149721D01*
X194390Y149942D01*
X194000Y150020D01*
X186418D01*
X184269Y152169D01*
X184281Y152228D01*
X184166Y152807D01*
X183838Y153298D01*
X183347Y153627D01*
X182768Y153742D01*
D02*
G37*
G36*
X188848Y143171D02*
X188269Y143056D01*
X187778Y142728D01*
X187744Y142677D01*
X183612D01*
X183578Y142728D01*
X183087Y143056D01*
X182508Y143171D01*
X181929Y143056D01*
X181438Y142728D01*
X181110Y142237D01*
X180995Y141657D01*
X181110Y141078D01*
X181438Y140587D01*
X181929Y140259D01*
X182508Y140144D01*
X183087Y140259D01*
X183578Y140587D01*
X183612Y140638D01*
X187744D01*
X187778Y140587D01*
X188269Y140259D01*
X188848Y140144D01*
X189427Y140259D01*
X189918Y140587D01*
X190246Y141078D01*
X190361Y141657D01*
X190246Y142237D01*
X189918Y142728D01*
X189427Y143056D01*
X188848Y143171D01*
D02*
G37*
G36*
X133858Y151436D02*
X132603Y151313D01*
X131395Y150947D01*
X130282Y150352D01*
X129307Y149551D01*
X128507Y148576D01*
X127912Y147463D01*
X127545Y146256D01*
X127422Y145000D01*
X127545Y143744D01*
X127912Y142537D01*
X128507Y141424D01*
X129307Y140449D01*
X130282Y139648D01*
X131395Y139053D01*
X132603Y138687D01*
X133858Y138564D01*
X135114Y138687D01*
X136321Y139053D01*
X137434Y139648D01*
X138410Y140449D01*
X139210Y141424D01*
X139805Y142537D01*
X140171Y143744D01*
X140295Y145000D01*
X140171Y146256D01*
X139805Y147463D01*
X139210Y148576D01*
X138410Y149551D01*
X137434Y150352D01*
X136321Y150947D01*
X135114Y151313D01*
X133858Y151436D01*
D02*
G37*
G36*
X176500Y137428D02*
Y135000D01*
X178928D01*
X178892Y135275D01*
X178593Y135997D01*
X178117Y136617D01*
X177497Y137093D01*
X176775Y137392D01*
X176500Y137428D01*
D02*
G37*
G36*
X206500D02*
Y135000D01*
X208928D01*
X208892Y135275D01*
X208593Y135997D01*
X208117Y136617D01*
X207497Y137093D01*
X206775Y137392D01*
X206500Y137428D01*
D02*
G37*
G36*
X205500D02*
X205225Y137392D01*
X204503Y137093D01*
X203883Y136617D01*
X203407Y135997D01*
X203108Y135275D01*
X203072Y135000D01*
X205500D01*
Y137428D01*
D02*
G37*
G36*
X175500D02*
X175225Y137392D01*
X174503Y137093D01*
X173883Y136617D01*
X173407Y135997D01*
X173108Y135275D01*
X173072Y135000D01*
X175500D01*
Y137428D01*
D02*
G37*
G36*
X268000Y141284D02*
X267150Y141172D01*
X266358Y140844D01*
X265678Y140322D01*
X265156Y139642D01*
X264828Y138850D01*
X264716Y138000D01*
X264828Y137150D01*
X265156Y136358D01*
X265678Y135678D01*
X266358Y135156D01*
X267150Y134828D01*
X268000Y134716D01*
X268850Y134828D01*
X269642Y135156D01*
X270322Y135678D01*
X270844Y136358D01*
X271172Y137150D01*
X271284Y138000D01*
X271172Y138850D01*
X270844Y139642D01*
X270322Y140322D01*
X269642Y140844D01*
X268850Y141172D01*
X268000Y141284D01*
D02*
G37*
G36*
X178928Y134000D02*
X176500D01*
Y131572D01*
X176775Y131608D01*
X177497Y131907D01*
X178117Y132383D01*
X178593Y133003D01*
X178892Y133725D01*
X178928Y134000D01*
D02*
G37*
G36*
X208928D02*
X206500D01*
Y131572D01*
X206775Y131608D01*
X207497Y131907D01*
X208117Y132383D01*
X208593Y133003D01*
X208892Y133725D01*
X208928Y134000D01*
D02*
G37*
G36*
X205500D02*
X203072D01*
X203108Y133725D01*
X203407Y133003D01*
X203883Y132383D01*
X204503Y131907D01*
X205225Y131608D01*
X205500Y131572D01*
Y134000D01*
D02*
G37*
G36*
X175500D02*
X173072D01*
X173108Y133725D01*
X173407Y133003D01*
X173883Y132383D01*
X174503Y131907D01*
X175225Y131608D01*
X175500Y131572D01*
Y134000D01*
D02*
G37*
%LPD*%
D10*
X174271Y144999D02*
X176272Y147000D01*
X174270Y144999D02*
X174271D01*
X182768Y152228D02*
X185996Y149000D01*
X194000D01*
X201000Y142000D01*
X179689Y145000D02*
X187000D01*
X188710Y141657D02*
X188848Y141795D01*
X182508Y141657D02*
X188710D01*
X176272Y147000D02*
X192532D01*
X196000Y143532D01*
X178330Y143641D02*
X179689Y145000D01*
X196000Y132000D02*
Y143532D01*
X210983Y179832D02*
Y188000D01*
X203720Y178233D02*
Y179000D01*
Y203959D01*
X259000Y246000D02*
Y254000D01*
X201000Y132000D02*
Y142000D01*
D14*
X179000Y233000D02*
X204000D01*
X160000Y182000D02*
X182508D01*
X182768Y182260D01*
D43*
X303953Y168000D02*
D03*
X298047D02*
D03*
X303953Y176000D02*
D03*
X298047D02*
D03*
X303953Y216000D02*
D03*
X298047D02*
D03*
X303953Y224000D02*
D03*
X298047D02*
D03*
D46*
X176000Y134500D02*
D03*
X206000D02*
D03*
X182768Y182260D02*
D03*
X160000Y182000D02*
D03*
D58*
X268000Y177000D02*
D03*
X278000Y197000D02*
D03*
X258000D02*
D03*
X268000Y216000D02*
D03*
X278000Y236000D02*
D03*
X258000D02*
D03*
X268000Y138000D02*
D03*
X278000Y158000D02*
D03*
X258000D02*
D03*
X229000Y175000D02*
D03*
Y190000D02*
D03*
X183146Y275500D02*
D03*
X299000Y245000D02*
D03*
X209000Y173000D02*
D03*
X137000Y169832D02*
D03*
X216000Y275500D02*
D03*
D59*
X161000Y274000D02*
D03*
D60*
Y264000D02*
D03*
D61*
X304000Y357000D02*
D03*
Y337000D02*
D03*
X144953Y217000D02*
D03*
D62*
X304000Y317000D02*
D03*
X144953Y237000D02*
D03*
D63*
X317000Y274000D02*
D03*
X133858Y145000D02*
D03*
Y374000D02*
D03*
D64*
X261016Y360622D02*
D03*
Y313378D02*
D03*
X212984Y360622D02*
D03*
Y313378D02*
D03*
X205110Y337000D02*
D03*
D65*
X179000Y233000D02*
D03*
X204000D02*
D03*
D66*
X174270Y144999D02*
D03*
X182768Y152228D02*
D03*
X187000Y145000D02*
D03*
X188848Y141657D02*
D03*
X182508D02*
D03*
X178330Y143641D02*
D03*
X132000Y347272D02*
D03*
X203232Y167999D02*
D03*
X267078Y240627D02*
D03*
X294213Y175000D02*
D03*
X241539Y169417D02*
D03*
X251334Y138258D02*
D03*
X273334Y216627D02*
D03*
X276353Y183000D02*
D03*
X241571Y181627D02*
D03*
X210983Y179832D02*
D03*
Y188000D02*
D03*
X239000Y202000D02*
D03*
X241571Y220547D02*
D03*
X219657Y219962D02*
D03*
X204000D02*
D03*
X174272Y192145D02*
D03*
X160545Y189740D02*
D03*
X188021Y182000D02*
D03*
X188000Y179000D02*
D03*
X203720Y203959D02*
D03*
X167000Y196000D02*
D03*
X166500Y207876D02*
D03*
X176226D02*
D03*
X160279Y351000D02*
D03*
X169918Y316669D02*
D03*
X153237Y319139D02*
D03*
X159000Y317740D02*
D03*
X179126Y349142D02*
D03*
X188848Y219000D02*
D03*
X147000Y191701D02*
D03*
X163000Y149802D02*
D03*
X286000Y138582D02*
D03*
X259295Y284000D02*
D03*
X247220Y260347D02*
D03*
X140370Y296688D02*
D03*
X181000Y137000D02*
D03*
X179126Y270886D02*
D03*
X164763Y281000D02*
D03*
X188848Y257831D02*
D03*
X188828Y270346D02*
D03*
X175453Y286000D02*
D03*
X149047Y362351D02*
D03*
X162000Y336000D02*
D03*
Y328000D02*
D03*
X186606Y202700D02*
D03*
X202161Y287566D02*
D03*
X170512Y305000D02*
D03*
X203720Y179000D02*
D03*
X193000Y212000D02*
D03*
X183146Y249740D02*
D03*
X259000Y246000D02*
D03*
X187886Y168374D02*
D03*
X244000Y242000D02*
D03*
X150047Y252125D02*
D03*
X170823Y254000D02*
D03*
X221656Y256016D02*
D03*
X202161Y255080D02*
D03*
X135000Y334000D02*
D03*
Y340000D02*
D03*
Y329000D02*
D03*
X132000Y319139D02*
D03*
X164453Y296688D02*
D03*
X259000Y254000D02*
D03*
X210000Y212000D02*
D03*
X282000Y266114D02*
D03*
X263047D02*
D03*
X237784Y235953D02*
D03*
X302000Y234000D02*
D03*
X301000Y204000D02*
D03*
X294213Y163000D02*
D03*
X191532Y168374D02*
D03*
X191000Y137000D02*
D03*
X201000Y132000D02*
D03*
X196000D02*
D03*
X223325Y153500D02*
D03*
X230999Y164622D02*
D03*
D67*
X299374Y200260D02*
D03*
Y207740D02*
D03*
X308626Y204000D02*
D03*
X299374Y182260D02*
D03*
Y189740D02*
D03*
X308626Y186000D02*
D03*
M02*
