M48
;Layer_Color=9474304
;FILE_FORMAT=2:5
INCH,TZ
;TYPE=PLATED
T1F00S00C0.01181
T2F00S00C0.02559
T3F00S00C0.02717
T4F00S00C0.02756
T5F00S00C0.03150
T6F00S00C0.03543
T7F00S00C0.05118
T8F00S00C0.05906
T9F00S00C0.11811
%
T01
X163000Y149802
X174270Y144999
X178330Y143641
X182508Y141657
X181000Y137000
X191000
X188848Y141657
X187000Y145000
X182768Y152228
X196000Y132000
X201000
X223325Y153500
X251334Y138258
X286000Y138582
X294213Y163000
Y175000
X276353Y183000
X241571Y181627
X241539Y169417
X230999Y164622
X203232Y167999
X203720Y179000
X210983Y179832
Y188000
X203720Y203959
X210000Y212000
X204000Y219962
X219657
X241571Y220547
X237784Y235953
X244000Y242000
X259000Y246000
Y254000
X263047Y266114
X282000
X267078Y240627
X273334Y216627
X301000Y204000
X302000Y234000
X247220Y260347
X221656Y256016
X202161Y255080
X188848Y257831
X188828Y270346
X179126Y270886
X175453Y286000
X164763Y281000
X164453Y296688
X170512Y305000
X202161Y287566
X183146Y249740
X170823Y254000
X166500Y207876
X176226
X186606Y202700
X193000Y212000
X188848Y219000
X188021Y182000
X188000Y179000
X187886Y168374
X191532
X174272Y192145
X167000Y196000
X160545Y189740
X239000Y202000
X259295Y284000
X140370Y296688
X150047Y252125
X147000Y191701
X153237Y319139
X132000
X135000Y329000
Y334000
Y340000
X132000Y347272
X149047Y362351
X160279Y351000
X162000Y336000
Y328000
X159000Y317740
X169918Y316669
X179126Y349142
T02
X160000Y182000
X182768Y182260
T03
X176000Y134500
X206000
T04
X179000Y233000
X204000
T05
X268000Y138000
X278000Y158000
X258000
X268000Y177000
X278000Y197000
X258000
X268000Y216000
X278000Y236000
X258000
T06
X209000Y173000
X229000Y175000
Y190000
X216000Y275500
X183146
X161000Y274000
Y264000
X299000Y245000
X137000Y169832
T07
X212984Y313378
X205110Y337000
X212984Y360622
X261016
Y313378
T08
X144953Y217000
Y237000
X304000Y317000
Y337000
Y357000
T09
X133858Y145000
X317000Y274000
X133858Y374000
M30
