G04*
G04 #@! TF.GenerationSoftware,Altium Limited,Altium Designer,21.6.1 (37)*
G04*
G04 Layer_Color=16711935*
%FSLAX25Y25*%
%MOIN*%
G70*
G04*
G04 #@! TF.SameCoordinates,91079F20-929E-487D-ACD8-FC0F4DE345B5*
G04*
G04*
G04 #@! TF.FilePolarity,Negative*
G04*
G01*
G75*
%ADD23R,0.03556X0.04343*%
%ADD26C,0.04737*%
%ADD36C,0.06312*%
%ADD37R,0.06706X0.06706*%
%ADD38C,0.06706*%
%ADD39C,0.10800*%
%ADD40R,0.10800X0.10800*%
%ADD41C,0.06800*%
G04:AMPARAMS|DCode=42|XSize=126.11mil|YSize=126.11mil|CornerRadius=33.53mil|HoleSize=0mil|Usage=FLASHONLY|Rotation=0.000|XOffset=0mil|YOffset=0mil|HoleType=Round|Shape=RoundedRectangle|*
%AMROUNDEDRECTD42*
21,1,0.12611,0.05906,0,0,0.0*
21,1,0.05906,0.12611,0,0,0.0*
1,1,0.06706,0.02953,-0.02953*
1,1,0.06706,-0.02953,-0.02953*
1,1,0.06706,-0.02953,0.02953*
1,1,0.06706,0.02953,0.02953*
%
%ADD42ROUNDEDRECTD42*%
%ADD68R,0.06509X0.03162*%
D23*
X303953Y168000D02*
D03*
X298047D02*
D03*
X303953Y176000D02*
D03*
X298047D02*
D03*
X303953Y216000D02*
D03*
X298047D02*
D03*
X303953Y224000D02*
D03*
X298047D02*
D03*
D26*
X176000Y134500D02*
D03*
X206000D02*
D03*
D36*
X268000Y177000D02*
D03*
X278000Y197000D02*
D03*
X258000D02*
D03*
X268000Y216000D02*
D03*
X278000Y236000D02*
D03*
X258000D02*
D03*
X268000Y138000D02*
D03*
X278000Y158000D02*
D03*
X258000D02*
D03*
X229000Y175000D02*
D03*
Y190000D02*
D03*
X183146Y275500D02*
D03*
X299000Y245000D02*
D03*
X209000Y173000D02*
D03*
X137000Y169832D02*
D03*
X216000Y275500D02*
D03*
D37*
X161000Y274000D02*
D03*
D38*
Y264000D02*
D03*
D39*
X304000Y357000D02*
D03*
Y337000D02*
D03*
X144953Y217000D02*
D03*
D40*
X304000Y317000D02*
D03*
X144953Y237000D02*
D03*
D41*
X317000Y274000D02*
D03*
X133858Y145000D02*
D03*
Y374000D02*
D03*
D42*
X261016Y360622D02*
D03*
Y313378D02*
D03*
X212984Y360622D02*
D03*
Y313378D02*
D03*
X205110Y337000D02*
D03*
D68*
X299374Y200260D02*
D03*
Y207740D02*
D03*
X308626Y204000D02*
D03*
X299374Y182260D02*
D03*
Y189740D02*
D03*
X308626Y186000D02*
D03*
M02*
