M48
;Layer_Color=9474304
;FILE_FORMAT=2:5
INCH,TZ
;TYPE=PLATED
T1F00S00C0.01181
T2F00S00C0.02559
T3F00S00C0.02717
T4F00S00C0.02756
T5F00S00C0.03543
T6F00S00C0.05118
T7F00S00C0.05906
T8F00S00C0.11811
%
T01
X163000Y149802
X181000Y144683
X178888Y141795
X181000Y137000
X191000
X196000Y132000
X201000
X195509Y143132
X196000Y147000
X187500Y144683
X206953Y147865
X234247Y155880
X286000Y138582
X302000Y160000
X301000Y204000
X302000Y234000
X282000Y266114
X263047
X259000Y254000
Y246000
X244000Y242000
X237784Y235953
X247220Y260347
X221656Y256016
X202161Y255080
X188848Y257831
X188828Y270346
X179126Y270886
X175453Y286000
X164763Y281000
X164453Y296688
X170512Y305000
X202161Y287566
X183146Y249740
X170823Y254000
X176000Y210553
X180479Y197729
X186606Y192700
X185327Y180937
X190445
Y176000
X188000Y169000
X187886Y158374
X191532
X203720Y164122
Y169000
X216047Y168000
X230000Y170000
Y178000
X210700Y190000
X203720Y193959
X193000Y212000
X188848Y219000
X174272Y184942
X259295Y284000
X140370Y296688
X150047Y252125
X147000Y191701
X145500Y319139
X153237
X135409Y329000
Y334000
Y340000
X139000Y350000
X149047Y362351
X162000Y336000
Y328000
X159000Y317740
X169989Y315000
X179126Y349142
T02
X167000Y173724
X185368Y174000
T03
X176000Y134500
X206000
T04
X268000Y146000
X278000Y166000
X258000
X268000Y206000
X278000Y226000
X258000
X204000Y233000
X183146Y233047
T05
X207012Y155880
Y275500
X228000
X183146
X161000Y274000
Y264000
X299000Y245000
X137000Y169832
X162000Y357000
X172000
T06
X212984Y313378
X205110Y337000
X212984Y360622
X261016
Y313378
T07
X144953Y217000
Y237000
X304000Y317000
Y337000
Y357000
T08
X133858Y145000
X317000Y274000
X133858Y374000
M30
