G04*
G04 #@! TF.GenerationSoftware,Altium Limited,Altium Designer,21.6.1 (37)*
G04*
G04 Layer_Physical_Order=1*
G04 Layer_Color=255*
%FSLAX25Y25*%
%MOIN*%
G70*
G04*
G04 #@! TF.SameCoordinates,DB9D7466-3DC1-4D53-AB26-96178D206437*
G04*
G04*
G04 #@! TF.FilePolarity,Positive*
G04*
G01*
G75*
%ADD13C,0.01000*%
%ADD17C,0.02000*%
%ADD44R,0.03543X0.03543*%
%ADD45R,0.03543X0.02756*%
%ADD46R,0.02756X0.03543*%
%ADD47O,0.02362X0.08661*%
G04:AMPARAMS|DCode=48|XSize=17.72mil|YSize=55.12mil|CornerRadius=1.95mil|HoleSize=0mil|Usage=FLASHONLY|Rotation=180.000|XOffset=0mil|YOffset=0mil|HoleType=Round|Shape=RoundedRectangle|*
%AMROUNDEDRECTD48*
21,1,0.01772,0.05122,0,0,180.0*
21,1,0.01382,0.05512,0,0,180.0*
1,1,0.00390,-0.00691,0.02561*
1,1,0.00390,0.00691,0.02561*
1,1,0.00390,0.00691,-0.02561*
1,1,0.00390,-0.00691,-0.02561*
%
%ADD48ROUNDEDRECTD48*%
%ADD49R,0.05906X0.05118*%
%ADD50R,0.03150X0.03543*%
%ADD51C,0.03937*%
%ADD52R,0.04331X0.03937*%
%ADD53R,0.03937X0.04331*%
%ADD54R,0.02362X0.04528*%
%ADD55R,0.04724X0.03000*%
%ADD56C,0.04000*%
%ADD57R,0.05906X0.05906*%
%ADD58C,0.05906*%
%ADD59C,0.05512*%
%ADD60C,0.05118*%
%ADD61C,0.10000*%
%ADD62R,0.10000X0.10000*%
%ADD63C,0.06000*%
G04:AMPARAMS|DCode=64|XSize=118.11mil|YSize=118.11mil|CornerRadius=29.53mil|HoleSize=0mil|Usage=FLASHONLY|Rotation=0.000|XOffset=0mil|YOffset=0mil|HoleType=Round|Shape=RoundedRectangle|*
%AMROUNDEDRECTD64*
21,1,0.11811,0.05906,0,0,0.0*
21,1,0.05906,0.11811,0,0,0.0*
1,1,0.05906,0.02953,-0.02953*
1,1,0.05906,-0.02953,-0.02953*
1,1,0.05906,-0.02953,0.02953*
1,1,0.05906,0.02953,0.02953*
%
%ADD64ROUNDEDRECTD64*%
%ADD65R,0.05906X0.05906*%
%ADD66C,0.01968*%
%ADD67C,0.04724*%
G36*
X186000Y358435D02*
X184919Y357353D01*
X184587Y356857D01*
X184471Y356272D01*
Y291445D01*
X184587Y290860D01*
X184919Y290364D01*
X192364Y282919D01*
X192860Y282587D01*
X193445Y282471D01*
X231307D01*
X235471Y278307D01*
Y252799D01*
X234331D01*
Y251577D01*
X230307D01*
X229722Y251460D01*
X229226Y251129D01*
X227511Y249414D01*
X227180Y248918D01*
X227063Y248333D01*
Y241462D01*
X220411Y234810D01*
X206238D01*
X205757Y235290D01*
X205105Y235667D01*
X204377Y235862D01*
X203623D01*
X202895Y235667D01*
X202819Y235623D01*
X202067Y236375D01*
Y241728D01*
X202925D01*
Y246272D01*
X199169D01*
Y241728D01*
X200028D01*
Y235953D01*
X200105Y235563D01*
X200326Y235232D01*
X201377Y234181D01*
X201333Y234105D01*
X201138Y233377D01*
Y232623D01*
X201333Y231895D01*
X201710Y231243D01*
X202243Y230710D01*
X202895Y230333D01*
X203623Y230138D01*
X204377D01*
X205105Y230333D01*
X205757Y230710D01*
X206290Y231243D01*
X206584Y231751D01*
X221044D01*
X221630Y231867D01*
X222126Y232199D01*
X229674Y239747D01*
X230005Y240243D01*
X230122Y240828D01*
Y247699D01*
X230941Y248518D01*
X234331D01*
Y246681D01*
X241237D01*
Y248518D01*
X252791D01*
Y248169D01*
X257335D01*
Y248518D01*
X276980D01*
Y228894D01*
X276819Y228851D01*
X276122Y228448D01*
X275552Y227878D01*
X275149Y227181D01*
X274941Y226403D01*
Y225597D01*
X275149Y224819D01*
X275552Y224122D01*
X276122Y223552D01*
X276819Y223149D01*
X277597Y222941D01*
X278403D01*
X279181Y223149D01*
X279878Y223552D01*
X280448Y224122D01*
X280851Y224819D01*
X281059Y225597D01*
Y226403D01*
X280851Y227181D01*
X280448Y227878D01*
X279878Y228448D01*
X279181Y228851D01*
X279020Y228894D01*
Y248924D01*
X279081Y248966D01*
X279123Y249028D01*
X282394D01*
X282784Y249105D01*
X283115Y249326D01*
X284777Y250988D01*
X288469D01*
Y256319D01*
X283531D01*
Y252627D01*
X281971Y251067D01*
X279123D01*
X279081Y251129D01*
X278585Y251460D01*
X278000Y251577D01*
X257335D01*
Y251925D01*
X252791D01*
Y251577D01*
X241237D01*
Y252799D01*
X238529D01*
Y278941D01*
X238413Y279526D01*
X238081Y280022D01*
X233022Y285081D01*
X232526Y285413D01*
X231941Y285529D01*
X194078D01*
X187529Y292078D01*
Y293000D01*
X221337D01*
X223974Y290364D01*
X224470Y290032D01*
X225055Y289915D01*
X234772D01*
X250791Y273897D01*
X251287Y273565D01*
X251872Y273449D01*
X252713D01*
Y272033D01*
X257256D01*
Y273443D01*
X270932D01*
Y272209D01*
X274294D01*
Y273443D01*
X283728D01*
Y273075D01*
X288272D01*
Y273933D01*
X294625D01*
X297980Y270578D01*
Y248098D01*
X297743Y248034D01*
X297001Y247605D01*
X296395Y246999D01*
X295966Y246257D01*
X295744Y245429D01*
Y244571D01*
X295966Y243743D01*
X296395Y243001D01*
X297001Y242395D01*
X297743Y241966D01*
X298571Y241744D01*
X299429D01*
X300257Y241966D01*
X300999Y242395D01*
X301605Y243001D01*
X302034Y243743D01*
X302256Y244571D01*
Y245429D01*
X302034Y246257D01*
X301605Y246999D01*
X300999Y247605D01*
X300257Y248034D01*
X300020Y248098D01*
Y271000D01*
X299942Y271390D01*
X299721Y271721D01*
X295768Y275674D01*
X295437Y275895D01*
X295047Y275972D01*
X288272D01*
Y276831D01*
X283728D01*
Y276502D01*
X274294D01*
Y277736D01*
X270932D01*
Y276502D01*
X257256D01*
Y276576D01*
X252713D01*
X252713Y276576D01*
Y276576D01*
X252713Y276576D01*
X252278Y276734D01*
X236513Y292500D01*
X236521Y292612D01*
X236678Y293000D01*
X247220D01*
X248660Y292230D01*
X250543Y291659D01*
X252500Y291466D01*
Y291466D01*
X252584Y291483D01*
X308000D01*
X308963Y291675D01*
X309780Y292220D01*
X310301Y293000D01*
X329235D01*
X329235Y130482D01*
X322518Y123765D01*
X126301D01*
X120765Y129301D01*
X120765Y387219D01*
X126301Y392755D01*
X186000D01*
Y358435D01*
D02*
G37*
%LPC*%
G36*
X134489Y380405D02*
X133227D01*
X131990Y380159D01*
X130824Y379677D01*
X129775Y378976D01*
X128883Y378083D01*
X128182Y377034D01*
X127699Y375868D01*
X127453Y374631D01*
Y373369D01*
X127699Y372132D01*
X128182Y370966D01*
X128883Y369917D01*
X129775Y369024D01*
X130824Y368323D01*
X131990Y367841D01*
X133227Y367595D01*
X134489D01*
X135727Y367841D01*
X136892Y368323D01*
X137942Y369024D01*
X138834Y369917D01*
X139535Y370966D01*
X140018Y372132D01*
X140264Y373369D01*
Y374631D01*
X140018Y375868D01*
X139535Y377034D01*
X138834Y378083D01*
X137942Y378976D01*
X136892Y379677D01*
X135727Y380159D01*
X134489Y380405D01*
D02*
G37*
G36*
X162455Y360453D02*
X161545D01*
X160667Y360217D01*
X159880Y359763D01*
X159237Y359120D01*
X158782Y358333D01*
X158547Y357455D01*
Y356545D01*
X158782Y355667D01*
X159237Y354880D01*
X159880Y354237D01*
X160667Y353783D01*
X161545Y353547D01*
X162455D01*
X162582Y353581D01*
X163064Y353196D01*
Y348272D01*
X162169D01*
Y347020D01*
X157831D01*
Y348272D01*
X154075D01*
Y343728D01*
X157831D01*
Y344980D01*
X162169D01*
Y343728D01*
X163028D01*
Y338045D01*
X163105Y337655D01*
X163326Y337324D01*
X169524Y331127D01*
Y328025D01*
X174067D01*
Y329277D01*
X175554D01*
Y328046D01*
X180098D01*
Y332589D01*
X175554D01*
Y331316D01*
X174067D01*
Y332569D01*
X170966D01*
X165067Y338467D01*
Y343728D01*
X165925D01*
Y348272D01*
X165103D01*
Y353961D01*
X165026Y354352D01*
X164805Y354682D01*
X164685Y354802D01*
X164763Y354880D01*
X165217Y355667D01*
X165453Y356545D01*
Y357455D01*
X165217Y358333D01*
X164763Y359120D01*
X164120Y359763D01*
X163333Y360217D01*
X162455Y360453D01*
D02*
G37*
G36*
X141425Y348772D02*
X139547D01*
Y346500D01*
X141425D01*
Y348772D01*
D02*
G37*
G36*
X138547D02*
X136669D01*
Y346500D01*
X138547D01*
Y348772D01*
D02*
G37*
G36*
X141425Y345500D02*
X139047D01*
X136669D01*
Y343272D01*
X136669Y343228D01*
Y342772D01*
X136669Y342728D01*
Y340500D01*
X139244D01*
X141819D01*
Y342772D01*
X141530D01*
X141425Y343228D01*
X141425Y343272D01*
Y345500D01*
D02*
G37*
G36*
X167000Y363020D02*
X158244D01*
X157854Y362942D01*
X157523Y362721D01*
X148783Y353981D01*
X135820D01*
X135430Y353903D01*
X135099Y353682D01*
X131279Y349863D01*
X131058Y349532D01*
X130980Y349142D01*
Y325121D01*
X131058Y324731D01*
X131279Y324400D01*
X134688Y320992D01*
X135019Y320771D01*
X135409Y320693D01*
X139480D01*
Y316841D01*
X139158Y316625D01*
X138786Y316069D01*
X138656Y315413D01*
Y309114D01*
X138786Y308458D01*
X139158Y307902D01*
X139350Y307774D01*
Y306422D01*
X136787Y303859D01*
X136287Y304066D01*
Y304825D01*
X131744D01*
Y303553D01*
X130256D01*
Y304805D01*
X125713D01*
Y300261D01*
X130256D01*
Y301514D01*
X131744D01*
Y300282D01*
X136287D01*
Y301534D01*
X136923D01*
X137313Y301612D01*
X137644Y301833D01*
X141091Y305279D01*
X141312Y305610D01*
X141389Y306000D01*
Y307774D01*
X141582Y307902D01*
X141953Y308458D01*
X142084Y309114D01*
Y315413D01*
X141953Y316069D01*
X141582Y316625D01*
X141520Y316667D01*
Y321290D01*
X145500Y325271D01*
X147539Y323232D01*
X147870Y323011D01*
X148260Y322933D01*
X149618D01*
X149825Y322433D01*
X149649Y322256D01*
X149428Y321926D01*
X149350Y321536D01*
Y316754D01*
X149158Y316625D01*
X148786Y316069D01*
X148656Y315413D01*
Y309114D01*
X148786Y308458D01*
X149158Y307902D01*
X149480Y307686D01*
Y303272D01*
X149335D01*
Y298728D01*
X153091D01*
Y303272D01*
X151520D01*
Y307861D01*
X151582Y307902D01*
X151953Y308458D01*
X152084Y309114D01*
Y315413D01*
X151953Y316069D01*
X151582Y316625D01*
X151389Y316754D01*
Y321102D01*
X160047D01*
Y318240D01*
X164000D01*
X167953D01*
Y319783D01*
X168415Y319975D01*
X172531Y315858D01*
Y297110D01*
X169057Y293636D01*
X165956D01*
Y289881D01*
X165479Y289825D01*
X163806D01*
X163416Y289748D01*
X163085Y289527D01*
X160279Y286721D01*
X160058Y286390D01*
X159980Y286000D01*
Y277453D01*
X157547D01*
Y270547D01*
X164453D01*
Y272980D01*
X166728D01*
Y272075D01*
X171272D01*
Y272579D01*
X171772Y272786D01*
X173252Y271306D01*
Y254232D01*
X173330Y253842D01*
X173551Y253511D01*
X185595Y241467D01*
Y235353D01*
X185095Y235146D01*
X184903Y235338D01*
X184251Y235714D01*
X183523Y235910D01*
X182769D01*
X182041Y235714D01*
X181388Y235338D01*
X180856Y234805D01*
X180479Y234152D01*
X180284Y233424D01*
Y232670D01*
X180479Y231943D01*
X180559Y231803D01*
X180397Y231559D01*
X180394Y231548D01*
X177807Y228960D01*
X177475Y228464D01*
X177359Y227878D01*
Y218529D01*
X150237D01*
X150078Y219123D01*
X149354Y220377D01*
X148330Y221401D01*
X147076Y222125D01*
X145677Y222500D01*
X144229D01*
X142830Y222125D01*
X142298Y221818D01*
X138529Y225586D01*
Y230815D01*
X138953Y231000D01*
X139029Y231000D01*
X144453D01*
Y237000D01*
Y243000D01*
X139029D01*
X138953Y243000D01*
X138529Y243185D01*
Y279366D01*
X143633Y284471D01*
X148078D01*
Y283728D01*
X151834Y283728D01*
X151980Y283289D01*
Y266500D01*
X152058Y266110D01*
X152279Y265779D01*
X154779Y263279D01*
X155110Y263058D01*
X155500Y262980D01*
X157699D01*
X157782Y262667D01*
X158237Y261880D01*
X158880Y261237D01*
X159667Y260783D01*
X160545Y260547D01*
X161455D01*
X162333Y260783D01*
X163120Y261237D01*
X163763Y261880D01*
X164217Y262667D01*
X164301Y262980D01*
X164953D01*
X165343Y263058D01*
X165674Y263279D01*
X168449Y266055D01*
X168526Y266169D01*
X171272D01*
Y269925D01*
X166728D01*
Y267268D01*
X166716Y267205D01*
X164758Y265247D01*
X164319Y265317D01*
X164188Y265384D01*
X163763Y266120D01*
X163120Y266763D01*
X162333Y267217D01*
X161455Y267453D01*
X160545D01*
X159667Y267217D01*
X158880Y266763D01*
X158237Y266120D01*
X157782Y265333D01*
X157699Y265020D01*
X155922D01*
X154020Y266922D01*
Y283728D01*
X157739D01*
Y288272D01*
X157264D01*
Y298728D01*
X158319D01*
Y303272D01*
X156520D01*
Y307861D01*
X156582Y307902D01*
X156953Y308458D01*
X157084Y309114D01*
Y309980D01*
X160547D01*
Y307201D01*
X167453D01*
Y313319D01*
X160547D01*
Y312020D01*
X157084D01*
Y315413D01*
X156953Y316069D01*
X156582Y316625D01*
X156026Y316997D01*
X155370Y317127D01*
X154714Y316997D01*
X154158Y316625D01*
X153786Y316069D01*
X153656Y315413D01*
Y309114D01*
X153786Y308458D01*
X154158Y307902D01*
X154480Y307686D01*
Y303272D01*
X154169D01*
Y298728D01*
X155225D01*
Y288272D01*
X154020D01*
Y290071D01*
X153942Y290461D01*
X153721Y290792D01*
X153136Y291377D01*
X152831Y291728D01*
X152831D01*
X152831Y291728D01*
Y296272D01*
X149075D01*
Y291728D01*
X149075Y291728D01*
X149075D01*
X148767Y291375D01*
X148483Y291091D01*
X142166D01*
X140612Y292645D01*
X140281Y292866D01*
X139891Y292943D01*
X136287D01*
Y294195D01*
X131744D01*
Y292923D01*
X130256D01*
Y294175D01*
X125713D01*
Y289632D01*
X130256D01*
Y290884D01*
X131744D01*
Y289652D01*
X136287D01*
Y290904D01*
X139469D01*
X141023Y289350D01*
X141353Y289129D01*
X141744Y289051D01*
X148906D01*
X149296Y289129D01*
X149627Y289350D01*
X150953Y290676D01*
X151980Y289649D01*
Y288711D01*
X151834Y288272D01*
X151480Y288272D01*
X148078D01*
Y287529D01*
X143000D01*
X142415Y287413D01*
X141919Y287082D01*
X135919Y281081D01*
X135587Y280585D01*
X135471Y280000D01*
Y224953D01*
X135587Y224367D01*
X135919Y223871D01*
X140135Y219655D01*
X139828Y219123D01*
X139453Y217724D01*
Y216276D01*
X139828Y214877D01*
X140552Y213623D01*
X141576Y212599D01*
X142830Y211875D01*
X144229Y211500D01*
X145677D01*
X147076Y211875D01*
X148330Y212599D01*
X149354Y213623D01*
X150078Y214877D01*
X150237Y215471D01*
X177359D01*
Y207990D01*
X175168Y205799D01*
X170819D01*
Y204267D01*
X169491D01*
X168905Y204150D01*
X168409Y203819D01*
X165919Y201328D01*
X165587Y200832D01*
X165471Y200247D01*
Y175686D01*
X164907Y175123D01*
X164532Y174215D01*
Y173233D01*
X164907Y172326D01*
X165602Y171632D01*
X166509Y171256D01*
X167491D01*
X168398Y171632D01*
X169093Y172326D01*
X169468Y173233D01*
Y174215D01*
X169093Y175123D01*
X168529Y175686D01*
Y199613D01*
X170124Y201208D01*
X170819D01*
Y199681D01*
X177724D01*
Y204030D01*
X179970Y206275D01*
X180301Y206771D01*
X180418Y207357D01*
Y217000D01*
Y221728D01*
X181693D01*
Y226272D01*
X180418D01*
Y227245D01*
X182891Y229718D01*
X183203Y230185D01*
X183523D01*
X184251Y230380D01*
X184903Y230757D01*
X185095Y230948D01*
X185595Y230741D01*
Y226272D01*
X183843D01*
Y221728D01*
X185595D01*
Y198299D01*
X182047Y194751D01*
X181826Y194420D01*
X181748Y194030D01*
Y190452D01*
X181724Y190430D01*
X181286Y190239D01*
X181171Y190282D01*
X180900Y190336D01*
X179518D01*
X179247Y190282D01*
X179017Y190129D01*
X178863Y189899D01*
X178809Y189628D01*
Y184506D01*
X178863Y184235D01*
X179017Y184005D01*
X179189Y183890D01*
Y180084D01*
X173551Y174445D01*
X173330Y174115D01*
X173252Y173724D01*
Y146412D01*
X173330Y146021D01*
X173551Y145691D01*
X177404Y141838D01*
Y141500D01*
X177630Y140954D01*
X178047Y140537D01*
X178593Y140311D01*
X179183D01*
X179729Y140537D01*
X180146Y140954D01*
X180372Y141500D01*
Y142090D01*
X180146Y142636D01*
X179729Y143054D01*
X179183Y143280D01*
X178846D01*
X175291Y146834D01*
Y173302D01*
X180930Y178940D01*
X181151Y179271D01*
X181228Y179661D01*
Y183682D01*
X181253Y183704D01*
X181691Y183895D01*
X181806Y183851D01*
X182077Y183797D01*
X183459D01*
X183730Y183851D01*
X183845Y183895D01*
X184283Y183704D01*
X184307Y183682D01*
Y182017D01*
X184069Y181778D01*
X183843Y181232D01*
Y180642D01*
X184069Y180096D01*
X184083Y180082D01*
X183876Y179582D01*
X183450D01*
X183060Y179504D01*
X182729Y179283D01*
X177097Y173651D01*
X176876Y173320D01*
X176798Y172930D01*
Y147865D01*
X176876Y147475D01*
X177097Y147144D01*
X179516Y144726D01*
Y144388D01*
X179742Y143843D01*
X180159Y143425D01*
X180705Y143199D01*
X181295D01*
X181841Y143425D01*
X182258Y143843D01*
X182484Y144388D01*
Y144979D01*
X182258Y145524D01*
X181841Y145942D01*
X181295Y146168D01*
X180958D01*
X178838Y148288D01*
Y149201D01*
X179338Y149306D01*
X179488Y149081D01*
X183255Y145314D01*
Y139571D01*
X182755Y139414D01*
X182146Y139766D01*
X181500Y139939D01*
Y137000D01*
X180500D01*
Y139939D01*
X179854Y139766D01*
X179177Y139375D01*
X178625Y138823D01*
X178234Y138146D01*
X178032Y137391D01*
Y137332D01*
X177532Y137043D01*
X177146Y137266D01*
X176500Y137439D01*
Y134500D01*
Y131561D01*
X177146Y131734D01*
X177823Y132125D01*
X178032Y132333D01*
X178532Y132126D01*
Y131509D01*
X178907Y130602D01*
X179602Y129907D01*
X179980Y129750D01*
Y128252D01*
X180058Y127862D01*
X180279Y127531D01*
X181531Y126279D01*
X181862Y126058D01*
X182252Y125980D01*
X208000D01*
X208390Y126058D01*
X208721Y126279D01*
X211704Y129262D01*
X211925Y129593D01*
X212003Y129983D01*
Y134561D01*
X218516Y141074D01*
X218737Y141405D01*
X218815Y141795D01*
Y146382D01*
X220657D01*
Y147362D01*
X239342D01*
Y146382D01*
X245067D01*
Y150382D01*
X239342D01*
Y149401D01*
X220657D01*
Y150382D01*
X220471D01*
X220325Y150882D01*
X222674Y153231D01*
X222895Y153562D01*
X222972Y153952D01*
Y154728D01*
X223831D01*
Y159272D01*
X222675D01*
Y161728D01*
X223731D01*
Y166272D01*
X219581D01*
Y161728D01*
X220636D01*
Y159272D01*
X220075D01*
Y154728D01*
X220581D01*
X220787Y154228D01*
X218481Y151922D01*
X218260Y151591D01*
X218182Y151201D01*
Y150382D01*
X214933D01*
Y146382D01*
X216776D01*
Y142218D01*
X210262Y135704D01*
X210041Y135373D01*
X209964Y134983D01*
Y130406D01*
X207578Y128020D01*
X182674D01*
X182020Y128674D01*
Y129750D01*
X182398Y129907D01*
X183093Y130602D01*
X183229Y130932D01*
X183771D01*
X183907Y130602D01*
X184602Y129907D01*
X185509Y129532D01*
X186491D01*
X187398Y129907D01*
X188093Y130602D01*
X188229Y130932D01*
X188771D01*
X188907Y130602D01*
X189602Y129907D01*
X190509Y129532D01*
X191491D01*
X192398Y129907D01*
X193093Y130602D01*
X193229Y130932D01*
X193771D01*
X193907Y130602D01*
X194602Y129907D01*
X195509Y129532D01*
X196491D01*
X197398Y129907D01*
X198093Y130602D01*
X198229Y130932D01*
X198771D01*
X198907Y130602D01*
X199602Y129907D01*
X200509Y129532D01*
X201491D01*
X202398Y129907D01*
X203093Y130602D01*
X203468Y131509D01*
Y132126D01*
X203969Y132333D01*
X204177Y132125D01*
X204854Y131734D01*
X205500Y131561D01*
Y134500D01*
Y137439D01*
X204854Y137266D01*
X204177Y136875D01*
X203969Y136667D01*
X203468Y136874D01*
Y137491D01*
X203312Y137870D01*
X205498Y140056D01*
X209095D01*
X209485Y140134D01*
X209816Y140355D01*
X213846Y144385D01*
X214067Y144716D01*
X214145Y145106D01*
Y153656D01*
X215205Y154716D01*
X215268Y154728D01*
X217925D01*
Y159272D01*
X214169D01*
Y156526D01*
X214055Y156449D01*
X212404Y154799D01*
X212183Y154468D01*
X212106Y154078D01*
Y145528D01*
X208673Y142095D01*
X205048D01*
X204657Y142018D01*
X204327Y141797D01*
X204270Y141712D01*
X202482Y139924D01*
X202020Y140115D01*
Y147389D01*
X201942Y147780D01*
X201721Y148110D01*
X199890Y149941D01*
X199559Y150162D01*
X199169Y150240D01*
X187622D01*
X187040Y150822D01*
Y151579D01*
X188095D01*
Y156122D01*
X186346D01*
Y159852D01*
X186846Y160129D01*
X187195Y160059D01*
X187386D01*
Y163839D01*
Y167618D01*
X187195D01*
X186846Y167549D01*
X186346Y167825D01*
Y171733D01*
X186767Y171907D01*
X187461Y172602D01*
X187837Y173509D01*
Y174491D01*
X187461Y175398D01*
X186767Y176093D01*
X185859Y176469D01*
X184877D01*
X183970Y176093D01*
X183275Y175398D01*
X182900Y174491D01*
Y173509D01*
X183275Y172602D01*
X183970Y171907D01*
X184307Y171768D01*
Y167224D01*
X184283Y167201D01*
X183845Y167010D01*
X183730Y167054D01*
X183459Y167108D01*
X182077D01*
X181806Y167054D01*
X181488Y166934D01*
X181171Y167054D01*
X180900Y167108D01*
X179518D01*
X179338Y167072D01*
X179005Y167248D01*
X178838Y167382D01*
Y172508D01*
X183873Y177543D01*
X187300D01*
X187690Y177620D01*
X188021Y177841D01*
X188607Y178427D01*
X188828Y178758D01*
X188905Y179148D01*
Y179670D01*
X189405Y179877D01*
X189604Y179679D01*
X190150Y179453D01*
X190487D01*
X194420Y175520D01*
X194213Y175020D01*
X194000D01*
X193610Y174942D01*
X193279Y174721D01*
X189814Y171256D01*
X189593Y170925D01*
X189516Y170535D01*
Y167811D01*
X189050Y167530D01*
X189016Y167531D01*
X188577Y167618D01*
X188386D01*
Y163839D01*
Y160059D01*
X188577D01*
X189043Y160152D01*
X189438Y160416D01*
X189566Y160607D01*
X189754Y160569D01*
X191136D01*
X191407Y160623D01*
X191637Y160777D01*
X191812D01*
X192042Y160623D01*
X192313Y160569D01*
X193695D01*
X193966Y160623D01*
X194196Y160777D01*
X194371D01*
X194601Y160623D01*
X194872Y160569D01*
X196254D01*
X196525Y160623D01*
X196610Y160680D01*
X197078Y160476D01*
X197102Y160453D01*
Y158344D01*
X197180Y157954D01*
X197401Y157623D01*
X199865Y155159D01*
X200196Y154938D01*
X200586Y154860D01*
X203914D01*
X203978Y154623D01*
X204406Y153881D01*
X205013Y153275D01*
X205755Y152846D01*
X206583Y152624D01*
X207440D01*
X208268Y152846D01*
X209011Y153275D01*
X209617Y153881D01*
X210046Y154623D01*
X210268Y155451D01*
Y156309D01*
X210046Y157137D01*
X209617Y157879D01*
X209011Y158485D01*
X208268Y158914D01*
X207440Y159136D01*
X206583D01*
X205755Y158914D01*
X205013Y158485D01*
X204406Y157879D01*
X203978Y157137D01*
X203914Y156899D01*
X201009D01*
X199142Y158766D01*
Y160661D01*
X199314Y160777D01*
X199468Y161006D01*
X199522Y161278D01*
Y166400D01*
X199468Y166671D01*
X199314Y166901D01*
X199084Y167054D01*
X198813Y167108D01*
X197473D01*
X197391Y167204D01*
X197237Y167579D01*
X197638Y167980D01*
X202640D01*
X202879Y167742D01*
X203425Y167516D01*
X204015D01*
X204560Y167742D01*
X204978Y168159D01*
X205204Y168705D01*
Y169295D01*
X204978Y169841D01*
X204560Y170258D01*
X204015Y170484D01*
X204024Y170980D01*
X228258D01*
X228592Y170480D01*
X228516Y170295D01*
Y169705D01*
X228742Y169159D01*
X229159Y168742D01*
X229705Y168516D01*
X230042D01*
X253279Y145279D01*
X253610Y145058D01*
X254000Y144980D01*
X265106D01*
X265149Y144819D01*
X265552Y144122D01*
X266122Y143552D01*
X266819Y143149D01*
X267597Y142941D01*
X268403D01*
X269181Y143149D01*
X269878Y143552D01*
X270448Y144122D01*
X270851Y144819D01*
X271059Y145597D01*
Y146403D01*
X270851Y147181D01*
X270448Y147878D01*
X269878Y148448D01*
X269181Y148851D01*
X268403Y149059D01*
X267597D01*
X266819Y148851D01*
X266122Y148448D01*
X265552Y147878D01*
X265149Y147181D01*
X265106Y147020D01*
X254422D01*
X231484Y169958D01*
Y170295D01*
X231407Y170480D01*
X231742Y170980D01*
X234609D01*
X250430Y155159D01*
X250761Y154938D01*
X251151Y154860D01*
X279917D01*
X281998Y152779D01*
X282329Y152558D01*
X282719Y152480D01*
X289488D01*
Y151228D01*
X293244D01*
Y155772D01*
X289488D01*
Y154520D01*
X283141D01*
X281060Y156601D01*
X280729Y156822D01*
X280339Y156899D01*
X251574D01*
X235993Y172480D01*
X236200Y172980D01*
X238000D01*
X238390Y173058D01*
X238721Y173279D01*
X248422Y182980D01*
X290169D01*
Y181728D01*
X293925D01*
Y186272D01*
X290169D01*
Y185020D01*
X248000D01*
X247610Y184942D01*
X247279Y184721D01*
X237578Y175020D01*
X235169D01*
X234962Y175520D01*
X254917Y195475D01*
X278495D01*
X278885Y195553D01*
X279216Y195774D01*
X292368Y208926D01*
X292589Y209257D01*
X292667Y209647D01*
Y213928D01*
X293525D01*
Y218472D01*
X289769D01*
Y213928D01*
X290628D01*
Y210070D01*
X278073Y197515D01*
X254495D01*
X254105Y197437D01*
X253774Y197216D01*
X233578Y177020D01*
X231742D01*
X231407Y177520D01*
X231484Y177705D01*
Y178295D01*
X231258Y178841D01*
X230841Y179258D01*
X230295Y179484D01*
X229705D01*
X229159Y179258D01*
X228921Y179020D01*
X198922D01*
X196583Y181359D01*
Y183142D01*
X196843Y183292D01*
X197102Y183142D01*
Y182705D01*
X197180Y182315D01*
X197401Y181984D01*
X198448Y180937D01*
X198779Y180716D01*
X199169Y180639D01*
X210700D01*
X211090Y180716D01*
X211421Y180937D01*
X235464Y204980D01*
X265106D01*
X265149Y204819D01*
X265552Y204122D01*
X266122Y203552D01*
X266819Y203149D01*
X267597Y202941D01*
X268403D01*
X269181Y203149D01*
X269878Y203552D01*
X270448Y204122D01*
X270851Y204819D01*
X271059Y205597D01*
Y206403D01*
X270851Y207181D01*
X270448Y207878D01*
X269878Y208448D01*
X269181Y208851D01*
X268403Y209059D01*
X267597D01*
X266819Y208851D01*
X266122Y208448D01*
X265552Y207878D01*
X265149Y207181D01*
X265106Y207020D01*
X235041D01*
X234651Y206942D01*
X234320Y206721D01*
X210277Y182678D01*
X199592D01*
X199142Y183128D01*
Y183890D01*
X199314Y184005D01*
X199468Y184235D01*
X199522Y184506D01*
Y189628D01*
X199468Y189899D01*
X199314Y190129D01*
X199084Y190282D01*
X198813Y190336D01*
X197431D01*
X197160Y190282D01*
X196843Y190162D01*
X196525Y190282D01*
X196254Y190336D01*
X194872D01*
X194601Y190282D01*
X194486Y190239D01*
X194048Y190430D01*
X194024Y190452D01*
Y207331D01*
X196103Y209410D01*
X196324Y209741D01*
X196402Y210131D01*
Y274480D01*
X203914D01*
X203978Y274243D01*
X204406Y273501D01*
X205013Y272895D01*
X205755Y272466D01*
X206583Y272244D01*
X207440D01*
X208268Y272466D01*
X209011Y272895D01*
X209617Y273501D01*
X210046Y274243D01*
X210268Y275071D01*
Y275929D01*
X210046Y276757D01*
X209617Y277499D01*
X209011Y278105D01*
X208268Y278534D01*
X207440Y278756D01*
X206583D01*
X205755Y278534D01*
X205013Y278105D01*
X204406Y277499D01*
X203978Y276757D01*
X203914Y276520D01*
X195804D01*
X181020Y291304D01*
Y299169D01*
X182584D01*
Y302925D01*
X178040D01*
Y299169D01*
X178980D01*
Y290882D01*
X179058Y290492D01*
X179279Y290161D01*
X194362Y275078D01*
Y210553D01*
X192283Y208474D01*
X192062Y208143D01*
X191984Y207753D01*
Y190992D01*
X191724Y190842D01*
X191464Y190992D01*
Y212733D01*
X192721Y213990D01*
X192942Y214320D01*
X193020Y214711D01*
Y246305D01*
X192942Y246695D01*
X192721Y247026D01*
X184165Y255581D01*
Y272402D01*
X184403Y272466D01*
X185145Y272895D01*
X185751Y273501D01*
X186180Y274243D01*
X186402Y275071D01*
Y275929D01*
X186180Y276757D01*
X185751Y277499D01*
X185145Y278105D01*
X184403Y278534D01*
X183574Y278756D01*
X182717D01*
X181889Y278534D01*
X181676Y278411D01*
X178367Y281721D01*
X178036Y281942D01*
X177646Y282020D01*
X171412D01*
X169918Y283513D01*
X170109Y283975D01*
X170499D01*
Y287731D01*
X170976Y287786D01*
X171543D01*
X171933Y287864D01*
X172264Y288085D01*
X176005Y291826D01*
X176226Y292156D01*
X176304Y292547D01*
Y316547D01*
X176597Y316726D01*
X176794Y316764D01*
X179292Y314266D01*
Y308831D01*
X178040D01*
Y305075D01*
X182584D01*
Y308831D01*
X181332D01*
Y314688D01*
X181254Y315078D01*
X181033Y315409D01*
X164469Y331973D01*
X164138Y332194D01*
X163748Y332272D01*
X157084D01*
Y334311D01*
X156953Y334967D01*
X156582Y335523D01*
X156520Y335564D01*
Y337728D01*
X157831D01*
Y342272D01*
X154075D01*
Y337728D01*
X154480D01*
Y335739D01*
X154158Y335523D01*
X153786Y334967D01*
X153656Y334311D01*
Y328012D01*
X153786Y327356D01*
X154158Y326800D01*
X154714Y326428D01*
X155370Y326298D01*
X156026Y326428D01*
X156582Y326800D01*
X156953Y327356D01*
X157084Y328012D01*
Y330232D01*
X163326D01*
X168096Y325462D01*
X168057Y325265D01*
X167879Y324972D01*
X148682D01*
X146691Y326963D01*
X146953Y327356D01*
X147084Y328012D01*
Y334311D01*
X146953Y334967D01*
X146582Y335523D01*
X146520Y335564D01*
Y337728D01*
X146831D01*
Y342272D01*
X146520D01*
Y343728D01*
X146831D01*
Y348272D01*
X143075D01*
Y343728D01*
X144480D01*
Y342272D01*
X142681D01*
Y337728D01*
X144480D01*
Y335739D01*
X144158Y335523D01*
X143786Y334967D01*
X143656Y334311D01*
Y328012D01*
X143786Y327356D01*
X144153Y326807D01*
X140078Y322732D01*
X135831D01*
X133020Y325544D01*
Y348719D01*
X136242Y351942D01*
X149206D01*
X149596Y352020D01*
X149926Y352240D01*
X158666Y360980D01*
X166578D01*
X168547Y359011D01*
Y353547D01*
X168970D01*
Y348272D01*
X168075D01*
Y343728D01*
X168933D01*
Y342769D01*
X169011Y342379D01*
X169232Y342048D01*
X169524Y341757D01*
Y338655D01*
X174067D01*
Y339907D01*
X175554D01*
Y338676D01*
X180098D01*
Y343219D01*
X175554D01*
Y341946D01*
X174067D01*
Y343198D01*
X170972D01*
Y343728D01*
X171831D01*
Y348272D01*
X171009D01*
Y353547D01*
X175453D01*
Y360453D01*
X169989D01*
X167721Y362721D01*
X167390Y362942D01*
X167000Y363020D01*
D02*
G37*
G36*
X141819Y339500D02*
X139744D01*
Y337228D01*
X141819D01*
Y339500D01*
D02*
G37*
G36*
X138744D02*
X136669D01*
Y337228D01*
X138744D01*
Y339500D01*
D02*
G37*
G36*
X140870Y336435D02*
Y331661D01*
X142594D01*
Y334311D01*
X142424Y335162D01*
X141942Y335883D01*
X141221Y336366D01*
X140870Y336435D01*
D02*
G37*
G36*
X139870D02*
X139519Y336366D01*
X138797Y335883D01*
X138315Y335162D01*
X138146Y334311D01*
Y331661D01*
X139870D01*
Y336435D01*
D02*
G37*
G36*
X151925Y348272D02*
X148169D01*
Y343728D01*
X149028D01*
Y342272D01*
X148169D01*
Y337728D01*
X149480D01*
Y335739D01*
X149158Y335523D01*
X148786Y334967D01*
X148656Y334311D01*
Y328012D01*
X148786Y327356D01*
X149158Y326800D01*
X149714Y326428D01*
X150370Y326298D01*
X151026Y326428D01*
X151582Y326800D01*
X151953Y327356D01*
X152084Y328012D01*
Y334311D01*
X151953Y334967D01*
X151582Y335523D01*
X151520Y335564D01*
Y337728D01*
X151925D01*
Y342272D01*
X151067D01*
Y343728D01*
X151925D01*
Y348272D01*
D02*
G37*
G36*
X142594Y330661D02*
X140870D01*
Y325887D01*
X141221Y325957D01*
X141942Y326439D01*
X142424Y327161D01*
X142594Y328012D01*
Y330661D01*
D02*
G37*
G36*
X139870D02*
X138146D01*
Y328012D01*
X138315Y327161D01*
X138797Y326439D01*
X139519Y325957D01*
X139870Y325887D01*
Y330661D01*
D02*
G37*
G36*
X167953Y317240D02*
X164500D01*
Y314181D01*
X167953D01*
Y317240D01*
D02*
G37*
G36*
X163500D02*
X160047D01*
Y314181D01*
X163500D01*
Y317240D01*
D02*
G37*
G36*
X164331Y303772D02*
X162256D01*
Y301500D01*
X164331D01*
Y303772D01*
D02*
G37*
G36*
X161256D02*
X159181D01*
Y301500D01*
X161256D01*
Y303772D01*
D02*
G37*
G36*
X164331Y300500D02*
X162256D01*
Y298228D01*
X164331D01*
Y300500D01*
D02*
G37*
G36*
X161256D02*
X159181D01*
Y298228D01*
X161256D01*
Y300500D01*
D02*
G37*
G36*
X145370Y317127D02*
X144714Y316997D01*
X144158Y316625D01*
X143786Y316069D01*
X143656Y315413D01*
Y309114D01*
X143786Y308458D01*
X144158Y307902D01*
X144480Y307686D01*
Y303272D01*
X143429D01*
Y298728D01*
X144288D01*
Y296272D01*
X143169D01*
Y291728D01*
X146925D01*
Y296272D01*
X146327D01*
Y298728D01*
X147185D01*
Y303272D01*
X146520D01*
Y307861D01*
X146582Y307902D01*
X146953Y308458D01*
X147084Y309114D01*
Y315413D01*
X146953Y316069D01*
X146582Y316625D01*
X146026Y316997D01*
X145370Y317127D01*
D02*
G37*
G36*
X228500Y279254D02*
Y276000D01*
X231754D01*
X231500Y276950D01*
X231006Y277806D01*
X230306Y278505D01*
X229450Y279000D01*
X228500Y279254D01*
D02*
G37*
G36*
X227500D02*
X226550Y279000D01*
X225694Y278505D01*
X224994Y277806D01*
X224500Y276950D01*
X224246Y276000D01*
X227500D01*
Y279254D01*
D02*
G37*
G36*
X231754Y275000D02*
X228500D01*
Y271746D01*
X229450Y272000D01*
X230306Y272495D01*
X231006Y273194D01*
X231500Y274050D01*
X231754Y275000D01*
D02*
G37*
G36*
X227500D02*
X224246D01*
X224500Y274050D01*
X224994Y273194D01*
X225694Y272495D01*
X226550Y272000D01*
X227500Y271746D01*
Y275000D01*
D02*
G37*
G36*
X317631Y280405D02*
X316369D01*
X315132Y280159D01*
X313966Y279677D01*
X312917Y278976D01*
X312024Y278083D01*
X311323Y277034D01*
X310841Y275868D01*
X310595Y274631D01*
Y273369D01*
X310841Y272132D01*
X311323Y270966D01*
X312024Y269917D01*
X312917Y269024D01*
X313966Y268323D01*
X315132Y267841D01*
X316369Y267595D01*
X317631D01*
X318868Y267841D01*
X320034Y268323D01*
X321083Y269024D01*
X321975Y269917D01*
X322676Y270966D01*
X323159Y272132D01*
X323406Y273369D01*
Y274631D01*
X323159Y275868D01*
X322676Y277034D01*
X321975Y278083D01*
X321083Y278976D01*
X320034Y279677D01*
X318868Y280159D01*
X317631Y280405D01*
D02*
G37*
G36*
X278534Y269378D02*
X276853D01*
Y266614D01*
X278534D01*
Y269378D01*
D02*
G37*
G36*
X275853D02*
X274172D01*
Y266614D01*
X275853D01*
Y269378D01*
D02*
G37*
G36*
X278534Y265614D02*
X276853D01*
Y262850D01*
X278534D01*
Y265614D01*
D02*
G37*
G36*
X275853D02*
X274172D01*
Y262850D01*
X275853D01*
Y265614D01*
D02*
G37*
G36*
X288272Y270925D02*
X283728D01*
Y267169D01*
X284980D01*
Y263012D01*
X283531D01*
Y257681D01*
X288469D01*
Y263012D01*
X287020D01*
Y267169D01*
X288272D01*
Y270925D01*
D02*
G37*
G36*
X270553Y268878D02*
X267191D01*
Y263350D01*
X267853D01*
Y257272D01*
X267075D01*
Y252728D01*
X270831D01*
Y257272D01*
X269892D01*
Y263107D01*
X269944Y263117D01*
X270274Y263338D01*
X270283Y263350D01*
X270553D01*
Y263961D01*
X270573Y264059D01*
Y265433D01*
X270553Y265532D01*
Y268878D01*
D02*
G37*
G36*
X257256Y265947D02*
X252713D01*
Y261403D01*
X253471D01*
Y257831D01*
X252791D01*
Y254075D01*
X257232Y254075D01*
X257507Y253716D01*
X257535Y253658D01*
X257742Y253159D01*
X258159Y252742D01*
X258705Y252516D01*
X259295D01*
X259841Y252742D01*
X260080Y252980D01*
X261169D01*
Y252728D01*
X264925D01*
Y257272D01*
X261169D01*
Y255020D01*
X260080D01*
X259841Y255258D01*
X259295Y255484D01*
X258705D01*
X258159Y255258D01*
X257835Y254934D01*
X257399Y255048D01*
X257335Y255087D01*
Y257831D01*
X256529D01*
Y261403D01*
X257256D01*
Y265947D01*
D02*
G37*
G36*
X215972Y246468D02*
X210642D01*
Y245020D01*
X208831D01*
Y246272D01*
X205075D01*
Y241728D01*
X208831D01*
Y242980D01*
X210642D01*
Y241531D01*
X215972D01*
Y246468D01*
D02*
G37*
G36*
X223165Y246969D02*
X220500D01*
Y244500D01*
X223165D01*
Y246969D01*
D02*
G37*
G36*
X219500D02*
X216835D01*
Y244500D01*
X219500D01*
Y246969D01*
D02*
G37*
G36*
X241737Y245819D02*
X238284D01*
Y242760D01*
X241737D01*
Y245819D01*
D02*
G37*
G36*
X237284D02*
X233832D01*
Y242760D01*
X237284D01*
Y245819D01*
D02*
G37*
G36*
X223165Y243500D02*
X220500D01*
Y241032D01*
X223165D01*
Y243500D01*
D02*
G37*
G36*
X219500D02*
X216835D01*
Y241032D01*
X219500D01*
Y243500D01*
D02*
G37*
G36*
X241737Y241760D02*
X238284D01*
Y238701D01*
X241737D01*
Y241760D01*
D02*
G37*
G36*
X237284D02*
X233832D01*
Y238701D01*
X237284D01*
Y241760D01*
D02*
G37*
G36*
X145453Y243000D02*
Y237500D01*
X150953D01*
Y243000D01*
X145453D01*
D02*
G37*
G36*
X150953Y236500D02*
X145453D01*
Y231000D01*
X150953D01*
Y236500D01*
D02*
G37*
G36*
X258500Y229551D02*
Y226500D01*
X261551D01*
X261316Y227374D01*
X260848Y228185D01*
X260185Y228848D01*
X259374Y229316D01*
X258500Y229551D01*
D02*
G37*
G36*
X257500D02*
X256626Y229316D01*
X255815Y228848D01*
X255152Y228185D01*
X254683Y227374D01*
X254449Y226500D01*
X257500D01*
Y229551D01*
D02*
G37*
G36*
X261551Y225500D02*
X258500D01*
Y222449D01*
X259374Y222684D01*
X260185Y223152D01*
X260848Y223815D01*
X261316Y224626D01*
X261551Y225500D01*
D02*
G37*
G36*
X257500D02*
X254449D01*
X254683Y224626D01*
X255152Y223815D01*
X255815Y223152D01*
X256626Y222684D01*
X257500Y222449D01*
Y225500D01*
D02*
G37*
G36*
X306419Y218669D02*
X301088D01*
Y217220D01*
X299431D01*
Y218472D01*
X295675D01*
Y213928D01*
X299431D01*
Y215180D01*
X301088D01*
Y213732D01*
X306419D01*
Y218669D01*
D02*
G37*
G36*
X313612Y219168D02*
X310946D01*
Y216700D01*
X313612D01*
Y219168D01*
D02*
G37*
G36*
X309946D02*
X307281D01*
Y216700D01*
X309946D01*
Y219168D01*
D02*
G37*
G36*
X313612Y215700D02*
X310946D01*
Y213231D01*
X313612D01*
Y215700D01*
D02*
G37*
G36*
X309946D02*
X307281D01*
Y213231D01*
X309946D01*
Y215700D01*
D02*
G37*
G36*
X178224Y198819D02*
X174772D01*
Y195760D01*
X178224D01*
Y198819D01*
D02*
G37*
G36*
X173772D02*
X170319D01*
Y195760D01*
X173772D01*
Y198819D01*
D02*
G37*
G36*
X259295Y247484D02*
X258705D01*
X258159Y247258D01*
X257742Y246841D01*
X257516Y246295D01*
Y245958D01*
X206536Y194978D01*
X204799D01*
X204560Y195217D01*
X204015Y195443D01*
X203425D01*
X202879Y195217D01*
X202462Y194799D01*
X202236Y194254D01*
Y193663D01*
X202462Y193118D01*
X202879Y192700D01*
X203425Y192474D01*
X204015D01*
X204560Y192700D01*
X204799Y192939D01*
X206959D01*
X207349Y193017D01*
X207680Y193238D01*
X258958Y244516D01*
X259295D01*
X259841Y244742D01*
X260258Y245159D01*
X260484Y245705D01*
Y246295D01*
X260258Y246841D01*
X259841Y247258D01*
X259295Y247484D01*
D02*
G37*
G36*
X178224Y194760D02*
X174772D01*
Y191701D01*
X178224D01*
Y194760D01*
D02*
G37*
G36*
X173772D02*
X170319D01*
Y191701D01*
X173772D01*
Y194760D01*
D02*
G37*
G36*
X306319Y186469D02*
X300988D01*
Y185020D01*
X299831D01*
Y186272D01*
X296075D01*
Y181728D01*
X299831D01*
Y182980D01*
X300988D01*
Y181532D01*
X306319D01*
Y186469D01*
D02*
G37*
G36*
X313512Y186969D02*
X310846D01*
Y184500D01*
X313512D01*
Y186969D01*
D02*
G37*
G36*
X309846D02*
X307181D01*
Y184500D01*
X309846D01*
Y186969D01*
D02*
G37*
G36*
X313512Y183500D02*
X310846D01*
Y181032D01*
X313512D01*
Y183500D01*
D02*
G37*
G36*
X309846D02*
X307181D01*
Y181032D01*
X309846D01*
Y183500D01*
D02*
G37*
G36*
X137500Y173586D02*
Y170332D01*
X140754D01*
X140500Y171281D01*
X140006Y172138D01*
X139306Y172837D01*
X138450Y173331D01*
X137500Y173586D01*
D02*
G37*
G36*
X136500D02*
X135550Y173331D01*
X134694Y172837D01*
X133994Y172138D01*
X133500Y171281D01*
X133246Y170332D01*
X136500D01*
Y173586D01*
D02*
G37*
G36*
X258500Y169551D02*
Y166500D01*
X261551D01*
X261316Y167374D01*
X260848Y168185D01*
X260185Y168848D01*
X259374Y169316D01*
X258500Y169551D01*
D02*
G37*
G36*
X257500D02*
X256626Y169316D01*
X255815Y168848D01*
X255152Y168185D01*
X254683Y167374D01*
X254449Y166500D01*
X257500D01*
Y169551D01*
D02*
G37*
G36*
X140754Y169332D02*
X137500D01*
Y166077D01*
X138450Y166332D01*
X139306Y166826D01*
X140006Y167525D01*
X140500Y168382D01*
X140754Y169332D01*
D02*
G37*
G36*
X136500D02*
X133246D01*
X133500Y168382D01*
X133994Y167525D01*
X134694Y166826D01*
X135550Y166332D01*
X136500Y166077D01*
Y169332D01*
D02*
G37*
G36*
X218719Y166772D02*
X216644D01*
Y164500D01*
X218719D01*
Y166772D01*
D02*
G37*
G36*
X215644D02*
X213569D01*
Y164500D01*
X215644D01*
Y166772D01*
D02*
G37*
G36*
X278403Y169059D02*
X277597D01*
X276819Y168851D01*
X276122Y168448D01*
X275552Y167878D01*
X275149Y167181D01*
X274941Y166403D01*
Y165597D01*
X275149Y164819D01*
X275552Y164122D01*
X276122Y163552D01*
X276819Y163149D01*
X277597Y162941D01*
X278403D01*
X279181Y163149D01*
X279878Y163552D01*
X280448Y164122D01*
X280851Y164819D01*
X281059Y165597D01*
Y166403D01*
X280851Y167181D01*
X280448Y167878D01*
X279878Y168448D01*
X279181Y168851D01*
X278403Y169059D01*
D02*
G37*
G36*
X261551Y165500D02*
X258500D01*
Y162449D01*
X259374Y162683D01*
X260185Y163152D01*
X260848Y163815D01*
X261316Y164626D01*
X261551Y165500D01*
D02*
G37*
G36*
X257500D02*
X254449D01*
X254683Y164626D01*
X255152Y163815D01*
X255815Y163152D01*
X256626Y162683D01*
X257500Y162449D01*
Y165500D01*
D02*
G37*
G36*
X218719Y163500D02*
X216644D01*
Y161228D01*
X218719D01*
Y163500D01*
D02*
G37*
G36*
X215644D02*
X213569D01*
Y161228D01*
X215644D01*
Y163500D01*
D02*
G37*
G36*
X306138Y155968D02*
X300807D01*
Y154520D01*
X299150D01*
Y155772D01*
X295394D01*
Y151228D01*
X299150D01*
Y152480D01*
X300807D01*
Y151031D01*
X306138D01*
Y155968D01*
D02*
G37*
G36*
X194107Y156622D02*
X192032D01*
Y154350D01*
X194107D01*
Y156622D01*
D02*
G37*
G36*
X191032D02*
X188958D01*
Y154350D01*
X191032D01*
Y156622D01*
D02*
G37*
G36*
X313331Y156468D02*
X310665D01*
Y154000D01*
X313331D01*
Y156468D01*
D02*
G37*
G36*
X309665D02*
X307000D01*
Y154000D01*
X309665D01*
Y156468D01*
D02*
G37*
G36*
X194107Y153350D02*
X192032D01*
Y151079D01*
X194107D01*
Y153350D01*
D02*
G37*
G36*
X191032D02*
X188958D01*
Y151079D01*
X191032D01*
Y153350D01*
D02*
G37*
G36*
X313331Y153000D02*
X310665D01*
Y150531D01*
X313331D01*
Y153000D01*
D02*
G37*
G36*
X309665D02*
X307000D01*
Y150531D01*
X309665D01*
Y153000D01*
D02*
G37*
G36*
X134489Y151406D02*
X133227D01*
X131990Y151159D01*
X130824Y150677D01*
X129775Y149976D01*
X128883Y149083D01*
X128182Y148034D01*
X127699Y146868D01*
X127453Y145631D01*
Y144369D01*
X127699Y143132D01*
X128182Y141966D01*
X128883Y140917D01*
X129775Y140024D01*
X130824Y139323D01*
X131990Y138841D01*
X133227Y138594D01*
X134489D01*
X135727Y138841D01*
X136892Y139323D01*
X137942Y140024D01*
X138834Y140917D01*
X139535Y141966D01*
X140018Y143132D01*
X140264Y144369D01*
Y145631D01*
X140018Y146868D01*
X139535Y148034D01*
X138834Y149083D01*
X137942Y149976D01*
X136892Y150677D01*
X135727Y151159D01*
X134489Y151406D01*
D02*
G37*
G36*
X206500Y137439D02*
Y135000D01*
X208939D01*
X208766Y135646D01*
X208375Y136323D01*
X207823Y136875D01*
X207146Y137266D01*
X206500Y137439D01*
D02*
G37*
G36*
X175500D02*
X174854Y137266D01*
X174177Y136875D01*
X173625Y136323D01*
X173234Y135646D01*
X173061Y135000D01*
X175500D01*
Y137439D01*
D02*
G37*
G36*
X245567Y136118D02*
X242705D01*
Y134118D01*
X245567D01*
Y136118D01*
D02*
G37*
G36*
X241705D02*
X238843D01*
Y134118D01*
X241705D01*
Y136118D01*
D02*
G37*
G36*
X221158D02*
X218295D01*
Y134118D01*
X221158D01*
Y136118D01*
D02*
G37*
G36*
X217295D02*
X214433D01*
Y134118D01*
X217295D01*
Y136118D01*
D02*
G37*
G36*
X208939Y134000D02*
X206500D01*
Y131561D01*
X207146Y131734D01*
X207823Y132125D01*
X208375Y132677D01*
X208766Y133354D01*
X208939Y134000D01*
D02*
G37*
G36*
X175500D02*
X173061D01*
X173234Y133354D01*
X173625Y132677D01*
X174177Y132125D01*
X174854Y131734D01*
X175500Y131561D01*
Y134000D01*
D02*
G37*
G36*
X245567Y133118D02*
X242705D01*
Y131118D01*
X245567D01*
Y133118D01*
D02*
G37*
G36*
X241705D02*
X238843D01*
Y131118D01*
X241705D01*
Y133118D01*
D02*
G37*
G36*
X221158D02*
X218295D01*
Y131118D01*
X221158D01*
Y133118D01*
D02*
G37*
G36*
X217295D02*
X214433D01*
Y131118D01*
X217295D01*
Y133118D01*
D02*
G37*
%LPD*%
G36*
X165956Y287731D02*
Y283975D01*
X167409D01*
Y283561D01*
X167486Y283171D01*
X167707Y282840D01*
X170268Y280279D01*
X170599Y280058D01*
X170989Y279980D01*
X177224D01*
X180235Y276969D01*
X180112Y276757D01*
X179890Y275929D01*
Y275071D01*
X180112Y274243D01*
X180540Y273501D01*
X181147Y272895D01*
X181889Y272466D01*
X182126Y272402D01*
Y255159D01*
X182204Y254769D01*
X182425Y254438D01*
X190980Y245882D01*
Y215133D01*
X189724Y213877D01*
X189503Y213546D01*
X189425Y213156D01*
Y190452D01*
X189401Y190430D01*
X188963Y190239D01*
X188848Y190282D01*
X188577Y190336D01*
X187195D01*
X186924Y190282D01*
X186606Y190162D01*
X186289Y190282D01*
X186018Y190336D01*
X184636D01*
X184365Y190282D01*
X184250Y190239D01*
X183812Y190430D01*
X183787Y190452D01*
Y193607D01*
X187335Y197155D01*
X187556Y197486D01*
X187634Y197876D01*
Y241890D01*
X187556Y242280D01*
X187335Y242611D01*
X175291Y254655D01*
Y271728D01*
X175214Y272118D01*
X174993Y272449D01*
X172721Y274721D01*
X172390Y274942D01*
X172000Y275020D01*
X171272D01*
Y275831D01*
X166728D01*
Y275020D01*
X164453D01*
Y277453D01*
X162020D01*
Y285578D01*
X164228Y287786D01*
X165479D01*
X165956Y287731D01*
D02*
G37*
G36*
X199980Y146967D02*
Y139250D01*
X199602Y139093D01*
X199091Y138582D01*
X198520Y138612D01*
X198486Y138631D01*
X198375Y138823D01*
X197823Y139375D01*
X197146Y139766D01*
X196500Y139939D01*
Y137000D01*
X195500D01*
Y139939D01*
X194854Y139766D01*
X194177Y139375D01*
X193833Y139031D01*
X193500Y138879D01*
X193167Y139031D01*
X192823Y139375D01*
X192146Y139766D01*
X191500Y139939D01*
Y137000D01*
X190500D01*
Y139939D01*
X189854Y139766D01*
X189177Y139375D01*
X189020Y139218D01*
X188520Y139425D01*
Y143604D01*
X188758Y143843D01*
X188984Y144388D01*
Y144979D01*
X188776Y145480D01*
X188855Y145700D01*
X189009Y145980D01*
X194921D01*
X195159Y145742D01*
X195705Y145516D01*
X196295D01*
X196841Y145742D01*
X197258Y146159D01*
X197484Y146705D01*
Y147295D01*
X197316Y147701D01*
X197552Y148201D01*
X198747D01*
X199980Y146967D01*
D02*
G37*
D13*
X135820Y352961D02*
X149206D01*
X158244Y362000D01*
X167000D01*
X145500Y331161D02*
Y340000D01*
Y326713D02*
Y331161D01*
X161000Y274000D02*
X169000D01*
X145500Y340000D02*
Y345165D01*
X169000Y274000D02*
X172000D01*
X167000Y362000D02*
X172000Y357000D01*
X169989Y347047D02*
Y354989D01*
X171500Y356500D02*
X172000Y357000D01*
X169989Y354989D02*
X171500Y356500D01*
X164084Y346878D02*
Y353961D01*
X162000Y356045D02*
Y357000D01*
Y356045D02*
X164084Y353961D01*
X186614Y197876D02*
Y241890D01*
X163748Y331252D02*
X180312Y314688D01*
Y306953D02*
Y314688D01*
X145500Y326713D02*
X148260Y323953D01*
X168000D02*
X175284Y316669D01*
X148260Y323953D02*
X168000D01*
X175284Y292547D02*
Y316669D01*
X150370Y312264D02*
Y312748D01*
X150955Y322121D02*
X167710D01*
X173551Y296688D02*
Y316281D01*
X150370Y321536D02*
X150955Y322121D01*
X167710D02*
X173551Y316281D01*
X150370Y312748D02*
Y321536D01*
X134015Y302554D02*
X136923D01*
X140370Y306000D01*
X127985Y302533D02*
X133995D01*
X127985Y291903D02*
X133995D01*
X139891Y291924D02*
X141744Y290071D01*
X134015Y291924D02*
X139891D01*
X148906Y290071D02*
X150953Y292118D01*
X141744Y290071D02*
X148906D01*
X171795Y330297D02*
X177805D01*
X177826Y330317D01*
X171795Y340927D02*
X177805D01*
X177826Y340947D01*
X169953Y342769D02*
X171795Y340927D01*
X169953Y342769D02*
Y346000D01*
X164047Y338045D02*
X171795Y330297D01*
X164047Y338045D02*
Y346000D01*
X155500Y331252D02*
X163748D01*
X180000Y290882D02*
Y301000D01*
X155500Y302000D02*
Y311629D01*
X156129Y311000D01*
X155500Y311629D02*
Y312748D01*
X156129Y311000D02*
X163475D01*
X140370Y312264D02*
Y312618D01*
Y306000D02*
Y312264D01*
Y312618D02*
X140500Y312748D01*
X183146Y255159D02*
X192000Y246305D01*
X182768Y194030D02*
X186614Y197876D01*
X190445Y187067D02*
Y213156D01*
X192000Y214711D02*
Y246305D01*
X190445Y213156D02*
X192000Y214711D01*
X174272Y254232D02*
X186614Y241890D01*
X180000Y290882D02*
X195382Y275500D01*
X193004Y207753D02*
X195382Y210131D01*
Y275500D01*
X207012D01*
X193004Y187067D02*
Y207753D01*
X182768Y187067D02*
Y194030D01*
X299000Y245000D02*
Y271000D01*
X295047Y274953D02*
X299000Y271000D01*
X286000Y274953D02*
X295047D01*
X155861Y286000D02*
X156244Y286383D01*
X172000Y274000D02*
X174272Y271728D01*
Y254232D02*
Y271728D01*
X153000Y266500D02*
Y290071D01*
X150953Y292118D02*
X153000Y290071D01*
X150953Y292118D02*
Y295000D01*
X145307Y294965D02*
Y302000D01*
X132000Y349142D02*
X135820Y352961D01*
X132000Y325121D02*
Y349142D01*
X155953Y346000D02*
X164047D01*
X150500Y331252D02*
Y340000D01*
X150047D02*
Y347000D01*
X164953Y264000D02*
X167728Y266776D01*
Y267169D01*
X168606Y268047D02*
X169000D01*
X161000Y264000D02*
X164953D01*
X167728Y267169D02*
X168606Y268047D01*
X286000Y260347D02*
Y269047D01*
X195382Y176000D02*
X234000D01*
X254495Y196495D01*
X278495D01*
X206959Y193959D02*
X259000Y246000D01*
X203720Y193959D02*
X206959D01*
X170989Y281000D02*
X177646D01*
X168428Y283561D02*
X170989Y281000D01*
X177646D02*
X183146Y275500D01*
X168228Y285853D02*
X168428Y285652D01*
Y283561D02*
Y285652D01*
X161000Y274000D02*
Y286000D01*
X163806Y288806D01*
X145047Y302000D02*
X145500Y302453D01*
Y312748D01*
X132000Y325121D02*
X135409Y321713D01*
X140500D01*
Y312748D02*
Y321713D01*
X163806Y288806D02*
X171543D01*
X200586Y155880D02*
X207012D01*
X198122Y158344D02*
Y163839D01*
Y158344D02*
X200586Y155880D01*
X177818Y147865D02*
Y172930D01*
X183450Y178562D02*
X187300D01*
X177818Y172930D02*
X183450Y178562D01*
X187886Y179148D02*
Y187067D01*
X187300Y178562D02*
X187886Y179148D01*
X190445Y180937D02*
X195382Y176000D01*
X185327Y180937D02*
Y187067D01*
X190445Y163839D02*
X190535Y163929D01*
Y170535D01*
X193004Y163839D02*
Y169832D01*
X195173Y172000D01*
X194000Y174000D02*
X238000D01*
X190535Y170535D02*
X194000Y174000D01*
X197216Y169000D02*
X203720D01*
X282719Y153500D02*
X291366D01*
X280339Y155880D02*
X282719Y153500D01*
X251151Y155880D02*
X280339D01*
X235031Y172000D02*
X251151Y155880D01*
X195173Y172000D02*
X235031D01*
X185327Y187067D02*
X185368Y187108D01*
X195633Y167417D02*
X197216Y169000D01*
X195633Y163909D02*
Y167417D01*
X195563Y163839D02*
X195633Y163909D01*
X203720Y233280D02*
X204000Y233000D01*
X201047Y235953D02*
X203720Y233280D01*
X201047Y235953D02*
Y244000D01*
X206953D02*
X213169D01*
X183146Y255159D02*
Y275500D01*
X171543Y288806D02*
X175284Y292547D01*
X168621Y291758D02*
X173551Y296688D01*
X168228Y291758D02*
X168621D01*
X150500Y302453D02*
Y312264D01*
X254000Y146000D02*
X268000D01*
X230000Y170000D02*
X254000Y146000D01*
X235041Y206000D02*
X268000D01*
X210700Y181658D02*
X235041Y206000D01*
X278495Y196495D02*
X291647Y209647D01*
Y216200D01*
X185327Y163839D02*
Y173959D01*
Y154544D02*
Y163839D01*
X187200Y149220D02*
X199169D01*
X186021Y150400D02*
Y153850D01*
Y150400D02*
X187200Y149220D01*
X182768Y150270D02*
X186038Y147000D01*
X196000D01*
X182768Y150270D02*
Y163839D01*
X180209Y149802D02*
Y163839D01*
Y149802D02*
X184275Y145736D01*
Y135275D02*
Y145736D01*
X278000Y250047D02*
X282394D01*
X278000Y226000D02*
Y250047D01*
X185327Y173959D02*
X185368Y174000D01*
X205048Y141076D02*
X209095D01*
X201000Y137000D02*
X205048Y141048D01*
Y141076D01*
X199169Y149220D02*
X201000Y147389D01*
X221953Y153952D02*
Y157000D01*
X218202Y148382D02*
X219202Y149382D01*
Y151201D01*
X221953Y153952D01*
X217795Y148382D02*
X218202D01*
X218498Y148679D01*
X221656Y157297D02*
Y164000D01*
Y157297D02*
X221953Y157000D01*
X230000Y170000D02*
Y170000D01*
X198500Y178000D02*
X230000D01*
X195563Y180937D02*
X198500Y178000D01*
X238000Y174000D02*
X248000Y184000D01*
X180209Y179661D02*
Y187067D01*
X174272Y173724D02*
X180209Y179661D01*
X174272Y146412D02*
Y173724D01*
Y146412D02*
X178888Y141795D01*
X155500Y264000D02*
X161000D01*
X153000Y266500D02*
X155500Y264000D01*
X199169Y181658D02*
X210700D01*
X187500Y135500D02*
Y144683D01*
X177818Y147865D02*
X181000Y144683D01*
Y132000D02*
X184275Y135275D01*
X187500Y135500D02*
X191000Y132000D01*
X213125Y154078D02*
X214776Y155728D01*
X216047Y156606D02*
Y157000D01*
X215169Y155728D02*
X216047Y156606D01*
X214776Y155728D02*
X215169D01*
X213125Y145106D02*
Y154078D01*
X217795Y141795D02*
Y148382D01*
X210983Y129983D02*
Y134983D01*
X217795Y141795D01*
X161370Y301614D02*
X161756Y302000D01*
X195563Y180937D02*
Y187067D01*
X198122Y182705D02*
X199169Y181658D01*
X198122Y182705D02*
Y187067D01*
X186417Y154622D02*
X186614D01*
X156244Y286383D02*
Y302000D01*
X140500Y321713D02*
X145500Y326713D01*
X150500Y302453D02*
X150953Y302000D01*
X155500Y331252D02*
Y340000D01*
X144953Y345713D02*
X145500Y345165D01*
X262169Y254000D02*
X263047Y254878D01*
Y255000D01*
X259000Y254000D02*
X262169D01*
X268872Y255080D02*
Y266114D01*
Y255080D02*
X268953Y255000D01*
X284531Y251988D02*
X286000Y253457D01*
X284335Y251988D02*
X284531D01*
X282394Y250047D02*
X284335Y251988D01*
X286000Y253457D02*
Y253654D01*
X209095Y141076D02*
X213125Y145106D01*
X201000Y137000D02*
Y147389D01*
X297953Y184000D02*
X303654D01*
X248000Y184000D02*
X292047D01*
X208000Y127000D02*
X210983Y129983D01*
X182252Y127000D02*
X208000D01*
X181000Y128252D02*
X182252Y127000D01*
X181000Y128252D02*
Y132000D01*
X218795Y148382D02*
X242205D01*
X268872Y266114D02*
X269553Y265433D01*
Y264059D02*
Y265433D01*
X297272Y153500D02*
X303472D01*
X297553Y216200D02*
X303753D01*
X304647Y217094D01*
X304207Y184000D02*
X304447Y184240D01*
D17*
X235405Y291445D02*
X251872Y274978D01*
X254311D01*
X254985Y274305D01*
X255000Y256016D02*
Y263675D01*
X144953Y217000D02*
X178888D01*
Y227878D01*
Y207357D02*
Y217000D01*
X181810Y230974D02*
X183146Y232310D01*
X178888Y227878D02*
X181810Y230800D01*
X183146Y232310D02*
Y233047D01*
X181810Y230800D02*
Y230974D01*
X176224Y204693D02*
X178888Y207357D01*
X174272Y202740D02*
X174665D01*
X176224Y204299D01*
Y204693D01*
X230307Y250047D02*
X255063D01*
X203720Y233280D02*
X221044D01*
X272613Y274972D02*
X285980D01*
X255130D02*
X272613D01*
X285980D02*
X286000Y274953D01*
X137000Y224953D02*
Y280000D01*
X143000Y286000D02*
X149956D01*
X137000Y280000D02*
X143000Y286000D01*
X186000Y291445D02*
X193445Y284000D01*
X231941D02*
X237000Y278941D01*
X193445Y284000D02*
X231941D01*
X225055Y291445D02*
X235405D01*
X212984Y303516D02*
X225055Y291445D01*
X255063Y250047D02*
X278000D01*
X228592Y248333D02*
X230307Y250047D01*
X221044Y233280D02*
X228592Y240828D01*
Y248333D01*
X186000Y291445D02*
Y356272D01*
X237000Y251740D02*
Y278941D01*
X167000Y173724D02*
Y200247D01*
X169491Y202737D01*
X174269D02*
X174272Y202740D01*
X169491Y202737D02*
X174269D01*
X137000Y224953D02*
X144953Y217000D01*
X186000Y356272D02*
X190350Y360622D01*
X255000Y256016D02*
X255063Y255953D01*
X212984Y303516D02*
Y313378D01*
X190350Y360622D02*
X212984D01*
D44*
X254985Y263675D02*
D03*
Y274305D02*
D03*
X134015Y302554D02*
D03*
Y291924D02*
D03*
X127985Y291903D02*
D03*
Y302533D02*
D03*
X177826Y340947D02*
D03*
Y330317D02*
D03*
X171795Y330297D02*
D03*
Y340927D02*
D03*
D45*
X169000Y273953D02*
D03*
Y268047D02*
D03*
X168228Y291758D02*
D03*
Y285853D02*
D03*
X180312Y306953D02*
D03*
Y301047D02*
D03*
X255063Y255953D02*
D03*
Y250047D02*
D03*
X286000Y274953D02*
D03*
Y269047D02*
D03*
D46*
X150953Y294000D02*
D03*
X145047D02*
D03*
X155953Y346000D02*
D03*
X150047D02*
D03*
X169953D02*
D03*
X164047D02*
D03*
X150047Y340000D02*
D03*
X291366Y153500D02*
D03*
X151213Y301000D02*
D03*
X145307D02*
D03*
X144953Y346000D02*
D03*
X139047D02*
D03*
X179815Y224000D02*
D03*
X185721D02*
D03*
X155953Y340000D02*
D03*
X268953Y255000D02*
D03*
X263047D02*
D03*
X297553Y216200D02*
D03*
X291647D02*
D03*
X297953Y184000D02*
D03*
X292047D02*
D03*
X297272Y153500D02*
D03*
X155861Y286000D02*
D03*
X149956D02*
D03*
X221953Y157000D02*
D03*
X216047D02*
D03*
X206953Y244000D02*
D03*
X201047D02*
D03*
D47*
X150370Y331161D02*
D03*
X155370D02*
D03*
X145370D02*
D03*
X140370D02*
D03*
X155370Y312264D02*
D03*
X150370D02*
D03*
X145370D02*
D03*
X140370D02*
D03*
D48*
X185327Y187067D02*
D03*
X190445Y163839D02*
D03*
X193004D02*
D03*
X198122Y187067D02*
D03*
X195563D02*
D03*
X193004D02*
D03*
X190445D02*
D03*
X187886D02*
D03*
X182768D02*
D03*
X180209D02*
D03*
X198122Y163839D02*
D03*
X195563D02*
D03*
X187886D02*
D03*
X185327D02*
D03*
X182768D02*
D03*
X180209D02*
D03*
D49*
X237784Y249740D02*
D03*
Y242260D02*
D03*
X164000Y310260D02*
D03*
Y317740D02*
D03*
X174272Y202740D02*
D03*
Y195260D02*
D03*
D50*
X144756Y340000D02*
D03*
X139244D02*
D03*
X156244Y301000D02*
D03*
X161756D02*
D03*
X186021Y153850D02*
D03*
X191532D02*
D03*
X216144Y164000D02*
D03*
X221656D02*
D03*
D51*
X181000Y137000D02*
D03*
X201000D02*
D03*
X196000D02*
D03*
X191000D02*
D03*
X181000Y132000D02*
D03*
X186000D02*
D03*
X191000D02*
D03*
X196000D02*
D03*
X201000D02*
D03*
X206000Y134500D02*
D03*
X176000D02*
D03*
X185368Y174000D02*
D03*
X167000Y173724D02*
D03*
D52*
X310447Y216200D02*
D03*
X303753D02*
D03*
X310347Y184000D02*
D03*
X303654D02*
D03*
X310165Y153500D02*
D03*
X303472D02*
D03*
X220000Y244000D02*
D03*
X213307D02*
D03*
D53*
X286000Y260347D02*
D03*
Y253654D02*
D03*
D54*
X272613Y274972D02*
D03*
X276353Y266114D02*
D03*
X268872D02*
D03*
D55*
X217795Y133618D02*
D03*
Y148382D02*
D03*
X242205D02*
D03*
Y133618D02*
D03*
D56*
X275260Y313378D02*
X278882Y317000D01*
X304000D01*
X261016Y313378D02*
X275260D01*
X261016Y360622D02*
X275260D01*
X278882Y357000D02*
X304000D01*
X275260Y360622D02*
X278882Y357000D01*
X205110Y337000D02*
X304000D01*
D57*
X161000Y274000D02*
D03*
D58*
Y264000D02*
D03*
X162000Y357000D02*
D03*
D59*
X183146Y275500D02*
D03*
X299000Y245000D02*
D03*
X207012Y155880D02*
D03*
X137000Y169832D02*
D03*
X228000Y275500D02*
D03*
X207012D02*
D03*
D60*
X268000Y206000D02*
D03*
X278000Y226000D02*
D03*
X258000D02*
D03*
X268000Y146000D02*
D03*
X278000Y166000D02*
D03*
X258000D02*
D03*
D61*
X304000Y357000D02*
D03*
Y337000D02*
D03*
X144953Y217000D02*
D03*
D62*
X304000Y317000D02*
D03*
X144953Y237000D02*
D03*
D63*
X317000Y274000D02*
D03*
X133858Y145000D02*
D03*
Y374000D02*
D03*
D64*
X261016Y360622D02*
D03*
Y313378D02*
D03*
X212984Y360622D02*
D03*
Y313378D02*
D03*
X205110Y337000D02*
D03*
D65*
X172000Y357000D02*
D03*
D66*
X169989Y315000D02*
D03*
X153237Y319139D02*
D03*
X159000Y317740D02*
D03*
X179126Y349142D02*
D03*
X188848Y219000D02*
D03*
X147000Y191701D02*
D03*
X163000Y149802D02*
D03*
X286000Y138582D02*
D03*
X203720Y164122D02*
D03*
X206953Y147865D02*
D03*
X259295Y284000D02*
D03*
X247220Y260347D02*
D03*
X140370Y296688D02*
D03*
X139000Y350000D02*
D03*
X181000Y137000D02*
D03*
X174272Y184942D02*
D03*
X180479Y197729D02*
D03*
X179126Y270886D02*
D03*
X164763Y281000D02*
D03*
X188848Y257831D02*
D03*
X188828Y270346D02*
D03*
X175453Y286000D02*
D03*
X149047Y362351D02*
D03*
X162000Y336000D02*
D03*
Y328000D02*
D03*
X186606Y192700D02*
D03*
X202161Y287566D02*
D03*
X170512Y305000D02*
D03*
X190445Y180937D02*
D03*
X185327D02*
D03*
X203720Y169000D02*
D03*
Y193959D02*
D03*
X190445Y176000D02*
D03*
X193000Y212000D02*
D03*
X183146Y249740D02*
D03*
X259000Y246000D02*
D03*
X187886Y158374D02*
D03*
X188000Y169000D02*
D03*
X244000Y242000D02*
D03*
X230000Y170000D02*
D03*
Y178000D02*
D03*
X187500Y144683D02*
D03*
X195509Y143132D02*
D03*
X178888Y141795D02*
D03*
X181000Y144683D02*
D03*
X150047Y252125D02*
D03*
X170823Y254000D02*
D03*
X221656Y256016D02*
D03*
X202161Y255080D02*
D03*
X135409Y334000D02*
D03*
Y340000D02*
D03*
Y329000D02*
D03*
X145500Y319139D02*
D03*
X164453Y296688D02*
D03*
X259000Y254000D02*
D03*
X176000Y210553D02*
D03*
X210700Y190000D02*
D03*
X282000Y266114D02*
D03*
X263047D02*
D03*
X237784Y235953D02*
D03*
X302000Y234000D02*
D03*
X301000Y204000D02*
D03*
X302000Y160000D02*
D03*
X191532Y158374D02*
D03*
X191000Y137000D02*
D03*
X196000Y147000D02*
D03*
X201000Y132000D02*
D03*
X196000D02*
D03*
X234247Y155880D02*
D03*
X216047Y168000D02*
D03*
D67*
X183146Y233047D02*
D03*
X204000Y233000D02*
D03*
M02*
