G04*
G04 #@! TF.GenerationSoftware,Altium Limited,Altium Designer,21.6.1 (37)*
G04*
G04 Layer_Color=8388736*
%FSLAX25Y25*%
%MOIN*%
G70*
G04*
G04 #@! TF.SameCoordinates,DB9D7466-3DC1-4D53-AB26-96178D206437*
G04*
G04*
G04 #@! TF.FilePolarity,Negative*
G04*
G01*
G75*
%ADD23R,0.04343X0.04343*%
%ADD24R,0.04343X0.03556*%
%ADD25R,0.03556X0.04343*%
%ADD26O,0.03162X0.09461*%
G04:AMPARAMS|DCode=27|XSize=25.72mil|YSize=63.12mil|CornerRadius=5.95mil|HoleSize=0mil|Usage=FLASHONLY|Rotation=180.000|XOffset=0mil|YOffset=0mil|HoleType=Round|Shape=RoundedRectangle|*
%AMROUNDEDRECTD27*
21,1,0.02572,0.05122,0,0,180.0*
21,1,0.01382,0.06312,0,0,180.0*
1,1,0.01190,-0.00691,0.02561*
1,1,0.01190,0.00691,0.02561*
1,1,0.01190,0.00691,-0.02561*
1,1,0.01190,-0.00691,-0.02561*
%
%ADD27ROUNDEDRECTD27*%
%ADD28R,0.06706X0.05918*%
%ADD29R,0.03950X0.04343*%
%ADD30C,0.04737*%
%ADD31R,0.05131X0.04737*%
%ADD32R,0.04737X0.05131*%
%ADD33R,0.03162X0.05328*%
%ADD34R,0.05524X0.03800*%
%ADD35R,0.06706X0.06706*%
%ADD36C,0.06706*%
%ADD37C,0.06312*%
%ADD38C,0.05918*%
%ADD39C,0.10800*%
%ADD40R,0.10800X0.10800*%
%ADD41C,0.06800*%
G04:AMPARAMS|DCode=42|XSize=126.11mil|YSize=126.11mil|CornerRadius=33.53mil|HoleSize=0mil|Usage=FLASHONLY|Rotation=0.000|XOffset=0mil|YOffset=0mil|HoleType=Round|Shape=RoundedRectangle|*
%AMROUNDEDRECTD42*
21,1,0.12611,0.05906,0,0,0.0*
21,1,0.05906,0.12611,0,0,0.0*
1,1,0.06706,0.02953,-0.02953*
1,1,0.06706,-0.02953,-0.02953*
1,1,0.06706,-0.02953,0.02953*
1,1,0.06706,0.02953,0.02953*
%
%ADD42ROUNDEDRECTD42*%
%ADD43R,0.06706X0.06706*%
D23*
X254985Y263675D02*
D03*
Y274305D02*
D03*
X134015Y302554D02*
D03*
Y291924D02*
D03*
X127985Y291903D02*
D03*
Y302533D02*
D03*
X177826Y340947D02*
D03*
Y330317D02*
D03*
X171795Y330297D02*
D03*
Y340927D02*
D03*
D24*
X169000Y273953D02*
D03*
Y268047D02*
D03*
X168228Y291758D02*
D03*
Y285853D02*
D03*
X180312Y306953D02*
D03*
Y301047D02*
D03*
X255063Y255953D02*
D03*
Y250047D02*
D03*
X286000Y274953D02*
D03*
Y269047D02*
D03*
D25*
X150953Y294000D02*
D03*
X145047D02*
D03*
X155953Y346000D02*
D03*
X150047D02*
D03*
X169953D02*
D03*
X164047D02*
D03*
X150047Y340000D02*
D03*
X291366Y153500D02*
D03*
X151213Y301000D02*
D03*
X145307D02*
D03*
X144953Y346000D02*
D03*
X139047D02*
D03*
X179815Y224000D02*
D03*
X185721D02*
D03*
X155953Y340000D02*
D03*
X268953Y255000D02*
D03*
X263047D02*
D03*
X297553Y216200D02*
D03*
X291647D02*
D03*
X297953Y184000D02*
D03*
X292047D02*
D03*
X297272Y153500D02*
D03*
X155861Y286000D02*
D03*
X149956D02*
D03*
X221953Y157000D02*
D03*
X216047D02*
D03*
X206953Y244000D02*
D03*
X201047D02*
D03*
D26*
X150370Y331161D02*
D03*
X155370D02*
D03*
X145370D02*
D03*
X140370D02*
D03*
X155370Y312264D02*
D03*
X150370D02*
D03*
X145370D02*
D03*
X140370D02*
D03*
D27*
X185327Y187067D02*
D03*
X190445Y163839D02*
D03*
X193004D02*
D03*
X198122Y187067D02*
D03*
X195563D02*
D03*
X193004D02*
D03*
X190445D02*
D03*
X187886D02*
D03*
X182768D02*
D03*
X180209D02*
D03*
X198122Y163839D02*
D03*
X195563D02*
D03*
X187886D02*
D03*
X185327D02*
D03*
X182768D02*
D03*
X180209D02*
D03*
D28*
X237784Y249740D02*
D03*
Y242260D02*
D03*
X164000Y310260D02*
D03*
Y317740D02*
D03*
X174272Y202740D02*
D03*
Y195260D02*
D03*
D29*
X144756Y340000D02*
D03*
X139244D02*
D03*
X156244Y301000D02*
D03*
X161756D02*
D03*
X186021Y153850D02*
D03*
X191532D02*
D03*
X216144Y164000D02*
D03*
X221656D02*
D03*
D30*
X181000Y137000D02*
D03*
X201000D02*
D03*
X196000D02*
D03*
X191000D02*
D03*
X181000Y132000D02*
D03*
X186000D02*
D03*
X191000D02*
D03*
X196000D02*
D03*
X201000D02*
D03*
X206000Y134500D02*
D03*
X176000D02*
D03*
D31*
X310447Y216200D02*
D03*
X303753D02*
D03*
X310347Y184000D02*
D03*
X303654D02*
D03*
X310165Y153500D02*
D03*
X303472D02*
D03*
X220000Y244000D02*
D03*
X213307D02*
D03*
D32*
X286000Y260347D02*
D03*
Y253654D02*
D03*
D33*
X272613Y274972D02*
D03*
X276353Y266114D02*
D03*
X268872D02*
D03*
D34*
X217795Y133618D02*
D03*
Y148382D02*
D03*
X242205D02*
D03*
Y133618D02*
D03*
D35*
X161000Y274000D02*
D03*
D36*
Y264000D02*
D03*
X162000Y357000D02*
D03*
D37*
X183146Y275500D02*
D03*
X299000Y245000D02*
D03*
X207012Y155880D02*
D03*
X137000Y169832D02*
D03*
X228000Y275500D02*
D03*
X207012D02*
D03*
D38*
X268000Y206000D02*
D03*
X278000Y226000D02*
D03*
X258000D02*
D03*
X268000Y146000D02*
D03*
X278000Y166000D02*
D03*
X258000D02*
D03*
D39*
X304000Y357000D02*
D03*
Y337000D02*
D03*
X144953Y217000D02*
D03*
D40*
X304000Y317000D02*
D03*
X144953Y237000D02*
D03*
D41*
X317000Y274000D02*
D03*
X133858Y145000D02*
D03*
Y374000D02*
D03*
D42*
X261016Y360622D02*
D03*
Y313378D02*
D03*
X212984Y360622D02*
D03*
Y313378D02*
D03*
X205110Y337000D02*
D03*
D43*
X172000Y357000D02*
D03*
M02*
