G04*
G04 #@! TF.GenerationSoftware,Altium Limited,Altium Designer,21.6.1 (37)*
G04*
G04 Layer_Color=65535*
%FSLAX25Y25*%
%MOIN*%
G70*
G04*
G04 #@! TF.SameCoordinates,DB9D7466-3DC1-4D53-AB26-96178D206437*
G04*
G04*
G04 #@! TF.FilePolarity,Positive*
G04*
G01*
G75*
%ADD10C,0.02362*%
%ADD11C,0.00984*%
%ADD12C,0.00800*%
%ADD13C,0.01000*%
%ADD14C,0.00500*%
%ADD15C,0.00787*%
%ADD16C,0.00394*%
%ADD17C,0.02000*%
%ADD18C,0.01200*%
%ADD19C,0.01500*%
%ADD20C,0.06299*%
%ADD21C,0.00600*%
%ADD22R,0.07102X0.12000*%
G36*
X209504Y137780D02*
X205303D01*
Y141980D01*
X209504Y137780D01*
D02*
G37*
D10*
X184244Y172106D02*
X183799Y173030D01*
X182800Y173258D01*
X181999Y172619D01*
Y171594D01*
X182800Y170955D01*
X183799Y171183D01*
X184244Y172106D01*
D11*
X177650Y163839D02*
X176911Y164265D01*
Y163412D01*
X177650Y163839D01*
X159208Y331161D02*
X158470Y331588D01*
Y330735D01*
X159208Y331161D01*
X266105Y266114D02*
X265367Y266540D01*
Y265688D01*
X266105Y266114D01*
D12*
X187280Y275500D02*
X187160Y276489D01*
X186806Y277421D01*
X186240Y278241D01*
X185494Y278902D01*
X184612Y279365D01*
X183644Y279604D01*
X182648D01*
X181680Y279365D01*
X180798Y278902D01*
X180052Y278241D01*
X179485Y277421D01*
X179132Y276489D01*
X179012Y275500D01*
X179132Y274511D01*
X179485Y273579D01*
X180052Y272759D01*
X180798Y272098D01*
X181680Y271635D01*
X182648Y271396D01*
X183644D01*
X184612Y271635D01*
X185494Y272098D01*
X186240Y272759D01*
X186806Y273579D01*
X187160Y274511D01*
X187280Y275500D01*
X303134Y245000D02*
X303014Y245989D01*
X302660Y246921D01*
X302094Y247741D01*
X301348Y248402D01*
X300466Y248865D01*
X299498Y249104D01*
X298502D01*
X297534Y248865D01*
X296652Y248402D01*
X295906Y247741D01*
X295340Y246921D01*
X294986Y245989D01*
X294866Y245000D01*
X294986Y244011D01*
X295340Y243079D01*
X295906Y242259D01*
X296652Y241598D01*
X297534Y241135D01*
X298502Y240896D01*
X299498D01*
X300466Y241135D01*
X301348Y241598D01*
X302094Y242259D01*
X302660Y243079D01*
X303014Y244011D01*
X303134Y245000D01*
X211146Y155880D02*
X211026Y156869D01*
X210672Y157801D01*
X210106Y158621D01*
X209360Y159282D01*
X208478Y159745D01*
X207510Y159984D01*
X206514D01*
X205546Y159745D01*
X204663Y159282D01*
X203918Y158621D01*
X203351Y157801D01*
X202998Y156869D01*
X202878Y155880D01*
X202998Y154891D01*
X203351Y153959D01*
X203918Y153139D01*
X204663Y152478D01*
X205546Y152015D01*
X206514Y151776D01*
X207510D01*
X208478Y152015D01*
X209360Y152478D01*
X210106Y153139D01*
X210672Y153959D01*
X211026Y154891D01*
X211146Y155880D01*
X141134Y169832D02*
X141014Y170821D01*
X140660Y171753D01*
X140094Y172573D01*
X139348Y173234D01*
X138466Y173697D01*
X137498Y173935D01*
X136502D01*
X135534Y173697D01*
X134652Y173234D01*
X133906Y172573D01*
X133340Y171753D01*
X132986Y170821D01*
X132866Y169832D01*
X132986Y168842D01*
X133340Y167910D01*
X133906Y167090D01*
X134652Y166429D01*
X135534Y165966D01*
X136502Y165728D01*
X137498D01*
X138466Y165966D01*
X139348Y166429D01*
X140094Y167090D01*
X140660Y167910D01*
X141014Y168842D01*
X141134Y169832D01*
X232134Y275500D02*
X232014Y276489D01*
X231660Y277421D01*
X231094Y278241D01*
X230348Y278902D01*
X229466Y279365D01*
X228498Y279604D01*
X227502D01*
X226534Y279365D01*
X225652Y278902D01*
X224906Y278241D01*
X224340Y277421D01*
X223986Y276489D01*
X223866Y275500D01*
X223986Y274511D01*
X224340Y273579D01*
X224906Y272759D01*
X225652Y272098D01*
X226534Y271635D01*
X227502Y271396D01*
X228498D01*
X229466Y271635D01*
X230348Y272098D01*
X231094Y272759D01*
X231660Y273579D01*
X232014Y274511D01*
X232134Y275500D01*
X211146D02*
X211026Y276489D01*
X210672Y277421D01*
X210106Y278241D01*
X209360Y278902D01*
X208478Y279365D01*
X207510Y279604D01*
X206514D01*
X205546Y279365D01*
X204663Y278902D01*
X203918Y278241D01*
X203351Y277421D01*
X202998Y276489D01*
X202878Y275500D01*
X202998Y274511D01*
X203351Y273579D01*
X203918Y272759D01*
X204663Y272098D01*
X205546Y271635D01*
X206514Y271396D01*
X207510D01*
X208478Y271635D01*
X209360Y272098D01*
X210106Y272759D01*
X210672Y273579D01*
X211026Y274511D01*
X211146Y275500D01*
X216466Y252799D02*
X213800D01*
Y250799D01*
X215133Y251466D01*
X215799D01*
X216466Y250799D01*
Y249466D01*
X215799Y248800D01*
X214466D01*
X213800Y249466D01*
X217799Y252799D02*
Y250133D01*
X219132Y248800D01*
X220464Y250133D01*
Y252799D01*
X297000Y210999D02*
Y207000D01*
X298999D01*
X299666Y207666D01*
Y210332D01*
X298999Y210999D01*
X297000D01*
X303664D02*
X300999D01*
Y207000D01*
X303664D01*
X300999Y208999D02*
X302332D01*
X304997Y210999D02*
X307663D01*
X306330D01*
Y207000D01*
X311662Y210999D02*
X308996D01*
Y207000D01*
X311662D01*
X308996Y208999D02*
X310329D01*
X315661Y210332D02*
X314994Y210999D01*
X313661D01*
X312995Y210332D01*
Y207666D01*
X313661Y207000D01*
X314994D01*
X315661Y207666D01*
X316994Y210999D02*
X319659D01*
X318326D01*
Y207000D01*
X301000Y149105D02*
Y145106D01*
Y147105D01*
X303666D01*
Y149105D01*
Y145106D01*
X306998Y149105D02*
X305665D01*
X304999Y148438D01*
Y145772D01*
X305665Y145106D01*
X306998D01*
X307664Y145772D01*
Y148438D01*
X306998Y149105D01*
X308997D02*
Y145106D01*
X311663D01*
X312996Y149105D02*
Y145106D01*
X314996D01*
X315662Y145772D01*
Y148438D01*
X314996Y149105D01*
X312996D01*
X299000Y178999D02*
Y175000D01*
X300999D01*
X301666Y175666D01*
Y178332D01*
X300999Y178999D01*
X299000D01*
X305664D02*
X302999D01*
Y175000D01*
X305664D01*
X302999Y176999D02*
X304332D01*
X306997Y178999D02*
Y175000D01*
X309663D01*
X310996D02*
Y177666D01*
X312329Y178999D01*
X313662Y177666D01*
Y175000D01*
Y176999D01*
X310996D01*
X314995Y178999D02*
Y178332D01*
X316328Y176999D01*
X317661Y178332D01*
Y178999D01*
X316328Y176999D02*
Y175000D01*
X180064Y268113D02*
X181397D01*
X180730D01*
Y264115D01*
X180064D01*
X181397D01*
X186062D02*
X183396D01*
X186062Y266781D01*
Y267447D01*
X185396Y268113D01*
X184063D01*
X183396Y267447D01*
X225334D02*
X224668Y268113D01*
X223335D01*
X222668Y267447D01*
Y264781D01*
X223335Y264115D01*
X224668D01*
X225334Y264781D01*
Y266114D01*
X224001D01*
X226667Y264115D02*
Y266781D01*
X228666D01*
X229333Y266114D01*
Y264115D01*
X233332Y268113D02*
Y264115D01*
X231332D01*
X230666Y264781D01*
Y266114D01*
X231332Y266781D01*
X233332D01*
X205347Y268113D02*
X206680D01*
X206013D01*
Y264115D01*
X205347D01*
X206680D01*
X208679D02*
X210012D01*
X209346D01*
Y268113D01*
X208679Y267447D01*
D13*
X253881Y224607D02*
X253387Y223737D01*
X252945Y222840D01*
X252559Y221917D01*
X252230Y220973D01*
X251958Y220010D01*
X251745Y219033D01*
X251591Y218045D01*
X251498Y217049D01*
X251465Y216049D01*
X251492Y215050D01*
X251580Y214053D01*
X251727Y213064D01*
X251935Y212086D01*
X252201Y211121D01*
X252524Y210175D01*
X252905Y209250D01*
X253341Y208350D01*
X253830Y207478D01*
X254371Y206637D01*
X254962Y205830D01*
X255601Y205060D01*
X256285Y204330D01*
X257012Y203643D01*
X257779Y203002D01*
X258584Y202408D01*
X259423Y201863D01*
X260293Y201370D01*
X261192Y200931D01*
X262115Y200547D01*
X263060Y200220D01*
X264023Y199950D01*
X265001Y199739D01*
X265990Y199587D01*
X266986Y199496D01*
X267985Y199465D01*
X268985Y199494D01*
X269981Y199584D01*
X270970Y199733D01*
X271948Y199943D01*
X272912Y200211D01*
X273857Y200537D01*
X274781Y200919D01*
X275681Y201357D01*
X276552Y201848D01*
X277392Y202391D01*
X278198Y202983D01*
X278966Y203624D01*
X279694Y204309D01*
X280379Y205038D01*
X281019Y205806D01*
X281612Y206612D01*
X282155Y207452D01*
X282646Y208324D01*
X283083Y209223D01*
X283465Y210147D01*
X283791Y211093D01*
X284058Y212057D01*
X284267Y213035D01*
X284417Y214024D01*
X284506Y215020D01*
X284535Y216020D01*
X284504Y217019D01*
X284412Y218015D01*
X284260Y219004D01*
X284049Y219981D01*
X283779Y220944D01*
X283451Y221889D01*
X283067Y222813D01*
X282627Y223711D01*
X282134Y224581D01*
X272742Y208168D02*
X273573Y208731D01*
X274337Y209382D01*
X275026Y210112D01*
X275631Y210912D01*
X276145Y211774D01*
X276563Y212687D01*
X276878Y213640D01*
X277088Y214621D01*
X277190Y215620D01*
X277182Y216624D01*
X277065Y217620D01*
X276840Y218599D01*
X276510Y219547D01*
X276079Y220453D01*
X275551Y221307D01*
X274934Y222098D01*
X274234Y222817D01*
X273460Y223456D01*
X272620Y224007D01*
X271726Y224463D01*
X270788Y224819D01*
X269816Y225070D01*
X268823Y225214D01*
X267819Y225249D01*
X266819Y225175D01*
X265832Y224992D01*
X264871Y224703D01*
X263947Y224310D01*
X263071Y223819D01*
X262254Y223236D01*
X261506Y222568D01*
X260835Y221821D01*
X260248Y221006D01*
X259755Y220133D01*
X259359Y219210D01*
X259067Y218250D01*
X258880Y217264D01*
X258802Y216263D01*
X258834Y215260D01*
X258975Y214266D01*
X259223Y213294D01*
X259576Y212354D01*
X260029Y211458D01*
X260576Y210617D01*
X261213Y209841D01*
X261929Y209138D01*
X262719Y208518D01*
X263571Y207988D01*
X276276Y230259D02*
X275411Y230728D01*
X274519Y231144D01*
X273604Y231507D01*
X272669Y231815D01*
X271717Y232066D01*
X270752Y232260D01*
X269777Y232396D01*
X268796Y232474D01*
X267811Y232494D01*
X266828Y232455D01*
X265848Y232358D01*
X264877Y232202D01*
X263915Y231989D01*
X262969Y231719D01*
X262040Y231394D01*
X261132Y231013D01*
X260248Y230579D01*
X259392Y230094D01*
X253881Y164607D02*
X253387Y163737D01*
X252945Y162840D01*
X252559Y161917D01*
X252230Y160973D01*
X251958Y160010D01*
X251745Y159033D01*
X251591Y158045D01*
X251498Y157049D01*
X251465Y156049D01*
X251492Y155050D01*
X251580Y154053D01*
X251727Y153064D01*
X251935Y152085D01*
X252201Y151121D01*
X252524Y150175D01*
X252905Y149250D01*
X253341Y148350D01*
X253830Y147478D01*
X254371Y146636D01*
X254962Y145830D01*
X255601Y145060D01*
X256285Y144330D01*
X257012Y143643D01*
X257779Y143002D01*
X258584Y142408D01*
X259423Y141863D01*
X260293Y141370D01*
X261192Y140931D01*
X262115Y140547D01*
X263060Y140220D01*
X264023Y139950D01*
X265001Y139739D01*
X265990Y139587D01*
X266986Y139496D01*
X267985Y139465D01*
X268985Y139494D01*
X269981Y139584D01*
X270970Y139734D01*
X271948Y139943D01*
X272912Y140211D01*
X273857Y140537D01*
X274781Y140919D01*
X275681Y141357D01*
X276552Y141848D01*
X277392Y142391D01*
X278198Y142983D01*
X278966Y143624D01*
X279694Y144309D01*
X280379Y145038D01*
X281019Y145806D01*
X281612Y146612D01*
X282155Y147452D01*
X282646Y148324D01*
X283083Y149223D01*
X283465Y150147D01*
X283791Y151093D01*
X284058Y152057D01*
X284267Y153035D01*
X284417Y154024D01*
X284506Y155020D01*
X284535Y156020D01*
X284504Y157019D01*
X284412Y158015D01*
X284260Y159004D01*
X284049Y159981D01*
X283779Y160944D01*
X283451Y161889D01*
X283067Y162813D01*
X282627Y163711D01*
X282134Y164581D01*
X272742Y148168D02*
X273573Y148731D01*
X274337Y149382D01*
X275026Y150112D01*
X275631Y150912D01*
X276145Y151774D01*
X276563Y152687D01*
X276878Y153640D01*
X277088Y154621D01*
X277190Y155620D01*
X277182Y156624D01*
X277065Y157621D01*
X276840Y158599D01*
X276510Y159547D01*
X276079Y160453D01*
X275551Y161307D01*
X274934Y162098D01*
X274234Y162817D01*
X273460Y163456D01*
X272620Y164007D01*
X271726Y164463D01*
X270788Y164819D01*
X269816Y165070D01*
X268823Y165214D01*
X267819Y165249D01*
X266819Y165175D01*
X265832Y164992D01*
X264871Y164703D01*
X263947Y164310D01*
X263071Y163820D01*
X262254Y163236D01*
X261506Y162568D01*
X260835Y161821D01*
X260248Y161006D01*
X259755Y160133D01*
X259359Y159210D01*
X259067Y158250D01*
X258880Y157264D01*
X258802Y156263D01*
X258834Y155260D01*
X258975Y154266D01*
X259223Y153294D01*
X259576Y152354D01*
X260029Y151458D01*
X260576Y150617D01*
X261213Y149841D01*
X261929Y149138D01*
X262719Y148518D01*
X263571Y147988D01*
X276276Y170259D02*
X275411Y170728D01*
X274519Y171144D01*
X273604Y171507D01*
X272669Y171815D01*
X271717Y172066D01*
X270752Y172260D01*
X269777Y172396D01*
X268796Y172475D01*
X267811Y172494D01*
X266828Y172455D01*
X265848Y172358D01*
X264877Y172202D01*
X263915Y171989D01*
X262969Y171719D01*
X262040Y171394D01*
X261132Y171013D01*
X260248Y170579D01*
X259392Y170094D01*
X236890Y141000D02*
X236816Y142003D01*
X236598Y142985D01*
X236238Y143924D01*
X235746Y144802D01*
X235131Y145598D01*
X234407Y146296D01*
X233589Y146881D01*
X232695Y147341D01*
X231743Y147666D01*
X230753Y147848D01*
X229748Y147885D01*
X228749Y147775D01*
X227775Y147521D01*
X226850Y147127D01*
X225991Y146603D01*
X225218Y145960D01*
X224547Y145211D01*
X223992Y144372D01*
X223565Y143461D01*
X223275Y142498D01*
X223129Y141503D01*
Y140497D01*
X223275Y139502D01*
X223565Y138539D01*
X223992Y137628D01*
X224547Y136789D01*
X225218Y136040D01*
X225991Y135397D01*
X226850Y134873D01*
X227775Y134479D01*
X228749Y134225D01*
X229748Y134115D01*
X230754Y134152D01*
X231743Y134334D01*
X232695Y134659D01*
X233589Y135119D01*
X234407Y135704D01*
X235131Y136402D01*
X235746Y137198D01*
X236238Y138076D01*
X236598Y139015D01*
X236816Y139997D01*
X236890Y141000D01*
X209130Y168125D02*
Y171000D01*
X207000Y161703D02*
Y165996D01*
X209130Y168125D01*
X314000Y362000D02*
X322898D01*
X313000Y361000D02*
X314000Y362000D01*
X313000Y353000D02*
Y361000D01*
Y353000D02*
X314000Y352000D01*
X323000D01*
X314000Y342000D02*
X322898D01*
X313000Y341000D02*
X314000Y342000D01*
X313000Y333000D02*
Y341000D01*
Y333000D02*
X314000Y332000D01*
X323000D01*
X314000Y312000D02*
X323000D01*
X313000Y313000D02*
X314000Y312000D01*
X313000Y313000D02*
Y321000D01*
X314000Y322000D01*
X322898D01*
X126055Y232000D02*
X134953D01*
X135953Y233000D01*
Y241000D01*
X134953Y242000D02*
X135953Y241000D01*
X125953Y242000D02*
X134953D01*
X125953Y222000D02*
X134953D01*
X135953Y221000D01*
Y213000D02*
Y221000D01*
X134953Y212000D02*
X135953Y213000D01*
X126055Y212000D02*
X134953D01*
X224095Y151039D02*
X235906D01*
X219961Y136276D02*
Y145724D01*
X240039Y136276D02*
Y145724D01*
X224095Y130961D02*
X235906D01*
X295612Y260998D02*
X293612D01*
X292613Y259998D01*
Y256000D01*
X293612Y255000D01*
X295612D01*
X296611Y256000D01*
Y259998D01*
X295612Y260998D01*
X298611Y255000D02*
Y260998D01*
X302609Y255000D01*
Y260998D01*
X172001Y208000D02*
Y211999D01*
X170002Y209999D02*
X174000D01*
X169002Y217997D02*
Y213998D01*
X172001D01*
X171001Y215997D01*
Y216997D01*
X172001Y217997D01*
X174000D01*
X175000Y216997D01*
Y214998D01*
X174000Y213998D01*
X169002Y219996D02*
X173001D01*
X175000Y221995D01*
X173001Y223995D01*
X169002D01*
X170002Y232999D02*
X169002Y231999D01*
Y230000D01*
X170002Y229000D01*
X174000D01*
X175000Y230000D01*
Y231999D01*
X174000Y232999D01*
X172001D01*
Y230999D01*
X175000Y234998D02*
X171001D01*
Y237997D01*
X172001Y238997D01*
X175000D01*
X169002Y244995D02*
X175000D01*
Y241996D01*
X174000Y240996D01*
X172001D01*
X171001Y241996D01*
Y244995D01*
X299386Y304498D02*
X295387D01*
Y301499D01*
X297387D01*
X295387D01*
Y298500D01*
X301385D02*
Y302499D01*
X303385Y304498D01*
X305384Y302499D01*
Y298500D01*
Y301499D01*
X301385D01*
X307383Y298500D02*
Y304498D01*
X311382Y298500D01*
Y304498D01*
X130000Y198000D02*
Y203998D01*
X132999D01*
X133999Y202998D01*
Y200999D01*
X132999Y199999D01*
X130000D01*
X138997Y203998D02*
X136998D01*
X135998Y202998D01*
Y199000D01*
X136998Y198000D01*
X138997D01*
X139997Y199000D01*
Y202998D01*
X138997Y203998D01*
X141996D02*
Y198000D01*
X143995Y199999D01*
X145995Y198000D01*
Y203998D01*
X151993D02*
X147994D01*
Y198000D01*
X151993D01*
X147994Y200999D02*
X149994D01*
X153992Y198000D02*
Y203998D01*
X156991D01*
X157991Y202998D01*
Y200999D01*
X156991Y199999D01*
X153992D01*
X155992D02*
X157991Y198000D01*
X150371Y381999D02*
X149372Y380999D01*
Y379000D01*
X150371Y378000D01*
X154370D01*
X155370Y379000D01*
Y380999D01*
X154370Y381999D01*
X149372Y383998D02*
Y387997D01*
Y385997D01*
X155370D01*
X133001Y181831D02*
X132002Y182831D01*
X130002D01*
X129003Y181831D01*
Y177832D01*
X130002Y176832D01*
X132002D01*
X133001Y177832D01*
Y179832D01*
X131002D01*
X135001Y176832D02*
Y180831D01*
X138000D01*
X138999Y179832D01*
Y176832D01*
X144997Y182831D02*
Y176832D01*
X141998D01*
X140999Y177832D01*
Y179832D01*
X141998Y180831D01*
X144997D01*
D14*
X253500Y268000D02*
X256500D01*
X253500Y269500D02*
X255000Y268000D01*
X256500Y269500D01*
X253500D02*
X256500D01*
X132500Y298228D02*
X135500D01*
X134000D02*
X135500Y296728D01*
X132500D02*
X134000Y298228D01*
X132500Y296728D02*
X135500D01*
X126500Y296228D02*
X129500D01*
X126500Y297728D02*
X128000Y296228D01*
X129500Y297728D01*
X126500D02*
X129500D01*
X128300Y259400D02*
Y278600D01*
Y259400D02*
X151000D01*
X128300Y278600D02*
X151000D01*
X154133D02*
X155800Y276933D01*
X148100Y259400D02*
Y278600D01*
X148600Y259400D02*
X155800D01*
X148600Y278600D02*
X155800D01*
Y259400D02*
Y278600D01*
X176311Y336622D02*
X179311D01*
X177811D02*
X179311Y335122D01*
X176311D02*
X177811Y336622D01*
X176311Y335122D02*
X179311D01*
X170310Y334622D02*
X173310D01*
X170310Y336122D02*
X171810Y334622D01*
X173310Y336122D01*
X170310D02*
X173310D01*
X284732Y199268D02*
Y232732D01*
X251268Y199268D02*
X284732D01*
X251268D02*
Y232732D01*
X284732D01*
X277449Y216000D02*
X284732D01*
Y216197D01*
X277111Y217607D02*
X284284Y218871D01*
X276694Y219164D02*
X283538Y221655D01*
X271164Y224694D02*
X273656Y231538D01*
X269607Y225111D02*
X270871Y232284D01*
X268197Y225252D02*
Y232535D01*
X265325Y232087D02*
X266590Y224915D01*
X262541Y231341D02*
X265033Y224497D01*
X252659Y221459D02*
X259503Y218968D01*
X251913Y218674D02*
X259085Y217410D01*
X251661Y215803D02*
X258945Y215803D01*
X251913Y213129D02*
X259085Y214393D01*
X252659Y210345D02*
X259503Y212836D01*
X253877Y207732D02*
X260184Y211374D01*
X255530Y205371D02*
X261109Y210053D01*
X257568Y203333D02*
X262250Y208913D01*
X259929Y201680D02*
X263571Y207987D01*
X272626Y208184D02*
X276268Y201877D01*
X273947Y209109D02*
X278629Y203530D01*
X275087Y210250D02*
X280667Y205568D01*
X276012Y211571D02*
X282320Y207929D01*
X276694Y213033D02*
X283538Y210541D01*
X277111Y214590D02*
X284284Y213326D01*
X277252Y216197D02*
X284535Y216197D01*
X284732Y139268D02*
Y172732D01*
X251268Y139268D02*
X284732D01*
X251268D02*
Y172732D01*
X284732D01*
X277449Y156000D02*
X284732D01*
Y156197D01*
X277111Y157607D02*
X284284Y158871D01*
X276694Y159164D02*
X283538Y161655D01*
X271164Y164694D02*
X273656Y171538D01*
X269607Y165111D02*
X270871Y172284D01*
X268197Y165252D02*
Y172535D01*
X265325Y172087D02*
X266590Y164915D01*
X262541Y171341D02*
X265033Y164497D01*
X252659Y161459D02*
X259503Y158967D01*
X251913Y158675D02*
X259085Y157410D01*
X251661Y155803D02*
X258945Y155803D01*
X251913Y153129D02*
X259085Y154393D01*
X252659Y150345D02*
X259503Y152836D01*
X253877Y147732D02*
X260184Y151374D01*
X255530Y145371D02*
X261109Y150053D01*
X257568Y143333D02*
X262250Y148913D01*
X259929Y141680D02*
X263571Y147987D01*
X272626Y148184D02*
X276268Y141877D01*
X273947Y149109D02*
X278629Y143530D01*
X275087Y150250D02*
X280667Y145568D01*
X276012Y151571D02*
X282320Y147929D01*
X276694Y153033D02*
X283538Y150541D01*
X277111Y154590D02*
X284284Y153325D01*
X277252Y156197D02*
X284535Y156197D01*
X176696Y141980D02*
X205303D01*
X172496Y131220D02*
Y137780D01*
X176696Y141980D01*
X172496Y131220D02*
X176696Y127020D01*
X205304D02*
X209504Y131220D01*
Y137780D01*
X176697Y127020D02*
X205304D01*
Y141980D02*
X209504Y137780D01*
X157400Y389700D02*
X176600D01*
X157400Y367000D02*
Y389700D01*
X176600Y367000D02*
Y389700D01*
X174933Y362200D02*
X176600Y363867D01*
X157400Y369900D02*
X176600D01*
X157400Y362200D02*
Y369400D01*
X176600Y362200D02*
Y369400D01*
X157400Y362200D02*
X176600D01*
X166812Y261436D02*
Y264435D01*
X168312D01*
X168812Y263935D01*
Y262936D01*
X168312Y262436D01*
X166812D01*
X167812D02*
X168812Y261436D01*
X171810Y264435D02*
X169811D01*
Y262936D01*
X170811Y263436D01*
X171311D01*
X171810Y262936D01*
Y261936D01*
X171311Y261436D01*
X170311D01*
X169811Y261936D01*
X163979Y349500D02*
Y352500D01*
X165479D01*
X165979Y352000D01*
Y351000D01*
X165479Y350500D01*
X163979D01*
X164979D02*
X165979Y349500D01*
X166979D02*
X167978D01*
X167478D01*
Y352500D01*
X166979Y352000D01*
X169478D02*
X169978Y352500D01*
X170977D01*
X171477Y352000D01*
Y351500D01*
X170977Y351000D01*
X170477D01*
X170977D01*
X171477Y350500D01*
Y350000D01*
X170977Y349500D01*
X169978D01*
X169478Y350000D01*
X132359Y289305D02*
Y286306D01*
X133859D01*
X134358Y286806D01*
Y288805D01*
X133859Y289305D01*
X132359D01*
X137357Y286306D02*
X135358D01*
X137357Y288306D01*
Y288805D01*
X136858Y289305D01*
X135858D01*
X135358Y288805D01*
X125485Y289305D02*
Y286306D01*
X126985D01*
X127485Y286806D01*
Y288805D01*
X126985Y289305D01*
X125485D01*
X128484Y288805D02*
X128984Y289305D01*
X129984D01*
X130484Y288805D01*
Y288306D01*
X129984Y287806D01*
X129484D01*
X129984D01*
X130484Y287306D01*
Y286806D01*
X129984Y286306D01*
X128984D01*
X128484Y286806D01*
X129501Y254516D02*
Y257515D01*
X131000D01*
X131500Y257015D01*
Y256016D01*
X131000Y255516D01*
X129501D01*
X134499Y254516D02*
X132500D01*
X134499Y256516D01*
Y257015D01*
X133999Y257515D01*
X133000D01*
X132500Y257015D01*
X177501Y326621D02*
Y323622D01*
X179000D01*
X179500Y324122D01*
Y326121D01*
X179000Y326621D01*
X177501D01*
X182499D02*
X181500Y326121D01*
X180500Y325121D01*
Y324122D01*
X181000Y323622D01*
X181999D01*
X182499Y324122D01*
Y324622D01*
X181999Y325121D01*
X180500D01*
X154501Y292500D02*
Y295499D01*
X156000D01*
X156500Y295000D01*
Y294000D01*
X156000Y293500D01*
X154501D01*
X155500D02*
X156500Y292500D01*
X159499D02*
X157500D01*
X159499Y294500D01*
Y295000D01*
X158999Y295499D01*
X158000D01*
X157500Y295000D01*
X149251Y349500D02*
Y352500D01*
X150751D01*
X151251Y352000D01*
Y351000D01*
X150751Y350500D01*
X149251D01*
X150251D02*
X151251Y349500D01*
X152250D02*
X153250D01*
X152750D01*
Y352500D01*
X152250Y352000D01*
X154749D02*
X155249Y352500D01*
X156249D01*
X156749Y352000D01*
Y350000D01*
X156249Y349500D01*
X155249D01*
X154749Y350000D01*
Y352000D01*
X165288Y279501D02*
Y282500D01*
X166788D01*
X167288Y282000D01*
Y281000D01*
X166788Y280500D01*
X165288D01*
X166288D02*
X167288Y279501D01*
X169787D02*
Y282500D01*
X168287Y281000D01*
X170287D01*
X171773Y181161D02*
Y178662D01*
X172272Y178162D01*
X173272D01*
X173772Y178662D01*
Y181161D01*
X176771Y178162D02*
X174771D01*
X176771Y180161D01*
Y180661D01*
X176271Y181161D01*
X175271D01*
X174771Y180661D01*
X139001Y299500D02*
Y302500D01*
X140500D01*
X141000Y302000D01*
Y301000D01*
X140500Y300500D01*
X139001D01*
X140000D02*
X141000Y299500D01*
X142000D02*
X142999D01*
X142499D01*
Y302500D01*
X142000Y302000D01*
X130500Y341000D02*
X130000Y341499D01*
X129001D01*
X128501Y341000D01*
Y339000D01*
X129001Y338500D01*
X130000D01*
X130500Y339000D01*
X133499Y341499D02*
X131500D01*
Y340000D01*
X132500Y340500D01*
X132999D01*
X133499Y340000D01*
Y339000D01*
X132999Y338500D01*
X132000D01*
X131500Y339000D01*
X129001Y324047D02*
Y321548D01*
X129500Y321048D01*
X130500D01*
X131000Y321548D01*
Y324047D01*
X132000Y321048D02*
X132999D01*
X132500D01*
Y324047D01*
X132000Y323547D01*
X177063Y294343D02*
Y297342D01*
X178562D01*
X179062Y296842D01*
Y295842D01*
X178562Y295342D01*
X177063D01*
X178063D02*
X179062Y294343D01*
X180062D02*
X181062D01*
X180562D01*
Y297342D01*
X180062Y296842D01*
X182561Y294343D02*
X183561D01*
X183061D01*
Y297342D01*
X182561Y296842D01*
X138251Y349500D02*
Y352500D01*
X139751D01*
X140251Y352000D01*
Y351000D01*
X139751Y350500D01*
X138251D01*
X139251D02*
X140251Y349500D01*
X141250D02*
X142250D01*
X141750D01*
Y352500D01*
X141250Y352000D01*
X145749Y352500D02*
X143749D01*
Y351000D01*
X144749Y351500D01*
X145249D01*
X145749Y351000D01*
Y350000D01*
X145249Y349500D01*
X144249D01*
X143749Y350000D01*
X190088Y222500D02*
Y225500D01*
X191587D01*
X192087Y225000D01*
Y224000D01*
X191587Y223500D01*
X190088D01*
X191087D02*
X192087Y222500D01*
X193087D02*
X194086D01*
X193587D01*
Y225500D01*
X193087Y225000D01*
X197085Y222500D02*
Y225500D01*
X195586Y224000D01*
X197585D01*
X159501Y338500D02*
Y341499D01*
X161000D01*
X161500Y341000D01*
Y340000D01*
X161000Y339500D01*
X159501D01*
X160501D02*
X161500Y338500D01*
X162500Y341000D02*
X163000Y341499D01*
X163999D01*
X164499Y341000D01*
Y340500D01*
X163999Y340000D01*
X164499Y339500D01*
Y339000D01*
X163999Y338500D01*
X163000D01*
X162500Y339000D01*
Y339500D01*
X163000Y340000D01*
X162500Y340500D01*
Y341000D01*
X163000Y340000D02*
X163999D01*
X171311Y311000D02*
X170811Y311500D01*
X169811D01*
X169311Y311000D01*
Y309000D01*
X169811Y308501D01*
X170811D01*
X171311Y309000D01*
X172310Y311000D02*
X172810Y311500D01*
X173810D01*
X174310Y311000D01*
Y310500D01*
X173810Y310000D01*
X173310D01*
X173810D01*
X174310Y309500D01*
Y309000D01*
X173810Y308501D01*
X172810D01*
X172310Y309000D01*
X167210Y302000D02*
X166710Y302500D01*
X165711D01*
X165211Y302000D01*
Y300000D01*
X165711Y299500D01*
X166710D01*
X167210Y300000D01*
X170209Y299500D02*
X168210D01*
X170209Y301500D01*
Y302000D01*
X169709Y302500D01*
X168710D01*
X168210Y302000D01*
X304548Y246499D02*
Y244500D01*
X305548Y243500D01*
X306548Y244500D01*
Y246499D01*
X309547Y245500D02*
X308047D01*
X307547Y245000D01*
Y244000D01*
X308047Y243500D01*
X309547D01*
X310546D02*
X311546D01*
X311046D01*
Y246499D01*
X310546Y246000D01*
X208002Y175999D02*
Y173000D01*
X209502D01*
X210002Y173500D01*
Y175499D01*
X209502Y175999D01*
X208002D01*
X212501Y173000D02*
X211501D01*
X211001Y173500D01*
Y174500D01*
X211501Y175000D01*
X212501D01*
X213001Y174500D01*
Y174000D01*
X211001D01*
X214000Y175999D02*
Y173000D01*
X215500D01*
X216000Y173500D01*
Y174000D01*
Y174500D01*
X215500Y175000D01*
X214000D01*
X216999D02*
Y173500D01*
X217499Y173000D01*
X218999D01*
Y175000D01*
X220998Y172001D02*
X221498D01*
X221998Y172501D01*
Y175000D01*
X220498D01*
X219998Y174500D01*
Y173500D01*
X220498Y173000D01*
X221998D01*
X262570Y258501D02*
Y261500D01*
X264070D01*
X264569Y261000D01*
Y260000D01*
X264070Y259500D01*
X262570D01*
X263570D02*
X264569Y258501D01*
X265569D02*
X266569D01*
X266069D01*
Y261500D01*
X265569Y261000D01*
X270068Y258501D02*
X268068D01*
X270068Y260500D01*
Y261000D01*
X269568Y261500D01*
X268568D01*
X268068Y261000D01*
X246501Y251501D02*
Y254500D01*
X248000D01*
X248500Y254000D01*
Y253000D01*
X248000Y252500D01*
X246501D01*
X247500D02*
X248500Y251501D01*
X249500Y254500D02*
X251499D01*
Y254000D01*
X249500Y252000D01*
Y251501D01*
X172700Y144700D02*
Y147699D01*
X174199D01*
X174699Y147199D01*
Y146200D01*
X174199Y145700D01*
X172700D01*
X177698Y147699D02*
X175699D01*
Y146200D01*
X176699Y146699D01*
X177199D01*
X177698Y146200D01*
Y145200D01*
X177199Y144700D01*
X176199D01*
X175699Y145200D01*
X174272Y189941D02*
X173772Y190441D01*
X172772D01*
X172272Y189941D01*
Y187942D01*
X172772Y187442D01*
X173772D01*
X174272Y187942D01*
X175271Y187442D02*
X176271D01*
X175771D01*
Y190441D01*
X175271Y189941D01*
X197001Y154543D02*
X196501Y155043D01*
X195501D01*
X195002Y154543D01*
Y152544D01*
X195501Y152044D01*
X196501D01*
X197001Y152544D01*
X200000Y155043D02*
X199000Y154543D01*
X198001Y153543D01*
Y152544D01*
X198501Y152044D01*
X199500D01*
X200000Y152544D01*
Y153044D01*
X199500Y153543D01*
X198001D01*
X236500Y236510D02*
X236000Y237010D01*
X235001D01*
X234501Y236510D01*
Y234511D01*
X235001Y234011D01*
X236000D01*
X236500Y234511D01*
X238999Y234011D02*
Y237010D01*
X237500Y235510D01*
X239499D01*
X226500Y164838D02*
X226000Y165338D01*
X225001D01*
X224501Y164838D01*
Y162839D01*
X225001Y162339D01*
X226000D01*
X226500Y162839D01*
X227500Y165338D02*
X229499D01*
Y164838D01*
X227500Y162839D01*
Y162339D01*
X197500Y354002D02*
X194501D01*
Y355501D01*
X195000Y356001D01*
X196000D01*
X196500Y355501D01*
Y354002D01*
Y355001D02*
X197500Y356001D01*
X194501Y357001D02*
X197500D01*
Y359000D01*
X194501Y360000D02*
X195000D01*
X196000Y360999D01*
X195000Y361999D01*
X194501D01*
X196000Y360999D02*
X197500D01*
Y362999D02*
Y363998D01*
Y363498D01*
X194501D01*
X195000Y362999D01*
X285501Y369500D02*
Y372499D01*
X287000D01*
X287500Y372000D01*
Y371000D01*
X287000Y370500D01*
X285501D01*
X288500Y372000D02*
X289000Y372499D01*
X289999D01*
X290499Y372000D01*
Y371500D01*
X289999Y371000D01*
X289499D01*
X289999D01*
X290499Y370500D01*
Y370000D01*
X289999Y369500D01*
X289000D01*
X288500Y370000D01*
X287501Y140500D02*
Y143500D01*
X289001D01*
X289500Y143000D01*
Y142000D01*
X289001Y141500D01*
X287501D01*
X288501D02*
X289500Y140500D01*
X290500Y143500D02*
Y141500D01*
X291500Y140500D01*
X292499Y141500D01*
Y143500D01*
X293499Y140500D02*
X294499D01*
X293999D01*
Y143500D01*
X293499Y143000D01*
X291251Y220500D02*
Y223499D01*
X292751D01*
X293251Y223000D01*
Y222000D01*
X292751Y221500D01*
X291251D01*
X292251D02*
X293251Y220500D01*
X294250D02*
X295250D01*
X294750D01*
Y223499D01*
X294250Y223000D01*
X296749Y221000D02*
X297249Y220500D01*
X298249D01*
X298749Y221000D01*
Y223000D01*
X298249Y223499D01*
X297249D01*
X296749Y223000D01*
Y222500D01*
X297249Y222000D01*
X298749D01*
X303251Y223499D02*
Y220500D01*
X304751D01*
X305251Y221000D01*
Y223000D01*
X304751Y223499D01*
X303251D01*
X306250Y220500D02*
X307250D01*
X306750D01*
Y223499D01*
X306250Y223000D01*
X308749D02*
X309249Y223499D01*
X310249D01*
X310749Y223000D01*
Y221000D01*
X310249Y220500D01*
X309249D01*
X308749Y221000D01*
Y223000D01*
X244501Y270114D02*
Y267115D01*
X246000D01*
X246500Y267615D01*
Y269614D01*
X246000Y270114D01*
X244501D01*
X249499D02*
X247500D01*
Y268614D01*
X248499Y269114D01*
X248999D01*
X249499Y268614D01*
Y267615D01*
X248999Y267115D01*
X248000D01*
X247500Y267615D01*
X290970Y157001D02*
Y160000D01*
X292470D01*
X292969Y159500D01*
Y158500D01*
X292470Y158000D01*
X290970D01*
X291970D02*
X292969Y157001D01*
X293969D02*
X294969D01*
X294469D01*
Y160000D01*
X293969Y159500D01*
X296468Y160000D02*
X298468D01*
Y159500D01*
X296468Y157500D01*
Y157001D01*
X291251Y187501D02*
Y190499D01*
X292751D01*
X293251Y190000D01*
Y189000D01*
X292751Y188500D01*
X291251D01*
X292251D02*
X293251Y187501D01*
X294250D02*
X295250D01*
X294750D01*
Y190499D01*
X294250Y190000D01*
X296749D02*
X297249Y190499D01*
X298249D01*
X298749Y190000D01*
Y189500D01*
X298249Y189000D01*
X298749Y188500D01*
Y188000D01*
X298249Y187501D01*
X297249D01*
X296749Y188000D01*
Y188500D01*
X297249Y189000D01*
X296749Y189500D01*
Y190000D01*
X297249Y189000D02*
X298249D01*
X303220Y160000D02*
Y157001D01*
X304719D01*
X305219Y157500D01*
Y159500D01*
X304719Y160000D01*
X303220D01*
X306219Y159500D02*
X306719Y160000D01*
X307718D01*
X308218Y159500D01*
Y159000D01*
X307718Y158500D01*
X308218Y158000D01*
Y157500D01*
X307718Y157001D01*
X306719D01*
X306219Y157500D01*
Y158000D01*
X306719Y158500D01*
X306219Y159000D01*
Y159500D01*
X306719Y158500D02*
X307718D01*
X304501Y190499D02*
Y187501D01*
X306000D01*
X306500Y188000D01*
Y190000D01*
X306000Y190499D01*
X304501D01*
X307500Y188000D02*
X308000Y187501D01*
X308999D01*
X309499Y188000D01*
Y190000D01*
X308999Y190499D01*
X308000D01*
X307500Y190000D01*
Y189500D01*
X308000Y189000D01*
X309499D01*
X287001Y200500D02*
Y203500D01*
X288501D01*
X289001Y203000D01*
Y202000D01*
X288501Y201500D01*
X287001D01*
X288001D02*
X289001Y200500D01*
X290000Y203500D02*
Y201500D01*
X291000Y200500D01*
X292000Y201500D01*
Y203500D01*
X294999Y200500D02*
X292999D01*
X294999Y202500D01*
Y203000D01*
X294499Y203500D01*
X293499D01*
X292999Y203000D01*
X141409Y284501D02*
Y287499D01*
X142909D01*
X143409Y287000D01*
Y286000D01*
X142909Y285500D01*
X141409D01*
X142409D02*
X143409Y284501D01*
X146408Y287499D02*
X145408Y287000D01*
X144408Y286000D01*
Y285000D01*
X144908Y284501D01*
X145908D01*
X146408Y285000D01*
Y285500D01*
X145908Y286000D01*
X144408D01*
X289501Y270201D02*
Y273200D01*
X291000D01*
X291500Y272701D01*
Y271701D01*
X291000Y271201D01*
X289501D01*
X290500D02*
X291500Y270201D01*
X292500Y270701D02*
X293000Y270201D01*
X293999D01*
X294499Y270701D01*
Y272701D01*
X293999Y273200D01*
X293000D01*
X292500Y272701D01*
Y272201D01*
X293000Y271701D01*
X294499D01*
X169044Y326621D02*
Y323622D01*
X170544D01*
X171044Y324122D01*
Y326121D01*
X170544Y326621D01*
X169044D01*
X172043D02*
X174042D01*
Y326121D01*
X172043Y324122D01*
Y323622D01*
X277113Y258500D02*
Y255501D01*
X278613D01*
X279113Y256000D01*
Y258000D01*
X278613Y258500D01*
X277113D01*
X281612Y255501D02*
Y258500D01*
X280112Y257000D01*
X282112D01*
X159001Y249500D02*
Y252500D01*
X160500D01*
X161000Y252000D01*
Y251000D01*
X160500Y250500D01*
X159001D01*
X162000Y249500D02*
X162999D01*
X162499D01*
Y252500D01*
X162000Y252000D01*
X179501Y363351D02*
Y366350D01*
X181001D01*
X181501Y365850D01*
Y364850D01*
X181001Y364350D01*
X179501D01*
X184000Y363351D02*
Y366350D01*
X182500Y364850D01*
X184500D01*
X272613Y279000D02*
Y281000D01*
X272113Y281500D01*
X271113D01*
X270613Y281000D01*
Y279000D01*
X271113Y278501D01*
X272113D01*
X271613Y279500D02*
X272613Y278501D01*
X272113D02*
X272613Y279000D01*
X273612Y278501D02*
X274612D01*
X274112D01*
Y281500D01*
X273612Y281000D01*
X221003Y128250D02*
X220503Y128749D01*
X219503D01*
X219004Y128250D01*
Y127750D01*
X219503Y127250D01*
X220503D01*
X221003Y126750D01*
Y126250D01*
X220503Y125750D01*
X219503D01*
X219004Y126250D01*
X222003Y125251D02*
X224002D01*
X225002Y125750D02*
Y128749D01*
X226501D01*
X227001Y128250D01*
Y127250D01*
X226501Y126750D01*
X225002D01*
X226001D02*
X227001Y125750D01*
X230000Y128749D02*
X228001D01*
Y125750D01*
X230000D01*
X228001Y127250D02*
X229000D01*
X232999Y128250D02*
X232499Y128749D01*
X231500D01*
X231000Y128250D01*
Y127750D01*
X231500Y127250D01*
X232499D01*
X232999Y126750D01*
Y126250D01*
X232499Y125750D01*
X231500D01*
X231000Y126250D01*
X235998Y128749D02*
X233999D01*
Y125750D01*
X235998D01*
X233999Y127250D02*
X234998D01*
X236998Y128749D02*
X238997D01*
X237997D01*
Y125750D01*
X239997D02*
X240997D01*
X240497D01*
Y128749D01*
X239997Y128250D01*
X224251Y155500D02*
Y158500D01*
X225751D01*
X226251Y158000D01*
Y157000D01*
X225751Y156500D01*
X224251D01*
X225251D02*
X226251Y155500D01*
X227250D02*
X228250D01*
X227750D01*
Y158500D01*
X227250Y158000D01*
X231749Y158500D02*
X230749Y158000D01*
X229749Y157000D01*
Y156000D01*
X230249Y155500D01*
X231249D01*
X231749Y156000D01*
Y156500D01*
X231249Y157000D01*
X229749D01*
D15*
X252499Y265990D02*
X257347D01*
X252499Y263507D02*
Y274530D01*
X257347Y263478D02*
Y274502D01*
X131653Y300239D02*
X136501D01*
Y291698D02*
Y302722D01*
X131653Y291727D02*
Y302750D01*
X125499Y294218D02*
X130347D01*
X125499Y291735D02*
Y302759D01*
X130347Y291706D02*
Y302730D01*
X175464Y338632D02*
X180312D01*
Y330092D02*
Y341115D01*
X175464Y330120D02*
Y341144D01*
X169309Y332612D02*
X174157D01*
X169309Y330129D02*
Y341152D01*
X174157Y330100D02*
Y341124D01*
X199205Y168169D02*
Y182736D01*
X179126Y168169D02*
Y182736D01*
X199205D01*
X179126Y168169D02*
X199205D01*
X138027Y325256D02*
X157712D01*
X138027Y318169D02*
X157712D01*
Y325256D01*
X138027Y318169D02*
Y325256D01*
X199598Y306488D02*
Y367512D01*
X274402D01*
Y306488D02*
Y367512D01*
X199598Y306488D02*
X274402D01*
X275368Y273299D02*
X278518D01*
Y269756D02*
Y273299D01*
X266707D02*
X269857D01*
X266707Y269756D02*
Y273299D01*
D16*
X170378Y270213D02*
Y271787D01*
X167622Y270213D02*
Y271787D01*
X147213Y292622D02*
X148787D01*
X147213Y295378D02*
X148787D01*
X152213Y344622D02*
X153787D01*
X152213Y347378D02*
X153787D01*
X166213Y344622D02*
X167787D01*
X166213Y347378D02*
X167787D01*
X169606Y288018D02*
Y289593D01*
X166850Y288018D02*
Y289593D01*
X234832Y246000D02*
X240737D01*
X181690Y303213D02*
Y304787D01*
X178934Y303213D02*
Y304787D01*
X147472Y299622D02*
X149047D01*
X147472Y302378D02*
X149047D01*
X142000Y338100D02*
Y341900D01*
X141213Y344622D02*
X142787D01*
X141213Y347378D02*
X142787D01*
X181980Y225378D02*
X183555D01*
X181980Y222622D02*
X183555D01*
X152213Y338622D02*
X153787D01*
X152213Y341378D02*
X153787D01*
X161047Y314000D02*
X166953D01*
X159000Y299100D02*
Y302900D01*
X171319Y199000D02*
X177224D01*
X188776Y151950D02*
Y155750D01*
X265213Y253622D02*
X266787D01*
X265213Y256378D02*
X266787D01*
X256441Y252213D02*
Y253787D01*
X253685Y252213D02*
Y253787D01*
X218900Y162100D02*
Y165900D01*
X293813Y214822D02*
X295387D01*
X293813Y217578D02*
X295387D01*
X307100Y214231D02*
Y218168D01*
X313498Y214231D02*
Y218168D01*
X307000Y182032D02*
Y185968D01*
X313398Y182032D02*
Y185968D01*
X294213Y182622D02*
X295787D01*
X294213Y185378D02*
X295787D01*
X293531Y152122D02*
X295106D01*
X293531Y154878D02*
X295106D01*
X306819Y151532D02*
Y155468D01*
X313216Y151532D02*
Y155468D01*
X284032Y257000D02*
X287968D01*
X284032Y263398D02*
X287968D01*
X287378Y271213D02*
Y272787D01*
X284622Y271213D02*
Y272787D01*
X152121Y284622D02*
X153696D01*
X152121Y287378D02*
X153696D01*
X218213Y155622D02*
X219787D01*
X218213Y158378D02*
X219787D01*
X203213Y242622D02*
X204787D01*
X203213Y245378D02*
X204787D01*
X216653Y242032D02*
Y245969D01*
X223051Y242032D02*
Y245969D01*
D17*
X262000Y219500D02*
X274000Y212500D01*
X262000Y159500D02*
X274000Y152500D01*
D18*
X282740Y367000D02*
X322898D01*
X283740Y347000D02*
Y367000D01*
X282740Y347000D02*
Y367000D01*
X322898Y347000D02*
Y367000D01*
Y307000D02*
Y347000D01*
X282740Y307000D02*
X322898D01*
X282740D02*
Y347000D01*
X283740Y307000D02*
Y347000D01*
X165213Y207000D02*
Y247000D01*
X166213Y207000D02*
Y247000D01*
X126055D02*
X166213D01*
X126055Y207000D02*
Y247000D01*
Y207000D02*
X166213D01*
D19*
X282000Y295000D02*
X294146Y307146D01*
X211884Y294584D02*
X222600Y305300D01*
X201537Y294772D02*
X212253Y305488D01*
X191984Y294772D02*
X202700Y305488D01*
X192521Y305922D02*
X199598Y313000D01*
X192521Y314922D02*
X199598Y322000D01*
X266189Y369134D02*
X276905Y379850D01*
X316130Y379130D02*
X322000Y385000D01*
X317130Y370130D02*
X322000Y375000D01*
X324130Y327130D02*
X329000Y332000D01*
X324130Y347130D02*
X329000Y352000D01*
X324130Y357130D02*
X329000Y362000D01*
X324130Y367130D02*
X329250Y372250D01*
X314000Y367000D02*
X329000Y382000D01*
X304199Y367199D02*
X327000Y390000D01*
X294000Y367000D02*
X320000Y393000D01*
X274386Y327284D02*
X285102Y338000D01*
X274386Y337284D02*
X285102Y348000D01*
X274386Y347284D02*
X285102Y358000D01*
X291725Y374925D02*
X310000Y393200D01*
X274189Y357134D02*
X283526Y366470D01*
X274386Y317284D02*
X285102Y328000D01*
X251605Y294772D02*
X262321Y305488D01*
X241776Y294772D02*
X252492Y305488D01*
X231284Y294772D02*
X242000Y305488D01*
X221984Y294772D02*
X232700Y305488D01*
X192521Y325922D02*
X199598Y333000D01*
X192521Y345922D02*
X199598Y353000D01*
X274450Y367650D02*
X300000Y393200D01*
X264850Y367650D02*
X290400Y393200D01*
X254750Y367650D02*
X280300Y393200D01*
X244850Y367650D02*
X270400Y393200D01*
X234950Y367650D02*
X260500Y393200D01*
X214450Y367450D02*
X240000Y393000D01*
X224650Y367650D02*
X250200Y393200D01*
X204850Y367850D02*
X220657Y383657D01*
X230000Y393000D01*
X192314Y385314D02*
X200000Y393000D01*
X191650Y374650D02*
X210000Y393000D01*
X193256Y366256D02*
X220000Y393000D01*
X192221Y335222D02*
X199299Y342299D01*
X321825Y294825D02*
X329500Y302500D01*
X310912Y293913D02*
X329000Y312000D01*
X271701Y294701D02*
X285000Y308000D01*
X261771Y294771D02*
X285000Y318000D01*
D20*
X190000Y292000D02*
X326000D01*
X190000D02*
Y390000D01*
D21*
X201643Y237501D02*
Y240499D01*
X203142D01*
X203642Y240000D01*
Y239000D01*
X203142Y238500D01*
X201643D01*
X202642D02*
X203642Y237501D01*
X204642Y240000D02*
X205142Y240499D01*
X206141D01*
X206641Y240000D01*
Y239500D01*
X206141Y239000D01*
X205641D01*
X206141D01*
X206641Y238500D01*
Y238000D01*
X206141Y237501D01*
X205142D01*
X204642Y238000D01*
X214654Y240295D02*
Y237296D01*
X216154D01*
X216653Y237796D01*
Y239795D01*
X216154Y240295D01*
X214654D01*
X217653Y237296D02*
X218653D01*
X218153D01*
Y240295D01*
X217653Y239795D01*
D22*
X326449Y317000D02*
D03*
Y337000D02*
D03*
M02*
